<svg width="24" height="25" viewBox="0 0 24 25" fill="none" xmlns="http://www.w3.org/2000/svg">
<path d="M15.0002 8.83334L19.3335 4.5" stroke="#00C578" stroke-width="1.3" stroke-linecap="round" stroke-linejoin="round"/>
<path d="M19.3335 8.83337L19.3335 4.50003L15.0002 4.50003" stroke="#00C578" stroke-width="1.3" stroke-linecap="round" stroke-linejoin="round"/>
<path fill-rule="evenodd" clip-rule="evenodd" d="M4.5 10.0713C3.67157 10.0713 3 10.7429 3 11.5713V18.2856C3 19.114 3.67157 19.7856 4.5 19.7856H13.6428C14.4713 19.7856 15.1428 19.114 15.1428 18.2856V16.1521L18.5542 17.8511C19.219 18.1822 20 17.6987 20 16.956V12.9064C20 12.1623 19.2164 11.6789 18.5514 12.0126L15.1428 13.7236V11.5713C15.1428 10.7429 14.4713 10.0713 13.6428 10.0713H4.5Z" fill="#72808E"/>
</svg>
