<svg width="24" height="24" viewBox="0 0 24 24" fill="none" xmlns="http://www.w3.org/2000/svg">
<path d="M15.0002 8.33334L19.3335 4" stroke="#EF4E49" stroke-width="1.3" stroke-linecap="round" stroke-linejoin="round"/>
<path d="M19.3335 8.33338L19.3335 4.00003L15.0002 4.00003" stroke="#EF4E49" stroke-width="1.3" stroke-linecap="round" stroke-linejoin="round"/>
<path fill-rule="evenodd" clip-rule="evenodd" d="M4.5 9.57129C3.67157 9.57129 3 10.2429 3 11.0713V17.7856C3 18.614 3.67157 19.2856 4.5 19.2856H13.6428C14.4713 19.2856 15.1428 18.614 15.1428 17.7856V15.6521L18.5542 17.3511C19.219 17.6822 20 17.1987 20 16.456V12.4064C20 11.6623 19.2164 11.1789 18.5514 11.5126L15.1428 13.2236V11.0713C15.1428 10.2429 14.4713 9.57129 13.6428 9.57129H4.5Z" fill="#72808E"/>
</svg>
