<svg width="24" height="24" viewBox="0 0 24 24" fill="none" xmlns="http://www.w3.org/2000/svg">
<path fill-rule="evenodd" clip-rule="evenodd" d="M8.15215 14.2816C10.6637 17.3208 16.7844 20.2334 18.2618 19.5791C19.7392 18.9249 20.0558 17.5108 19.9925 16.8565C19.9292 16.2022 16.5734 14.1972 15.7291 13.8173C14.8849 13.4374 13.914 14.6615 13.4497 15.1891C12.9643 15.6957 11.107 14.155 10.3049 13.374C10.3049 13.374 8.19436 11.0102 8.67979 10.5037C9.16523 9.99712 10.3683 8.98405 9.94614 8.16092C9.52403 7.3378 7.39234 4.0453 6.71696 4.00308C6.06268 3.96087 4.6697 4.34078 4.07874 5.83929C3.48777 7.3378 6.31595 13.0575 9.46071 15.4424" fill="#72808E"/>
<path d="M14.0002 9.33339L19.3335 4.00006" stroke="#00C578" stroke-width="1.3" stroke-linecap="round" stroke-linejoin="round"/>
<path d="M19.3335 9.33337L19.3335 4.00004L14.0002 4.00004" stroke="#00C578" stroke-width="1.3" stroke-linecap="round" stroke-linejoin="round"/>
</svg>
