<svg width="80" height="80" viewBox="0 0 80 80" fill="none" xmlns="http://www.w3.org/2000/svg">
<path d="M72.164 7.82107L40.711 0.0793128C40.2932 -0.0264376 39.855 -0.0264376 39.4371 0.0793128L7.98416 7.82107C7.41736 7.96086 6.91425 8.28311 6.55476 8.73664C6.19527 9.19016 6.00002 9.74895 6 10.3242V46.4524C6 55.3498 9.58994 63.8827 15.9801 70.1741C22.3702 76.4655 31.0371 80 40.0741 80C49.1111 80 57.778 76.4655 64.1681 70.1741C70.5582 63.8827 74.1481 55.3498 74.1481 46.4524V10.3242C74.1481 9.74895 73.9529 9.19016 73.5934 8.73664C73.2339 8.28311 72.7308 7.96086 72.164 7.82107Z" fill="#E5EFFF"/>
<path fill-rule="evenodd" clip-rule="evenodd" d="M31.1033 27.4695C31.1033 24.1728 34.1854 20 39.7565 20C45.3256 20 48.4098 24.1731 48.4098 27.4695V34.5717H52.4098V27.4695C52.4098 21.9309 47.5016 16 39.7565 16C32.0088 16 27.1033 21.9312 27.1033 27.4695V34.5717H31.1033V27.4695ZM52.6292 35.7555H26.8839C24.1875 35.7555 22 37.9074 22 40.5636V59.3559C22 62.0121 24.1875 64.1641 26.8839 64.1641H52.6292C55.3257 64.1641 57.5131 62.0121 57.5131 59.3559V40.5636C57.5131 37.9074 55.3257 35.7555 52.6292 35.7555Z" fill="#0068FF"/>
<path fill-rule="evenodd" clip-rule="evenodd" d="M41.3311 49.7758C42.3571 49.2894 43.0667 48.2442 43.0667 47.0333C43.0667 45.3581 41.7086 44 40.0333 44C38.3581 44 37 45.3581 37 47.0333C37 48.2442 37.7095 49.2894 38.7355 49.7758C38.7341 49.8055 38.7333 49.8354 38.7333 49.8656V55.4678C38.7333 56.314 39.3154 57 40.0333 57C40.7513 57 41.3333 56.314 41.3333 55.4678V49.8656C41.3333 49.8354 41.3326 49.8055 41.3311 49.7758Z" fill="white"/>
<circle cx="55" cy="61" r="9" fill="white"/>
<circle cx="55" cy="61" r="7.8" fill="#E7F5EF"/>
<path fill-rule="evenodd" clip-rule="evenodd" d="M58.9865 57.2356C59.1581 57.0389 59.4566 57.0187 59.6532 57.1902C59.8347 57.3486 59.8659 57.6151 59.7347 57.8098L59.6985 57.8569L53.513 64.9444C53.345 65.137 53.0577 65.1589 52.8631 65.0037L52.8199 64.9648L50.5003 62.6023C50.3175 62.4161 50.3203 62.1169 50.5065 61.9341C50.6784 61.7653 50.9465 61.7547 51.1305 61.9005L51.1747 61.9402L53.1362 63.9382L58.9865 57.2356Z" fill="#15A85F"/>
</svg>
