<svg width="20" height="20" viewBox="0 0 20 20" fill="none" xmlns="http://www.w3.org/2000/svg">
<path fill-rule="evenodd" clip-rule="evenodd" d="M1.66675 9.99935C1.66675 5.39698 5.39771 1.66602 10.0001 1.66602C14.6025 1.66602 18.3334 5.39698 18.3334 9.99935C18.3334 14.6017 14.6025 18.3327 10.0001 18.3327C5.39771 18.3327 1.66675 14.6017 1.66675 9.99935ZM16.9728 9.99932C16.9728 6.14836 13.851 3.02653 10.0001 3.02653C6.14909 3.02653 3.02727 6.14836 3.02727 9.99932C3.02727 13.8503 6.14909 16.9721 10.0001 16.9721C13.851 16.9721 16.9728 13.8503 16.9728 9.99932Z" fill="#72808E"/>
<path fill-rule="evenodd" clip-rule="evenodd" d="M10.4998 4.91797C10.1777 4.91797 9.9165 5.17914 9.9165 5.5013V10.2597L7.58736 12.5888C7.35955 12.8166 7.35955 13.186 7.58736 13.4138C7.81516 13.6416 8.18451 13.6416 8.41232 13.4138L10.9123 10.9138C11.0217 10.8044 11.0832 10.656 11.0832 10.5013V5.5013C11.0832 5.17914 10.822 4.91797 10.4998 4.91797Z" fill="#72808E"/>
</svg>
