<svg width="28" height="28" viewBox="0 0 28 28" fill="none" xmlns="http://www.w3.org/2000/svg">
<g clip-path="url(#clip0_2161_4061)">
<path d="M14.0003 0.666504C6.66699 0.666504 0.666992 6.6665 0.666992 13.9998C0.666992 21.3332 6.66699 27.3332 14.0003 27.3332C21.3337 27.3332 27.3337 21.3332 27.3337 13.9998C27.3337 6.6665 21.3337 0.666504 14.0003 0.666504ZM15.667 20.6665H12.3337V12.3332H15.667V20.6665ZM14.0003 10.6665C13.0003 10.6665 12.3337 9.99984 12.3337 8.99984C12.3337 7.99984 13.0003 7.33317 14.0003 7.33317C15.0003 7.33317 15.667 7.99984 15.667 8.99984C15.667 9.99984 15.0003 10.6665 14.0003 10.6665Z" fill="#0068FF"/>
</g>
<defs>
<clipPath id="clip0_2161_4061">
<rect width="26.6667" height="26.6667" fill="white" transform="translate(0.666992 0.666504)"/>
</clipPath>
</defs>
</svg>
