<svg version="1.1" xmlns="http://www.w3.org/2000/svg" xmlns:xlink="http://www.w3.org/1999/xlink" width="20" height="20" viewBox="0 0 20 20">
<path id="emoji_activity" d="M10.000,20.002 C4.476,20.002 -0.002,15.524 -0.002,10.000 C-0.002,4.476 4.476,-0.002 10.000,-0.002 C15.524,-0.002 20.002,4.476 20.002,10.000 C20.002,15.523 15.524,20.002 10.000,20.002 zM17.045,10.633 L15.368,8.379 L15.208,5.525 C15.208,5.525 16.576,5.239 16.576,5.239 C15.584,3.874 14.182,2.827 12.545,2.287 C12.545,2.287 12.715,3.422 12.715,3.422 L10.028,4.242 L7.286,3.432 C7.286,3.432 7.445,2.290 7.445,2.290 C5.815,2.830 4.418,3.872 3.429,5.233 C3.429,5.233 4.853,5.570 4.853,5.570 L4.617,8.368 L2.847,10.613 C2.847,10.613 1.876,10.059 1.876,10.059 C1.889,11.809 2.458,13.421 3.410,14.741 C3.410,14.741 3.887,13.776 3.887,13.776 L6.560,14.638 L8.348,16.869 C8.348,16.869 7.539,17.745 7.539,17.745 C8.315,17.992 9.142,18.127 10.000,18.128 C10.895,18.128 11.753,17.979 12.558,17.711 C12.558,17.711 11.739,16.852 11.739,16.852 L13.463,14.634 L16.171,13.717 C16.171,13.717 16.655,14.657 16.655,14.657 C17.569,13.352 18.113,11.768 18.124,10.057 C18.124,10.057 17.045,10.633 17.045,10.633 zM8.044,12.667 L6.887,9.135 L10.000,6.860 L13.133,9.135 L11.935,12.667 L8.044,12.667 z" fill="#A1AAB2" />
</svg>
