<svg width="82" height="82" viewBox="0 0 82 82" fill="none" xmlns="http://www.w3.org/2000/svg">
<rect x="0.996094" y="0.996094" width="80.0078" height="80.0078" rx="40.0039" fill="#F7F7F8"/>
<path fill-rule="evenodd" clip-rule="evenodd" d="M37.7415 23.36C38.7522 22.8583 39.8721 22.6164 40.9998 22.6563C42.1275 22.6164 43.2473 22.8583 44.258 23.36C45.2687 23.8618 46.1383 24.6077 46.7882 25.5301C47.9239 27.2586 48.5069 29.2917 48.4596 31.3594C48.5877 33.8719 47.8701 36.3548 46.4214 38.4115C45.7679 39.2201 44.9419 39.8723 44.0039 40.3203C43.0658 40.7683 42.0393 41.0009 40.9998 41.0009C39.9602 41.0009 38.9338 40.7683 37.9957 40.3203C37.0576 39.8723 36.2316 39.2201 35.5782 38.4115C34.1294 36.3548 33.4118 33.8719 33.54 31.3594C33.4927 29.2917 34.0756 27.2586 35.2113 25.5301C35.8612 24.6077 36.7308 23.8618 37.7415 23.36ZM24.6943 56.1438C24.6943 48.9082 31.9911 43.0382 40.9999 43.0382C50.0087 43.0382 57.3055 48.9694 57.3055 56.2457C57.258 57.0981 56.8803 57.8985 56.2524 58.4769C55.6245 59.0554 54.7959 59.3663 53.9424 59.3438H28.0574C27.6264 59.3546 27.1975 59.2804 26.7952 59.1255C26.3929 58.9705 26.0251 58.7378 25.7128 58.4406C25.4005 58.1434 25.1498 57.7876 24.9751 57.3936C24.8003 56.9995 24.7049 56.5748 24.6943 56.1438Z" fill="#C5C9CE"/>
</svg>
