<?xml version="1.0" encoding="UTF-8"?>
<svg width="24px" height="24px" viewBox="0 0 24 24" version="1.1" xmlns="http://www.w3.org/2000/svg" xmlns:xlink="http://www.w3.org/1999/xlink">
    <title>File_Powerpoint_24_Line</title>
    <g id="Page-1" stroke="none" stroke-width="1" fill="none" fill-rule="evenodd">
        <g id="File_Powerpoint_24_Line" fill="#081C36">
            <path d="M14,2.25 C14.1989,2.25 14.3897,2.32902 14.5303,2.46967 L14.5303,2.46967 L19.5303,7.46967 C19.671,7.61032 19.75,7.80109 19.75,8 L19.75,8 L19.75,18 C19.75,20.0711 18.0711,21.75 16,21.75 L16,21.75 L8,21.75 C5.92893,21.75 4.25,20.0711 4.25,18 L4.25,18 L4.25,6 C4.25,3.92893 5.92893,2.25 8,2.25 L8,2.25 Z M12.25,3.75 L8,3.75 C6.75736,3.75 5.75,4.75736 5.75,6 L5.75,6 L5.75,18 C5.75,19.2426 6.75736,20.25 8,20.25 L8,20.25 L16,20.25 C17.2426,20.25 18.25,19.2426 18.25,18 L18.25,18 L18.25,9.75 L14,9.75 C13.0335,9.75 12.25,8.9665 12.25,8 L12.25,8 L12.25,3.75 Z M12.3828,12.6364 C12.7095,12.6364 12.9915,12.7003 13.2287,12.8281 C13.4673,12.9545 13.6513,13.1314 13.7805,13.3587 C13.9098,13.5845 13.9744,13.8473 13.9744,14.147 C13.9744,14.4482 13.9084,14.7116 13.7763,14.9375 C13.6456,15.1619 13.4588,15.3359 13.2159,15.4595 C12.973,15.5831 12.6847,15.6449 12.3509,15.6449 L11.6349,15.6449 L11.6349,17 L10.5803,17 L10.5803,12.6364 L12.3828,12.6364 Z M12.1548,13.4865 L11.6349,13.4865 L11.6349,14.8139 L12.1548,14.8139 C12.3139,14.8139 12.4467,14.7862 12.5533,14.7308 C12.6612,14.6754 12.7429,14.598 12.7983,14.4986 C12.8537,14.3977 12.8814,14.2805 12.8814,14.147 C12.8814,14.0121 12.8537,13.8956 12.7983,13.7976 C12.7429,13.6982 12.6612,13.6214 12.5533,13.5675 C12.4453,13.5135 12.3125,13.4865 12.1548,13.4865 Z M13.75,3.81066 L13.75,8 C13.75,8.13807 13.8619,8.25 14,8.25 L18.1893,8.25 L13.75,3.81066 Z" id="Combined-Shape"></path>
        </g>
    </g>
</svg>