<svg width="48" height="48" viewBox="0 0 48 48" fill="none" xmlns="http://www.w3.org/2000/svg">
<g clip-path="url(#clip0_3069_9356)">
<path d="M8.57153 8.28577C8.57153 6.07663 10.3624 4.28577 12.5715 4.28577H30.8573L39.4287 12.8572V39.7143C39.4287 41.9235 37.6378 43.7143 35.4287 43.7143H12.5715C10.3624 43.7143 8.57153 41.9235 8.57153 39.7143V8.28577Z" fill="url(#paint0_linear_3069_9356)"/>
<path d="M32.8573 12.8572L39.4287 12.8572L30.8573 4.28575L30.8573 10.8572C30.8573 11.9617 31.7527 12.8572 32.8573 12.8572Z" fill="#7FD2CE"/>
<g opacity="0.85">
<path d="M16.2796 28.3429L18.0512 26.217C18.1917 26.0484 18.4418 26.0245 18.6117 26.1635L20.0117 27.3089C21.2726 28.3405 23.1444 28.0821 24.0786 26.7476L26.6438 23.0831C26.9573 22.6353 27.6176 22.6267 27.9425 23.0663L31.8426 28.3429L16.2796 28.3429Z" fill="white" stroke="white" stroke-width="1.6" stroke-linecap="round"/>
<ellipse cx="18.1979" cy="21.1649" rx="1.45055" ry="1.45055" fill="white"/>
</g>
</g>
<defs>
<linearGradient id="paint0_linear_3069_9356" x1="24.0001" y1="43.7143" x2="24.0001" y2="4.28577" gradientUnits="userSpaceOnUse">
<stop stop-color="#7FD2CE"/>
<stop offset="1" stop-color="#42B3AD"/>
</linearGradient>
<clipPath id="clip0_3069_9356">
<rect width="48" height="48" fill="white"/>
</clipPath>
</defs>
</svg>
