<svg width="48" height="48" viewBox="0 0 48 48" fill="none" xmlns="http://www.w3.org/2000/svg">
<path d="M8.57153 8.28577C8.57153 6.07663 10.3624 4.28577 12.5715 4.28577H30.8572L39.4287 12.8572V39.7143C39.4287 41.9235 37.6378 43.7143 35.4287 43.7143H12.5715C10.3624 43.7143 8.57153 41.9235 8.57153 39.7143V8.28577Z" fill="url(#paint0_linear_3069_9293)"/>
<path d="M32.8573 12.8572L39.4287 12.8572L30.8573 4.28575L30.8573 10.8572C30.8573 11.9617 31.7527 12.8572 32.8573 12.8572Z" fill="#5FCBF2"/>
<path opacity="0.85" d="M28.4715 18.2164C28.2822 18.2198 28.0994 18.2981 27.9632 18.4343C27.827 18.5705 27.7487 18.7534 27.7453 18.9426L27.5759 29.9613C27.5677 30.43 27.4673 30.8958 27.2804 31.332C27.0935 31.7682 26.8237 32.1663 26.4864 32.5036C25.8054 33.1847 24.891 33.5768 23.9443 33.5934C22.9977 33.6101 22.0964 33.25 21.4387 32.5924C20.781 31.9348 20.4208 31.0336 20.4373 30.0869L20.6026 19.4165C20.617 18.8515 20.8541 18.3073 21.2621 17.9024C21.6701 17.4974 22.216 17.2647 22.781 17.2547C23.3459 17.2447 23.884 17.4584 24.2782 17.8491C24.6724 18.2399 24.8906 18.7761 24.8854 19.3409L24.7201 30.0114C24.7127 30.1994 24.6331 30.38 24.4978 30.5153C24.3625 30.6506 24.182 30.7302 23.9939 30.7376C23.8046 30.7409 23.6244 30.6688 23.4929 30.5373C23.3614 30.4059 23.2894 30.2256 23.2927 30.0364L23.4375 20.5339C23.4375 20.3468 23.364 20.1698 23.2328 20.0409C23.1016 19.9121 22.9232 19.8417 22.7361 19.845C22.5489 19.8483 22.3679 19.925 22.2321 20.0585C22.0963 20.192 22.0166 20.3717 22.0101 20.5589L21.8652 30.0614C21.8603 30.3426 21.9108 30.6202 22.0138 30.8781C22.1169 31.1361 22.2705 31.3694 22.4659 31.5648C22.6613 31.7602 22.8946 31.9138 23.1526 32.0169C23.4106 32.1199 23.6881 32.1704 23.9693 32.1655C24.5334 32.1424 25.0745 31.9031 25.4803 31.4973C25.8861 31.0915 26.1254 30.5504 26.1485 29.9863L26.3128 19.3159C26.3173 18.3774 25.9517 17.488 25.2952 16.8401C24.6387 16.1923 23.7442 15.8383 22.8055 15.8548C21.8667 15.8714 20.9593 16.2571 20.2798 16.9284C19.6003 17.5997 19.2035 18.5026 19.1752 19.4415L19.0099 30.1119C18.9867 31.4372 19.4909 32.699 20.4115 33.6197C21.3322 34.5404 22.594 35.0446 23.9193 35.0213C25.2446 34.9981 26.5248 34.4494 27.4783 33.4958C28.4319 32.5423 28.9806 31.2621 29.0038 29.9368L29.1747 18.9196C29.1766 18.8255 29.1599 18.7327 29.1255 18.6464C29.0912 18.56 29.0399 18.482 28.9745 18.4166C28.9092 18.3513 28.8311 18.2999 28.7448 18.2656C28.6585 18.2312 28.5656 18.2145 28.4715 18.2164V18.2164Z" fill="white"/>
<defs>
<linearGradient id="paint0_linear_3069_9293" x1="24.0001" y1="43.7143" x2="24.0001" y2="4.28577" gradientUnits="userSpaceOnUse">
<stop stop-color="#5FCBF2"/>
<stop offset="1" stop-color="#12AEE2"/>
</linearGradient>
</defs>
</svg>
