<?xml version="1.0" encoding="UTF-8"?>
<svg width="24px" height="24px" viewBox="0 0 24 24" version="1.1" xmlns="http://www.w3.org/2000/svg" xmlns:xlink="http://www.w3.org/1999/xlink">
    <title>File_Music_24_Line</title>
    <g id="Page-1" stroke="none" stroke-width="1" fill="none" fill-rule="evenodd">
        <g id="File_Music_24_Line" fill="#081C36">
            <path d="M14,2.25 C14.1989,2.25 14.3897,2.32902 14.5303,2.46967 L14.5303,2.46967 L19.5303,7.46967 C19.671,7.61032 19.75,7.80109 19.75,8 L19.75,8 L19.75,18 C19.75,20.0711 18.0711,21.75 16,21.75 L16,21.75 L8,21.75 C5.92893,21.75 4.25,20.0711 4.25,18 L4.25,18 L4.25,6 C4.25,3.92893 5.92893,2.25 8,2.25 L8,2.25 Z M12.25,3.75 L8,3.75 C6.75736,3.75 5.75,4.75736 5.75,6 L5.75,6 L5.75,18 C5.75,19.2426 6.75736,20.25 8,20.25 L8,20.25 L16,20.25 C17.2426,20.25 18.25,19.2426 18.25,18 L18.25,18 L18.25,9.75 L14,9.75 C13.0335,9.75 12.25,8.9665 12.25,8 L12.25,8 L12.25,3.75 Z M14.1936,11.0193 C14.7376,10.904 15.2494,11.3205 15.2494,11.8784 L15.2494,11.8784 L15.249775,15.780175 L15.249775,15.780175 L15.25,15.8047 C15.25,16.5322 14.6624,17.1219 13.9375,17.1219 C13.2126,17.1219 12.625,16.5322 12.625,15.8047 C12.625,15.0772 13.2126,14.4875 13.9375,14.4875 C14.2327,14.4875 14.5052,14.5853 14.7244,14.7504 L14.7244,14.7504 L14.7244,11.8784 C14.7244,11.6553 14.5197,11.4887 14.3021,11.5348 L14.3021,11.5348 L11.4997,12.1287 C11.1355,12.2059 10.8749,12.5284 10.8749,12.9019 L10.8749,12.9019 L10.8749875,16.67315 L10.8749875,16.67315 C10.875,17.4103 10.2874,18 9.5625,18 C8.83763,18 8.25,17.4103 8.25,16.6828 C8.25,15.9554 8.83763,15.3656 9.5625,15.3656 C9.85791,15.3656 10.1305,15.4636 10.3499,15.6289 L10.3499,15.6289 L10.3499,12.9019 C10.3499,12.2794 10.7842,11.7418 11.3912,11.6132 L11.3912,11.6132 Z M13.75,3.81066 L13.75,8 C13.75,8.13807 13.8619,8.25 14,8.25 L18.1893,8.25 L13.75,3.81066 Z" id="Combined-Shape"></path>
        </g>
    </g>
</svg>