<?xml version="1.0" encoding="UTF-8"?>
<svg width="24px" height="24px" viewBox="0 0 24 24" version="1.1" xmlns="http://www.w3.org/2000/svg" xmlns:xlink="http://www.w3.org/1999/xlink">
    <title>File_XML_24_Line</title>
    <g id="Page-1" stroke="none" stroke-width="1" fill="none" fill-rule="evenodd">
        <g id="File_XML_24_Line" fill="#081C36">
            <path d="M14,2.25 C14.1989,2.25 14.3897,2.32902 14.5303,2.46967 L14.5303,2.46967 L19.5303,7.46967 C19.671,7.61032 19.75,7.80109 19.75,8 L19.75,8 L19.75,18 C19.75,20.0711 18.0711,21.75 16,21.75 L16,21.75 L8,21.75 C5.92893,21.75 4.25,20.0711 4.25,18 L4.25,18 L4.25,6 C4.25,3.92893 5.92893,2.25 8,2.25 L8,2.25 Z M12.25,3.75 L8,3.75 C6.75736,3.75 5.75,4.75736 5.75,6 L5.75,6 L5.75,18 C5.75,19.2426 6.75736,20.25 8,20.25 L8,20.25 L16,20.25 C17.2426,20.25 18.25,19.2426 18.25,18 L18.25,18 L18.25,9.75 L14,9.75 C13.0335,9.75 12.25,8.9665 12.25,8 L12.25,8 L12.25,3.75 Z M7.66477,12.8636 L8.32884,14.0124 L8.35724,14.0124 L9.02841,12.8636 L10.0121,12.8636 L8.91477,14.6818 L10.0476,16.5 L9.03906,16.5 L8.35724,15.3388 L8.32884,15.3388 L7.64702,16.5 L6.6456,16.5 L7.77308,14.6818 L6.67401,12.8636 L7.66477,12.8636 Z M11.555,12.8636 L12.4783,15.1151 L12.521,15.1151 L13.4442,12.8636 L14.5327,12.8636 L14.5327,16.5 L13.6768,16.5 L13.6768,14.2663 L13.6467,14.2663 L12.7731,16.4769 L12.2262,16.4769 L11.3526,14.2539 L11.3224,14.2539 L11.3224,16.5 L10.4666,16.5 L10.4666,12.8636 L11.555,12.8636 Z M15.9598,12.8636 L15.9598,15.7862 L17.4726,15.7862 L17.4726,16.5 L15.0809,16.5 L15.0809,12.8636 L15.9598,12.8636 Z M13.75,3.81066 L13.75,8 C13.75,8.13807 13.8619,8.25 14,8.25 L18.1893,8.25 L13.75,3.81066 Z" id="Combined-Shape"></path>
        </g>
    </g>
</svg>