<?xml version="1.0" encoding="UTF-8"?>
<svg width="24px" height="24px" viewBox="0 0 24 24" version="1.1" xmlns="http://www.w3.org/2000/svg" xmlns:xlink="http://www.w3.org/1999/xlink">
    <title>File_Word_24_Line</title>
    <g id="Page-1" stroke="none" stroke-width="1" fill="none" fill-rule="evenodd">
        <g id="File_Word_24_Line" fill="#081C36">
            <path d="M14,2.25 C14.1989,2.25 14.3897,2.32902 14.5303,2.46967 L14.5303,2.46967 L19.5303,7.46967 C19.671,7.61032 19.75,7.80109 19.75,8 L19.75,8 L19.75,18 C19.75,20.0711 18.0711,21.75 16,21.75 L16,21.75 L8,21.75 C5.92893,21.75 4.25,20.0711 4.25,18 L4.25,18 L4.25,6 C4.25,3.92893 5.92893,2.25 8,2.25 L8,2.25 Z M12.25,3.75 L8,3.75 C6.75736,3.75 5.75,4.75736 5.75,6 L5.75,6 L5.75,18 C5.75,19.2426 6.75736,20.25 8,20.25 L8,20.25 L16,20.25 C17.2426,20.25 18.25,19.2426 18.25,18 L18.25,18 L18.25,9.75 L14,9.75 C13.0335,9.75 12.25,8.9665 12.25,8 L12.25,8 L12.25,3.75 Z M10.0273,13 L10.6895,15.7793 L10.7227,15.7793 L11.4531,13 L12.2441,13 L12.9727,15.7852 L13.0078,15.7852 L13.6699,13 L14.5938,13 L13.4492,17 L12.625,17 L11.8633,14.3848 L11.832,14.3848 L11.0723,17 L10.248,17 L9.10352,13 L10.0273,13 Z M13.75,3.81066 L13.75,8 C13.75,8.13807 13.8619,8.25 14,8.25 L18.1893,8.25 L13.75,3.81066 Z" id="Combined-Shape"></path>
        </g>
    </g>
</svg>