<svg width="32" height="32" viewBox="0 0 32 32" fill="none" xmlns="http://www.w3.org/2000/svg">
<circle cx="16" cy="16" r="16" fill="#EFF2F8"/>
<path d="M7.46867 15.8834C8.18955 14.3106 11.0373 10.3999 16.0801 10.3999C21.1228 10.3999 23.9706 14.3106 24.6915 15.8834C24.7804 16.0774 24.7804 16.3005 24.6915 16.4946C23.9706 18.0674 21.1228 21.9781 16.0801 21.9781C11.0373 21.9781 8.18955 18.0674 7.46867 16.4946C7.37975 16.3005 7.37975 16.0774 7.46867 15.8834Z" fill="#5491F4"/>
<path fill-rule="evenodd" clip-rule="evenodd" d="M13.1789 16.1884C13.1789 14.5867 14.4773 13.2883 16.079 13.2883C17.6807 13.2883 18.9791 14.5867 18.9791 16.1884C18.9791 17.7901 17.6807 19.0885 16.079 19.0885C14.4773 19.0885 13.1789 17.7901 13.1789 16.1884Z" fill="#E9EBED"/>
<line x1="22.4" y1="9.86071" x2="9.86069" y2="22.4" stroke="#5491F4" stroke-width="1.5" stroke-linecap="round"/>
<line x1="23.2" y1="10.6608" x2="10.6607" y2="23.2001" stroke="#EFF2F8" stroke-width="1.5" stroke-linecap="round"/>
</svg>
