<?xml version="1.0" encoding="UTF-8"?>
<svg width="42px" height="52px" viewBox="0 0 42 52" version="1.1" xmlns="http://www.w3.org/2000/svg" xmlns:xlink="http://www.w3.org/1999/xlink">
    <!-- Generator: Sketch 49.2 (51160) - http://www.bohemiancoding.com/sketch -->
    <title>icon_file_dmg</title>
    <desc>Created with Sketch.</desc>
    <defs>
        <linearGradient x1="-40.9464755%" y1="143.484886%" x2="85.8926651%" y2="14.8428869%" id="linearGradient-1">
            <stop stop-color="#2FB5FD" offset="0%"></stop>
            <stop stop-color="#157EFB" offset="100%"></stop>
        </linearGradient>
    </defs>
    <g id="Page-1" stroke="none" stroke-width="1" fill="none" fill-rule="evenodd">
        <g id="File_Type_Solid" transform="translate(-263.000000, -12.000000)">
            <g id="icon_file_dmg" transform="translate(263.000000, 12.000000)">
                <path d="M4,0 L27.937,0 L42,14.063 L42,48 C42,50.209 40.209,52 38,52 L4,52 C1.791,52 0,50.209 0,48 L0,4 C0,1.791 1.791,0 4,0" id="Page-1" fill="url(#linearGradient-1)"></path>
                <polygon id="Rectangle-2" fill="#68B5F9" points="28 0 42 14 28 14"></polygon>
                <path d="M4,36.4339056 L4,26.1684811 C4,25.6161964 4.44771525,25.1684811 5,25.1684811 L7.77397678,25.1684811 C8.59953833,25.1684811 9.35629173,25.3102846 10.0442597,25.5938959 C10.7322276,25.8775072 11.3219056,26.2762418 11.8133113,26.7901118 C12.304717,27.3039817 12.6880077,27.9203356 12.9631949,28.6391919 C13.238382,29.3580482 13.3759736,30.1555175 13.3759736,31.0316236 L13.3759736,31.5876113 C13.3759736,32.4637174 13.239786,33.2597827 12.9674069,33.9758309 C12.6950277,34.6918792 12.3103331,35.3068291 11.8133113,35.8206991 C11.3162896,36.334569 10.7223996,36.7318996 10.0316236,37.0127029 C9.34084762,37.2935061 8.57988223,37.4339056 7.74870462,37.4339056 L5,37.4339056 C4.44771525,37.4339056 4,36.9861904 4,36.4339056 Z M6.5272166,27.2155265 L6.5272166,35.4037083 L7.74870462,35.4037083 C8.74836418,35.4037083 9.50932957,35.0737694 10.0316236,34.4138818 C10.5539176,33.7539942 10.8150608,32.8119134 10.8150608,31.5876113 L10.8150608,31.0147755 C10.8150608,29.7680091 10.5567256,28.8231203 10.0400477,28.1800809 C9.52336969,27.5370414 8.76802028,27.2155265 7.77397678,27.2155265 L6.5272166,27.2155265 Z M17.617761,25.5015575 L20.6503931,34.0642835 L23.6665283,25.5023514 C23.7370007,25.3023007 23.9260218,25.1684811 24.1381223,25.1684811 L26.6032195,25.1684811 C26.8793618,25.1684811 27.1032195,25.3923387 27.1032195,25.6684811 L27.1032195,36.9339056 C27.1032195,37.210048 26.8793618,37.4339056 26.6032195,37.4339056 L25.0675788,37.4339056 C24.7914364,37.4339056 24.5675788,37.210048 24.5675788,36.9339056 L24.5675788,34.0811316 L24.8203005,28.2938056 L21.6290753,37.1041856 C21.5573929,37.3020874 21.3694478,37.4339056 21.1589639,37.4339056 L20.1251683,37.4339056 C19.914589,37.4339056 19.7265802,37.3019697 19.6549684,37.103941 L16.4720617,28.3022297 L16.7247833,34.0811316 L16.7247833,36.9339056 C16.7247833,37.210048 16.5009257,37.4339056 16.2247833,37.4339056 L14.6975667,37.4339056 C14.4214244,37.4339056 14.1975667,37.210048 14.1975667,36.9339056 L14.1975667,25.6684811 C14.1975667,25.3923387 14.4214244,25.1684811 14.6975667,25.1684811 L17.1464474,25.1684811 C17.3582389,25.1684811 17.547055,25.3019171 17.617761,25.5015575 Z M37.6178021,36.1888691 C37.0495987,36.6353148 36.6603169,36.905714 36.4499566,37.0000668 C36.0680642,37.1713568 35.6173817,37.3145643 35.0978957,37.4296936 C34.5784097,37.544823 33.9817118,37.6023868 33.307784,37.6023868 C32.5159188,37.6023868 31.7928613,37.4718152 31.1385897,37.2106682 C30.4843182,36.9495212 29.9241241,36.5662305 29.4579907,36.0607846 C28.9918573,35.5553388 28.6310305,34.9347729 28.3754996,34.1990684 C28.1199686,33.4633639 27.9922051,32.6209668 27.9922051,31.6718518 L27.9922051,30.9473831 C27.9922051,29.9982681 28.1143527,29.154467 28.3586515,28.4159544 C28.6029503,27.6774419 28.9483331,27.055472 29.3948103,26.5500262 C29.8412875,26.0445803 30.3818256,25.6598857 31.0164409,25.3959306 C31.6510563,25.1319755 32.3558619,25 33.1308788,25 C33.92836,25 34.6177217,25.0996837 35.1989844,25.299054 C35.7802471,25.4984243 36.2660295,25.7778193 36.656346,26.1372475 C37.0466625,26.4966756 37.3513294,26.9262982 37.570356,27.4261279 C37.7893825,27.9259577 37.93259,28.4735158 37.9999828,29.0688187 L35.5401586,29.0688187 C35.4896141,28.7599351 35.4109903,28.4805401 35.3042851,28.2306252 C35.1975799,27.9807103 35.0515644,27.7673031 34.8662342,27.590397 C34.6809041,27.413491 34.4520529,27.2773034 34.1796737,27.1818303 C33.9072946,27.0863572 33.5829717,27.0386214 33.2066953,27.0386214 C32.3418213,27.0386214 31.6847516,27.3657523 31.2354664,28.0200238 C30.7861812,28.6742954 30.5615419,29.6444561 30.5615419,30.9305349 L30.5615419,31.6718518 C30.5615419,32.9579307 30.8058371,33.9294954 31.2944348,34.586575 C31.7830324,35.2436546 32.49907,35.5721894 33.4425689,35.5721894 C33.7458364,35.5721894 34.0097875,35.5525335 34.2344301,35.513221 C34.4590727,35.4739086 34.65142,35.4247688 34.8114779,35.3658001 C34.9715357,35.3068314 35.1049152,35.2422476 35.2116205,35.1720468 C35.3183257,35.101846 35.4053734,35.0330502 35.4727662,34.9656574 L35.4727662,32.8512196 L33.6729991,32.8512196 C33.3968567,32.8512196 33.1729991,32.6273619 33.1729991,32.3512196 L33.1729991,31.4895033 C33.1729991,31.213361 33.3968567,30.9895033 33.6729991,30.9895033 L37.4999828,30.9895033 C37.7761252,30.9895033 37.9999828,31.213361 37.9999828,31.4895033 L37.9999788,35.402554 C37.9999788,35.7094136 37.8590914,35.9992845 37.6178021,36.1888691 Z" id="DMG" fill="#FFFFFF"></path>
            </g>
        </g>
    </g>
</svg>