<?xml version="1.0" encoding="UTF-8"?>
<svg width="16px" height="20px" viewBox="0 0 16 20" version="1.1" xmlns="http://www.w3.org/2000/svg" xmlns:xlink="http://www.w3.org/1999/xlink">
    <!-- Generator: Sketch 49.2 (51160) - http://www.bohemiancoding.com/sketch -->
    <title>Group 3 Copy</title>
    <desc>Created with Sketch.</desc>
    <defs></defs>
    <g id="Page-1" stroke="none" stroke-width="1" fill="none" fill-rule="evenodd">
        <g id="File_Type_Solid" transform="translate(-223.000000, -333.000000)" fill="#A1AAB2">
            <g id="Group-3-Copy" transform="translate(223.000000, 333.000000)">
                <g id="list-msg-icon-file-setup-copy">
                    <path d="M14.5454545,17.1428571 C14.5454545,17.9321429 13.8945455,18.5714286 13.0909091,18.5714286 L2.90909091,18.5714286 C2.10545455,18.5714286 1.45454545,17.9321429 1.45454545,17.1428571 L1.45454545,2.85714286 C1.45454545,2.06785714 2.10545455,1.42857143 2.90909091,1.42857143 L10.1483636,1.42857143 L14.5454545,6.53642857 L14.5454545,17.1428571 Z M10.9069091,0 L2.90909091,0 C1.30254545,0 0,1.27928571 0,2.85714286 L0,17.1428571 C0,18.7207143 1.30254545,20 2.90909091,20 L13.0909091,20 C14.6974545,20 16,18.7207143 16,17.1428571 L16,5.735 L10.9069091,0 Z" id="Page-1"></path>
                    <path d="M11.125,12.1975867 C11.125,12.521523 10.8623978,12.7841252 10.5384615,12.7841252 C10.2145253,12.7841252 9.95192308,12.521523 9.95192308,12.1975867 L9.95192308,8 C9.95192308,6.92198265 9.07801735,6.04807692 8,6.04807692 C6.92198265,6.04807692 6.04807692,6.92198265 6.04807692,8 L6.04807692,13.9538462 C6.04807692,14.5475523 6.52937082,15.0288462 7.12307692,15.0288462 L7.46461538,15.0288462 C7.96655726,15.0288462 8.37346154,14.6219419 8.37346154,14.12 L8.37346154,8.8587241 C8.37346154,8.62952593 8.18765971,8.4437241 7.95846154,8.4437241 C7.72926337,8.4437241 7.54346154,8.62952593 7.54346154,8.8587241 L7.54346154,12.0648567 C7.54346154,12.388793 7.28085932,12.6513952 6.95692308,12.6513952 C6.63298683,12.6513952 6.37038462,12.388793 6.37038462,12.0648567 L6.37038462,8.8587241 C6.37038462,7.98165344 7.08139087,7.27064718 7.95846154,7.27064718 C8.8355322,7.27064718 9.54653846,7.98165344 9.54653846,8.8587241 L9.54653846,14.12 C9.54653846,15.2698144 8.61442975,16.2019231 7.46461538,16.2019231 L7.12307692,16.2019231 C5.88149832,16.2019231 4.875,15.1954248 4.875,13.9538462 L4.875,8 C4.875,6.27411016 6.27411016,4.875 8,4.875 C9.72588984,4.875 11.125,6.27411016 11.125,8 L11.125,12.1975867 Z" id="icn_toolbar_attach" fill-rule="nonzero"></path>
                </g>
            </g>
        </g>
    </g>
</svg>