<?xml version="1.0" encoding="UTF-8" standalone="no"?>
<svg width="16px" height="20px" viewBox="0 0 16 20" version="1.1" xmlns="http://www.w3.org/2000/svg" xmlns:xlink="http://www.w3.org/1999/xlink">
    <!-- Generator: Sketch 46.2 (44496) - http://www.bohemiancoding.com/sketch -->
    <title>list-msg-icon-file-word</title>
    <desc>Created with Sketch.</desc>
    <defs>
        <polygon id="path-1" points="16 10 16 0 0 0 0 10 0 20 16 20"></polygon>
    </defs>
    <g id="File" stroke="none" stroke-width="1" fill="none" fill-rule="evenodd">
        <g id="iPhone-SE" transform="translate(-132.000000, -266.000000)">
            <g id="list-msg-icon-file-word" transform="translate(132.000000, 266.000000)">
                <mask id="mask-2" fill="white">
                    <use xlink:href="#path-1"></use>
                </mask>
                <g id="Clip-2"></g>
                <path d="M11.7280577,8 L10.4096852,13.145125 C10.3404472,13.4119747 10.3009408,13.6265312 10.2907588,13.7895633 L10.2699874,13.7895633 C10.2459577,13.5484757 10.2097096,13.3404559 10.161243,13.164735 L8.75489757,8 L7.48824991,8 L5.96786543,13.125515 C5.88518715,13.4085141 5.83712785,13.6330678 5.82328025,13.7991761 L5.79721419,13.7991761 C5.78377388,13.5650096 5.74915489,13.3404559 5.69417179,13.125515 L4.34973323,8 L3,8 L5.07347371,15 L6.49529589,15 L7.91223068,10.0940401 C7.97780312,9.87602307 8.01893862,9.65146938 8.03645176,9.42037902 L8.05681587,9.42037902 C8.07066346,9.6680033 8.10691158,9.89563307 8.16556022,10.1040374 L9.57720034,15 L10.9680691,15 L13,8 L11.7280577,8 Z" id="Page-1" fill="#A1AAB2" mask="url(#mask-2)"></path>
                <path d="M14.5454545,17.1428571 C14.5454545,17.9321429 13.8945455,18.5714286 13.0909091,18.5714286 L2.90909091,18.5714286 C2.10545455,18.5714286 1.45454545,17.9321429 1.45454545,17.1428571 L1.45454545,2.85714286 C1.45454545,2.06785714 2.10545455,1.42857143 2.90909091,1.42857143 L10.1483636,1.42857143 L14.5454545,6.53642857 L14.5454545,17.1428571 Z M10.9069091,0 L2.90909091,0 C1.30254545,0 0,1.27928571 0,2.85714286 L0,17.1428571 C0,18.7207143 1.30254545,20 2.90909091,20 L13.0909091,20 C14.6974545,20 16,18.7207143 16,17.1428571 L16,5.735 L10.9069091,0 Z" id="Page-1" fill="#A1AAB2" mask="url(#mask-2)"></path>
            </g>
        </g>
    </g>
</svg>