<?xml version="1.0" encoding="UTF-8" standalone="no"?>
<svg width="16px" height="20px" viewBox="0 0 16 20" version="1.1" xmlns="http://www.w3.org/2000/svg" xmlns:xlink="http://www.w3.org/1999/xlink">
    <!-- Generator: Sketch 46.2 (44496) - http://www.bohemiancoding.com/sketch -->
    <title>list-msg-icon-file-zip</title>
    <desc>Created with Sketch.</desc>
    <defs>
        <polygon id="path-1" points="16 10 16 0 0 0 0 10 0 20 16 20"></polygon>
    </defs>
    <g id="File" stroke="none" stroke-width="1" fill="none" fill-rule="evenodd">
        <g id="iPhone-SE" transform="translate(-72.000000, -266.000000)">
            <g id="list-msg-icon-file-zip" transform="translate(72.000000, 266.000000)">
                <mask id="mask-2" fill="white">
                    <use xlink:href="#path-1"></use>
                </mask>
                <g id="Clip-2"></g>
                <path d="M4.75,7.72222222 L6.25,7.72222222 L6.25,5.77777778 L4.75,5.77777778 L4.75,7.72222222 Z M6.624625,9.66666667 L4.374625,9.66666667 C4.167625,9.66666667 4,9.49244444 4,9.27777778 L4,5.38888889 C4,5.17383333 4.167625,5 4.374625,5 L6.624625,5 C6.832,5 7,5.17383333 7,5.38888889 L7,9.27777778 C7,9.49244444 6.832,9.66666667 6.624625,9.66666667 L6.624625,9.66666667 Z M5.5,16.6666667 L7,16.6666667 L7,15.5 L5.5,15.5 L5.5,16.6666667 Z M5.5,14.3333333 L7,14.3333333 L7,13.1666667 L5.5,13.1666667 L5.5,14.3333333 Z M5.5,12 L7,12 L7,10.8333333 L5.5,10.8333333 L5.5,12 Z M4,13.1666667 L5.5,13.1666667 L5.5,12 L4,12 L4,13.1666667 Z M4,15.5 L5.5,15.5 L5.5,14.3333333 L4,14.3333333 L4,15.5 Z M4,17.8333333 L5.5,17.8333333 L5.5,16.6666667 L4,16.6666667 L4,17.8333333 Z M5.5,19 L7,19 L7,17.8333333 L5.5,17.8333333 L5.5,19 Z" id="Page-1" fill="#A1AAB2" mask="url(#mask-2)"></path>
                <path d="M14.5454545,17.1428571 C14.5454545,17.9321429 13.8945455,18.5714286 13.0909091,18.5714286 L2.90909091,18.5714286 C2.10545455,18.5714286 1.45454545,17.9321429 1.45454545,17.1428571 L1.45454545,2.85714286 C1.45454545,2.06785714 2.10545455,1.42857143 2.90909091,1.42857143 L10.1483636,1.42857143 L14.5454545,6.53642857 L14.5454545,17.1428571 Z M10.9069091,0 L2.90909091,0 C1.30254545,0 0,1.27928571 0,2.85714286 L0,17.1428571 C0,18.7207143 1.30254545,20 2.90909091,20 L13.0909091,20 C14.6974545,20 16,18.7207143 16,17.1428571 L16,5.735 L10.9069091,0 Z" id="Page-1" fill="#A1AAB2" mask="url(#mask-2)"></path>
            </g>
        </g>
    </g>
</svg>