<svg width="102" height="100" viewBox="0 0 102 100" fill="none" xmlns="http://www.w3.org/2000/svg">
<path fill-rule="evenodd" clip-rule="evenodd" d="M93.2439 7.75968C82.8977 -2.58656 66.1907 -2.58656 55.8445 7.75968L46.241 17.3631C44.8786 18.7255 44.8786 20.9344 46.241 22.2967C47.6034 23.6591 49.8123 23.6591 51.1747 22.2967L60.7781 12.6933C68.3996 5.07184 80.6888 5.07184 88.3103 12.6933C95.9317 20.3148 95.9317 32.604 88.3103 40.2255L73.4404 55.0953C65.819 62.7168 53.5297 62.7168 45.9083 55.0953C44.5459 53.7329 42.337 53.7329 40.9746 55.0953C39.6122 56.4577 39.6122 58.6666 40.9746 60.0289C51.3209 70.3752 68.0278 70.3752 78.3741 60.0289L93.2439 45.1591C103.59 34.8129 103.59 18.1059 93.2439 7.75968ZM61.026 39.9711C50.6798 29.6248 33.9728 29.6248 23.6266 39.9711L8.75675 54.8409C-1.58949 65.1871 -1.58949 81.8941 8.75675 92.2403C19.103 102.587 35.8099 102.587 46.1562 92.2403L55.202 83.1945C56.5644 81.8321 56.5644 79.6233 55.202 78.2609C53.8396 76.8985 51.6308 76.8985 50.2684 78.2609L41.2226 87.3067C33.6011 94.9282 21.3119 94.9282 13.6904 87.3067C6.06891 79.6852 6.06891 67.396 13.6904 59.7745L28.5602 44.9047C36.1817 37.2832 48.4709 37.2832 56.0924 44.9047C57.4548 46.2671 59.6636 46.2671 61.026 44.9047C62.3884 43.5423 62.3884 41.3334 61.026 39.9711Z" fill="#E5EFFF"/>
</svg>
