<?xml version="1.0" encoding="UTF-8"?>
<svg width="42px" height="52px" viewBox="0 0 42 52" version="1.1" xmlns="http://www.w3.org/2000/svg" xmlns:xlink="http://www.w3.org/1999/xlink">
    <!-- Generator: Sketch 49.2 (51160) - http://www.bohemiancoding.com/sketch -->
    <title>icon_file_video</title>
    <desc>Created with Sketch.</desc>
    <defs>
        <linearGradient x1="-52.6468701%" y1="148.668547%" x2="85.9820656%" y2="11.0746833%" id="linearGradient-1">
            <stop stop-color="#F09D83" offset="0%"></stop>
            <stop stop-color="#DD644C" offset="100%"></stop>
        </linearGradient>
    </defs>
    <g id="Page-1" stroke="none" stroke-width="1" fill="none" fill-rule="evenodd">
        <g id="File_Type_Solid" transform="translate(-139.000000, -228.000000)">
            <g id="icon_file_video" transform="translate(139.000000, 228.000000)">
                <path d="M27.937,0 L42,14.063 L42,48 C42,50.209 40.209,52 38,52 L4,52 C1.791,52 0,50.209 0,48 L0,4 C0,1.791 1.791,0 4,0 L27.937,0 Z" id="Page-1" fill="url(#linearGradient-1)"></path>
                <polygon id="Rectangle-2" fill="#EE907B" points="28 0 42 14 28 14"></polygon>
                <path d="M28.7293127,30.9065645 C28.8040508,30.8681409 28.8972111,30.6963364 28.8988919,30.4225425 C28.9106634,30.2098497 28.8304143,30.0432403 28.7128347,29.9720342 L16.1939384,22.0909254 C16.2040975,22.0980703 16.2105316,22.0977822 16.1624455,22.13165 C16.0178654,22.2333331 16.1,22.0863399 16.1,22.2440472 L16.1,37.1432908 C16.1,37.3806549 16.1312742,37.6776282 16.1864401,37.9129678 C16.2053346,37.9935726 16.2258572,38.0620203 16.2455531,38.1141723 C16.2534859,38.1138659 20.4147391,35.71133 28.7293127,30.9065645 Z M16.1624455,38.0741531 L16.2102028,38.1101409 C16.1970676,38.0994342 16.1812882,38.0874052 16.1624455,38.0741531 Z M13.9,37.1432908 L13.9,22.2440472 C13.9,21.3436121 14.1857207,20.8322681 14.8962306,20.3325671 C15.6732852,19.7852696 16.6760311,19.7403694 17.4126802,20.2602152 L29.867286,28.0993829 C30.6930815,28.5979203 31.150664,29.5479314 31.0972111,30.4833289 C31.0972111,31.4813816 30.5848057,32.4263503 29.782673,32.8372401 L17.3942646,39.9966588 C17.028547,40.2169244 16.639697,40.3142857 16.2280801,40.3142857 C15.7487,40.3142857 15.2536472,40.153656 14.8654714,39.8510602 C14.1459934,39.3199466 13.9,38.2547515 13.9,37.1432908 Z" id="Fill-1" fill="#FFFFFF" fill-rule="nonzero"></path>
            </g>
        </g>
    </g>
</svg>