<svg width="32" height="32" viewBox="0 0 32 32" fill="none" xmlns="http://www.w3.org/2000/svg">
<path fill-rule="evenodd" clip-rule="evenodd" d="M26.8638 19.7057V18.6458C26.8638 18.4386 27.0317 18.2708 27.2388 18.2708C27.4459 18.2708 27.6138 18.4386 27.6138 18.6458V20.7286C27.6138 20.9357 27.4459 21.1036 27.2388 21.1036H25.1559C24.9488 21.1036 24.7809 20.9357 24.7809 20.7286C24.7809 20.5215 24.9488 20.3536 25.1559 20.3536H26.4502C25.6648 19.5319 24.5587 19.0208 23.333 19.0208C20.9518 19.0208 19.0215 20.9511 19.0215 23.3322C19.0215 23.5393 18.8536 23.7072 18.6465 23.7072C18.4394 23.7072 18.2715 23.5393 18.2715 23.3322C18.2715 20.5369 20.5376 18.2708 23.333 18.2708C24.7064 18.2708 25.9522 18.8181 26.8638 19.7057ZM20.2161 26.3109H21.5104C21.7175 26.3109 21.8854 26.143 21.8854 25.9359C21.8854 25.7287 21.7175 25.5609 21.5104 25.5609L19.4275 25.5609C19.2204 25.5609 19.0525 25.7287 19.0525 25.9359L19.0525 28.0187C19.0525 28.2258 19.2204 28.3937 19.4275 28.3937C19.6346 28.3937 19.8025 28.2258 19.8025 28.0187L19.8025 26.9588C20.714 27.8464 21.9599 28.3937 23.3333 28.3937C26.1287 28.3937 28.3948 26.1276 28.3948 23.3323C28.3948 23.1251 28.2269 22.9573 28.0198 22.9573C27.8127 22.9573 27.6448 23.1251 27.6448 23.3323C27.6448 25.7134 25.7145 27.6437 23.3333 27.6437C22.1076 27.6437 21.0015 27.1326 20.2161 26.3109Z" fill="#081C36"/>
<path d="M26.8638 19.7057L26.5847 19.9923C26.6999 20.1045 26.8711 20.1367 27.0193 20.0742C27.1675 20.0117 27.2638 19.8665 27.2638 19.7057H26.8638ZM26.4502 20.3536V20.7536C26.6103 20.7536 26.755 20.6581 26.818 20.5109C26.8809 20.3636 26.85 20.193 26.7393 20.0773L26.4502 20.3536ZM23.333 19.0208V19.4208V19.0208ZM19.0215 23.3322H18.6215H19.0215ZM18.2715 23.3322H17.8715H18.2715ZM20.2161 26.3109V25.9109C20.0559 25.9109 19.9112 26.0064 19.8483 26.1536C19.7853 26.3009 19.8163 26.4715 19.9269 26.5872L20.2161 26.3109ZM21.8854 25.9359L22.2854 25.9359V25.9359H21.8854ZM21.5104 25.5609V25.9609V25.5609ZM19.4275 25.5609L19.4275 25.1609H19.4275V25.5609ZM19.0525 25.9359H18.6525H19.0525ZM19.0525 28.0187H19.4525H19.0525ZM19.8025 28.0187H19.4025H19.8025ZM19.8025 26.9588L20.0815 26.6722C19.9663 26.56 19.7951 26.5278 19.647 26.5903C19.4988 26.6528 19.4025 26.798 19.4025 26.9588H19.8025ZM28.3948 23.3323H28.7948H28.3948ZM27.6448 23.3323H28.0448H27.6448ZM26.4638 18.6458V19.7057H27.2638V18.6458H26.4638ZM27.2388 17.8708C26.8108 17.8708 26.4638 18.2177 26.4638 18.6458H27.2638C27.2638 18.6596 27.2526 18.6708 27.2388 18.6708V17.8708ZM28.0138 18.6458C28.0138 18.2177 27.6668 17.8708 27.2388 17.8708V18.6708C27.225 18.6708 27.2138 18.6596 27.2138 18.6458H28.0138ZM28.0138 20.7286V18.6458H27.2138V20.7286H28.0138ZM27.2388 21.5036C27.6668 21.5036 28.0138 21.1567 28.0138 20.7286H27.2138C27.2138 20.7148 27.225 20.7036 27.2388 20.7036V21.5036ZM25.1559 21.5036H27.2388V20.7036H25.1559V21.5036ZM24.3809 20.7286C24.3809 21.1567 24.7279 21.5036 25.1559 21.5036V20.7036C25.1697 20.7036 25.1809 20.7148 25.1809 20.7286H24.3809ZM25.1559 19.9536C24.7279 19.9536 24.3809 20.3006 24.3809 20.7286H25.1809C25.1809 20.7424 25.1697 20.7536 25.1559 20.7536V19.9536ZM26.4502 19.9536H25.1559V20.7536H26.4502V19.9536ZM23.333 19.4208C24.445 19.4208 25.448 19.8839 26.161 20.63L26.7393 20.0773C25.8816 19.1798 24.6723 18.6208 23.333 18.6208V19.4208ZM19.4215 23.3322C19.4215 21.172 21.1727 19.4208 23.333 19.4208V18.6208C20.7309 18.6208 18.6215 20.7302 18.6215 23.3322H19.4215ZM18.6465 24.1072C19.0745 24.1072 19.4215 23.7603 19.4215 23.3322H18.6215C18.6215 23.3184 18.6327 23.3072 18.6465 23.3072V24.1072ZM17.8715 23.3322C17.8715 23.7603 18.2185 24.1072 18.6465 24.1072V23.3072C18.6603 23.3072 18.6715 23.3184 18.6715 23.3322H17.8715ZM23.333 17.8708C20.3167 17.8708 17.8715 20.3159 17.8715 23.3322H18.6715C18.6715 20.7578 20.7585 18.6708 23.333 18.6708V17.8708ZM27.1428 19.4191C26.1596 18.4618 24.8148 17.8708 23.333 17.8708V18.6708C24.598 18.6708 25.7448 19.1745 26.5847 19.9923L27.1428 19.4191ZM21.5104 25.9109H20.2161V26.7109H21.5104V25.9109ZM21.4854 25.9359C21.4854 25.922 21.4966 25.9109 21.5104 25.9109V26.7109C21.9384 26.7109 22.2854 26.3639 22.2854 25.9359L21.4854 25.9359ZM21.5104 25.9609C21.4966 25.9609 21.4854 25.9497 21.4854 25.9359H22.2854C22.2854 25.5078 21.9384 25.1609 21.5104 25.1609V25.9609ZM19.4275 25.9609L21.5104 25.9609V25.1609L19.4275 25.1609L19.4275 25.9609ZM19.4525 25.9359C19.4525 25.9497 19.4413 25.9609 19.4275 25.9609V25.1609C18.9995 25.1609 18.6525 25.5078 18.6525 25.9359H19.4525ZM19.4525 28.0187L19.4525 25.9359H18.6525L18.6525 28.0187H19.4525ZM19.4275 27.9937C19.4413 27.9937 19.4525 28.0049 19.4525 28.0187H18.6525C18.6525 28.4468 18.9995 28.7937 19.4275 28.7937V27.9937ZM19.4025 28.0187C19.4025 28.0049 19.4137 27.9937 19.4275 27.9937V28.7937C19.8555 28.7937 20.2025 28.4468 20.2025 28.0187H19.4025ZM19.4025 26.9588L19.4025 28.0187H20.2025L20.2025 26.9588H19.4025ZM19.5234 27.2454C20.5066 28.2027 21.8514 28.7937 23.3333 28.7937V27.9937C22.0683 27.9937 20.9215 27.49 20.0815 26.6722L19.5234 27.2454ZM23.3333 28.7937C26.3496 28.7937 28.7948 26.3485 28.7948 23.3323H27.9948C27.9948 25.9067 25.9078 27.9937 23.3333 27.9937V28.7937ZM28.7948 23.3323C28.7948 22.9042 28.4478 22.5573 28.0198 22.5573V23.3573C28.006 23.3573 27.9948 23.3461 27.9948 23.3323H28.7948ZM28.0198 22.5573C27.5918 22.5573 27.2448 22.9042 27.2448 23.3323H28.0448C28.0448 23.3461 28.0336 23.3573 28.0198 23.3573V22.5573ZM27.2448 23.3323C27.2448 25.4925 25.4935 27.2437 23.3333 27.2437V28.0437C25.9354 28.0437 28.0448 25.9343 28.0448 23.3323H27.2448ZM23.3333 27.2437C22.2212 27.2437 21.2183 26.7805 20.5053 26.0345L19.9269 26.5872C20.7847 27.4847 21.994 28.0437 23.3333 28.0437V27.2437Z" fill="#081C36"/>
<path fill-rule="evenodd" clip-rule="evenodd" d="M10.6663 4.66675H21.333C22.0694 4.66675 22.6663 5.2637 22.6663 6.00008V14.6913C22.8864 14.6745 23.1087 14.666 23.3331 14.666C23.7865 14.666 24.2317 14.7008 24.6663 14.7679V6.00008C24.6663 4.15913 23.174 2.66675 21.333 2.66675H10.6663C8.82539 2.66675 7.33301 4.15913 7.33301 6.00008V26.0001C7.33301 27.841 8.82539 29.3334 10.6663 29.3334H17.0799C16.5113 28.7411 16.0261 28.0681 15.6431 27.3334H10.6663C9.92996 27.3334 9.33301 26.7365 9.33301 26.0001V6.00008C9.33301 5.2637 9.92996 4.66675 10.6663 4.66675Z" fill="#081C36"/>
<path d="M10.667 3.33325L11.6964 6.42155C11.8779 6.96601 12.3874 7.33325 12.9613 7.33325H19.0393C19.6132 7.33325 20.1227 6.96602 20.3042 6.42156L21.3337 3.33325" stroke="#081C36" stroke-width="2"/>
</svg>
