<svg width="32" height="32" viewBox="0 0 32 32" fill="none" xmlns="http://www.w3.org/2000/svg">
<path fill-rule="evenodd" clip-rule="evenodd" d="M6.66602 3.3335C4.45688 3.3335 2.66602 5.12436 2.66602 7.3335V16.3335V20.3335C2.66602 22.5426 4.45688 24.3335 6.66602 24.3335H10.9993V24.6766C10.9993 25.4723 10.6833 26.2354 10.1207 26.798L9.29224 27.6264C9.00624 27.9124 8.92069 28.3425 9.07547 28.7162C9.23025 29.0899 9.59489 29.3335 9.99935 29.3335H17.0788C16.5103 28.7411 16.0252 28.0682 15.6423 27.3335H12.2351C12.7305 26.5436 12.9993 25.624 12.9993 24.6766V24.3335H14.7231C14.6854 24.0054 14.666 23.6717 14.666 23.3335C14.666 22.9953 14.6854 22.6616 14.7231 22.3335H11.9993H6.66602C5.56145 22.3335 4.66602 21.4381 4.66602 20.3335V16.3335V7.3335C4.66602 6.22893 5.56145 5.3335 6.66602 5.3335H25.3327C26.4373 5.3335 27.3327 6.22893 27.3327 7.3335V15.6431C28.0674 16.026 28.7403 16.5111 29.3327 17.0796V16.3335V7.3335C29.3327 5.12436 27.5418 3.3335 25.3327 3.3335H6.66602Z" fill="#0F172A"/>
<path fill-rule="evenodd" clip-rule="evenodd" d="M30.0003 23.3334C30.0003 27.0153 27.0156 30.0001 23.3337 30.0001C19.6518 30.0001 16.667 27.0153 16.667 23.3334C16.667 19.6515 19.6518 16.6667 23.3337 16.6667C27.0156 16.6667 30.0003 19.6515 30.0003 23.3334ZM25.6872 20.9799C25.8825 21.1751 25.8825 21.4917 25.6872 21.687L24.0408 23.3334L25.6942 24.9868C25.8894 25.1821 25.8894 25.4986 25.6942 25.6939C25.4989 25.8892 25.1823 25.8892 24.987 25.6939L23.3337 24.0405L21.6803 25.6939C21.485 25.8892 21.1684 25.8892 20.9732 25.6939C20.7779 25.4986 20.7779 25.1821 20.9732 24.9868L22.6266 23.3334L20.9801 21.687C20.7848 21.4917 20.7848 21.1751 20.9801 20.9799C21.1754 20.7846 21.492 20.7846 21.6872 20.9799L23.3337 22.6263L24.9801 20.9799C25.1754 20.7846 25.492 20.7846 25.6872 20.9799Z" fill="#D91B1B"/>
</svg>
