<svg width="40" height="41" viewBox="0 0 40 41" fill="none" xmlns="http://www.w3.org/2000/svg">
<g clip-path="url(#clip0_178_28829)">
<g clip-path="url(#clip1_178_28829)">
<path d="M15.8783 26.8909H6.67941C6.20015 26.8887 5.73015 26.7575 5.31796 26.5107C4.90577 26.2639 4.56633 25.9105 4.33472 25.487C4.10311 25.0636 3.98772 24.5853 4.00046 24.1018C4.01321 23.6183 4.15364 23.1469 4.40724 22.7365L8.85408 15.5144L13.5934 7.843C13.8352 7.45126 14.1718 7.12814 14.5716 6.9041C14.9713 6.68006 15.421 6.5625 15.8783 6.5625C16.3356 6.5625 16.7853 6.68006 17.185 6.9041C17.5848 7.12814 17.9214 7.45126 18.1632 7.843L22.9025 15.5144L27.3621 22.7365C27.6162 23.1478 27.7567 23.6204 27.7689 24.105C27.7811 24.5896 27.6646 25.0688 27.4315 25.4926C27.1984 25.9165 26.8571 26.2697 26.4431 26.5156C26.0292 26.7614 25.5575 26.891 25.0772 26.8909H15.8783Z" fill="url(#paint0_linear_178_28829)"/>
<path d="M25.0775 26.8908H22.4153C20.5993 25.132 19.4956 22.7548 19.3186 20.2208C19.1416 17.6868 19.9038 15.1769 21.4573 13.1782L22.9028 15.5143L27.3624 22.7364C27.6166 23.1478 27.757 23.6203 27.7692 24.1049C27.7814 24.5896 27.6649 25.0687 27.4318 25.4926C27.1987 25.9164 26.8574 26.2696 26.4435 26.5155C26.0295 26.7614 25.5578 26.891 25.0775 26.8908Z" fill="url(#paint1_linear_178_28829)"/>
<path d="M15.8786 24.033C16.5528 24.033 17.0994 23.4813 17.0994 22.8008C17.0994 22.1203 16.5528 21.5686 15.8786 21.5686C15.2043 21.5686 14.6577 22.1203 14.6577 22.8008C14.6577 23.4813 15.2043 24.033 15.8786 24.033Z" fill="#7C5A33"/>
<path d="M31.207 25.6032L32.4449 27.6269L37.0146 35.0929C37.2605 35.4095 38.0786 35.2426 38.8756 34.7121C39.6726 34.1816 40.1473 33.4842 39.9523 33.1333L34.929 25.9412L33.5725 24.0244L31.207 25.6032Z" fill="url(#paint2_linear_178_28829)"/>
<path d="M28.7439 27.6609C33.3889 27.6609 37.1543 23.8605 37.1543 19.1724C37.1543 14.4843 33.3889 10.6838 28.7439 10.6838C24.099 10.6838 20.3335 14.4843 20.3335 19.1724C20.3335 23.8605 24.099 27.6609 28.7439 27.6609Z" fill="url(#paint3_linear_178_28829)"/>
<path d="M32.3854 24.696C31.5394 25.262 30.5741 25.621 29.5664 25.7443C28.9534 25.8215 28.3326 25.8115 27.7224 25.7143C27.5952 25.6929 27.4723 25.6715 27.3451 25.6416C25.6725 25.2768 24.2092 24.2625 23.2713 22.8178C23.1696 22.6637 23.0763 22.5054 22.9873 22.3471C22.9849 22.333 22.9849 22.3185 22.9873 22.3044C22.4427 21.2937 22.1721 20.1557 22.2031 19.0056C22.2333 17.8833 22.5439 16.7869 23.106 15.8181C23.1442 15.754 23.1823 15.6898 23.2247 15.6256C23.3912 15.3549 23.5798 15.0988 23.7885 14.8598C24.1808 14.3942 24.6361 13.9866 25.1408 13.6489C26.5922 12.6793 28.3659 12.3313 30.0715 12.6816C31.7772 13.0318 33.2751 14.0516 34.2358 15.5165C35.1965 16.9814 35.5413 18.7716 35.1943 20.4931C34.8473 22.2146 33.8369 23.7264 32.3854 24.696Z" fill="url(#paint4_linear_178_28829)"/>
<path d="M27.3409 25.6416C25.6698 25.2757 24.2082 24.2615 23.2713 22.8177C23.1696 22.6637 23.0763 22.5054 22.9873 22.3471C22.9849 22.3329 22.9849 22.3185 22.9873 22.3043C22.4427 21.2936 22.1721 20.1557 22.2031 19.0056C22.2333 17.8833 22.5439 16.7869 23.106 15.8181L27.3621 22.7365C27.6333 23.1724 27.7754 23.6774 27.7717 24.1921C27.7679 24.7068 27.6184 25.2097 27.3409 25.6416Z" fill="url(#paint5_linear_178_28829)"/>
<path opacity="0.3" d="M15.8787 35.281C22.0758 35.281 27.0996 34.5128 27.0996 33.5653C27.0996 32.6177 22.0758 31.8496 15.8787 31.8496C9.68151 31.8496 4.65771 32.6177 4.65771 33.5653C4.65771 34.5128 9.68151 35.281 15.8787 35.281Z" fill="#E4EDEF"/>
<path d="M27.7224 25.7142C27.5952 25.6928 27.4723 25.6714 27.3451 25.6415C25.6725 25.2767 24.2092 24.2623 23.2713 22.8177C23.1696 22.6636 23.0763 22.5053 22.9873 22.347C22.9849 22.3329 22.9849 22.3184 22.9873 22.3042C22.4427 21.2935 22.1721 20.1556 22.2031 19.0055C22.2333 17.8832 22.5439 16.7868 23.106 15.818C23.1442 15.7538 23.1823 15.6897 23.2247 15.6255L27.6291 22.792C27.9018 23.2263 28.0542 23.7264 28.0706 24.2403C28.087 24.7541 27.9668 25.2631 27.7224 25.7142Z" fill="url(#paint6_linear_178_28829)"/>
<path d="M15.8784 20.3276C15.6621 20.328 15.4538 20.245 15.2962 20.0954C15.1386 19.9459 15.0436 19.7412 15.0306 19.5233L14.7127 13.4392C14.704 13.2805 14.7276 13.1217 14.7818 12.9725C14.8361 12.8233 14.92 12.6869 15.0283 12.5715C15.1367 12.4562 15.2672 12.3643 15.4119 12.3017C15.5566 12.239 15.7125 12.2068 15.87 12.207C16.0274 12.2068 16.1833 12.239 16.328 12.3017C16.4728 12.3643 16.6033 12.4562 16.7116 12.5715C16.82 12.6869 16.9038 12.8233 16.9581 12.9725C17.0124 13.1217 17.0359 13.2805 17.0272 13.4392L16.7008 19.5233C16.6882 19.7368 16.5968 19.9379 16.4445 20.0868C16.2923 20.2357 16.0903 20.3216 15.8784 20.3276Z" fill="#7C5A33"/>
</g>
</g>
<defs>
<linearGradient id="paint0_linear_178_28829" x1="16.0224" y1="3.24788" x2="15.8627" y2="26.2149" gradientUnits="userSpaceOnUse">
<stop stop-color="#FF9D00"/>
<stop offset="0.29" stop-color="#FFAC00"/>
<stop offset="0.84" stop-color="#FFD400"/>
<stop offset="1" stop-color="#FFE100"/>
</linearGradient>
<linearGradient id="paint1_linear_178_28829" x1="21.1478" y1="13.3536" x2="24.8698" y2="27.1089" gradientUnits="userSpaceOnUse">
<stop stop-color="#D69D00"/>
<stop offset="0.1" stop-color="#D79F00" stop-opacity="0.97"/>
<stop offset="0.24" stop-color="#DBA600" stop-opacity="0.87"/>
<stop offset="0.42" stop-color="#E1B000" stop-opacity="0.72"/>
<stop offset="0.62" stop-color="#EABE00" stop-opacity="0.51"/>
<stop offset="0.83" stop-color="#F5D100" stop-opacity="0.24"/>
<stop offset="1" stop-color="#FFE100" stop-opacity="0"/>
</linearGradient>
<linearGradient id="paint2_linear_178_28829" x1="34.1278" y1="31.0412" x2="36.299" y2="29.1101" gradientUnits="userSpaceOnUse">
<stop stop-color="#0C6CBC"/>
<stop offset="1" stop-color="#009BF5"/>
</linearGradient>
<linearGradient id="paint3_linear_178_28829" x1="29.9182" y1="29.9328" x2="27.9711" y2="12.4034" gradientUnits="userSpaceOnUse">
<stop stop-color="#0C6CBC"/>
<stop offset="0.05" stop-color="#0B70C1"/>
<stop offset="0.43" stop-color="#0587DD"/>
<stop offset="0.76" stop-color="#0196EF"/>
<stop offset="1" stop-color="#009BF5"/>
</linearGradient>
<linearGradient id="paint4_linear_178_28829" x1="25.0772" y1="24.1056" x2="33.4415" y2="13.0729" gradientUnits="userSpaceOnUse">
<stop stop-color="#BCEAFB"/>
<stop offset="1" stop-color="white"/>
</linearGradient>
<linearGradient id="paint5_linear_178_28829" x1="23.407" y1="23.16" x2="27.1216" y2="18.2599" gradientUnits="userSpaceOnUse">
<stop stop-color="#BCEAFB"/>
<stop offset="1" stop-color="white"/>
</linearGradient>
<linearGradient id="paint6_linear_178_28829" x1="23.2883" y1="21.9705" x2="27.8842" y2="19.2738" gradientUnits="userSpaceOnUse">
<stop stop-color="#BCEAFB"/>
<stop offset="0.13" stop-color="#C3E9E2"/>
<stop offset="0.39" stop-color="#D4E7A3"/>
<stop offset="0.78" stop-color="#EFE33E"/>
<stop offset="1" stop-color="#FFE100"/>
</linearGradient>
<clipPath id="clip0_178_28829">
<rect width="39.9961" height="39.9961" fill="white" transform="translate(0 0.423828)"/>
</clipPath>
<clipPath id="clip1_178_28829">
<rect width="39.9961" height="39.9961" fill="white" transform="translate(0 0.423828)"/>
</clipPath>
</defs>
</svg>
