<svg width="17" height="17" viewBox="0 0 17 17" fill="none" xmlns="http://www.w3.org/2000/svg">
<path fill-rule="evenodd" clip-rule="evenodd" d="M14.6001 8.5C14.6001 11.8137 11.9138 14.5 8.6001 14.5C5.28639 14.5 2.6001 11.8137 2.6001 8.5C2.6001 5.18629 5.28639 2.5 8.6001 2.5C11.9138 2.5 14.6001 5.18629 14.6001 8.5ZM8.6001 15.5C12.4661 15.5 15.6001 12.366 15.6001 8.5C15.6001 4.63401 12.4661 1.5 8.6001 1.5C4.7341 1.5 1.6001 4.63401 1.6001 8.5C1.6001 12.366 4.7341 15.5 8.6001 15.5Z" fill="#7589A3"/>
<path d="M6.6001 8.7L8.6001 10.7M8.6001 10.7L10.6001 8.7M8.6001 10.7L8.6001 5.5" stroke="#7589A3" stroke-linecap="round" stroke-linejoin="round"/>
</svg>
