<svg width="240" height="175" viewBox="0 0 240 175" fill="none" xmlns="http://www.w3.org/2000/svg">
<circle opacity="0.5" cx="67.5" cy="12.5" r="6.5" fill="#C8DEFF"/>
<circle opacity="0.5" cx="194.013" cy="87.5" r="6.5" fill="#ABCDFF"/>
<circle cx="24.5" cy="77.5" r="6" stroke="#ABCDFF"/>
<path opacity="0.9" d="M79.5815 148.65L46.5128 156L53.8628 122.931C49.0223 113.877 46.4973 103.766 46.5128 93.5C46.5128 58.9812 74.494 31 109.013 31C143.531 31 171.513 58.9812 171.513 93.5C171.513 128.019 143.531 156 109.013 156C98.7462 156.015 88.6353 153.49 79.5815 148.65V148.65Z" fill="#E5EFFF"/>
<path opacity="0.9" d="M177.449 47.236L169.513 49L171.277 41.0635C170.115 38.8906 169.509 36.464 169.513 34C169.513 25.7155 176.228 19 184.513 19C192.797 19 199.513 25.7155 199.513 34C199.513 42.2845 192.797 49 184.513 49C182.049 49.0037 179.622 48.3977 177.449 47.236V47.236Z" fill="#FBEBE9"/>
<path opacity="0.4" d="M171.037 167.883L161.513 170L163.63 160.476C162.235 157.869 161.508 154.957 161.513 152C161.513 142.059 169.571 134 179.513 134C189.454 134 197.513 142.059 197.513 152C197.513 161.941 189.454 170 179.513 170C176.556 170.004 173.644 169.277 171.037 167.883V167.883Z" fill="#B2E2CB"/>
<path d="M191.161 30.2337C190.721 29.7941 190.189 29.4577 189.603 29.2488C189.018 29.0399 188.393 28.9637 187.774 29.0258C187.156 29.0879 186.559 29.2867 186.026 29.6078C185.494 29.9289 185.039 30.3643 184.696 30.8825C184.372 30.3929 183.949 29.9765 183.455 29.6605C182.96 29.3444 182.405 29.1356 181.825 29.0475C181.245 28.9594 180.652 28.9941 180.086 29.1492C179.52 29.3043 178.993 29.5765 178.539 29.9481C178.085 30.3197 177.714 30.7824 177.449 31.3065C177.185 31.8305 177.034 32.4041 177.005 32.9903C176.976 33.5765 177.071 34.1622 177.283 34.7095C177.495 35.2568 177.819 35.7536 178.235 36.1678L184.696 42.6302L191.159 36.1678C191.946 35.3806 192.388 34.3134 192.388 33.2007C192.388 32.088 191.946 31.0209 191.159 30.2337H191.161Z" fill="white"/>
<path fill-rule="evenodd" clip-rule="evenodd" d="M132.723 85.5124C133.22 85.5125 133.717 85.5672 134.202 85.6755C135.972 86.0699 137.513 87.1501 138.487 88.6792C139.461 90.2083 139.789 92.0613 139.398 93.8316L134.188 117.274C133.857 118.797 133.013 120.16 131.798 121.135C130.582 122.11 129.069 122.638 127.511 122.63H94.6282C94.3692 122.63 94.1207 122.527 93.9375 122.344C93.7543 122.161 93.6514 121.912 93.6514 121.653V95.2802C93.6505 95.2003 93.6593 95.1206 93.6778 95.0429C94.4396 92.0006 96.6954 89.4086 98.8772 86.9015L98.8782 86.9004L98.8855 86.8921C100.717 84.7887 102.611 82.6132 103.478 80.2866C105.04 75.6347 106.005 70.8034 106.35 65.9084C106.367 65.6614 106.477 65.4302 106.659 65.2615C106.84 65.0929 107.079 64.9994 107.326 65C107.414 65 116.117 65.1114 116.117 74.7678V85.5124H132.723ZM79.9768 89.4193H90.7214C91.2608 89.4193 91.6981 89.8566 91.6981 90.396V121.653C91.6981 122.192 91.2608 122.63 90.7214 122.63H79.9768C79.4373 122.63 79 122.192 79 121.653V90.396C79 89.8566 79.4373 89.4193 79.9768 89.4193Z" fill="white"/>
<path d="M191 154H169C169 156.917 170.159 159.715 172.222 161.778C174.285 163.841 177.083 165 180 165C182.917 165 185.715 163.841 187.778 161.778C189.841 159.715 191 156.917 191 154Z" fill="white"/>
</svg>
