<?xml version="1.0" encoding="UTF-8"?>
<svg width="24px" height="24px" viewBox="0 0 24 24" version="1.1" xmlns="http://www.w3.org/2000/svg" xmlns:xlink="http://www.w3.org/1999/xlink">
    <title>Uncloud_24_Line</title>
    <g id="Page-1" stroke="none" stroke-width="1" fill="none" fill-rule="evenodd">
        <g id="Uncloud_24_Line" fill="#3D3D3D" fill-rule="nonzero">
            <path d="M21.5303301,2.46966991 C21.7965966,2.73593648 21.8208027,3.15260016 21.6029482,3.44621165 L21.5303301,3.53033009 L17.5175692,7.54372983 C18.3040078,8.56911055 18.8007712,9.78764566 18.960053,11.0690956 L18.988,11.346 L19.1982372,11.4054251 C19.8353806,11.6032028 20.4165816,11.9613069 20.8846901,12.4504261 L21.0364593,12.6182781 C21.7226504,13.4218877 22.0651973,14.4674615 21.989698,15.5256798 C21.9141747,16.5841113 21.4263071,17.5696331 20.6324425,18.2655261 C19.897765,18.9094366 18.956692,19.2565038 18.0324741,19.2471094 L17.8019,19.2373 L6.85414993,19.2372978 C6.54019644,19.2365359 6.22710547,19.2049836 5.91922327,19.1432978 L3.53033009,21.5303301 C3.23743687,21.8232233 2.76256313,21.8232233 2.46966991,21.5303301 C2.20340335,21.2640635 2.1791973,20.8473998 2.39705176,20.5537883 L2.46966991,20.4696699 L20.4696699,2.46966991 C20.7625631,2.1767767 21.2374369,2.1767767 21.5303301,2.46966991 Z M16.4450953,8.61579016 L7.32297089,17.737 L17.8566787,17.7393031 C18.5067427,17.7869098 19.1494247,17.5707335 19.6437141,17.1375119 C20.1399487,16.702518 20.4460306,16.0842142 20.4935016,15.4189264 C20.5410085,14.7530572 20.325697,14.0958506 19.8957775,13.592365 C19.4674863,13.0908628 18.8614681,12.7829316 18.2110213,12.7352969 C17.8183591,12.7065407 17.5147753,12.3790556 17.5158026,11.9853432 C17.5189714,10.7708159 17.1413829,9.59191664 16.4450953,8.61579016 Z M12.820942,4.81308221 C13.4455293,4.89714673 14.0547861,5.06426354 14.6337507,5.30932945 C15.0151997,5.47079031 15.1935352,5.91090563 15.0320743,6.29235454 C14.8706135,6.67380344 14.4304982,6.85213899 14.0490493,6.69067813 C13.5927532,6.49753574 13.1128206,6.36589206 12.6208446,6.29967599 C11.266149,6.11731989 9.89211451,6.44071484 8.75457497,7.21004792 C7.6152686,7.98057592 6.79090447,9.14592962 6.43616781,10.4888454 C6.36940009,10.741606 6.17583255,10.9413603 5.92529698,11.0160447 C5.22672383,11.2242886 4.61282684,11.656535 4.17552293,12.2488215 C3.73714676,12.8424781 3.49999809,13.5647003 3.49999602,14.3090642 C3.49893675,14.7593854 3.5854183,15.2054397 3.75441943,15.6216145 C3.823396,15.7914711 3.90561013,15.9551964 4.00015243,16.1110863 C4.21494565,16.4652568 4.10195803,16.926493 3.74778753,17.1412862 C3.39361702,17.3560794 2.93238079,17.2430918 2.71758757,16.8889213 C2.58166627,16.664802 2.46360686,16.4296927 2.3646394,16.1859827 C2.12236276,15.5893629 1.99848324,14.9504174 1.99998437,14.3073 C1.99998437,13.2443629 2.33971586,12.2097725 2.96882762,11.3578184 C3.49396,10.6465766 4.19731188,10.094429 5.00224587,9.7557277 L5.101,9.716 L5.16807104,9.51790647 C5.64912935,8.16985151 6.51719013,6.9942395 7.66422191,6.14456127 L7.91424503,5.96753208 C9.35654836,4.99208321 11.1008544,4.58154057 12.820942,4.81308221 Z" id="Shape"></path>
        </g>
    </g>
</svg>