<svg width="24" height="24" viewBox="0 0 24 24" fill="none" xmlns="http://www.w3.org/2000/svg">
<path d="M9.98315 0.550126C11.2277 -0.183376 12.7723 -0.183375 14.0169 0.550127L15.726 1.55747C16.0456 1.74585 16.3901 1.88852 16.7493 1.98133L18.6702 2.47759C20.0688 2.83894 21.1611 3.93117 21.5224 5.32985L22.0187 7.25071C22.1115 7.60992 22.2541 7.95436 22.4425 8.27398L23.4499 9.98315C24.1834 11.2277 24.1834 12.7723 23.4499 14.0169L22.4425 15.726C22.2541 16.0456 22.1115 16.3901 22.0187 16.7493L21.5224 18.6702C21.1611 20.0688 20.0688 21.1611 18.6702 21.5224L16.7493 22.0187C16.3901 22.1115 16.0456 22.2541 15.726 22.4425L14.0169 23.4499C12.7723 24.1834 11.2277 24.1834 9.98315 23.4499L8.27398 22.4425C7.95436 22.2541 7.60992 22.1115 7.25071 22.0187L5.32985 21.5224C3.93116 21.1611 2.83894 20.0688 2.47759 18.6701L1.98133 16.7493C1.88852 16.3901 1.74585 16.0456 1.55747 15.726L0.550126 14.0168C-0.183376 12.7723 -0.183375 11.2277 0.550127 9.98314L1.55747 8.27398C1.74585 7.95436 1.88852 7.60992 1.98133 7.25071L2.47759 5.32985C2.83894 3.93116 3.93117 2.83894 5.32985 2.47759L7.25071 1.98133C7.60992 1.88852 7.95436 1.74585 8.27398 1.55747L9.98315 0.550126Z" fill="white"/>
<path d="M10.2865 2.26766C11.3443 1.64418 12.6573 1.64418 13.7151 2.26766L15.1679 3.1239C15.4396 3.28402 15.7323 3.40529 16.0377 3.48418L17.6704 3.906C18.8593 4.21315 19.7877 5.14154 20.0948 6.33042L20.5167 7.96315C20.5955 8.26848 20.7168 8.56125 20.8769 8.83293L21.7332 10.2857C22.3566 11.3436 22.3566 12.6565 21.7332 13.7144L20.8769 15.1672C20.7168 15.4388 20.5955 15.7316 20.5167 16.0369L20.0948 17.6697C19.7877 18.8586 18.8593 19.7869 17.6704 20.0941L16.0377 20.5159C15.7323 20.5948 15.4396 20.7161 15.1679 20.8762L13.7151 21.7324C12.6573 22.3559 11.3443 22.3559 10.2865 21.7324L8.83366 20.8762C8.56199 20.7161 8.26922 20.5948 7.96389 20.5159L6.33115 20.0941C5.14227 19.7869 4.21388 18.8586 3.90673 17.6697L3.48491 16.0369C3.40603 15.7316 3.28476 15.4388 3.12463 15.1672L2.26839 13.7144C1.64491 12.6565 1.64491 11.3436 2.26839 10.2857L3.12463 8.83293C3.28476 8.56125 3.40603 8.26848 3.48491 7.96315L3.90673 6.33042C4.21388 5.14154 5.14227 4.21315 6.33115 3.906L7.96389 3.48418C8.26922 3.40529 8.56199 3.28402 8.83366 3.1239L10.2865 2.26766Z" fill="#F59300"/>
<path d="M17.6184 9.72086C17.9264 9.41731 17.9279 8.92094 17.6218 8.61551L17.0305 8.02548C16.7286 7.72422 16.2404 7.72204 15.9358 8.02058L10.4003 13.4461L8.08105 11.1559C7.78111 10.8598 7.29992 10.8562 6.99559 11.1478L6.39022 11.7279C6.07507 12.03 6.06982 12.532 6.37858 12.8405L8.67399 15.1342L9.28821 15.7471C9.88722 16.3448 10.854 16.3545 11.4649 15.7691L12.0922 15.168L17.6184 9.72086Z" fill="white"/>
</svg>
