<svg width="18" height="18" viewBox="0 0 18 18" fill="none" xmlns="http://www.w3.org/2000/svg">
<path fill-rule="evenodd" clip-rule="evenodd" d="M9 2.65385C5.49512 2.65385 2.65385 5.49512 2.65385 9C2.65385 12.5049 5.49512 15.3462 9 15.3462C12.5049 15.3462 15.3462 12.5049 15.3462 9C15.3462 5.49512 12.5049 2.65385 9 2.65385ZM1.5 9C1.5 4.85786 4.85786 1.5 9 1.5C13.1421 1.5 16.5 4.85786 16.5 9C16.5 13.1421 13.1421 16.5 9 16.5C4.85786 16.5 1.5 13.1421 1.5 9ZM9.00009 13.4503C9.5463 13.4503 9.9891 13.0075 9.9891 12.4613C9.9891 11.9151 9.5463 11.4723 9.00009 11.4723C8.45387 11.4723 8.01108 11.9151 8.01108 12.4613C8.01108 13.0075 8.45387 13.4503 9.00009 13.4503ZM9.5769 5.04421C9.5769 4.72559 9.3186 4.46729 8.99997 4.46729C8.68135 4.46729 8.42305 4.72559 8.42305 5.04421V9.49476C8.42305 9.81339 8.68135 10.0717 8.99997 10.0717C9.3186 10.0717 9.5769 9.81339 9.5769 9.49476V5.04421Z" fill="#72808E"/>
</svg>
