<svg width="44" height="16" viewBox="0 0 44 16" fill="none" xmlns="http://www.w3.org/2000/svg">
<path d="M9.32617 12V4H12.123C12.6803 4 13.14 4.09635 13.502 4.28906C13.8639 4.47917 14.1335 4.73568 14.3105 5.05859C14.4876 5.37891 14.5762 5.73437 14.5762 6.125C14.5762 6.46875 14.515 6.7526 14.3926 6.97656C14.2728 7.20052 14.1139 7.3776 13.916 7.50781C13.7207 7.63802 13.5085 7.73437 13.2793 7.79687V7.875C13.5241 7.89062 13.7702 7.97656 14.0176 8.13281C14.265 8.28906 14.472 8.51302 14.6387 8.80469C14.8053 9.09635 14.8887 9.45312 14.8887 9.875C14.8887 10.276 14.7975 10.6367 14.6152 10.957C14.4329 11.2773 14.1452 11.5312 13.752 11.7187C13.3587 11.9062 12.847 12 12.2168 12H9.32617ZM10.2949 11.1406H12.2168C12.8496 11.1406 13.2988 11.0182 13.5645 10.7734C13.8327 10.526 13.9668 10.2266 13.9668 9.875C13.9668 9.60417 13.8978 9.35417 13.7598 9.125C13.6217 8.89323 13.4251 8.70833 13.1699 8.57031C12.9147 8.42969 12.6126 8.35938 12.2637 8.35938H10.2949V11.1406ZM10.2949 7.51562H12.0918C12.3835 7.51562 12.6465 7.45833 12.8809 7.34375C13.1178 7.22917 13.3053 7.06771 13.4434 6.85937C13.584 6.65104 13.6543 6.40625 13.6543 6.125C13.6543 5.77344 13.5319 5.47526 13.2871 5.23047C13.0423 4.98307 12.6543 4.85937 12.123 4.85937H10.2949V7.51562ZM16.4805 12V4H21.3086V4.85937H17.4492V7.5625H21.0586V8.42187H17.4492V11.1406H21.3711V12H16.4805ZM22.6172 4.85937V4H28.6172V4.85937H26.1016V12H25.1328V4.85937H22.6172ZM29.5059 12H28.4902L31.4277 4H32.4277L35.3652 12H34.3496L31.959 5.26562H31.8965L29.5059 12ZM29.8809 8.875H33.9746V9.73437H29.8809V8.875Z" fill="#0068FF"/>
<rect x="0.5" y="0.5" width="43" height="15" rx="7.5" stroke="#0068FF"/>
</svg>
