<svg width="24" height="25" viewBox="0 0 24 25" fill="none" xmlns="http://www.w3.org/2000/svg">
<path fill-rule="evenodd" clip-rule="evenodd" d="M4.5 10.0713C3.67157 10.0713 3 10.7429 3 11.5713V18.2856C3 19.114 3.67157 19.7856 4.5 19.7856H13.6428C14.4713 19.7856 15.1428 19.114 15.1428 18.2856V16.1521L18.5542 17.8511C19.219 18.1822 20 17.6987 20 16.956V12.9064C20 12.1623 19.2164 11.6789 18.5514 12.0126L15.1428 13.7236V11.5713C15.1428 10.7429 14.4713 10.0713 13.6428 10.0713H4.5Z" fill="#72808E"/>
<path fill-rule="evenodd" clip-rule="evenodd" d="M17.5 10.5C19.433 10.5 21 8.933 21 7C21 5.067 19.433 3.5 17.5 3.5C15.567 3.5 14 5.067 14 7C14 8.933 15.567 10.5 17.5 10.5ZM17.5 9.49997C18.8807 9.49997 20 8.38068 20 6.99997C20 5.61926 18.8807 4.49997 17.5 4.49997C16.1193 4.49997 15 5.61926 15 6.99997C15 8.38068 16.1193 9.49997 17.5 9.49997Z" fill="#EF4E49"/>
<path d="M15.5 9L19.5 5" stroke="#EF4E49" stroke-linecap="square"/>
</svg>
