<svg width="25" height="25" viewBox="0 0 25 25" fill="none" xmlns="http://www.w3.org/2000/svg">
<rect x="5.25" y="5.25" width="14.5" height="14.5" rx="2.25" fill="white" stroke="#0068FF" stroke-width="1.5"/>
<path fill-rule="evenodd" clip-rule="evenodd" d="M7.5 4.5C5.84315 4.5 4.5 5.84315 4.5 7.5V17.5C4.5 19.1569 5.84315 20.5 7.5 20.5H17.5C19.1569 20.5 20.5 19.1569 20.5 17.5V7.5C20.5 5.84315 19.1569 4.5 17.5 4.5H7.5ZM16.7802 10.2803C17.0731 9.98746 17.0731 9.51258 16.7802 9.21968C16.4873 8.92678 16.0125 8.92677 15.7196 9.21966L11.2499 13.6891L9.77642 12.2157C9.48353 11.9228 9.00865 11.9228 8.71576 12.2157C8.42287 12.5085 8.42287 12.9834 8.71576 13.2763L10.7196 15.2801C11.0124 15.573 11.4873 15.573 11.7802 15.2801L16.7802 10.2803Z" fill="#0068FF"/>
</svg>
