<svg width="56" height="57" viewBox="0 0 56 57" fill="none" xmlns="http://www.w3.org/2000/svg">
<circle cx="26.0233" cy="20.3508" r="3.42405" fill="white" stroke="#72808E" stroke-width="1.55914"/>
<path d="M34.0038 33.6964H18.0945C18.2553 31.7586 19.1076 30.0166 20.4045 28.721C21.8483 27.278 23.8449 26.3838 26.0488 26.3838C28.2535 26.3838 30.2497 27.278 31.6942 28.7218C32.9899 30.0171 33.8422 31.759 34.0038 33.6964Z" fill="white"/>
<path d="M18.0945 33.6964L17.3176 33.6319C17.2996 33.8491 17.3733 34.064 17.5209 34.2243C17.6685 34.3847 17.8765 34.476 18.0945 34.476V33.6964ZM34.0038 33.6964V34.476C34.2219 34.476 34.4299 34.3847 34.5775 34.2242C34.7252 34.0638 34.7988 33.8488 34.7807 33.6316L34.0038 33.6964ZM31.6942 28.7218L32.2454 28.1705L32.2453 28.1704L31.6942 28.7218ZM20.4045 28.721L20.9555 29.2725L20.9556 29.2724L20.4045 28.721ZM18.0945 34.476H34.0038V32.9168H18.0945V34.476ZM34.7807 33.6316C34.6032 31.5043 33.6671 29.5917 32.2454 28.1705L31.1431 29.2731C32.3128 30.4424 33.0812 32.0137 33.227 33.7612L34.7807 33.6316ZM32.2453 28.1704C30.6607 26.5866 28.4686 25.6042 26.0488 25.6042V27.1634C28.0383 27.1634 29.8387 27.9694 31.1432 29.2732L32.2453 28.1704ZM26.0488 25.6042C23.6298 25.6042 21.4373 26.5866 19.8534 28.1696L20.9556 29.2724C22.2592 27.9695 24.06 27.1634 26.0488 27.1634V25.6042ZM19.8535 28.1695C18.4305 29.5912 17.4942 31.504 17.3176 33.6319L18.8714 33.7609C19.0164 32.0132 19.7847 30.4421 20.9555 29.2725L19.8535 28.1695Z" fill="#72808E"/>
<mask id="path-4-inside-1_2338_116717" fill="white">
<path fill-rule="evenodd" clip-rule="evenodd" d="M4.68359 23.5381H8.50466C8.81802 23.5381 9.10416 23.6678 9.31005 23.8737C9.51593 24.0796 9.64472 24.3657 9.64472 24.6787V24.9335C9.64472 25.2464 9.51593 25.5335 9.31005 25.7384C9.10416 25.9443 8.81802 26.074 8.50511 26.074H4.68405H4.665H4.64595H2.6157C2.3028 26.074 2.01574 25.9443 1.81077 25.7384C1.60488 25.5335 1.47519 25.2464 1.47519 24.9335V24.6787C1.47519 24.3657 1.60488 24.0796 1.81077 23.8737C2.01574 23.6678 2.3028 23.5381 2.6157 23.5381H4.6455H4.66455H4.68359ZM5.40237 45.2923V40.3955H8.50466C9.22388 40.3955 9.87962 40.0999 10.3517 39.6278C10.8247 39.1548 11.1195 38.5 11.1195 37.7798V37.525C11.1195 36.8044 10.8247 36.15 10.3517 35.677C9.87962 35.204 9.22388 34.9093 8.50466 34.9093H5.40237V27.5492H8.50466C9.22388 27.5492 9.87962 27.2535 10.3517 26.7815C10.8247 26.3085 11.1195 25.6541 11.1195 24.9335V24.6787C11.1195 23.9581 10.8247 23.3037 10.3517 22.8307C9.87962 22.3586 9.22388 22.063 8.50466 22.063H5.40237V14.7029H8.50466C9.22388 14.7029 9.87962 14.4081 10.3517 13.9351C10.8247 13.4622 11.1195 12.8073 11.1195 12.0872V11.8328C11.1195 11.1149 10.8247 10.4614 10.3499 9.98483C9.87509 9.51185 9.22162 9.21708 8.50466 9.21708H5.40237V4.32217C5.40237 3.54036 5.72253 2.82703 6.23859 2.31096L6.26535 2.2833C6.77552 1.78446 7.47751 1.47473 8.24889 1.47473H42.0494C42.8307 1.47473 43.5441 1.79489 44.0597 2.31096C44.5758 2.82748 44.8964 3.5399 44.8964 4.32217V35.0462C45.2602 35.0156 45.6283 35 46 35C46.1244 35 46.2484 35.0018 46.372 35.0052V4.32262C46.372 3.13449 45.8854 2.05202 45.1027 1.2693C44.32 0.487043 43.2393 0 42.0494 0H8.24889C7.08071 0 6.01276 0.472985 5.23186 1.23711L5.19648 1.26885C4.41422 2.05157 3.92718 3.13267 3.92718 4.32217V9.21708H2.6157C1.89874 9.21708 1.24482 9.51185 0.76775 9.98755C0.294765 10.4614 0 11.1149 0 11.8328V12.0872C0 12.8073 0.294765 13.4622 0.76775 13.9351C1.24073 14.4081 1.89557 14.7029 2.6157 14.7029H3.92718V22.063H2.6157C1.89511 22.063 1.24073 22.3586 0.76775 22.8307C0.294765 23.3037 0 23.9585 0 24.6787V24.9335C0 25.6541 0.294765 26.3085 0.76775 26.7815C1.24073 27.2535 1.89557 27.5492 2.6157 27.5492H3.92718V34.9093H2.6157C1.89511 34.9093 1.24073 35.204 0.76775 35.677C0.294765 36.15 0 36.8048 0 37.525V37.7798C0 38.5 0.294765 39.1548 0.76775 39.6278C1.24073 40.0999 1.89557 40.3955 2.6157 40.3955H3.92718V45.2923C3.92718 46.4804 4.41422 47.562 5.19648 48.3447C5.9792 49.1274 7.05985 49.614 8.24889 49.614H33.0992C33.0393 49.1303 33.006 48.6384 33.0007 48.1397H8.24889C7.46708 48.1397 6.75466 47.8186 6.23859 47.3026C5.72253 46.7865 5.40237 46.075 5.40237 45.2923ZM4.665 38.9204H4.64595H2.6157C2.3028 38.9204 2.01574 38.7907 1.81077 38.5848C1.60488 38.3789 1.47519 38.0927 1.47519 37.7798V37.525C1.47519 37.2121 1.60488 36.925 1.81077 36.7191C2.01574 36.5142 2.3028 36.3845 2.6157 36.3845H4.64595H4.665H4.68405H8.50511C8.81802 36.3845 9.10416 36.5142 9.31005 36.7191C9.51593 36.925 9.64472 37.2121 9.64472 37.525V37.7798C9.64472 38.0927 9.51593 38.3789 9.31005 38.5848C9.10416 38.7907 8.81802 38.9204 8.50511 38.9204H4.68405H4.665ZM4.665 10.6918H4.68405H8.50511C8.81802 10.6918 9.10371 10.8197 9.31277 11.0274C9.51684 11.2342 9.64472 11.5203 9.64472 11.8332V12.0876C9.64472 12.4005 9.51593 12.6876 9.31005 12.8935C9.10416 13.0994 8.81802 13.2282 8.50511 13.2282H4.68405H4.665H4.64595H2.6157C2.3028 13.2282 2.01574 13.0994 1.81077 12.8935C1.60488 12.6876 1.47519 12.4005 1.47519 12.0876V11.8332C1.47519 11.5203 1.60398 11.2342 1.81077 11.0247C2.01665 10.8206 2.3028 10.6918 2.6157 10.6918H4.64595H4.665Z"/>
</mask>
<path fill-rule="evenodd" clip-rule="evenodd" d="M4.68359 23.5381H8.50466C8.81802 23.5381 9.10416 23.6678 9.31005 23.8737C9.51593 24.0796 9.64472 24.3657 9.64472 24.6787V24.9335C9.64472 25.2464 9.51593 25.5335 9.31005 25.7384C9.10416 25.9443 8.81802 26.074 8.50511 26.074H4.68405H4.665H4.64595H2.6157C2.3028 26.074 2.01574 25.9443 1.81077 25.7384C1.60488 25.5335 1.47519 25.2464 1.47519 24.9335V24.6787C1.47519 24.3657 1.60488 24.0796 1.81077 23.8737C2.01574 23.6678 2.3028 23.5381 2.6157 23.5381H4.6455H4.66455H4.68359ZM5.40237 45.2923V40.3955H8.50466C9.22388 40.3955 9.87962 40.0999 10.3517 39.6278C10.8247 39.1548 11.1195 38.5 11.1195 37.7798V37.525C11.1195 36.8044 10.8247 36.15 10.3517 35.677C9.87962 35.204 9.22388 34.9093 8.50466 34.9093H5.40237V27.5492H8.50466C9.22388 27.5492 9.87962 27.2535 10.3517 26.7815C10.8247 26.3085 11.1195 25.6541 11.1195 24.9335V24.6787C11.1195 23.9581 10.8247 23.3037 10.3517 22.8307C9.87962 22.3586 9.22388 22.063 8.50466 22.063H5.40237V14.7029H8.50466C9.22388 14.7029 9.87962 14.4081 10.3517 13.9351C10.8247 13.4622 11.1195 12.8073 11.1195 12.0872V11.8328C11.1195 11.1149 10.8247 10.4614 10.3499 9.98483C9.87509 9.51185 9.22162 9.21708 8.50466 9.21708H5.40237V4.32217C5.40237 3.54036 5.72253 2.82703 6.23859 2.31096L6.26535 2.2833C6.77552 1.78446 7.47751 1.47473 8.24889 1.47473H42.0494C42.8307 1.47473 43.5441 1.79489 44.0597 2.31096C44.5758 2.82748 44.8964 3.5399 44.8964 4.32217V35.0462C45.2602 35.0156 45.6283 35 46 35C46.1244 35 46.2484 35.0018 46.372 35.0052V4.32262C46.372 3.13449 45.8854 2.05202 45.1027 1.2693C44.32 0.487043 43.2393 0 42.0494 0H8.24889C7.08071 0 6.01276 0.472985 5.23186 1.23711L5.19648 1.26885C4.41422 2.05157 3.92718 3.13267 3.92718 4.32217V9.21708H2.6157C1.89874 9.21708 1.24482 9.51185 0.76775 9.98755C0.294765 10.4614 0 11.1149 0 11.8328V12.0872C0 12.8073 0.294765 13.4622 0.76775 13.9351C1.24073 14.4081 1.89557 14.7029 2.6157 14.7029H3.92718V22.063H2.6157C1.89511 22.063 1.24073 22.3586 0.76775 22.8307C0.294765 23.3037 0 23.9585 0 24.6787V24.9335C0 25.6541 0.294765 26.3085 0.76775 26.7815C1.24073 27.2535 1.89557 27.5492 2.6157 27.5492H3.92718V34.9093H2.6157C1.89511 34.9093 1.24073 35.204 0.76775 35.677C0.294765 36.15 0 36.8048 0 37.525V37.7798C0 38.5 0.294765 39.1548 0.76775 39.6278C1.24073 40.0999 1.89557 40.3955 2.6157 40.3955H3.92718V45.2923C3.92718 46.4804 4.41422 47.562 5.19648 48.3447C5.9792 49.1274 7.05985 49.614 8.24889 49.614H33.0992C33.0393 49.1303 33.006 48.6384 33.0007 48.1397H8.24889C7.46708 48.1397 6.75466 47.8186 6.23859 47.3026C5.72253 46.7865 5.40237 46.075 5.40237 45.2923ZM4.665 38.9204H4.64595H2.6157C2.3028 38.9204 2.01574 38.7907 1.81077 38.5848C1.60488 38.3789 1.47519 38.0927 1.47519 37.7798V37.525C1.47519 37.2121 1.60488 36.925 1.81077 36.7191C2.01574 36.5142 2.3028 36.3845 2.6157 36.3845H4.64595H4.665H4.68405H8.50511C8.81802 36.3845 9.10416 36.5142 9.31005 36.7191C9.51593 36.925 9.64472 37.2121 9.64472 37.525V37.7798C9.64472 38.0927 9.51593 38.3789 9.31005 38.5848C9.10416 38.7907 8.81802 38.9204 8.50511 38.9204H4.68405H4.665ZM4.665 10.6918H4.68405H8.50511C8.81802 10.6918 9.10371 10.8197 9.31277 11.0274C9.51684 11.2342 9.64472 11.5203 9.64472 11.8332V12.0876C9.64472 12.4005 9.51593 12.6876 9.31005 12.8935C9.10416 13.0994 8.81802 13.2282 8.50511 13.2282H4.68405H4.665H4.64595H2.6157C2.3028 13.2282 2.01574 13.0994 1.81077 12.8935C1.60488 12.6876 1.47519 12.4005 1.47519 12.0876V11.8332C1.47519 11.5203 1.60398 11.2342 1.81077 11.0247C2.01665 10.8206 2.3028 10.6918 2.6157 10.6918H4.64595H4.665Z" fill="#72808E"/>
<path d="M9.31005 23.8737L9.27135 23.9124L9.31005 23.8737ZM9.31005 25.7384L9.27144 25.6997L9.27135 25.6997L9.31005 25.7384ZM1.81077 25.7384L1.84955 25.6998L1.84938 25.6997L1.81077 25.7384ZM1.81077 23.8737L1.84946 23.9124L1.84955 23.9123L1.81077 23.8737ZM5.40237 40.3955V40.3408H5.34764V40.3955H5.40237ZM10.3517 39.6278L10.313 39.5891L10.3517 39.6278ZM10.3517 35.677L10.313 35.7157L10.313 35.7157L10.3517 35.677ZM5.40237 34.9093H5.34764V34.964H5.40237V34.9093ZM5.40237 27.5492V27.4945H5.34764V27.5492H5.40237ZM10.3517 26.7815L10.313 26.7428L10.3517 26.7815ZM10.3517 22.8307L10.3904 22.792L10.3517 22.8307ZM5.40237 22.063H5.34764V22.1177H5.40237V22.063ZM5.40237 14.7029V14.6482H5.34764V14.7029H5.40237ZM10.3517 13.9351L10.313 13.8964L10.313 13.8965L10.3517 13.9351ZM10.3499 9.98483L10.3887 9.94621L10.3885 9.94606L10.3499 9.98483ZM5.40237 9.21708H5.34764V9.27181H5.40237V9.21708ZM6.23859 2.31096L6.27729 2.34966L6.27793 2.349L6.23859 2.31096ZM6.26535 2.2833L6.22708 2.24415L6.22601 2.24525L6.26535 2.2833ZM44.0597 2.31096L44.021 2.34964V2.34964L44.0597 2.31096ZM44.8964 35.0462H44.8417V35.1057L44.901 35.1007L44.8964 35.0462ZM46.372 35.0052L46.3705 35.0599L46.4267 35.0615V35.0052H46.372ZM45.1027 1.2693L45.1414 1.23061L45.1414 1.2306L45.1027 1.2693ZM5.23186 1.23711L5.26844 1.27787L5.27013 1.27622L5.23186 1.23711ZM5.19648 1.26885L5.15988 1.22806L5.15778 1.23017L5.19648 1.26885ZM3.92718 9.21708V9.27181H3.9819V9.21708H3.92718ZM0.76775 9.98755L0.72911 9.9488L0.729018 9.9489L0.76775 9.98755ZM0.76775 13.9351L0.729055 13.9738H0.729055L0.76775 13.9351ZM3.92718 14.7029H3.9819V14.6482H3.92718V14.7029ZM3.92718 22.063V22.1177H3.9819V22.063H3.92718ZM0.76775 22.8307L0.729092 22.792L0.729055 22.792L0.76775 22.8307ZM0.76775 26.7815L0.729055 26.8202L0.729092 26.8202L0.76775 26.7815ZM3.92718 27.5492H3.9819V27.4945H3.92718V27.5492ZM3.92718 34.9093V34.964H3.9819V34.9093H3.92718ZM0.76775 35.677L0.729055 35.6383L0.76775 35.677ZM0.76775 39.6278L0.729055 39.6665L0.729092 39.6665L0.76775 39.6278ZM3.92718 40.3955H3.9819V40.3408H3.92718V40.3955ZM5.19648 48.3447L5.15778 48.3834L5.15779 48.3834L5.19648 48.3447ZM33.0992 49.614V49.6687H33.1611L33.1535 49.6073L33.0992 49.614ZM33.0007 48.1397L33.0555 48.1391L33.0549 48.085H33.0007V48.1397ZM6.23859 47.3026L6.1999 47.3413L6.23859 47.3026ZM1.81077 38.5848L1.84955 38.5462L1.84946 38.5461L1.81077 38.5848ZM1.81077 36.7191L1.77207 36.6804H1.77207L1.81077 36.7191ZM9.31005 36.7191L9.34874 36.6804L9.34866 36.6804L9.31005 36.7191ZM9.31005 38.5848L9.34874 38.6235L9.31005 38.5848ZM9.31277 11.0274L9.35172 10.989L9.35134 10.9886L9.31277 11.0274ZM9.31005 12.8935L9.34874 12.9322L9.31005 12.8935ZM1.81077 12.8935L1.84955 12.8549L1.84946 12.8548L1.81077 12.8935ZM1.81077 11.0247L1.77224 10.9858L1.77182 10.9862L1.81077 11.0247ZM8.50466 23.4834H4.68359V23.5929H8.50466V23.4834ZM9.34874 23.835C9.13318 23.6195 8.83333 23.4834 8.50466 23.4834V23.5929C8.8027 23.5929 9.07515 23.7162 9.27135 23.9124L9.34874 23.835ZM9.69944 24.6787C9.69944 24.3505 9.56438 24.0507 9.34874 23.835L9.27135 23.9124C9.46748 24.1085 9.58999 24.381 9.58999 24.6787H9.69944ZM9.69944 24.9335V24.6787H9.58999V24.9335H9.69944ZM9.34866 25.7772C9.56443 25.5624 9.69944 25.2616 9.69944 24.9335H9.58999C9.58999 25.2313 9.46743 25.5045 9.27144 25.6997L9.34866 25.7772ZM8.50511 26.1287C8.83334 26.1287 9.13318 25.9927 9.34874 25.7771L9.27135 25.6997C9.07514 25.896 8.80269 26.0193 8.50511 26.0193V26.1287ZM4.68405 26.1287H8.50511V26.0193H4.68405V26.1287ZM4.665 26.1287H4.68405V26.0193H4.665V26.1287ZM4.64595 26.1287H4.665V26.0193H4.64595V26.1287ZM2.6157 26.1287H4.64595V26.0193H2.6157V26.1287ZM1.77198 25.7771C1.98672 25.9927 2.28754 26.1287 2.6157 26.1287V26.0193C2.31805 26.0193 2.04476 25.8959 1.84955 25.6998L1.77198 25.7771ZM1.42046 24.9335C1.42046 25.2617 1.55647 25.5625 1.77216 25.7772L1.84938 25.6997C1.6533 25.5045 1.52991 25.2312 1.52991 24.9335H1.42046ZM1.42046 24.6787V24.9335H1.52991V24.6787H1.42046ZM1.77207 23.835C1.55651 24.0506 1.42046 24.3504 1.42046 24.6787H1.52991C1.52991 24.3811 1.65325 24.1086 1.84946 23.9124L1.77207 23.835ZM2.6157 23.4834C2.28754 23.4834 1.98672 23.6194 1.77198 23.8351L1.84955 23.9123C2.04476 23.7163 2.31805 23.5929 2.6157 23.5929V23.4834ZM4.6455 23.4834H2.6157V23.5929H4.6455V23.4834ZM4.66455 23.4834H4.6455V23.5929H4.66455V23.4834ZM4.68359 23.4834H4.66455V23.5929H4.68359V23.4834ZM5.34764 40.3955V45.2923H5.45709V40.3955H5.34764ZM8.50466 40.3408H5.40237V40.4503H8.50466V40.3408ZM10.313 39.5891C9.85068 40.0514 9.20866 40.3408 8.50466 40.3408V40.4503C9.23911 40.4503 9.90857 40.1483 10.3904 39.6665L10.313 39.5891ZM11.0647 37.7798C11.0647 38.4848 10.7762 39.1259 10.313 39.5891L10.3904 39.6665C10.8731 39.1837 11.1742 38.5152 11.1742 37.7798H11.0647ZM11.0647 37.525V37.7798H11.1742V37.525H11.0647ZM10.313 35.7157C10.7762 36.1789 11.0647 36.8196 11.0647 37.525H11.1742C11.1742 36.7892 10.8731 36.1211 10.3904 35.6383L10.313 35.7157ZM8.50466 34.964C9.2087 34.964 9.85069 35.2525 10.313 35.7157L10.3904 35.6384C9.90856 35.1556 9.23907 34.8545 8.50466 34.8545V34.964ZM5.40237 34.964H8.50466V34.8545H5.40237V34.964ZM5.34764 27.5492V34.9093H5.45709V27.5492H5.34764ZM8.50466 27.4945H5.40237V27.6039H8.50466V27.4945ZM10.313 26.7428C9.85068 27.2051 9.20866 27.4945 8.50466 27.4945V27.6039C9.23911 27.6039 9.90857 27.302 10.3904 26.8202L10.313 26.7428ZM11.0647 24.9335C11.0647 25.6389 10.7762 26.2795 10.313 26.7428L10.3904 26.8202C10.8731 26.3374 11.1742 25.6693 11.1742 24.9335H11.0647ZM11.0647 24.6787V24.9335H11.1742V24.6787H11.0647ZM10.313 22.8694C10.7762 23.3326 11.0647 23.9733 11.0647 24.6787H11.1742C11.1742 23.9429 10.8731 23.2748 10.3904 22.792L10.313 22.8694ZM8.50466 22.1177C9.20866 22.1177 9.85068 22.4071 10.313 22.8694L10.3904 22.792C9.90857 22.3102 9.23911 22.0082 8.50466 22.0082V22.1177ZM5.40237 22.1177H8.50466V22.0082H5.40237V22.1177ZM5.34764 14.7029V22.063H5.45709V14.7029H5.34764ZM8.50466 14.6482H5.40237V14.7576H8.50466V14.6482ZM10.313 13.8965C9.85069 14.3596 9.2087 14.6482 8.50466 14.6482V14.7576C9.23907 14.7576 9.90856 14.4566 10.3904 13.9738L10.313 13.8965ZM11.0647 12.0872C11.0647 12.7921 10.7762 13.4332 10.313 13.8964L10.3904 13.9738C10.8731 13.4911 11.1742 12.8225 11.1742 12.0872H11.0647ZM11.0647 11.8328V12.0872H11.1742V11.8328H11.0647ZM10.3111 10.0235C10.7763 10.4904 11.0647 11.1302 11.0647 11.8328H11.1742C11.1742 11.0996 10.8731 10.4325 10.3887 9.94621L10.3111 10.0235ZM8.50466 9.27181C9.20634 9.27181 9.84614 9.56025 10.3113 10.0236L10.3885 9.94606C9.90404 9.46344 9.2369 9.16236 8.50466 9.16236V9.27181ZM5.40237 9.27181H8.50466V9.16236H5.40237V9.27181ZM5.34764 4.32217V9.21708H5.45709V4.32217H5.34764ZM6.1999 2.27226C5.67406 2.7981 5.34764 3.52516 5.34764 4.32217H5.45709C5.45709 3.55555 5.771 2.85595 6.27729 2.34966L6.1999 2.27226ZM6.22601 2.24525L6.19926 2.27291L6.27793 2.349L6.30468 2.32134L6.22601 2.24525ZM8.24889 1.42001C7.46263 1.42001 6.74706 1.73575 6.22709 2.24417L6.30361 2.32242C6.80398 1.83317 7.4924 1.52946 8.24889 1.52946V1.42001ZM42.0494 1.42001H8.24889V1.52946H42.0494V1.42001ZM44.0984 2.27228C43.573 1.74643 42.8459 1.42001 42.0494 1.42001V1.52946C42.8156 1.52946 43.5151 1.84336 44.021 2.34964L44.0984 2.27228ZM44.9511 4.32217C44.9511 3.52467 44.6242 2.79854 44.0984 2.27228L44.021 2.34964C44.5273 2.85642 44.8417 3.55514 44.8417 4.32217H44.9511ZM44.9511 35.0462V4.32217H44.8417V35.0462H44.9511ZM44.901 35.1007C45.2633 35.0703 45.6298 35.0547 46 35.0547V34.9453C45.6267 34.9453 45.2571 34.9609 44.8918 34.9917L44.901 35.1007ZM46 35.0547C46.1239 35.0547 46.2474 35.0565 46.3705 35.0599L46.3736 34.9505C46.2495 34.947 46.1249 34.9453 46 34.9453V35.0547ZM46.3173 4.32262V35.0052H46.4267V4.32262H46.3173ZM45.064 1.308C45.837 2.08095 46.3173 3.14969 46.3173 4.32262H46.4267C46.4267 3.11929 45.9339 2.02309 45.1414 1.23061L45.064 1.308ZM42.0494 0.0547237C43.2241 0.0547237 44.2911 0.535486 45.064 1.30801L45.1414 1.2306C44.3489 0.438599 43.2546 -0.0547237 42.0494 -0.0547237V0.0547237ZM8.24889 0.0547237H42.0494V-0.0547237H8.24889V0.0547237ZM5.27013 1.27622C6.04133 0.521593 7.09574 0.0547237 8.24889 0.0547237V-0.0547237C7.06569 -0.0547237 5.98419 0.424377 5.19358 1.19799L5.27013 1.27622ZM5.23304 1.30958L5.26841 1.27783L5.19531 1.19638L5.15993 1.22812L5.23304 1.30958ZM3.9819 4.32217C3.9819 3.1479 4.46267 2.08051 5.23519 1.30754L5.15778 1.23017C4.36578 2.02263 3.87246 3.11745 3.87246 4.32217H3.9819ZM3.9819 9.21708V4.32217H3.87246V9.21708H3.9819ZM2.6157 9.27181H3.92718V9.16236H2.6157V9.27181ZM0.80639 10.0263C1.2738 9.56023 1.91405 9.27181 2.6157 9.27181V9.16236C1.88343 9.16236 1.21584 9.46346 0.72911 9.9488L0.80639 10.0263ZM0.0547237 11.8328C0.0547237 11.1302 0.343182 10.4904 0.806483 10.0262L0.729018 9.9489C0.246348 10.4325 -0.0547237 11.0997 -0.0547237 11.8328H0.0547237ZM0.0547237 12.0872V11.8328H-0.0547237V12.0872H0.0547237ZM0.806446 13.8964C0.343228 13.4332 0.0547237 12.7921 0.0547237 12.0872H-0.0547237C-0.0547237 12.8225 0.246302 13.4911 0.729055 13.9738L0.806446 13.8964ZM2.6157 14.6482C1.91077 14.6482 1.26966 14.3597 0.806446 13.8964L0.729055 13.9738C1.21181 14.4566 1.88037 14.7576 2.6157 14.7576V14.6482ZM3.92718 14.6482H2.6157V14.7576H3.92718V14.6482ZM3.9819 22.063V14.7029H3.87246V22.063H3.9819ZM2.6157 22.1177H3.92718V22.0082H2.6157V22.1177ZM0.806408 22.8694C1.26968 22.4071 1.91036 22.1177 2.6157 22.1177V22.0082C1.87987 22.0082 1.21179 22.3102 0.729092 22.792L0.806408 22.8694ZM0.0547237 24.6787C0.0547237 23.9737 0.343228 23.3326 0.806446 22.8694L0.729055 22.792C0.246302 23.2748 -0.0547237 23.9433 -0.0547237 24.6787H0.0547237ZM0.0547237 24.9335V24.6787H-0.0547237V24.9335H0.0547237ZM0.806446 26.7428C0.343224 26.2795 0.0547237 25.6389 0.0547237 24.9335H-0.0547237C-0.0547237 25.6693 0.246306 26.3374 0.729055 26.8202L0.806446 26.7428ZM2.6157 27.4945C1.91081 27.4945 1.26967 27.2051 0.806408 26.7427L0.729092 26.8202C1.2118 27.302 1.88033 27.6039 2.6157 27.6039V27.4945ZM3.92718 27.4945H2.6157V27.6039H3.92718V27.4945ZM3.9819 34.9093V27.5492H3.87246V34.9093H3.9819ZM2.6157 34.964H3.92718V34.8545H2.6157V34.964ZM0.806446 35.7157C1.26967 35.2525 1.91032 34.964 2.6157 34.964V34.8545C1.87991 34.8545 1.2118 35.1556 0.729055 35.6383L0.806446 35.7157ZM0.0547237 37.525C0.0547237 36.82 0.343228 36.1789 0.806446 35.7157L0.729055 35.6383C0.246302 36.1211 -0.0547237 36.7896 -0.0547237 37.525H0.0547237ZM0.0547237 37.7798V37.525H-0.0547237V37.7798H0.0547237ZM0.806446 39.5891C0.343228 39.1259 0.0547237 38.4848 0.0547237 37.7798H-0.0547237C-0.0547237 38.5152 0.246302 39.1837 0.729055 39.6665L0.806446 39.5891ZM2.6157 40.3408C1.91081 40.3408 1.26967 40.0514 0.806409 39.5891L0.729092 39.6665C1.2118 40.1483 1.88033 40.4503 2.6157 40.4503V40.3408ZM3.92718 40.3408H2.6157V40.4503H3.92718V40.3408ZM3.9819 45.2923V40.3955H3.87246V45.2923H3.9819ZM5.23519 48.306C4.46267 47.533 3.9819 46.4652 3.9819 45.2923H3.87246C3.87246 46.4956 4.36578 47.5909 5.15778 48.3834L5.23519 48.306ZM8.24889 49.5593C7.07507 49.5593 6.00814 49.0789 5.23518 48.306L5.15779 48.3834C5.95026 49.1758 7.04463 49.6687 8.24889 49.6687V49.5593ZM33.0992 49.5593H8.24889V49.6687H33.0992V49.5593ZM33.1535 49.6073C33.0939 49.1256 33.0607 48.6357 33.0555 48.1391L32.946 48.1403C32.9513 48.641 32.9848 49.135 33.0449 49.6207L33.1535 49.6073ZM8.24889 48.1944H33.0007V48.085H8.24889V48.1944ZM6.1999 47.3413C6.72569 47.8671 7.45183 48.1944 8.24889 48.1944V48.085C7.48234 48.085 6.78363 47.7702 6.27729 47.2639L6.1999 47.3413ZM5.34764 45.2923C5.34764 46.0902 5.67408 46.8154 6.1999 47.3413L6.27729 47.2639C5.77097 46.7576 5.45709 46.0598 5.45709 45.2923H5.34764ZM4.64595 38.9751H4.665V38.8656H4.64595V38.9751ZM2.6157 38.9751H4.64595V38.8656H2.6157V38.9751ZM1.77198 38.6234C1.98672 38.8391 2.28754 38.9751 2.6157 38.9751V38.8656C2.31805 38.8656 2.04476 38.7422 1.84955 38.5462L1.77198 38.6234ZM1.42046 37.7798C1.42046 38.1081 1.55651 38.4079 1.77207 38.6235L1.84946 38.5461C1.65325 38.3499 1.52991 38.0774 1.52991 37.7798H1.42046ZM1.42046 37.525V37.7798H1.52991V37.525H1.42046ZM1.77207 36.6804C1.55648 36.896 1.42046 37.1968 1.42046 37.525H1.52991C1.52991 37.2273 1.65329 36.954 1.84946 36.7578L1.77207 36.6804ZM2.6157 36.3297C2.28755 36.3297 1.98678 36.4657 1.77207 36.6804L1.84946 36.7578C2.0447 36.5626 2.31804 36.4392 2.6157 36.4392V36.3297ZM4.64595 36.3297H2.6157V36.4392H4.64595V36.3297ZM4.665 36.3297H4.64595V36.4392H4.665V36.3297ZM4.68405 36.3297H4.665V36.4392H4.68405V36.3297ZM8.50511 36.3297H4.68405V36.4392H8.50511V36.3297ZM9.34866 36.6804C9.13313 36.4658 8.83333 36.3297 8.50511 36.3297V36.4392C8.8027 36.4392 9.0752 36.5625 9.27144 36.7579L9.34866 36.6804ZM9.69944 37.525C9.69944 37.1969 9.56441 36.8961 9.34874 36.6804L9.27135 36.7578C9.46744 36.9539 9.58999 37.2272 9.58999 37.525H9.69944ZM9.69944 37.7798V37.525H9.58999V37.7798H9.69944ZM9.34874 38.6235C9.56438 38.4078 9.69944 38.1079 9.69944 37.7798H9.58999C9.58999 38.0775 9.46748 38.3499 9.27135 38.5461L9.34874 38.6235ZM8.50511 38.9751C8.83334 38.9751 9.13318 38.839 9.34874 38.6235L9.27135 38.5461C9.07514 38.7423 8.80269 38.8656 8.50511 38.8656V38.9751ZM4.68405 38.9751H8.50511V38.8656H4.68405V38.9751ZM4.665 38.9751H4.68405V38.8656H4.665V38.9751ZM4.68405 10.6371H4.665V10.7465H4.68405V10.6371ZM8.50511 10.6371H4.68405V10.7465H8.50511V10.6371ZM9.35134 10.9886C9.13259 10.7712 8.83324 10.6371 8.50511 10.6371V10.7465C8.8028 10.7465 9.07484 10.8682 9.2742 11.0662L9.35134 10.9886ZM9.69944 11.8332C9.69944 11.5052 9.56538 11.2055 9.35172 10.989L9.27382 11.0658C9.46829 11.2629 9.58999 11.5354 9.58999 11.8332H9.69944ZM9.69944 12.0876V11.8332H9.58999V12.0876H9.69944ZM9.34874 12.9322C9.56441 12.7165 9.69944 12.4157 9.69944 12.0876H9.58999C9.58999 12.3854 9.46744 12.6587 9.27135 12.8548L9.34874 12.9322ZM8.50511 13.2829C8.83323 13.2829 9.1331 13.1478 9.34874 12.9322L9.27135 12.8548C9.07522 13.0509 8.8028 13.1734 8.50511 13.1734V13.2829ZM4.68405 13.2829H8.50511V13.1734H4.68405V13.2829ZM4.665 13.2829H4.68405V13.1734H4.665V13.2829ZM4.64595 13.2829H4.665V13.1734H4.64595V13.2829ZM2.6157 13.2829H4.64595V13.1734H2.6157V13.2829ZM1.77198 12.9321C1.9868 13.1479 2.28765 13.2829 2.6157 13.2829V13.1734C2.31795 13.1734 2.04468 13.0509 1.84955 12.8549L1.77198 12.9321ZM1.42046 12.0876C1.42046 12.4158 1.55648 12.7166 1.77207 12.9322L1.84946 12.8548C1.65329 12.6586 1.52991 12.3853 1.52991 12.0876H1.42046ZM1.42046 11.8332V12.0876H1.52991V11.8332H1.42046ZM1.77182 10.9862C1.55558 11.2053 1.42046 11.505 1.42046 11.8332H1.52991C1.52991 11.5356 1.65237 11.2631 1.84971 11.0631L1.77182 10.9862ZM2.6157 10.6371C2.2876 10.6371 1.98782 10.7721 1.77224 10.9858L1.84929 11.0635C2.04548 10.8691 2.31799 10.7465 2.6157 10.7465V10.6371ZM4.64595 10.6371H2.6157V10.7465H4.64595V10.6371ZM4.665 10.6371H4.64595V10.7465H4.665V10.6371Z" fill="#72808E" mask="url(#path-4-inside-1_2338_116717)"/>
<path d="M44.1041 39.7763C40.3708 40.4713 37.9753 43.809 37.9753 47.8217C37.9753 52.3385 41.6369 56 46.1536 56C50.2717 56 53.6789 52.9562 54.2482 48.9957" stroke="#72808E" stroke-width="1.55914" stroke-linecap="round" stroke-linejoin="round"/>
<path d="M47.8981 39.6572C50.7416 40.4117 52.9806 42.6507 53.735 45.4941" stroke="#DC1F18" stroke-width="2" stroke-linecap="round" stroke-linejoin="round"/>
<path d="M47.7437 46.5983L47.2227 47.1782L46.0629 46.1362L46.5839 45.5563L47.7437 46.5983ZM48.4862 43.439C48.7739 43.1187 49.2668 43.0923 49.5871 43.3801C49.9073 43.6678 49.9337 44.1607 49.646 44.481L48.4862 43.439ZM46.5839 45.5563L48.4862 43.439L49.646 44.481L47.7437 46.5983L46.5839 45.5563Z" fill="#72808E"/>
<path d="M46.7184 49.2138C45.9469 49.5962 45.0115 49.2807 44.6291 48.5092C44.2467 47.7376 44.5622 46.8022 45.3337 46.4199C46.1053 46.0375 47.0407 46.353 47.423 47.1245C47.8054 47.896 47.4899 48.8315 46.7184 49.2138Z" stroke="#72808E" stroke-width="1.24731" stroke-linecap="round" stroke-linejoin="round"/>
</svg>
