<svg width="24" height="24" viewBox="0 0 24 24" fill="none" xmlns="http://www.w3.org/2000/svg">
<g clip-path="url(#clip0_1254_69139)">
<path d="M12 21.75C17.3848 21.75 21.75 17.3848 21.75 12C21.75 6.61522 17.3848 2.25 12 2.25C6.61522 2.25 2.25 6.61522 2.25 12C2.25 17.3848 6.61522 21.75 12 21.75Z" fill="url(#paint0_radial_1254_69139)"/>
<path d="M12 21.295C17.1335 21.295 21.295 17.1334 21.295 12C21.295 6.86647 17.1335 2.70496 12 2.70496C6.86653 2.70496 2.70502 6.86647 2.70502 12C2.70502 17.1334 6.86653 21.295 12 21.295Z" fill="url(#paint1_radial_1254_69139)"/>
<path opacity="0.8" d="M19.1825 9.97527C19.1825 13.9988 15.913 17.2585 11.883 17.2585C7.84976 17.2585 4.58026 13.9955 4.58026 9.97527C4.58026 5.95177 7.84976 2.69202 11.883 2.69202C15.913 2.69202 19.1825 5.95502 19.1825 9.97527Z" fill="url(#paint2_radial_1254_69139)"/>
<g opacity="0.8">
<path opacity="0.8" d="M5.04175 7.91163C5.04175 9.84213 8.09025 11.4054 11.8537 11.4054C15.614 11.4054 18.6625 9.84213 18.6625 7.91163C18.6625 5.98113 15.614 4.10913 11.8537 4.10913C8.09025 4.10913 5.04175 5.98113 5.04175 7.91163Z" fill="url(#paint3_radial_1254_69139)"/>
</g>
<path opacity="0.8" d="M14.353 14.1646H14.3433C14.0573 14.1646 13.8233 13.9403 13.8168 13.6543C13.8005 13.1473 13.6803 12.2926 13.4723 11.9871C13.3878 11.9188 12.8223 11.7986 11.9025 11.7986C11.1843 11.7986 10.557 11.8766 10.3003 11.9968C10.1638 12.0618 9.96553 12.7508 9.98178 13.5341C9.98503 13.6738 9.93303 13.8103 9.83553 13.9111C9.73803 14.0118 9.60478 14.0703 9.46503 14.0736C9.16278 14.0736 8.93203 13.8461 8.92553 13.5568C8.91578 13.1733 8.92228 11.2396 9.85178 10.8041C10.219 10.6286 11.0933 10.5083 11.974 10.5083C12.6955 10.5083 13.9598 10.5928 14.3465 11.1551C14.7983 11.8148 14.8633 13.3228 14.873 13.6186C14.8828 13.9078 14.6553 14.1548 14.3628 14.1646C14.3563 14.1646 14.3563 14.1646 14.353 14.1646ZM11.9025 11.3273C12.533 11.3273 13.625 11.3793 13.8558 11.7206C14.2295 12.2666 14.2783 13.5796 14.2815 13.6348C14.2815 13.6673 14.3108 13.6933 14.34 13.6933L14.3498 13.9273L14.34 13.6933C14.3758 13.6933 14.3985 13.6641 14.3985 13.6316C14.379 13.0238 14.2653 11.8733 13.9533 11.4183C13.768 11.1486 12.9913 10.9763 11.9675 10.9763C11.064 10.9763 10.3035 11.1063 10.0435 11.2266C9.48778 11.4866 9.37078 12.8581 9.38703 13.5471C9.38703 13.5796 9.41628 13.6056 9.44878 13.6056C9.47153 13.6056 9.48453 13.5958 9.49103 13.5861C9.50078 13.5796 9.50728 13.5633 9.50728 13.5438C9.50728 13.5276 9.47803 11.8603 10.0923 11.5711C10.5798 11.3468 11.6003 11.3273 11.9025 11.3273Z" fill="url(#paint4_radial_1254_69139)"/>
<path d="M11.9025 11.2817C12.1723 11.2817 13.5373 11.298 13.7615 11.6262C14.1158 12.1462 14.1645 13.4657 14.1678 13.4787C14.171 13.5762 14.249 13.651 14.3433 13.651L14.353 13.768L14.3498 13.651C14.4473 13.6477 14.5253 13.5665 14.522 13.469C14.5025 12.8482 14.3855 11.6717 14.0573 11.1907C13.846 10.882 13.0693 10.6967 11.9773 10.6967C11.1713 10.6967 10.323 10.8105 10.0045 10.96C9.39678 11.246 9.26353 12.6207 9.27978 13.3877C9.28303 13.4852 9.36103 13.56 9.45853 13.56C9.51053 13.56 9.55278 13.5405 9.58528 13.5047C9.61778 13.469 9.63728 13.4235 9.63403 13.378C9.62428 12.962 9.69903 11.727 10.154 11.5125C10.4595 11.3695 11.1128 11.2817 11.9025 11.2817Z" fill="#7F362D"/>
<path fill-rule="evenodd" clip-rule="evenodd" d="M11.0764 12.7758L11.0835 12.7736C11.0899 12.7716 11.1002 12.7685 11.1139 12.7645C11.1414 12.7565 11.1826 12.7451 11.2347 12.7322C11.3393 12.7063 11.4847 12.6754 11.6478 12.6549C11.993 12.6116 12.3385 12.6256 12.5651 12.7488C12.7471 12.8477 12.9748 12.7804 13.0737 12.5985C13.1726 12.4165 13.1053 12.1888 12.9234 12.0899C12.4805 11.8491 11.9339 11.8631 11.5543 11.9108C11.355 11.9358 11.1799 11.9731 11.0546 12.0041C10.9917 12.0197 10.9406 12.0338 10.9045 12.0443C10.8865 12.0496 10.8721 12.0539 10.8618 12.0571L10.8495 12.061L10.8457 12.0622L10.8445 12.0626C10.8444 12.0626 10.8436 12.0629 10.96 12.4193L10.8436 12.0629C10.6467 12.1272 10.5392 12.3389 10.6035 12.5357C10.6678 12.7326 10.8796 12.84 11.0764 12.7758Z" fill="#9F5024"/>
<path d="M8.46723 21.0936C8.35348 21.0578 5.66573 20.2323 4.10898 17.9118L4.04723 17.8208L4.03748 17.7103C4.02123 17.5153 3.62798 13.1018 3.99198 10.3848C3.77098 10.2483 3.51098 10.0241 3.42973 9.67634C3.33873 9.27984 3.50123 8.88009 3.91398 8.48034C5.00598 7.42084 8.07073 6.64734 9.03273 6.64734H9.06198C9.58198 6.65709 10.0175 7.01784 10.1215 7.52484C10.2092 7.96034 10.0402 8.59084 9.27323 8.95159C8.75323 9.65684 8.73698 15.4288 9.02623 20.6581L9.06198 21.2756L8.46723 21.0936Z" fill="#38C2DF"/>
<path d="M9.05548 7.07951C9.76073 7.09251 10.0825 8.11301 9.05548 8.57126C7.95373 9.06201 8.59398 20.6808 8.59398 20.6808C8.59398 20.6808 5.95823 19.891 4.46973 17.6745C4.46973 17.6745 4.02773 12.7865 4.46973 10.1345C4.46973 10.1345 3.24123 9.73476 4.21623 8.79226C5.19123 7.84651 8.18773 7.06651 9.05548 7.07951Z" fill="url(#paint5_radial_1254_69139)"/>
<path d="M3.6605 9.50402C3.54025 9.50402 3.42 9.45527 3.33225 9.35777C3.16975 9.17577 3.18275 8.89627 3.36475 8.73377C3.4525 8.65577 5.52275 6.81952 9.1335 6.40677C9.37725 6.38077 9.595 6.55302 9.62425 6.79677C9.65025 7.04052 9.478 7.25827 9.23425 7.28427C5.89975 7.66452 3.97575 9.37077 3.95625 9.39027C3.875 9.46827 3.76775 9.50402 3.6605 9.50402Z" fill="url(#paint6_linear_1254_69139)"/>
<path d="M14.8113 20.6516C15.0973 15.4223 15.0843 9.65031 14.5643 8.94506C13.7973 8.58431 13.625 7.95381 13.716 7.51831C13.82 7.01131 14.2555 6.65056 14.7755 6.64081H14.8048C15.7668 6.64081 18.8315 7.41431 19.9235 8.47381C20.3363 8.87356 20.4988 9.27656 20.4078 9.66981C20.3265 10.0176 20.0665 10.2451 19.8455 10.3783C20.2095 13.0953 19.8195 17.5088 19.8 17.7038L19.7903 17.8143L19.7285 17.9086C18.1718 20.2291 15.484 21.0546 15.3703 21.0903L14.7788 21.2658L14.8113 20.6516Z" fill="#38C2DF"/>
<path d="M14.782 7.07951C14.0767 7.09251 13.755 8.11301 14.782 8.57126C15.8837 9.06201 15.2467 20.6808 15.2467 20.6808C15.2467 20.6808 17.8792 19.891 19.3677 17.6745C19.3677 17.6745 19.813 12.7865 19.3677 10.1345C19.3677 10.1345 20.5962 9.73476 19.6212 8.79226C18.6462 7.84651 15.653 7.06651 14.782 7.07951Z" fill="url(#paint7_radial_1254_69139)"/>
<path d="M20.1737 9.50406C20.0697 9.50406 19.9625 9.46506 19.878 9.39031C19.8552 9.37081 17.915 7.66456 14.6 7.28756C14.3562 7.25831 14.184 7.04056 14.21 6.80006C14.236 6.55631 14.4537 6.38406 14.6975 6.41006C18.3115 6.82281 20.3817 8.65906 20.4662 8.73706C20.6482 8.89956 20.6612 9.17906 20.4987 9.36106C20.4142 9.45531 20.2972 9.50406 20.1737 9.50406Z" fill="url(#paint8_linear_1254_69139)"/>
<path d="M6.15002 6.28327C6.15002 6.28327 6.44577 6.12727 6.87802 5.93227C7.08927 5.83477 7.33627 5.72102 7.60277 5.59752C7.86277 5.47402 8.13577 5.34402 8.39902 5.19777C8.53552 5.13277 8.65577 5.04827 8.78577 4.98002C8.90927 4.90202 9.02952 4.82727 9.14652 4.75252C9.25377 4.66802 9.36102 4.59002 9.46502 4.51527C9.55277 4.42752 9.64702 4.34952 9.73477 4.27477C9.80627 4.19027 9.87777 4.11552 9.94277 4.04727C10.011 3.97902 10.0468 3.90752 10.0923 3.85227C10.1768 3.73852 10.232 3.67352 10.232 3.67352C10.232 3.67352 10.232 3.75477 10.2158 3.90102C10.2028 3.97252 10.206 4.07002 10.167 4.16427C10.1345 4.26177 10.0955 4.37227 10.0435 4.49252C9.98177 4.60302 9.91027 4.72327 9.82577 4.84677C9.72502 4.95727 9.62427 5.07752 9.51052 5.19127C9.38702 5.29202 9.27002 5.41227 9.13027 5.50327C8.99377 5.59427 8.85077 5.69177 8.70127 5.76652C8.55177 5.84452 8.40227 5.91927 8.24952 5.97452C8.10002 6.03952 7.94402 6.08177 7.79777 6.12727C7.65152 6.17602 7.50202 6.19877 7.36552 6.23127C7.22577 6.25727 7.09577 6.27677 6.97227 6.28652C6.48477 6.34177 6.15002 6.28327 6.15002 6.28327Z" fill="#5E2110"/>
<path d="M17.655 6.40683C17.655 6.40683 17.3105 6.44258 16.8132 6.36133C16.6897 6.34183 16.5565 6.31583 16.4135 6.28008C16.2737 6.24108 16.1242 6.20858 15.978 6.15008C15.8317 6.09483 15.6725 6.04608 15.523 5.97133C15.3702 5.90633 15.2207 5.82508 15.0712 5.73733C14.9217 5.65608 14.782 5.55208 14.6455 5.45133C14.5057 5.35383 14.392 5.22708 14.2685 5.11983C14.1515 5.00283 14.0572 4.87608 13.963 4.75908C13.8785 4.63233 13.807 4.50883 13.7452 4.39508C13.69 4.27483 13.6542 4.15783 13.6185 4.06033C13.5762 3.96608 13.5795 3.86533 13.5665 3.79058C13.5502 3.64108 13.547 3.55658 13.547 3.55658C13.547 3.55658 13.6022 3.62483 13.6867 3.74183C13.7322 3.79708 13.768 3.87183 13.8395 3.94333C13.9077 4.01483 13.9792 4.09283 14.0507 4.18058C14.1385 4.25858 14.2327 4.33983 14.3237 4.43408C14.431 4.51533 14.5382 4.59983 14.6487 4.68758C14.769 4.76883 14.886 4.85333 15.0127 4.93458C15.1427 5.01258 15.2662 5.10358 15.4027 5.17508C15.666 5.33433 15.9422 5.48383 16.2022 5.62358C16.4687 5.76333 16.7157 5.89333 16.927 6.00708C17.3625 6.23133 17.655 6.40683 17.655 6.40683Z" fill="#5E2110"/>
</g>
<defs>
<radialGradient id="paint0_radial_1254_69139" cx="0" cy="0" r="1" gradientUnits="userSpaceOnUse" gradientTransform="translate(12 11.9998) scale(9.74993)">
<stop stop-color="#FFAD2C"/>
<stop offset="0.0575" stop-color="#FBA92B"/>
<stop offset="0.6768" stop-color="#D1851F"/>
<stop offset="0.9946" stop-color="#C1771B"/>
</radialGradient>
<radialGradient id="paint1_radial_1254_69139" cx="0" cy="0" r="1" gradientUnits="userSpaceOnUse" gradientTransform="translate(12.3039 6.94377) scale(14.3966 14.3966)">
<stop stop-color="#FCF273"/>
<stop offset="0.1467" stop-color="#FCF06F"/>
<stop offset="0.29" stop-color="#FCE863"/>
<stop offset="0.4319" stop-color="#FDDC50"/>
<stop offset="0.573" stop-color="#FECB34"/>
<stop offset="0.7123" stop-color="#FFB411"/>
<stop offset="0.7639" stop-color="#FFAB02"/>
<stop offset="0.8321" stop-color="#FEB512"/>
<stop offset="1" stop-color="#FCCA35"/>
</radialGradient>
<radialGradient id="paint2_radial_1254_69139" cx="0" cy="0" r="1" gradientUnits="userSpaceOnUse" gradientTransform="translate(11.7919 8.19638) scale(10.4877 10.3887)">
<stop stop-color="#FCFFC7"/>
<stop offset="0.1297" stop-color="#FCFDC1" stop-opacity="0.8668"/>
<stop offset="0.3034" stop-color="#FCF6B0" stop-opacity="0.6882"/>
<stop offset="0.5022" stop-color="#FCEB94" stop-opacity="0.4839"/>
<stop offset="0.7195" stop-color="#FCDC6D" stop-opacity="0.2606"/>
<stop offset="0.9495" stop-color="#FCC93C" stop-opacity="0.0242"/>
<stop offset="0.9731" stop-color="#FCC736" stop-opacity="0"/>
</radialGradient>
<radialGradient id="paint3_radial_1254_69139" cx="0" cy="0" r="1" gradientUnits="userSpaceOnUse" gradientTransform="translate(11.8521 7.75648) rotate(180) scale(6.96249 3.57143)">
<stop stop-color="#EA2429"/>
<stop offset="0.3363" stop-color="#E6331E" stop-opacity="0.6579"/>
<stop offset="0.6882" stop-color="#E0470F" stop-opacity="0.3"/>
<stop offset="0.7568" stop-color="#E04D0E" stop-opacity="0.234"/>
<stop offset="0.8466" stop-color="#DE5D0A" stop-opacity="0.1476"/>
<stop offset="0.9477" stop-color="#DC7804" stop-opacity="0.0503"/>
<stop offset="1" stop-color="#DB8900" stop-opacity="0"/>
</radialGradient>
<radialGradient id="paint4_radial_1254_69139" cx="0" cy="0" r="1" gradientUnits="userSpaceOnUse" gradientTransform="translate(11.8681 10.9917) scale(7.5569)">
<stop stop-color="#FCFFC5"/>
<stop offset="0.1641" stop-color="#FCFDC1" stop-opacity="0.8314"/>
<stop offset="0.3251" stop-color="#FCF9B5" stop-opacity="0.6659"/>
<stop offset="0.4851" stop-color="#FCF1A2" stop-opacity="0.5015"/>
<stop offset="0.6443" stop-color="#FCE786" stop-opacity="0.3379"/>
<stop offset="0.8031" stop-color="#FCD962" stop-opacity="0.1747"/>
<stop offset="0.9596" stop-color="#FCC937" stop-opacity="0.0139"/>
<stop offset="0.9731" stop-color="#FCC733" stop-opacity="0"/>
</radialGradient>
<radialGradient id="paint5_radial_1254_69139" cx="0" cy="0" r="1" gradientUnits="userSpaceOnUse" gradientTransform="translate(6.5702 6.77648) scale(13.4649 13.4649)">
<stop offset="0.1183" stop-color="#B3FEFF"/>
<stop offset="0.3868" stop-color="#6DEDF1"/>
<stop offset="0.6572" stop-color="#2CDCE3"/>
<stop offset="0.7849" stop-color="#13D6DE"/>
<stop offset="1" stop-color="#13D6DE"/>
</radialGradient>
<linearGradient id="paint6_linear_1254_69139" x1="3.22013" y1="7.9553" x2="9.62822" y2="7.9553" gradientUnits="userSpaceOnUse">
<stop offset="0.0591" stop-color="#66362D"/>
<stop offset="0.0839" stop-color="#6A372D"/>
<stop offset="0.2234" stop-color="#7D3C2B"/>
<stop offset="0.3674" stop-color="#883F2A"/>
<stop offset="0.5215" stop-color="#8C402A"/>
<stop offset="0.7091" stop-color="#893F2A"/>
<stop offset="0.8357" stop-color="#803D29"/>
<stop offset="0.944" stop-color="#713A28"/>
<stop offset="1" stop-color="#663727"/>
</linearGradient>
<radialGradient id="paint7_radial_1254_69139" cx="0" cy="0" r="1" gradientUnits="userSpaceOnUse" gradientTransform="translate(17.576 6.07399) scale(14.523)">
<stop offset="0.1183" stop-color="#B3FEFF"/>
<stop offset="0.3868" stop-color="#6DEDF1"/>
<stop offset="0.6572" stop-color="#2CDCE3"/>
<stop offset="0.7849" stop-color="#13D6DE"/>
<stop offset="1" stop-color="#13D6DE"/>
</radialGradient>
<linearGradient id="paint8_linear_1254_69139" x1="14.2094" y1="7.95524" x2="20.6172" y2="7.95524" gradientUnits="userSpaceOnUse">
<stop offset="0.0591" stop-color="#66362D"/>
<stop offset="0.0839" stop-color="#6A372D"/>
<stop offset="0.2234" stop-color="#7D3C2B"/>
<stop offset="0.3674" stop-color="#883F2A"/>
<stop offset="0.5215" stop-color="#8C402A"/>
<stop offset="0.7091" stop-color="#893F2A"/>
<stop offset="0.8357" stop-color="#803D29"/>
<stop offset="0.944" stop-color="#713A28"/>
<stop offset="1" stop-color="#663727"/>
</linearGradient>
<clipPath id="clip0_1254_69139">
<rect width="24" height="24" fill="white"/>
</clipPath>
</defs>
</svg>
