<svg width="80" height="80" viewBox="0 0 80 80" fill="none" xmlns="http://www.w3.org/2000/svg">
<path fill-rule="evenodd" clip-rule="evenodd" d="M59.0194 27.1504H26.2217C22.7867 27.1504 20 29.8918 20 33.2756V57.2156C20 60.5994 22.7867 63.3409 26.2217 63.3409H59.0194C62.4544 63.3409 65.2411 60.5994 65.2411 57.2156V33.2756C65.2411 29.8918 62.4544 27.1504 59.0194 27.1504ZM46.676 41.4995C46.676 42.8967 45.8573 44.1027 44.6735 44.6639C44.6752 44.6982 44.676 44.7327 44.676 44.7675V51.2316C44.676 52.208 44.0045 52.9995 43.176 52.9995C42.3476 52.9995 41.676 52.208 41.676 51.2316V44.7675C41.676 44.7327 41.6769 44.6982 41.6786 44.6639C40.4947 44.1027 39.676 42.8967 39.676 41.4995C39.676 39.5665 41.243 37.9995 43.176 37.9995C45.109 37.9995 46.676 39.5665 46.676 41.4995Z" fill="#0068FF"/>
<path fill-rule="evenodd" clip-rule="evenodd" d="M42.6532 12C37.0821 12 34 16.1728 34 19.4695V26.5717H30V19.4695C30 13.9312 34.9055 8 42.6532 8C50.3983 8 55.3065 13.9309 55.3065 19.4695V26.5717H51.3065V19.4695C51.3065 16.1731 48.2223 12 42.6532 12Z" fill="#0068FF"/>
<circle cx="64.5328" cy="57.857" r="14.2857" fill="white"/>
<circle cx="64.5328" cy="57.8575" r="12.381" fill="#E5EFFF"/>
<path fill-rule="evenodd" clip-rule="evenodd" d="M65 49.667C60.3976 49.667 56.6667 53.398 56.6667 58.0003C56.6667 62.6027 60.3976 66.3337 65 66.3337C69.6024 66.3337 73.3334 62.6027 73.3334 58.0003C73.3334 53.398 69.6024 49.667 65 49.667ZM65 51.0275C68.851 51.0275 71.9728 54.1494 71.9728 58.0003C71.9728 61.8513 68.851 64.9731 65 64.9731C61.1491 64.9731 58.0272 61.8513 58.0272 58.0003C58.0272 54.1494 61.1491 51.0275 65 51.0275ZM65.675 54.4286C65.633 54.0932 65.3468 53.8337 65 53.8337C64.6243 53.8337 64.3197 54.1382 64.3197 54.5139V58.6883L64.325 58.7737C64.367 59.1091 64.6532 59.3686 65 59.3686H69.1744L69.2597 59.3633C69.5952 59.3213 69.8547 59.0351 69.8547 58.6883L69.8494 58.603C69.8074 58.2676 69.5212 58.0081 69.1744 58.0081H65.6803V54.5139L65.675 54.4286Z" fill="#0068FF"/>
</svg>
