<svg width="16" height="16" viewBox="0 0 16 16" fill="none" xmlns="http://www.w3.org/2000/svg">
<path fill-rule="evenodd" clip-rule="evenodd" d="M1.33301 7.99996C1.33301 11.6819 4.31778 14.6666 7.99967 14.6666C11.6816 14.6666 14.6663 11.6819 14.6663 7.99996C14.6663 4.31806 11.6816 1.33329 7.99967 1.33329C4.31778 1.33329 1.33301 4.31806 1.33301 7.99996ZM13.5779 7.99996C13.5779 11.0807 11.0804 13.5782 7.99967 13.5782C4.9189 13.5782 2.42144 11.0807 2.42144 7.99996C2.42144 4.91919 4.9189 2.42173 7.99967 2.42173C11.0804 2.42173 13.5779 4.91919 13.5779 7.99996ZM7.99967 8.54418C8.27712 8.54418 8.50607 8.33657 8.53965 8.06822L8.54389 7.99996V4.50142C8.54389 4.20085 8.30024 3.9572 7.99967 3.9572C7.72223 3.9572 7.49328 4.16481 7.4597 4.43315L7.45546 4.50142V7.99996C7.45546 8.30052 7.69911 8.54418 7.99967 8.54418ZM7.99967 10.1865C8.48272 10.1865 8.87431 10.5781 8.87431 11.0612C8.87431 11.5442 8.48272 11.9358 7.99967 11.9358C7.51663 11.9358 7.12504 11.5442 7.12504 11.0612C7.12504 10.5781 7.51663 10.1865 7.99967 10.1865Z" fill="#DB342E"/>
</svg>
