<svg width="32" height="32" viewBox="0 0 32 32" fill="none" xmlns="http://www.w3.org/2000/svg">
<g clip-path="url(#clip0_2266_36852)">
<path d="M29.0007 23.5432L18.4724 4.13319C18.2127 3.65163 17.8168 3.2574 17.3341 2.99986C16.6783 2.64891 15.9104 2.57109 15.1976 2.78333C14.4847 2.99557 13.8844 3.4807 13.5274 4.13319L3.00073 23.5432C2.77055 23.9703 2.65546 24.45 2.66678 24.9351C2.67809 25.4202 2.81541 25.894 3.06524 26.3099C3.31508 26.7259 3.66884 27.0696 4.09176 27.3075C4.51467 27.5453 4.99219 27.6691 5.4774 27.6665H26.5241C26.9891 27.6665 27.4471 27.552 27.8574 27.3332C28.1825 27.1606 28.4702 26.9254 28.704 26.6411C28.9377 26.3568 29.1129 26.029 29.2193 25.6767C29.3258 25.3243 29.3614 24.9544 29.3242 24.5883C29.2869 24.2221 29.1776 23.8669 29.0024 23.5432H29.0007ZM16.0007 24.3332C15.6711 24.3332 15.3489 24.2354 15.0748 24.0523C14.8007 23.8692 14.5871 23.6089 14.4609 23.3043C14.3348 22.9998 14.3018 22.6647 14.3661 22.3414C14.4304 22.0181 14.5891 21.7211 14.8222 21.488C15.0553 21.2549 15.3523 21.0962 15.6756 21.0319C15.9989 20.9676 16.334 21.0006 16.6385 21.1267C16.9431 21.2529 17.2034 21.4665 17.3865 21.7406C17.5697 22.0147 17.6674 22.3369 17.6674 22.6665C17.6674 23.1086 17.4918 23.5325 17.1792 23.845C16.8667 24.1576 16.4428 24.3332 16.0007 24.3332ZM17.6674 18.4999C17.6674 18.7209 17.5796 18.9328 17.4233 19.0891C17.267 19.2454 17.0551 19.3332 16.8341 19.3332H15.1674C14.9464 19.3332 14.7344 19.2454 14.5781 19.0891C14.4219 18.9328 14.3341 18.7209 14.3341 18.4999V11.8332C14.3341 11.6122 14.4219 11.4002 14.5781 11.2439C14.7344 11.0877 14.9464 10.9999 15.1674 10.9999H16.8341C17.0551 10.9999 17.267 11.0877 17.4233 11.2439C17.5796 11.4002 17.6674 11.6122 17.6674 11.8332V18.4999Z" fill="#F5832F"/>
</g>
<defs>
<clipPath id="clip0_2266_36852">
<rect width="26.6667" height="26.6667" fill="white" transform="translate(2.66699 2.6665)"/>
</clipPath>
</defs>
</svg>
