<svg version="1.1" xmlns="http://www.w3.org/2000/svg" xmlns:xlink="http://www.w3.org/1999/xlink" width="20" height="20" viewBox="0 0 20 20">
<g id="emoji_emoji">
<path id="Ellipse-123-copy" d="M10.000,20.000 C4.477,20.000 -0.000,15.523 -0.000,10.000 C-0.000,4.477 4.477,-0.000 10.000,-0.000 C15.523,-0.000 20.000,4.477 20.000,10.000 C20.000,15.523 15.523,20.000 10.000,20.000 zM10.000,2.000 C5.582,2.000 2.000,5.582 2.000,10.000 C2.000,14.418 5.582,18.000 10.000,18.000 C14.418,18.000 18.000,14.418 18.000,10.000 C18.000,5.582 14.418,2.000 10.000,2.000 z" fill="#000000" />
<path id="Emoticon-copy-2" d="M15.008,11.437 C14.952,11.560 13.570,14.452 10.047,14.492 C10.025,14.492 10.002,14.493 9.980,14.493 C6.602,14.493 5.185,11.565 5.127,11.440 C5.001,11.172 5.124,10.858 5.403,10.737 C5.681,10.617 6.008,10.735 6.134,11.000 C6.181,11.101 7.327,13.431 9.982,13.431 C9.999,13.431 10.016,13.430 10.034,13.430 C12.856,13.398 13.987,11.028 13.998,11.004 C14.122,10.737 14.448,10.615 14.728,10.736 C15.007,10.855 15.133,11.169 15.008,11.437 zM12.832,8.623 C12.222,8.623 11.729,8.148 11.729,7.563 C11.729,6.978 12.222,6.503 12.832,6.503 C13.441,6.503 13.935,6.978 13.935,7.563 C13.935,8.148 13.441,8.623 12.832,8.623 zM7.302,8.623 C6.693,8.623 6.199,8.148 6.199,7.563 C6.199,6.978 6.693,6.503 7.302,6.503 C7.912,6.503 8.405,6.978 8.405,7.563 C8.405,8.148 7.912,8.623 7.302,8.623 z" fill="#000000" />
</g>
</svg>
