<svg width="48" height="48" viewBox="0 0 48 48" fill="none" xmlns="http://www.w3.org/2000/svg">
<g clip-path="url(#clip0_3069_9418)">
<path d="M8.57153 8.28577C8.57153 6.07663 10.3624 4.28577 12.5715 4.28577H30.8573L39.4287 12.8572V39.7143C39.4287 41.9235 37.6378 43.7143 35.4287 43.7143H12.5715C10.3624 43.7143 8.57153 41.9235 8.57153 39.7143V8.28577Z" fill="url(#paint0_linear_3069_9418)"/>
<path d="M32.8573 12.8572L39.4287 12.8572L30.8573 4.28575L30.8573 10.8572C30.8573 11.9617 31.7527 12.8572 32.8573 12.8572Z" fill="#5FCBF2"/>
<g opacity="0.85">
<path d="M15.3052 30.0001V23.2201H12.8572V21.6001H19.6252V23.2201H17.1052V30.0001H15.3052Z" fill="white"/>
<path d="M26.1038 30.0001L23.4998 26.2321L20.1638 21.6001H22.3718L24.9158 25.3201L28.3118 30.0001H26.1038ZM20.1038 30.0001L23.3078 25.4281L24.6758 26.3761L22.1918 30.0001H20.1038ZM25.1078 26.1001L23.7518 25.1881L26.1038 21.6001H28.1918L25.1078 26.1001Z" fill="white"/>
<path d="M31.2427 30.0001V23.2201H28.7947V21.6001H35.5627V23.2201H33.0427V30.0001H31.2427Z" fill="white"/>
</g>
</g>
<defs>
<linearGradient id="paint0_linear_3069_9418" x1="24.0001" y1="43.7143" x2="24.0001" y2="4.28577" gradientUnits="userSpaceOnUse">
<stop stop-color="#5FCBF2"/>
<stop offset="1" stop-color="#12AEE2"/>
</linearGradient>
<clipPath id="clip0_3069_9418">
<rect width="48" height="48" fill="white"/>
</clipPath>
</defs>
</svg>
