<svg width="48" height="48" viewBox="0 0 48 48" fill="none" xmlns="http://www.w3.org/2000/svg">
<g clip-path="url(#clip0_3069_9394)">
<path d="M8.57153 8.28577C8.57153 6.07663 10.3624 4.28577 12.5715 4.28577H30.8573L39.4287 12.8572V39.7143C39.4287 41.9235 37.6378 43.7143 35.4287 43.7143H12.5715C10.3624 43.7143 8.57153 41.9235 8.57153 39.7143V8.28577Z" fill="url(#paint0_linear_3069_9394)"/>
<path d="M32.8573 12.8572L39.4287 12.8572L30.8573 4.28575L30.8573 10.8572C30.8573 11.9617 31.7527 12.8572 32.8573 12.8572Z" fill="#DE640D"/>
<g opacity="0.85">
<path d="M16.4092 31.7143L20.6366 20.9143H22.704L26.916 31.7143H24.54L22.3646 25.8977C22.3029 25.7332 22.2258 25.5223 22.1332 25.2652C22.0509 25.008 21.9635 24.7354 21.8709 24.4474C21.7783 24.1594 21.6909 23.8869 21.6086 23.6297C21.5263 23.3623 21.4646 23.1412 21.4235 22.9663L21.84 22.9509C21.7783 23.1874 21.7063 23.4343 21.624 23.6914C21.552 23.9383 21.4749 24.1954 21.3926 24.4629C21.3103 24.72 21.2229 24.972 21.1303 25.2189C21.0378 25.4657 20.9503 25.7074 20.868 25.944L18.6926 31.7143H16.4092ZM18.3686 29.4463L19.1246 27.5794H24.0772L24.8486 29.4463H18.3686Z" fill="white"/>
<path d="M28.3091 31.7143V23.5526H30.4999V31.7143H28.3091ZM29.3891 21.8709C28.9674 21.8709 28.6382 21.768 28.4016 21.5623C28.1651 21.3566 28.0468 21.0634 28.0468 20.6829C28.0468 20.3332 28.1651 20.0503 28.4016 19.8343C28.6485 19.608 28.9776 19.4949 29.3891 19.4949C29.8108 19.4949 30.1399 19.6029 30.3765 19.8189C30.6131 20.0246 30.7314 20.3126 30.7314 20.6829C30.7314 21.0429 30.6079 21.3309 30.3611 21.5469C30.1245 21.7629 29.8005 21.8709 29.3891 21.8709Z" fill="white"/>
</g>
</g>
<defs>
<linearGradient id="paint0_linear_3069_9394" x1="24.0001" y1="43.7143" x2="24.0001" y2="4.28577" gradientUnits="userSpaceOnUse">
<stop stop-color="#DE640D"/>
<stop offset="1" stop-color="#AE4E09"/>
</linearGradient>
<clipPath id="clip0_3069_9394">
<rect width="48" height="48" fill="white"/>
</clipPath>
</defs>
</svg>
