<svg width="48" height="48" viewBox="0 0 48 48" fill="none" xmlns="http://www.w3.org/2000/svg">
<g clip-path="url(#clip0_3069_9454)">
<path d="M8.57129 8.28577C8.57129 6.07663 10.3622 4.28577 12.5713 4.28577H30.857L39.4284 12.8572V39.7143C39.4284 41.9235 37.6376 43.7143 35.4284 43.7143H12.5713C10.3622 43.7143 8.57129 41.9235 8.57129 39.7143V8.28577Z" fill="url(#paint0_linear_3069_9454)"/>
<path d="M32.8568 12.8572L39.4282 12.8572L30.8568 4.28575L30.8568 10.8572C30.8568 11.9617 31.7522 12.8572 32.8568 12.8572Z" fill="#FCCF53"/>
<path opacity="0.85" d="M28.0188 21.193C28.0416 21.3869 27.8017 21.4952 27.6713 21.3499L25.8209 19.287C25.6942 19.1457 25.8172 18.9238 26.0042 18.9565L27.6457 19.243C27.7328 19.2582 27.7996 19.3288 27.8099 19.4166L28.0188 21.193ZM27.756 24C27.897 24 27.9937 24.1421 27.942 24.2733L24.1857 33.8131C24.1192 33.9821 23.8801 33.9821 23.8136 33.8131L20.0573 24.2733C20.0056 24.1421 20.1023 24 20.2433 24H27.756ZM20.7518 22.9715C20.5787 22.9715 20.4873 22.7665 20.603 22.6378L23.8507 19.023C23.9302 18.9345 24.069 18.9346 24.1484 19.0232L27.3866 22.638C27.502 22.7668 27.4106 22.9715 27.2377 22.9715H20.7518ZM19.8455 21.8937C19.7324 22.0242 19.5182 21.9596 19.4961 21.7883L19.2541 19.9145C19.2413 19.8155 19.3035 19.7222 19.3999 19.6959L21.8438 19.0301C22.0344 18.9781 22.1769 19.2047 22.0475 19.354L19.8455 21.8937ZM18.5384 22.7458C18.5538 22.8655 18.4606 22.9715 18.34 22.9715H15.9567C15.7725 22.9715 15.6863 22.7435 15.8243 22.6216L17.9636 20.7319C18.0838 20.6257 18.2738 20.6971 18.2944 20.8561L18.5384 22.7458ZM18.6666 24C18.749 24 18.8229 24.0506 18.8529 24.1273L21.6815 31.3772C21.7653 31.5919 21.4793 31.7546 21.3375 31.5729L15.6803 24.3231C15.5778 24.1917 15.6714 24 15.838 24H18.6666ZM29.1463 24.1271C29.1763 24.0505 29.2502 24 29.3326 24H32.1609C32.3276 24 32.4211 24.1919 32.3185 24.3232L26.6528 31.5724C26.5109 31.754 26.225 31.591 26.309 31.3764L29.1463 24.1271ZM29.4811 22.9715C29.3797 22.9715 29.2943 22.8955 29.2825 22.7948L29.0272 20.6207C29.0064 20.444 29.2095 20.3302 29.3494 20.4401L32.1164 22.6142C32.2657 22.7315 32.1827 22.9715 31.9928 22.9715H29.4811Z" fill="white"/>
</g>
<defs>
<linearGradient id="paint0_linear_3069_9454" x1="23.9999" y1="43.7143" x2="23.9999" y2="4.28577" gradientUnits="userSpaceOnUse">
<stop stop-color="#FCC735"/>
<stop offset="1" stop-color="#E8AB02"/>
</linearGradient>
<clipPath id="clip0_3069_9454">
<rect width="48" height="48" fill="white"/>
</clipPath>
</defs>
</svg>
