<svg width="48" height="48" viewBox="0 0 48 48" fill="none" xmlns="http://www.w3.org/2000/svg">
<g clip-path="url(#clip0_3069_9430)">
<path d="M8.57153 8.28577C8.57153 6.07663 10.3624 4.28577 12.5715 4.28577H30.8573L39.4287 12.8572V39.7143C39.4287 41.9235 37.6378 43.7143 35.4287 43.7143H12.5715C10.3624 43.7143 8.57153 41.9235 8.57153 39.7143V8.28577Z" fill="url(#paint0_linear_3069_9430)"/>
<path d="M32.8573 12.8572L39.4287 12.8572L30.8573 4.28575L30.8573 10.8572C30.8573 11.9617 31.7527 12.8572 32.8573 12.8572Z" fill="#F8944E"/>
<g opacity="0.85">
<path d="M18 30.0001L15.396 26.2321L12.06 21.6001H14.268L16.812 25.3201L20.208 30.0001H18ZM12 30.0001L15.204 25.4281L16.572 26.3761L14.088 30.0001H12ZM17.004 26.1001L15.648 25.1881L18 21.6001H20.088L17.004 26.1001Z" fill="white"/>
<path d="M21.3869 30.0001V21.6001H23.0309L26.0909 26.5801L25.0109 26.5681L28.1069 21.6001H29.6789V30.0001H27.9149V27.1201C27.9149 26.4001 27.9309 25.7521 27.9629 25.1761C28.0029 24.6001 28.0669 24.0281 28.1549 23.4601L28.3709 24.0241L25.9109 27.8401H25.1189L22.7069 24.0481L22.9109 23.4601C22.9989 23.9961 23.0589 24.5481 23.0909 25.1161C23.1309 25.6761 23.1509 26.3441 23.1509 27.1201V30.0001H21.3869Z" fill="white"/>
<path d="M31.8635 30.0001V21.6001H33.6635V28.3801H37.4675V30.0001H31.8635Z" fill="white"/>
</g>
</g>
<defs>
<linearGradient id="paint0_linear_3069_9430" x1="24.0001" y1="43.7143" x2="24.0001" y2="4.28577" gradientUnits="userSpaceOnUse">
<stop stop-color="#F8954F"/>
<stop offset="1" stop-color="#DE640D"/>
</linearGradient>
<clipPath id="clip0_3069_9430">
<rect width="48" height="48" fill="white"/>
</clipPath>
</defs>
</svg>
