<?xml version="1.0" encoding="UTF-8"?>
<svg width="24px" height="24px" viewBox="0 0 24 24" version="1.1" xmlns="http://www.w3.org/2000/svg" xmlns:xlink="http://www.w3.org/1999/xlink">
    <title>File_PDF_24_Line</title>
    <g id="Page-1" stroke="none" stroke-width="1" fill="none" fill-rule="evenodd">
        <g id="File_PDF_24_Line" fill="#081C36">
            <path d="M14,2.25 C14.1989,2.25 14.3897,2.32902 14.5303,2.46967 L14.5303,2.46967 L19.5303,7.46967 C19.671,7.61032 19.75,7.80109 19.75,8 L19.75,8 L19.75,18 C19.75,20.0711 18.0711,21.75 16,21.75 L16,21.75 L8,21.75 C5.92893,21.75 4.25,20.0711 4.25,18 L4.25,18 L4.25,6 C4.25,3.92893 5.92893,2.25 8,2.25 L8,2.25 Z M12.25,3.75 L8,3.75 C6.75736,3.75 5.75,4.75736 5.75,6 L5.75,6 L5.75,18 C5.75,19.2426 6.75736,20.25 8,20.25 L8,20.25 L16,20.25 C17.2426,20.25 18.25,19.2426 18.25,18 L18.25,18 L18.25,9.75 L14,9.75 C13.0335,9.75 12.25,8.9665 12.25,8 L12.25,8 L12.25,3.75 Z M8.67578,13 C8.97917,13 9.23763,13.0579 9.45117,13.1738 C9.66471,13.2884 9.82747,13.4479 9.93945,13.6523 C10.0527,13.8555 10.1094,14.0898 10.1094,14.3555 C10.1094,14.6211 10.0521,14.8555 9.9375,15.0586 C9.82292,15.2617 9.6569,15.4199 9.43945,15.5332 C9.22331,15.6465 8.96159,15.7031 8.6543,15.7031 L7.94336,15.7031 L7.94336,17 L7.09766,17 L7.09766,13 L8.67578,13 Z M12.0884,13 C12.4907,13 12.8371,13.0801 13.1274,13.2402 C13.4178,13.3991 13.6411,13.6276 13.7974,13.9258 C13.9549,14.224 14.0337,14.5807 14.0337,14.9961 C14.0337,15.4128 13.9549,15.7708 13.7974,16.0703 C13.6411,16.3698 13.4165,16.5996 13.1235,16.7598 C12.8319,16.9199 12.4829,17 12.0767,17 L10.6587,17 L10.6587,13 L12.0884,13 Z M17.3086,13 L17.3086,13.6973 L15.5059,13.6973 L15.5059,14.6504 L17.1328,14.6504 L17.1328,15.3477 L15.5059,15.3477 L15.5059,17 L14.6602,17 L14.6602,13 L17.3086,13 Z M12.0435,13.7246 L11.5044,13.7246 L11.5044,16.2754 L12.0415,16.2754 C12.2915,16.2754 12.5018,16.2311 12.6724,16.1426 C12.8442,16.0527 12.9731,15.9141 13.0591,15.7266 C13.1463,15.5378 13.1899,15.2943 13.1899,14.9961 C13.1899,14.7005 13.1463,14.459 13.0591,14.2715 C12.9731,14.084 12.8449,13.946 12.6743,13.8574 C12.5037,13.7689 12.2935,13.7246 12.0435,13.7246 Z M8.51367,13.6914 L7.94336,13.6914 L7.94336,15.0254 L8.51758,15.0254 C8.68034,15.0254 8.81445,14.9974 8.91992,14.9414 C9.02669,14.8841 9.10612,14.8053 9.1582,14.7051 C9.21159,14.6035 9.23828,14.487 9.23828,14.3555 C9.23828,14.2227 9.21159,14.1068 9.1582,14.0078 C9.10612,13.9076 9.02669,13.8301 8.91992,13.7754 C8.81315,13.7194 8.67773,13.6914 8.51367,13.6914 Z M13.75,3.81066 L13.75,8 C13.75,8.13807 13.8619,8.25 14,8.25 L18.1893,8.25 L13.75,3.81066 Z" id="Combined-Shape"></path>
        </g>
    </g>
</svg>