<?xml version="1.0" encoding="UTF-8" standalone="no"?>
<svg width="44px" height="44px" viewBox="0 0 44 44" version="1.1" xmlns="http://www.w3.org/2000/svg" xmlns:xlink="http://www.w3.org/1999/xlink">
    <!-- Generator: Sketch 46.2 (44496) - http://www.bohemiancoding.com/sketch -->
    <title>fw-icon-voice</title>
    <desc>Created with Sketch.</desc>
    <defs></defs>
    <g id="Forward-Msg" stroke="none" stroke-width="1" fill="none" fill-rule="evenodd">
        <g id="Forward_Voice" transform="translate(-84.000000, -141.000000)">
            <g id="popup" transform="translate(70.000000, 100.000000)">
                <g id="textbox" transform="translate(0.000000, 31.000000)">
                    <g id="Group-2" transform="translate(14.000000, 10.000000)">
                        <g id="fw-icon-voice">
                            <path d="M22,0 C34.1502857,0 44,9.84971429 44,22 C44,34.1502857 34.1502857,44 22,44 C9.84971429,44 0,34.1502857 0,22 C0,9.84971429 9.84971429,0 22,0" id="Page-1-Copy-2" fill-opacity="0.3" fill="#000000"></path>
                            <path d="M22,29.9336871 C18.5990211,29.9336871 15.842997,27.2178111 15.842997,23.866257 L15.842997,14.0663129 C15.842997,10.715876 18.5990211,8 22,8 C25.4009789,8 28.1581325,10.715876 28.1581325,14.0663129 L28.1581325,23.866257 C28.1581325,27.2178111 25.4009789,29.9336871 22,29.9336871 Z M29.1046687,22.9334078 L31,22.9334078 L31,23.866257 C31,28.4411284 27.465738,32.2149783 22.9476657,32.6830786 L22.9476657,36 L21.0523343,36 L21.0523343,32.6830786 C16.534262,32.2149783 13,28.4411284 13,23.866257 L13,22.9334078 L14.8953313,22.9334078 L14.8953313,23.866257 C14.8953313,27.7272473 18.0828313,30.8676535 22,30.8676535 C25.9182982,30.8676535 29.1046687,27.7272473 29.1046687,23.866257 L29.1046687,22.9334078 Z" fill="#FFFFFF"></path>
                        </g>
                    </g>
                </g>
            </g>
        </g>
    </g>
</svg>