<svg xmlns="http://www.w3.org/2000/svg" width="16" height="16" fill="none" viewBox="0 0 16 16">
    <path fill="#767676" fill-rule="evenodd" d="M9.167 1.333H6.834c-.276 0-.5.224-.5.5s.224.5.5.5h.5v.203c-3.092.332-5.5 2.95-5.5 6.13 0 3.407 2.76 6.168 6.167 6.168 3.405 0 6.166-2.761 6.166-6.167 0-1.448-.499-2.78-1.335-3.832l.138-.138c.141-.14.22-.331.22-.53 0-.2-.079-.39-.22-.53l-.606-.607c-.07-.07-.152-.125-.243-.162-.091-.038-.189-.057-.287-.057-.098 0-.196.02-.287.057-.091.037-.174.093-.243.162l-.268.268c-.713-.404-1.515-.67-2.369-.762v-.203h.5c.276 0 .5-.224.5-.5s-.224-.5-.5-.5zM2.834 8.667c0-2.854 2.313-5.167 5.167-5.167 2.853 0 5.166 2.313 5.166 5.167 0 2.853-2.313 5.167-5.166 5.167-2.854 0-5.167-2.314-5.167-5.167zM8.501 5c0-.276-.224-.5-.5-.5s-.5.224-.5.5v2.854c-.442.193-.75.633-.75 1.146 0 .69.56 1.25 1.25 1.25S9.25 9.69 9.25 9c0-.513-.309-.953-.75-1.146V5z" clip-rule="evenodd"/>
</svg>
