<svg width="16" height="16" viewBox="0 0 16 16" fill="none" xmlns="http://www.w3.org/2000/svg">
<path fill-rule="evenodd" clip-rule="evenodd" d="M7.99995 2.19995C4.7967 2.19995 2.19995 4.7967 2.19995 7.99995C2.19995 11.2032 4.7967 13.8 7.99995 13.8C11.2032 13.8 13.8 11.2032 13.8 7.99995C13.8 4.7967 11.2032 2.19995 7.99995 2.19995ZM1.19995 7.99995C1.19995 4.24442 4.24442 1.19995 7.99995 1.19995C11.7555 1.19995 14.8 4.24442 14.8 7.99995C14.8 11.7555 11.7555 14.8 7.99995 14.8C4.24442 14.8 1.19995 11.7555 1.19995 7.99995ZM7.99994 3.89995C8.44177 3.89995 8.79994 4.25812 8.79994 4.69995V8.39995C8.79994 8.84178 8.44177 9.19995 7.99994 9.19995C7.55811 9.19995 7.19994 8.84178 7.19994 8.39995V4.69995C7.19994 4.25812 7.55811 3.89995 7.99994 3.89995ZM8.89994 10.7C8.89994 11.1971 8.497 11.6 7.99994 11.6C7.50289 11.6 7.09995 11.1971 7.09995 10.7C7.09995 10.203 7.50289 9.80005 7.99994 9.80005C8.497 9.80005 8.89994 10.203 8.89994 10.7Z" fill="#F5832F"/>
</svg>
