<?xml version="1.0" encoding="UTF-8"?>
<svg width="42px" height="52px" viewBox="0 0 42 52" version="1.1" xmlns="http://www.w3.org/2000/svg" xmlns:xlink="http://www.w3.org/1999/xlink">
    <!-- Generator: Sketch 49.2 (51160) - http://www.bohemiancoding.com/sketch -->
    <title>icon_file_pdf</title>
    <desc>Created with Sketch.</desc>
    <defs>
        <linearGradient x1="-24.6777201%" y1="124.889433%" x2="87.312772%" y2="14.7815144%" id="linearGradient-1">
            <stop stop-color="#FF9D8D" offset="0%"></stop>
            <stop stop-color="#FF402C" offset="100%"></stop>
        </linearGradient>
    </defs>
    <g id="Page-1" stroke="none" stroke-width="1" fill="none" fill-rule="evenodd">
        <g id="File_Type_Solid" transform="translate(-202.000000, -12.000000)">
            <g id="icon_file_pdf" transform="translate(202.000000, 12.000000)">
                <path d="M27.937,0 L42,14.063 L42,48 C42,50.209 40.209,52 38,52 L4,52 C1.791,52 0,50.209 0,48 L0,4 C0,1.791 1.791,0 4,0 L27.937,0 Z" id="Page-1" fill="url(#linearGradient-1)"></path>
                <path d="M9.50546875,37 C9.50546875,37.2209139 9.32638265,37.4 9.10546875,37.4 L7.60546875,37.4 C7.38455485,37.4 7.20546875,37.2209139 7.20546875,37 L7.20546875,25.625 C7.20546875,25.4040861 7.38455485,25.225 7.60546875,25.225 L11.8007812,25.225 C13.1382142,25.225 14.2089015,25.5737953 14.994209,26.2808619 C15.7866432,26.9943451 16.1851562,27.9443061 16.1851562,29.1015625 C16.1851562,30.3162541 15.7948077,31.2781319 15.0115371,31.9549959 C14.2409619,32.6208892 13.1605112,32.946875 11.7851562,32.946875 L9.50546875,32.946875 L9.50546875,37 Z M11.8007812,30.9203125 C12.51252,30.9203125 13.0334273,30.760288 13.3795806,30.4542379 C13.7147394,30.1579085 13.8851562,29.7225141 13.8851562,29.1171875 C13.8851562,28.5456857 13.7132399,28.1096051 13.3688457,27.7820107 C13.0191771,27.4493991 12.5290062,27.2729376 11.8867188,27.259375 L9.50546875,27.259375 L9.50546875,30.9203125 L11.8007812,30.9203125 Z M17.2992188,37 L17.2992188,25.625 C17.2992188,25.4040861 17.4783049,25.225 17.6992188,25.225 L20.9101562,25.225 C21.9676805,25.225 22.9115,25.4609549 23.7346339,25.9345388 C24.562552,26.4108752 25.2038164,27.0905302 25.65279,27.9658875 C26.0966595,28.8312934 26.3202662,29.8201627 26.3257812,30.9296875 L26.3257812,31.65625 C26.3257812,32.7901416 26.1050022,33.7926728 25.6606025,34.6591125 C25.2109976,35.5357007 24.5645625,36.2134608 23.7274106,36.6845362 C22.8980882,37.1512057 21.9375248,37.3888997 20.8476562,37.4 L17.6992188,37.4 C17.4783049,37.4 17.2992188,37.2209139 17.2992188,37 Z M19.5992187,35.3734375 L20.7773438,35.3734375 C21.8251035,35.3734375 22.6153904,35.0577802 23.1784942,34.428563 C23.7495415,33.7904697 24.0414063,32.8617017 24.0414063,31.625 L24.0414063,30.9609375 C24.0414063,29.757286 23.7655749,28.8445564 23.2260639,28.2077946 C22.698445,27.5850684 21.9489985,27.2687362 20.9492188,27.259375 L19.5992187,27.259375 L19.5992187,35.3734375 Z M34.4648437,30.35 C34.6857576,30.35 34.8648437,30.5290861 34.8648437,30.75 L34.8648437,31.9765625 C34.8648437,32.1974764 34.6857576,32.3765625 34.4648437,32.3765625 L30.0914062,32.3765625 L30.0914062,37 C30.0914062,37.2209139 29.9123201,37.4 29.6914062,37.4 L28.1914062,37.4 C27.9704924,37.4 27.7914062,37.2209139 27.7914062,37 L27.7914062,25.625 C27.7914062,25.4040861 27.9704924,25.225 28.1914062,25.225 L35.2382812,25.225 C35.4591951,25.225 35.6382812,25.4040861 35.6382812,25.625 L35.6382812,26.859375 C35.6382812,27.0802889 35.4591951,27.259375 35.2382812,27.259375 L30.0914062,27.259375 L30.0914062,30.35 L34.4648437,30.35 Z" id="PDF" fill="#FFFFFF" fill-rule="nonzero"></path>
                <polygon id="Rectangle-2" fill="#F6A79E" points="28 0 42 14 28 14"></polygon>
            </g>
        </g>
    </g>
</svg>