<?xml version="1.0" encoding="UTF-8"?>
<svg width="42px" height="52px" viewBox="0 0 42 52" version="1.1" xmlns="http://www.w3.org/2000/svg" xmlns:xlink="http://www.w3.org/1999/xlink">
    <!-- Generator: Sketch 49.2 (51160) - http://www.bohemiancoding.com/sketch -->
    <title>icon_file_sketch</title>
    <desc>Created with Sketch.</desc>
    <defs>
        <linearGradient x1="-31.3799244%" y1="135.135087%" x2="85.309175%" y2="12.5617367%" id="linearGradient-1">
            <stop stop-color="#F9D951" offset="0%"></stop>
            <stop stop-color="#F0B228" offset="100%"></stop>
        </linearGradient>
    </defs>
    <g id="Page-1" stroke="none" stroke-width="1" fill="none" fill-rule="evenodd">
        <g id="File_Type_Solid" transform="translate(-450.000000, -227.000000)">
            <g id="icon_file_sketch" transform="translate(450.000000, 227.000000)">
                <path d="M27.937,0 L42,14.063 L42,48 C42,50.209 40.209,52 38,52 L4,52 C1.791,52 0,50.209 0,48 L0,4 C0,1.791 1.791,0 4,0 L27.937,0 Z" id="Page-1" fill="url(#linearGradient-1)"></path>
                <path d="M29.4023519,22.3381111 C29.3193921,22.2500721 29.226274,22.1781172 29.1238441,22.124786 L26.6358975,20.2175578 C26.4513543,20.0761875 26.2261778,20 25.9942291,20 L16.5232707,20 C16.291322,20 16.0652989,20.0761875 15.8807558,20.2175578 L9.42174507,25.1689016 C8.95276841,25.5286761 8.86049682,26.2067453 9.21773175,26.6808011 L20.4113751,41.5746195 C20.8380253,42.1417935 21.6786279,42.1417935 22.1052782,41.5746195 L33.299768,26.6808011 C33.6561564,26.2067453 33.5638849,25.5286761 33.0949082,25.1689016 L29.4023519,22.3381111 Z M16.8805057,22.1561075 L25.6369941,22.1561075 L26.8432969,23.0805164 L25.2822988,24.2495719 L17.6593117,24.1886219 L15.7351529,23.0339573 L16.8805057,22.1561075 Z M17.9259681,26.3464225 L25.0799785,26.4039864 L27.0896366,29.2356234 L16.0001163,29.2356234 L17.9259681,26.3464225 Z M13.9015727,24.4383477 L15.8502808,25.6082498 L13.6112135,28.967274 L11.5566894,26.2355273 L13.9015727,24.4383477 Z M21.2587499,39.1416973 L15.4329423,31.391731 L27.0845575,31.391731 L21.2587499,39.1416973 Z M29.2220414,28.547396 L27.1057207,25.5650769 L28.6116945,24.4358081 L30.9599639,26.2355273 L29.2220414,28.547396 Z" id="Fill-1" fill="#FFFFFF"></path>
                <polygon id="Rectangle-2" fill="#F4CE79" points="28 0 42 14 28 14"></polygon>
            </g>
        </g>
    </g>
</svg>