<?xml version="1.0" encoding="UTF-8"?>
<svg width="42px" height="52px" viewBox="0 0 42 52" version="1.1" xmlns="http://www.w3.org/2000/svg" xmlns:xlink="http://www.w3.org/1999/xlink">
    <!-- Generator: Sketch 49.2 (51160) - http://www.bohemiancoding.com/sketch -->
    <title>icon_file_ai</title>
    <desc>Created with Sketch.</desc>
    <defs>
        <linearGradient x1="-88.9532643%" y1="188.558607%" x2="90.3291934%" y2="12.7770689%" id="linearGradient-1">
            <stop stop-color="#F6C41E" offset="0%"></stop>
            <stop stop-color="#EA870D" offset="100%"></stop>
        </linearGradient>
    </defs>
    <g id="Page-1" stroke="none" stroke-width="1" fill="none" fill-rule="evenodd">
        <g id="File_Type_Solid" transform="translate(-12.000000, -156.000000)">
            <g id="icon_file_ai" transform="translate(12.000000, 156.000000)">
                <path d="M4,0 L27.937,0 L42,14.063 L42,48 C42,50.209 40.209,52 38,52 L4,52 C1.791,52 0,50.209 0,48 L0,4 C0,1.791 1.791,0 4,0" id="Page-1" fill="url(#linearGradient-1)"></path>
                <polygon id="Rectangle-2" fill="#EDC07B" points="28 0 42 14 28 14"></polygon>
                <path d="M20.0020224,23.9312542 L25.727278,39.335274 C25.8042417,39.5423478 25.6987666,39.7726056 25.4916928,39.8495693 C25.4471009,39.8661429 25.3999101,39.8746291 25.3523378,39.8746291 L23.0835352,39.8746291 C22.9140137,39.8746291 22.7629022,39.7677707 22.706404,39.6079412 L21.4078869,35.9345195 C21.3796378,35.8546047 21.304082,35.8011755 21.2193213,35.8011755 L15.352037,35.8011755 C15.2663693,35.8011755 15.1902152,35.855736 15.162663,35.9368522 L13.9173152,39.6032757 C13.8622108,39.7655081 13.7099026,39.8746291 13.5385672,39.8746291 L11.2843018,39.8746291 C11.0633879,39.8746291 10.8843018,39.695543 10.8843018,39.4746291 C10.8843018,39.4267259 10.8929065,39.3792121 10.9097059,39.3343512 L16.6781739,23.9303313 C16.7366715,23.7741203 16.885965,23.6706093 17.0527698,23.6706093 L19.6270822,23.6706093 C19.7942476,23.6706093 19.9437841,23.7745617 20.0020224,23.9312542 Z M15.9686827,33.4354994 L20.5889664,33.4354994 C19.277776,29.5829952 18.5092646,27.2678597 18.2733189,26.4569073 C18.0377758,27.2623319 17.2732774,29.5763703 15.9686827,33.4354994 Z M27.3401512,39.8746291 C27.1192373,39.8746291 26.9401512,39.695543 26.9401512,39.4746291 L26.9401512,28.6461018 C26.9401512,28.4251879 27.1192373,28.2461018 27.3401512,28.2461018 L29.3294031,28.2461018 C29.550317,28.2461018 29.7294031,28.4251879 29.7294031,28.6461018 L29.7294031,39.4746291 C29.7294031,39.695543 29.550317,39.8746291 29.3294031,39.8746291 L27.3401512,39.8746291 Z M29.5304997,25.5896405 C29.2061146,25.8940917 28.8100219,26.0469274 28.3462051,26.0469274 C27.8979147,26.0469274 27.5105363,25.8998559 27.1906608,25.607706 C26.8684588,25.3134314 26.7058778,24.9363308 26.7058778,24.4848922 C26.7058778,24.0332026 26.8680108,23.6531917 27.1895915,23.3516408 C27.5091674,23.0511037 27.8968287,22.9 28.3462051,22.9 C28.8102922,22.9 29.20606,23.0505381 29.5299762,23.3510848 C29.8558441,23.6525707 30.0200001,24.0326938 30.0200001,24.4848922 C30.0200001,24.9143836 29.8557698,25.2843589 29.5304997,25.5896405 Z" id="Combined-Shape" fill="#FFFFFF" fill-rule="nonzero"></path>
            </g>
        </g>
    </g>
</svg>