<svg width="80" height="74" viewBox="0 0 80 74" fill="none" xmlns="http://www.w3.org/2000/svg">
<g clip-path="url(#clip0_4088_9894)">
<rect width="80" height="73.3335" fill="white"/>
<path fill-rule="evenodd" clip-rule="evenodd" d="M32.7499 4.29297C35.9722 -1.43099 44.0278 -1.43099 47.2501 4.29297L78.8659 60.4544C82.0882 66.1784 78.0603 73.3333 71.6158 73.3333H8.3842C1.93966 73.3333 -2.08819 66.1784 1.13409 60.4544L32.7499 4.29297Z" fill="url(#paint0_linear_4088_9894)"/>
<path d="M35.7186 21.5569C35.639 19.2486 37.5109 17.3345 39.8481 17.3345H40.1519C42.4891 17.3345 44.3611 19.2486 44.2814 21.5569L43.4175 46.6005C43.3633 48.1717 42.0587 49.4178 40.4678 49.4178H39.5322C37.9413 49.4178 36.6367 48.1717 36.5825 46.6005L35.7186 21.5569Z" fill="black"/>
<path d="M44.4271 59.6261C44.4271 62.0424 42.445 64.0011 40 64.0011C37.555 64.0011 35.5729 62.0424 35.5729 59.6261C35.5729 57.2099 37.555 55.2511 40 55.2511C42.445 55.2511 44.4271 57.2099 44.4271 59.6261Z" fill="black"/>
</g>
<defs>
<linearGradient id="paint0_linear_4088_9894" x1="115.2" y1="73.3333" x2="115.2" y2="0" gradientUnits="userSpaceOnUse">
<stop stop-color="#FFBA33"/>
<stop offset="1" stop-color="#FFD685"/>
</linearGradient>
<clipPath id="clip0_4088_9894">
<rect width="80" height="73.3335" fill="white"/>
</clipPath>
</defs>
</svg>
