<?xml version="1.0" encoding="UTF-8" standalone="no"?>
<svg width="16px" height="20px" viewBox="0 0 16 20" version="1.1" xmlns="http://www.w3.org/2000/svg" xmlns:xlink="http://www.w3.org/1999/xlink">
    <!-- Generator: Sketch 46.2 (44496) - http://www.bohemiancoding.com/sketch -->
    <title>list-msg-icon-file-powerpoint</title>
    <desc>Created with Sketch.</desc>
    <defs>
        <polygon id="path-1" points="16 10 16 0 0 0 0 10 0 20 16 20"></polygon>
    </defs>
    <g id="File" stroke="none" stroke-width="1" fill="none" fill-rule="evenodd">
        <g id="iPhone-SE" transform="translate(-162.000000, -266.000000)">
            <g id="list-msg-icon-file-powerpoint" transform="translate(162.000000, 266.000000)">
                <mask id="mask-2" fill="white">
                    <use xlink:href="#path-1"></use>
                </mask>
                <g id="Clip-2"></g>
                <path d="M7.57839454,9.09319051 C8.81123975,9.09319051 9.42766235,9.56368273 9.42766235,10.5046672 C9.42766235,10.9845448 9.25975619,11.3566947 8.92440389,11.620709 C8.5890516,11.8847233 8.10051369,12.0165264 7.45925017,12.0165264 L6.49045465,12.0165264 L6.49045465,9.09319051 L7.57839454,9.09319051 Z M7.69155869,13.0991074 C8.7063559,13.0991074 9.51138542,12.8518235 10.1066472,12.3568477 C10.7023691,11.86228 11,11.2265238 11,10.4487631 C11,9.67181841 10.7147895,9.06911502 10.1448286,8.64146901 C9.57440773,8.213823 8.77121828,8 7.73572031,8 L5,8 L5,16 L6.49045465,16 L6.49045465,13.0991074 L7.69155869,13.0991074 Z" id="Page-1" fill="#A1AAB2" mask="url(#mask-2)"></path>
                <path d="M14.5454545,17.1428571 C14.5454545,17.9321429 13.8945455,18.5714286 13.0909091,18.5714286 L2.90909091,18.5714286 C2.10545455,18.5714286 1.45454545,17.9321429 1.45454545,17.1428571 L1.45454545,2.85714286 C1.45454545,2.06785714 2.10545455,1.42857143 2.90909091,1.42857143 L10.1483636,1.42857143 L14.5454545,6.53642857 L14.5454545,17.1428571 Z M10.9069091,0 L2.90909091,0 C1.30254545,0 0,1.27928571 0,2.85714286 L0,17.1428571 C0,18.7207143 1.30254545,20 2.90909091,20 L13.0909091,20 C14.6974545,20 16,18.7207143 16,17.1428571 L16,5.735 L10.9069091,0 Z" id="Page-1" fill="#A1AAB2" mask="url(#mask-2)"></path>
            </g>
        </g>
    </g>
</svg>