<svg width="32" height="32" viewBox="0 0 32 32" fill="none" xmlns="http://www.w3.org/2000/svg">
<g clip-path="url(#clip0_724_17026)">
<path fill-rule="evenodd" clip-rule="evenodd" d="M23.0016 17.6672C22.7609 17.6672 22.5228 17.7282 22.3124 17.846C22.1019 17.9638 21.9249 18.1355 21.804 18.3458L17.1834 26.3889C17.0676 26.5908 17.0084 26.8199 17.014 27.0534C17.0197 27.2868 17.0899 27.5128 17.2149 27.7089C17.3397 27.9048 17.5142 28.0632 17.7182 28.1718C17.9221 28.2803 18.1506 28.3364 18.3813 28.3365H27.6222C27.8528 28.3364 28.0811 28.2803 28.285 28.1718C28.489 28.0632 28.6635 27.9048 28.7883 27.7089C28.9134 27.5128 28.9835 27.2868 28.9892 27.0534C28.9948 26.8199 28.9354 26.5905 28.8196 26.3886L24.1992 18.3457C24.0783 18.1354 23.9014 17.9638 23.6908 17.846C23.4804 17.7282 23.2423 17.6672 23.0016 17.6672ZM22.9952 21.2723C23.2714 21.2723 23.4954 21.4963 23.4954 21.7725L23.4954 24.0621C23.4954 24.3383 23.2714 24.5622 22.9952 24.5622C22.719 24.5622 22.4951 24.3383 22.4951 24.0621V21.7725C22.4951 21.4963 22.719 21.2723 22.9952 21.2723ZM22.9953 26.4172C23.3638 26.4172 23.6625 26.1185 23.6625 25.75C23.6625 25.3815 23.3638 25.0828 22.9953 25.0828C22.6268 25.0828 22.3281 25.3815 22.3281 25.75C22.3281 26.1185 22.6268 26.4172 22.9953 26.4172Z" fill="#E0AC00"/>
</g>
<path fill-rule="evenodd" clip-rule="evenodd" d="M10.6663 4.66675H21.333C22.0694 4.66675 22.6663 5.2637 22.6663 6.00008V14.6913C22.8864 14.6745 23.1087 14.666 23.3331 14.666C23.7865 14.666 24.2317 14.7008 24.6663 14.7679V6.00008C24.6663 4.15913 23.174 2.66675 21.333 2.66675H10.6663C8.82539 2.66675 7.33301 4.15913 7.33301 6.00008V26.0001C7.33301 27.841 8.82539 29.3334 10.6663 29.3334H17.0799C16.5113 28.7411 16.0261 28.0681 15.6431 27.3334H10.6663C9.92996 27.3334 9.33301 26.7365 9.33301 26.0001V6.00008C9.33301 5.2637 9.92996 4.66675 10.6663 4.66675Z" fill="#081C36"/>
<path d="M10.667 3.33325L11.6964 6.42155C11.8779 6.96601 12.3874 7.33325 12.9613 7.33325H19.0393C19.6132 7.33325 20.1227 6.96602 20.3042 6.42156L21.3337 3.33325" stroke="#081C36" stroke-width="2"/>
<defs>
<clipPath id="clip0_724_17026">
<rect width="16.0038" height="16.0038" fill="white" transform="translate(15 15)"/>
</clipPath>
</defs>
</svg>
