<svg width="32" height="32" viewBox="0 0 32 32" fill="none" xmlns="http://www.w3.org/2000/svg">
<path fill-rule="evenodd" clip-rule="evenodd" d="M6.66602 3.3335C4.45688 3.3335 2.66602 5.12436 2.66602 7.3335V16.3335V20.3335C2.66602 22.5426 4.45688 24.3335 6.66602 24.3335H10.9993V24.6766C10.9993 25.4723 10.6833 26.2354 10.1207 26.798L9.29224 27.6264C9.00624 27.9124 8.92069 28.3425 9.07547 28.7162C9.23025 29.0899 9.59489 29.3335 9.99935 29.3335H17.0788C16.5103 28.7411 16.0252 28.0682 15.6423 27.3335H12.2351C12.7305 26.5436 12.9993 25.624 12.9993 24.6766V24.3335H14.7231C14.6854 24.0054 14.666 23.6717 14.666 23.3335C14.666 22.9953 14.6854 22.6616 14.7231 22.3335H11.9993H6.66602C5.56145 22.3335 4.66602 21.4381 4.66602 20.3335V16.3335V7.3335C4.66602 6.22893 5.56145 5.3335 6.66602 5.3335H25.3327C26.4373 5.3335 27.3327 6.22893 27.3327 7.3335V15.6431C28.0674 16.026 28.7403 16.5111 29.3327 17.0796V16.3335V7.3335C29.3327 5.12436 27.5418 3.3335 25.3327 3.3335H6.66602Z" fill="#0F172A"/>
<path fill-rule="evenodd" clip-rule="evenodd" d="M23.3337 16.6667C19.6518 16.6667 16.667 19.6515 16.667 23.3334C16.667 27.0153 19.6518 30.0001 23.3337 30.0001C27.0156 30.0001 30.0003 27.0153 30.0003 23.3334C30.0003 19.6515 27.0156 16.6667 23.3337 16.6667ZM25.6872 22.3536C25.8825 22.1584 25.8825 21.8418 25.6872 21.6465C25.492 21.4513 25.1754 21.4513 24.9801 21.6465L22.667 23.9596L21.6872 22.9799C21.492 22.7846 21.1754 22.7846 20.9801 22.9799C20.7848 23.1751 20.7848 23.4917 20.9801 23.687L22.3134 25.0203C22.5087 25.2156 22.8253 25.2156 23.0205 25.0203L25.6872 22.3536Z" fill="#37B361"/>
</svg>
