<svg width="17" height="16" viewBox="0 0 17 16" fill="none" xmlns="http://www.w3.org/2000/svg">
<path fill-rule="evenodd" clip-rule="evenodd" d="M2.40015 8.0002C2.40015 4.79694 4.9969 2.2002 8.20015 2.2002C11.4034 2.2002 14.0001 4.79694 14.0001 8.0002C14.0001 11.2034 11.4034 13.8002 8.20015 13.8002C4.9969 13.8002 2.40015 11.2034 2.40015 8.0002ZM8.20015 1.2002C4.44461 1.2002 1.40015 4.24466 1.40015 8.0002C1.40015 11.7557 4.44461 14.8002 8.20015 14.8002C11.9557 14.8002 15.0001 11.7557 15.0001 8.0002C15.0001 4.24466 11.9557 1.2002 8.20015 1.2002ZM8.70015 4.00024C8.70015 3.7241 8.47629 3.50024 8.20015 3.50024C7.92401 3.50024 7.70015 3.7241 7.70015 4.00024V8.00024C7.70015 8.13285 7.75283 8.26003 7.8466 8.3538L9.8466 10.3538C10.0419 10.5491 10.3584 10.5491 10.5537 10.3538C10.749 10.1585 10.749 9.84195 10.5537 9.64669L8.70015 7.79314V4.00024Z" fill="#3384FF"/>
</svg>
