<svg width="240" height="175" viewBox="0 0 240 175" fill="none" xmlns="http://www.w3.org/2000/svg">
<circle opacity="0.5" cx="69.5" cy="12.5" r="6.5" fill="#C8DEFF"/>
<circle opacity="0.5" cx="196.013" cy="87.5" r="6.5" fill="#ABCDFF"/>
<circle cx="26.5" cy="77.5" r="6" stroke="#ABCDFF"/>
<path opacity="0.9" d="M81.5815 147.94L48.5128 155.254L55.8628 122.349C51.0223 113.341 48.4973 103.28 48.5128 93.0646C48.5128 58.7176 76.494 30.8756 111.013 30.8756C145.531 30.8756 173.513 58.7176 173.513 93.0646C173.513 127.412 145.531 155.254 111.013 155.254C100.746 155.269 90.6353 152.757 81.5815 147.94V147.94Z" fill="#E5EFFF"/>
<path d="M112.358 130C106.474 130 101.243 129.192 96.667 127.577C92.1092 125.98 88.2613 123.623 85.1232 120.505C81.9851 117.406 79.6035 113.621 77.9784 109.151C76.3533 104.681 75.5314 99.5716 75.5127 93.824C75.5314 88.2079 76.3626 83.1459 78.0064 78.638C79.6502 74.1113 82.0504 70.242 85.2072 67.0301C88.3641 63.7994 92.2213 61.3201 96.7791 59.5921C101.337 57.864 106.52 57 112.33 57C117.803 57 122.65 57.8358 126.871 59.5075C131.112 61.1792 134.689 63.5083 137.603 66.4948C140.535 69.4625 142.749 72.9373 144.243 76.9193C145.756 80.8825 146.513 85.1838 146.513 89.8232C146.513 93.0351 146.27 96.078 145.784 98.9518C145.299 101.807 144.467 104.342 143.291 106.559C142.132 108.775 140.554 110.541 138.555 111.856C136.557 113.152 134.054 113.856 131.046 113.969C129.16 114.063 127.507 113.884 126.087 113.433C124.667 112.983 123.518 112.278 122.641 111.32C121.781 110.344 121.24 109.151 121.015 107.742H120.679C120.25 108.869 119.437 109.902 118.242 110.841C117.065 111.762 115.608 112.485 113.871 113.011C112.133 113.518 110.2 113.725 108.071 113.631C105.792 113.518 103.681 112.992 101.738 112.053C99.8145 111.095 98.1333 109.761 96.695 108.052C95.2754 106.324 94.1733 104.239 93.3888 101.797C92.6042 99.3556 92.212 96.5851 92.212 93.4859C92.212 90.4619 92.6416 87.7947 93.5009 85.4844C94.3601 83.1741 95.5089 81.2019 96.9472 79.5677C98.4042 77.9336 100.048 76.6564 101.879 75.736C103.709 74.7969 105.596 74.1958 107.538 73.9328C109.556 73.6511 111.452 73.6793 113.226 74.0174C115.001 74.3555 116.476 74.872 117.653 75.567C118.849 76.2619 119.596 77.0226 119.895 77.8491H120.287V74.6936H128.104V101.516C128.123 102.924 128.459 104.061 129.113 104.925C129.785 105.789 130.719 106.221 131.915 106.221C133.409 106.221 134.614 105.629 135.529 104.446C136.463 103.244 137.136 101.403 137.547 98.9236C137.976 96.4255 138.182 93.2323 138.163 89.3443C138.182 86.1512 137.761 83.2586 136.902 80.6665C136.062 78.0557 134.866 75.7642 133.316 73.792C131.765 71.8198 129.907 70.1763 127.74 68.8614C125.592 67.5279 123.201 66.523 120.567 65.8468C117.933 65.1706 115.122 64.8325 112.133 64.8325C107.557 64.8325 103.532 65.5369 100.057 66.9456C96.5829 68.3355 93.669 70.3171 91.3154 72.8904C88.9805 75.4637 87.2153 78.5159 86.0198 82.0471C84.843 85.5595 84.2546 89.4476 84.2546 93.7113C84.2546 98.2756 84.871 102.323 86.1039 105.854C87.3554 109.367 89.1859 112.325 91.5956 114.729C94.0052 117.134 96.9845 118.956 100.534 120.195C104.101 121.435 108.201 122.055 112.834 122.055C114.963 122.055 117.046 121.886 119.082 121.548C121.118 121.21 122.949 120.815 124.574 120.364C126.199 119.914 127.45 119.519 128.328 119.181L130.71 126.337C129.552 126.938 127.983 127.521 126.003 128.084C124.042 128.648 121.875 129.108 119.502 129.465C117.149 129.822 114.767 130 112.358 130ZM110.396 105.545C112.769 105.545 114.664 105.084 116.084 104.164C117.504 103.225 118.522 101.835 119.138 99.9942C119.755 98.1535 120.053 95.862 120.035 93.1196C120.035 90.5652 119.717 88.4709 119.082 86.8367C118.447 85.2026 117.429 83.9911 116.028 83.2022C114.627 82.4134 112.769 82.0189 110.452 82.0189C108.36 82.0189 106.576 82.4979 105.101 83.4558C103.644 84.4137 102.523 85.7379 101.738 87.4284C100.973 89.1001 100.59 91.0066 100.59 93.1478C100.59 95.2891 100.898 97.3083 101.514 99.2053C102.149 101.084 103.177 102.614 104.596 103.798C106.035 104.962 107.968 105.545 110.396 105.545Z" fill="white"/>
<path opacity="0.9" d="M179.449 47.0308L171.513 48.786L173.277 40.889C172.115 38.7269 171.509 36.3124 171.513 33.8607C171.513 25.6174 178.228 18.9353 186.513 18.9353C194.797 18.9353 201.513 25.6174 201.513 33.8607C201.513 42.1039 194.797 48.786 186.513 48.786C184.049 48.7897 181.622 48.1867 179.449 47.0308V47.0308Z" fill="#FBEBE9"/>
<path d="M188.43 26.1428L188.144 37.3196H185.357L185.079 26.1428H188.43ZM186.75 42.1428C186.225 42.1428 185.775 41.9779 185.4 41.6481C185.03 41.3183 184.846 40.9164 184.846 40.4423C184.846 39.9786 185.03 39.5818 185.4 39.252C185.775 38.9222 186.225 38.7573 186.75 38.7573C187.264 38.7573 187.709 38.9222 188.084 39.252C188.465 39.5818 188.655 39.9786 188.655 40.4423C188.655 40.7567 188.566 41.0427 188.387 41.3003C188.214 41.558 187.983 41.7641 187.694 41.9187C187.411 42.0681 187.097 42.1428 186.75 42.1428Z" fill="white"/>
<path opacity="0.66" d="M173.037 167.078L163.513 169.184L165.63 159.708C164.235 157.113 163.508 154.216 163.513 151.274C163.513 141.382 171.571 133.363 181.513 133.363C191.454 133.363 199.513 141.382 199.513 151.274C199.513 161.166 191.454 169.184 181.513 169.184C178.556 169.189 175.644 168.465 173.037 167.078V167.078Z" fill="#FFEFAB"/>
<path d="M187.813 156H188.667C189.134 156 189.513 156.379 189.513 156.846V156.846C189.513 157.313 189.134 157.692 188.667 157.692H173.358C172.891 157.692 172.513 157.313 172.513 156.846V156.846C172.513 156.379 172.891 156 173.358 156H174.213V150.08C174.213 148.285 174.929 146.564 176.204 145.295C177.48 144.026 179.209 143.313 181.013 143.313C182.816 143.313 184.546 144.026 185.821 145.295C187.096 146.564 187.813 148.285 187.813 150.08V156ZM178.463 159.383C178.463 158.916 178.841 158.537 179.308 158.537H182.717C183.184 158.537 183.563 158.916 183.563 159.383V159.383C183.563 159.85 183.184 160.229 182.717 160.229H179.308C178.841 160.229 178.463 159.85 178.463 159.383V159.383Z" fill="white"/>
</svg>
