<svg xmlns="http://www.w3.org/2000/svg" width="57" height="52" viewBox="0 0 57 52">
    <g fill="none" fill-rule="evenodd">
        <g fill-rule="nonzero">
            <g>
                <path fill="#72808E" stroke="#72808E" stroke-width="1.2" d="M25 0c10.214 0 19.4 6.216 23.198 15.698.01.02.017.042.025.064 2.01 5.033 2.315 10.558.913 15.74-.56-.185-1.14-.321-1.737-.405 1.265-4.644 1.058-9.586-.62-14.133h0-10.766c.4 2.66.599 5.346.594 8.036.005 2.69-.194 5.376-.594 8.036h0l3.94-.001c-.679.516-1.29 1.117-1.817 1.787H35.71c-1.102 5.703-3.148 10.269-5.74 12.851 2.44-.54 4.748-1.461 6.848-2.706.24.553.528 1.081.86 1.578C33.915 48.761 29.56 50 25 50 14.786 50 5.6 43.784 1.802 34.302c-.01-.02-.017-.042-.025-.064-2.37-5.93-2.37-12.545 0-18.476.008-.022.015-.043.025-.064C5.6 6.216 14.786 0 25 0zm8.863 34.821H16.137c1.598 7.835 5.014 13.393 8.863 13.393 3.85 0 7.265-5.558 8.863-13.393h0zm-19.572 0H3.972c3.07 6.544 9.003 11.292 16.06 12.852-2.592-2.582-4.639-7.148-5.74-12.852h0zM34.19 16.964H15.81c-.843 5.324-.843 10.748 0 16.072H34.19c.424-2.658.636-5.345.633-8.036.003-2.691-.209-5.378-.633-8.036h0zm-20.202 0H3.22C2.27 19.536 1.783 22.257 1.786 25c-.003 2.743.484 5.464 1.435 8.036h10.766c-.792-5.328-.792-10.744 0-16.072h0zM25 1.786c-3.85 0-7.265 5.558-8.863 13.393h17.726C32.265 7.344 28.849 1.786 25 1.786zm4.968.54c2.593 2.583 4.64 7.149 5.74 12.853h10.32c-3.07-6.544-9.003-11.292-16.06-12.853zm-9.936 0c-7.057 1.561-12.99 6.31-16.06 12.853h10.32c1.101-5.704 3.148-10.27 5.74-12.853z" transform="translate(-183 -311) translate(184 312)"/>
                <path fill="#DB342E" d="M40.34 35.343c3.12-3.124 8.2-3.124 11.32 0 3.12 3.124 3.12 8.136 0 11.332C50.063 48.201 48.032 49 46 49s-4.136-.8-5.66-2.325c-3.12-3.123-3.12-8.208 0-11.332zM50.5 38.539l-6.894 6.901c1.96 1.017 4.427.727 6.023-.871 1.596-1.599 1.887-4.068.87-6.03zm-4.426-2.615c-1.307 0-2.613.436-3.629 1.453-1.668 1.598-1.959 4.068-.87 6.03l6.893-6.902c-.726-.363-1.596-.581-2.394-.581z" transform="translate(-183 -311) translate(184 312)"/>
            </g>
        </g>
    </g>
</svg>
