<svg width="17" height="17" viewBox="0 0 17 17" fill="none" xmlns="http://www.w3.org/2000/svg">
<path fill-rule="evenodd" clip-rule="evenodd" d="M7.98543 3.50436C6.20485 3.57681 4.58446 4.54749 3.67611 6.04832L3.56146 6.24692L3.46179 6.25913C1.61524 6.51527 0.199829 8.1325 0.199829 10.0619C0.199829 12.155 1.96485 13.9 4.06718 13.9H12.3325C14.4348 13.9 16.1998 12.155 16.1998 10.0619L16.196 9.88739C16.1137 8.03574 14.7285 6.50751 12.9379 6.25913L12.8374 6.24692L12.8291 6.23094C11.9106 4.56488 10.1357 3.5 8.19983 3.5L7.98543 3.50436ZM8.19976 4.8207C9.76769 4.8207 11.1958 5.74724 11.8297 7.15744L12.0037 7.54451H12.4242C13.7888 7.54451 14.8936 8.68141 14.8936 10.062C14.8936 11.419 13.7199 12.5794 12.3324 12.5794H4.06711C2.67964 12.5794 1.50588 11.419 1.50588 10.062C1.50588 8.68141 2.61074 7.54451 3.97527 7.54451H4.39579L4.5698 7.15744C5.20375 5.74724 6.63183 4.8207 8.19976 4.8207Z" fill="#00378A"/>
</svg>
