<svg width="165" height="165" viewBox="0 0 165 165" fill="none" xmlns="http://www.w3.org/2000/svg">
<path opacity="0.2" d="M82.6331 165C128.141 164.867 165.133 127.875 165 82.3669C164.867 36.8591 127.875 -0.132706 82.3669 0.000357864C36.8591 0.133422 -0.132706 37.1252 0.000357864 82.6331C0.133422 128.141 37.1252 165.133 82.6331 165Z" fill="url(#paint0_linear)"/>
<path d="M88.6875 147.264L27.6289 120.52V58.0608L88.6875 77.1819V147.264Z" fill="url(#paint1_linear)"/>
<path d="M27.6289 58.0608L10.1062 85.1397L71.1648 108.24L88.6874 77.1819L27.6289 58.0608Z" fill="url(#paint2_linear)"/>
<path d="M88.6875 77.1822V147.264L140.456 120.185V60.2869L88.6875 77.1822Z" fill="url(#paint3_linear)"/>
<path d="M88.6875 77.1822L107.018 108.902L160.222 87.3486L140.456 60.2869L88.6875 77.1822Z" fill="url(#paint4_linear)"/>
<path d="M27.9297 57.9922L78.2031 44.2422V73.8906L27.9297 57.9922Z" fill="url(#paint5_linear)"/>
<path d="M140.078 60.1406L88.9453 77.3281L78.2031 73.8906V44.2422L140.078 60.1406Z" fill="url(#paint6_linear)"/>
<path d="M61.5193 18.9814C61.6989 29.5043 66.4868 50.9585 84.201 52.5929C106.344 54.6359 97.6876 36.4454 89.3299 40.8855C80.9721 45.3257 77.744 68.4158 88.1629 71.1979" stroke="url(#paint7_linear)" stroke-width="2" stroke-linecap="round" stroke-dasharray="5 4"/>
<defs>
<linearGradient id="paint0_linear" x1="87.7894" y1="164.833" x2="77.2107" y2="0.167252" gradientUnits="userSpaceOnUse">
<stop offset="0.00584936" stop-color="#C9DCF7" stop-opacity="0.5"/>
<stop offset="1" stop-color="#8DAAE7"/>
</linearGradient>
<linearGradient id="paint1_linear" x1="58.1964" y1="60.1098" x2="52.4668" y2="144.749" gradientUnits="userSpaceOnUse">
<stop offset="0.2628" stop-color="#C9DCF7"/>
<stop offset="0.4683" stop-color="#C2D6F5"/>
<stop offset="0.7631" stop-color="#AFC7F0"/>
<stop offset="1" stop-color="#9BB6EB"/>
</linearGradient>
<linearGradient id="paint2_linear" x1="49.4459" y1="59.2134" x2="48.032" y2="107.001" gradientUnits="userSpaceOnUse">
<stop offset="0.2628" stop-color="#C9DCF7"/>
<stop offset="0.4683" stop-color="#C2D6F5"/>
<stop offset="0.7631" stop-color="#AFC7F0"/>
<stop offset="1" stop-color="#9BB6EB"/>
</linearGradient>
<linearGradient id="paint3_linear" x1="115.183" y1="59.618" x2="113.227" y2="147.707" gradientUnits="userSpaceOnUse">
<stop offset="0.00584936" stop-color="#C9DCF7"/>
<stop offset="1" stop-color="#8DAAE7"/>
</linearGradient>
<linearGradient id="paint4_linear" x1="125.3" y1="59.913" x2="124.857" y2="109.169" gradientUnits="userSpaceOnUse">
<stop offset="0.00584936" stop-color="#C9DCF7"/>
<stop offset="1" stop-color="#8DAAE7"/>
</linearGradient>
<linearGradient id="paint5_linear" x1="53.1031" y1="44.8865" x2="52.288" y2="73.3042" gradientUnits="userSpaceOnUse">
<stop stop-color="#B4CBF1"/>
<stop offset="1" stop-color="#8DAAE7"/>
</linearGradient>
<linearGradient id="paint6_linear" x1="109.684" y1="44.0356" x2="109.377" y2="77.5832" gradientUnits="userSpaceOnUse">
<stop offset="0.00584936" stop-color="#C9DCF7"/>
<stop offset="1" stop-color="#8DAAE7"/>
</linearGradient>
<linearGradient id="paint7_linear" x1="80.3831" y1="19.7077" x2="78.4152" y2="70.8226" gradientUnits="userSpaceOnUse">
<stop stop-color="white"/>
<stop offset="1" stop-color="white" stop-opacity="0.6"/>
</linearGradient>
</defs>
</svg>
