<svg width="350" height="242" viewBox="0 0 350 242" fill="none" xmlns="http://www.w3.org/2000/svg">
<g clip-path="url(#clip0)">
<path d="M350 1H0V241H350V1Z" fill="#F4F5F7"/>
<g filter="url(#filter0_f)">
<path d="M348.794 110.19C484.985 110.19 595.389 -0.214355 595.389 -136.405C595.389 -272.596 484.985 -383 348.794 -383C212.603 -383 102.199 -272.596 102.199 -136.405C102.199 -0.214355 212.603 110.19 348.794 110.19Z" fill="url(#paint0_linear)"/>
</g>
<g filter="url(#filter1_f)">
<path d="M33.1847 -90.3564C42.1793 -149.215 -14.5329 -180.731 -1.48467 -238.823C21.4119 -340.762 181.317 -128.029 160.088 -25.7294C151.191 17.1397 137.631 43.4317 103.832 71.2109C42.4875 121.628 -63.4231 142.05 -99.3875 71.2109C-136.345 -1.58416 20.8491 -9.63454 33.1847 -90.3564Z" fill="#4ACFFF"/>
</g>
<g filter="url(#filter2_f)">
</g>
<g filter="url(#filter3_d)">
<path d="M189.57 60H77.8171C74.3714 60 71.5792 62.7004 71.5792 66.0327V120.116C71.5792 123.446 74.3714 126.149 77.8171 126.149H85.8335L90.4618 130.97C90.6586 131.175 90.9864 131.175 91.1832 130.97L95.8115 126.149H189.573C193.019 126.149 195.811 123.449 195.811 120.116V66.0327C195.808 62.7004 193.016 60 189.57 60Z" fill="white"/>
<path d="M118.341 75.3857C118.341 74.2294 117.371 73.291 116.176 73.291C114.98 73.291 114.01 74.2294 114.01 75.3857C114.01 76.542 114.98 77.4804 116.176 77.4804C117.371 77.4804 118.341 76.542 118.341 75.3857Z" fill="#C8DEFF"/>
<path d="M127.312 75.3857C127.312 74.2294 126.342 73.291 125.146 73.291C123.951 73.291 122.98 74.2294 122.98 75.3857C122.98 76.542 123.951 77.4804 125.146 77.4804C126.344 77.4804 127.312 76.542 127.312 75.3857Z" fill="#C8DEFF"/>
<path d="M136.285 75.3857C136.285 74.2294 135.315 73.291 134.12 73.291C132.924 73.291 131.954 74.2294 131.954 75.3857C131.954 76.542 132.924 77.4804 134.12 77.4804C135.315 77.4804 136.285 76.542 136.285 75.3857Z" fill="#C8DEFF"/>
<path d="M145.256 75.3857C145.256 74.2294 144.286 73.291 143.09 73.291C141.895 73.291 140.924 74.2294 140.924 75.3857C140.924 76.542 141.895 77.4804 143.09 77.4804C144.286 77.4804 145.256 76.542 145.256 75.3857Z" fill="#C8DEFF"/>
<path d="M154.227 75.3857C154.227 74.2294 153.257 73.291 152.061 73.291C150.865 73.291 149.895 74.2294 149.895 75.3857C149.895 76.542 150.865 77.4804 152.061 77.4804C153.257 77.4804 154.227 76.542 154.227 75.3857Z" fill="#C8DEFF"/>
<path d="M127.394 78.0527H69.3943C68.842 78.0527 68.3943 78.5004 68.3943 79.0527C68.3943 79.605 68.842 80.0527 69.3943 80.0527H127.394C127.947 80.0527 128.394 79.605 128.394 79.0527C128.394 78.5004 127.947 78.0527 127.394 78.0527Z" fill="#C8DEFF"/>
<path d="M127.394 84.0527H69.3943C68.842 84.0527 68.3943 84.5004 68.3943 85.0527C68.3943 85.605 68.842 86.0527 69.3943 86.0527H127.394C127.947 86.0527 128.394 85.605 128.394 85.0527C128.394 84.5004 127.947 84.0527 127.394 84.0527Z" fill="#C8DEFF"/>
<path d="M127.394 90.0527H69.3943C68.842 90.0527 68.3943 90.5004 68.3943 91.0527C68.3943 91.605 68.842 92.0527 69.3943 92.0527H127.394C127.947 92.0527 128.394 91.605 128.394 91.0527C128.394 90.5004 127.947 90.0527 127.394 90.0527Z" fill="#C8DEFF"/>
<path d="M277.824 94.291H134.507C130.552 94.291 127.344 97.3928 127.344 101.218V166.795C127.344 170.62 130.552 173.722 134.507 173.722H250.47L256.094 180.98C256.495 181.496 257.275 181.496 257.675 180.98L263.299 173.722H277.824C281.779 173.722 284.986 170.62 284.986 166.795V101.218C284.986 97.3928 281.779 94.291 277.824 94.291Z" fill="#0068FF"/>
<g opacity="0.5">
<path opacity="0.5" d="M247.016 145.153C244.818 145.153 242.755 144.326 241.204 142.824C238.938 140.639 235.254 140.639 232.994 142.824C229.784 145.923 224.568 145.923 221.364 142.824C220.268 141.764 218.811 141.181 217.257 141.181C215.707 141.181 214.25 141.764 213.157 142.824C211.603 144.326 209.537 145.153 207.342 145.153C205.147 145.153 203.081 144.326 201.53 142.824C199.264 140.636 195.583 140.639 193.32 142.824C190.113 145.923 184.894 145.923 181.69 142.824C181.219 142.369 181.219 141.627 181.69 141.172C182.161 140.717 182.928 140.717 183.399 141.172C185.661 143.36 189.346 143.36 191.612 141.172C194.813 138.073 200.028 138.073 203.239 141.172C204.335 142.232 205.792 142.815 207.342 142.815C208.893 142.815 210.35 142.232 211.446 141.172C212.996 139.672 215.059 138.846 217.257 138.846C219.456 138.846 221.522 139.672 223.072 141.172C225.335 143.36 229.02 143.36 231.286 141.172C234.49 138.076 239.705 138.073 242.916 141.172C244.012 142.232 245.469 142.815 247.019 142.815C248.57 142.815 250.027 142.232 251.123 141.172C252.673 139.672 254.739 138.843 256.934 138.843C259.13 138.843 261.196 139.669 262.746 141.172C263.217 141.627 263.217 142.369 262.746 142.824C262.276 143.279 261.509 143.279 261.038 142.824C259.942 141.764 258.485 141.181 256.934 141.181C255.384 141.181 253.927 141.764 252.831 142.824C251.277 144.326 249.214 145.153 247.016 145.153Z" fill="white"/>
</g>
<g opacity="0.5">
<path opacity="0.5" d="M247.016 133.297C244.818 133.297 242.755 132.471 241.204 130.968C238.938 128.783 235.254 128.783 232.994 130.968C229.784 134.067 224.568 134.067 221.364 130.968C220.268 129.909 218.811 129.326 217.257 129.326C215.707 129.326 214.25 129.909 213.157 130.968C211.603 132.471 209.537 133.297 207.342 133.297C205.147 133.297 203.081 132.471 201.53 130.968C199.264 128.783 195.583 128.783 193.32 130.968C190.113 134.07 184.894 134.067 181.69 130.968C181.219 130.513 181.219 129.771 181.69 129.316C182.161 128.861 182.928 128.861 183.399 129.316C185.661 131.505 189.346 131.505 191.609 129.316C194.809 126.221 200.025 126.218 203.235 129.316C204.331 130.376 205.788 130.962 207.339 130.962C208.889 130.962 210.346 130.379 211.442 129.319C212.993 127.82 215.056 126.994 217.254 126.994C219.453 126.994 221.519 127.82 223.069 129.319C225.332 131.508 229.016 131.508 231.282 129.319C234.487 126.224 239.702 126.224 242.913 129.319C244.009 130.379 245.466 130.965 247.016 130.965C248.566 130.965 250.023 130.382 251.119 129.322C252.67 127.823 254.736 126.997 256.931 126.997C259.126 126.997 261.193 127.823 262.743 129.322C263.214 129.778 263.214 130.52 262.743 130.975C262.272 131.43 261.505 131.43 261.035 130.975C259.939 129.915 258.482 129.332 256.931 129.332C255.381 129.332 253.924 129.915 252.828 130.975C251.277 132.471 249.214 133.297 247.016 133.297Z" fill="white"/>
</g>
<path opacity="0.5" d="M247.016 121.445C244.818 121.445 242.755 120.619 241.204 119.116C238.938 116.931 235.254 116.931 232.994 119.116C229.784 122.215 224.568 122.215 221.364 119.116C220.268 118.056 218.811 117.474 217.257 117.474C215.707 117.474 214.25 118.056 213.157 119.116C211.603 120.619 209.537 121.445 207.342 121.445C205.147 121.445 203.081 120.619 201.53 119.116C199.264 116.931 195.583 116.931 193.32 119.116C190.113 122.218 184.894 122.215 181.69 119.116C181.219 118.661 181.219 117.919 181.69 117.464C182.161 117.009 182.928 117.009 183.399 117.464C185.661 119.653 189.346 119.653 191.609 117.464C194.809 114.369 200.025 114.366 203.235 117.464C204.331 118.524 205.788 119.11 207.339 119.11C208.889 119.11 210.346 118.527 211.442 117.467C212.993 115.968 215.056 115.142 217.254 115.142C219.453 115.142 221.519 115.968 223.069 117.467C225.332 119.656 229.016 119.656 231.282 117.467C234.487 114.372 239.702 114.372 242.913 117.467C244.009 118.527 245.466 119.113 247.016 119.113C248.566 119.113 250.023 118.53 251.119 117.47C252.67 115.971 254.736 115.145 256.931 115.145C259.126 115.145 261.193 115.971 262.743 117.47C263.214 117.926 263.214 118.667 262.743 119.123C262.272 119.578 261.505 119.578 261.035 119.123C259.939 118.063 258.482 117.48 256.931 117.48C255.381 117.48 253.924 118.063 252.828 119.123C251.277 120.616 249.214 121.445 247.016 121.445Z" fill="white"/>
<path d="M168.255 126.151C167.883 125.466 167.158 125.036 166.369 125.036H156.506L159.846 115.161C160.183 114.157 159.717 113.063 158.757 112.599C157.791 112.135 156.632 112.443 156.04 113.324L143.21 132.298C142.772 132.946 142.731 133.776 143.104 134.461C143.473 135.149 144.198 135.577 144.987 135.577H154.851L151.511 145.452C151.173 146.455 151.639 147.549 152.599 148.013C152.903 148.159 153.224 148.226 153.54 148.226C154.235 148.226 154.913 147.891 155.321 147.288L168.15 128.314C168.587 127.669 168.627 126.836 168.255 126.151Z" fill="white"/>
<path d="M27.5162 112.949L27.0957 123.706C27.0495 124.87 25.719 125.55 24.698 124.929L15.2764 119.201C14.2554 118.58 14.312 117.124 15.3792 116.581L25.2211 111.554C26.2862 111.008 27.5625 111.784 27.5162 112.949Z" fill="#00BAC0"/>
<path d="M30.786 161.657L30.6723 172.422C30.6607 173.587 31.9558 174.335 33.0062 173.766L42.6996 168.526C43.75 167.957 43.7657 166.5 42.7268 165.903L33.1472 160.381C32.1106 159.781 30.7975 160.491 30.786 161.657Z" fill="#EA87FF"/>
<path d="M334.33 127.839L328.85 125.733C328.421 125.567 327.935 125.637 327.572 125.912L322.945 129.45C322.582 129.727 322.401 130.17 322.469 130.61L323.324 136.255C323.39 136.696 323.695 137.069 324.124 137.234L329.605 139.342C330.034 139.505 330.52 139.438 330.883 139.16L335.51 135.623C335.871 135.346 336.054 134.905 335.986 134.463L335.132 128.818C335.064 128.377 334.759 128.004 334.33 127.839Z" fill="#F5832F"/>
</g>
</g>
<defs>
<filter id="filter0_f" x="-297.801" y="-783" width="1293.19" height="1293.19" filterUnits="userSpaceOnUse" color-interpolation-filters="sRGB">
<feFlood flood-opacity="0" result="BackgroundImageFix"/>
<feBlend mode="normal" in="SourceGraphic" in2="BackgroundImageFix" result="shape"/>
<feGaussianBlur stdDeviation="200" result="effect1_foregroundBlur"/>
</filter>
<filter id="filter1_f" x="-505" y="-665.782" width="1067.02" height="1182.78" filterUnits="userSpaceOnUse" color-interpolation-filters="sRGB">
<feFlood flood-opacity="0" result="BackgroundImageFix"/>
<feBlend mode="normal" in="SourceGraphic" in2="BackgroundImageFix" result="shape"/>
<feGaussianBlur stdDeviation="200" result="effect1_foregroundBlur"/>
</filter>
<filter id="filter2_f" x="14.4554" y="-556.346" width="995.525" height="995.525" filterUnits="userSpaceOnUse" color-interpolation-filters="sRGB">
<feFlood flood-opacity="0" result="BackgroundImageFix"/>
<feBlend mode="normal" in="SourceGraphic" in2="BackgroundImageFix" result="shape"/>
<feGaussianBlur stdDeviation="200" result="effect1_foregroundBlur"/>
</filter>
<filter id="filter3_d" x="-5.45642" y="55" width="361.456" height="161.367" filterUnits="userSpaceOnUse" color-interpolation-filters="sRGB">
<feFlood flood-opacity="0" result="BackgroundImageFix"/>
<feColorMatrix in="SourceAlpha" type="matrix" values="0 0 0 0 0 0 0 0 0 0 0 0 0 0 0 0 0 0 127 0"/>
<feOffset dy="15"/>
<feGaussianBlur stdDeviation="10"/>
<feColorMatrix type="matrix" values="0 0 0 0 0 0 0 0 0 0 0 0 0 0 0 0 0 0 0.1 0"/>
<feBlend mode="normal" in2="BackgroundImageFix" result="effect1_dropShadow"/>
<feBlend mode="normal" in="SourceGraphic" in2="effect1_dropShadow" result="shape"/>
</filter>
<linearGradient id="paint0_linear" x1="348.794" y1="-383" x2="348.794" y2="110.191" gradientUnits="userSpaceOnUse">
<stop stop-color="#FFD8FC"/>
<stop offset="1" stop-color="#FF41F2"/>
</linearGradient>
<clipPath id="clip0">
<rect width="350" height="242" fill="white"/>
</clipPath>
</defs>
</svg>
