<svg width="24" height="24" viewBox="0 0 24 24" fill="none" xmlns="http://www.w3.org/2000/svg">
<g clip-path="url(#clip0_1254_69140)">
<path d="M12 21.75C6.6245 21.75 2.25 17.3755 2.25 12C2.25 6.6245 6.6245 2.25 12 2.25C17.3755 2.25 21.75 6.6245 21.75 12C21.75 17.3755 17.3755 21.75 12 21.75Z" fill="url(#paint0_linear_1254_69140)"/>
<path d="M12 21.321C6.85852 21.321 2.67902 17.1383 2.67902 12C2.67902 6.85852 6.85852 2.67902 12 2.67902C17.1415 2.67902 21.321 6.86177 21.321 12C21.321 17.1383 17.1415 21.321 12 21.321Z" fill="url(#paint1_radial_1254_69140)"/>
<path d="M7.24199 13.6119C5.85749 13.6119 4.54449 12.9067 3.81649 11.7692C3.14374 10.7162 3.02349 9.39344 3.47849 8.04469C3.50774 7.95369 3.58574 7.89844 3.67024 7.89844C3.69299 7.89844 3.71574 7.90169 3.73849 7.91144L11.376 10.5212C11.428 10.5407 10.2287 13.6054 7.25824 13.6152H7.24199V13.6119Z" fill="url(#paint2_radial_1254_69140)"/>
<path d="M3.67023 8.09998L11.0445 10.726C11.0445 10.726 10.128 12.3477 7.25498 12.3575C4.83698 12.364 2.63673 10.9015 3.67023 8.09998Z" fill="white"/>
<path d="M16.615 13.6119C18.0027 13.6119 19.3125 12.9067 20.0405 11.7692C20.7132 10.7162 20.8335 9.39344 20.3785 8.04469C20.3492 7.95369 20.2712 7.89844 20.1867 7.89844C20.164 7.89844 20.1412 7.90169 20.1185 7.91144L12.481 10.5212C12.429 10.5407 13.6282 13.6054 16.5987 13.6152H16.615V13.6119Z" fill="url(#paint3_radial_1254_69140)"/>
<path d="M20.1867 8.09998L12.8125 10.726C12.8125 10.726 13.729 12.3477 16.602 12.3575C19.02 12.364 21.2202 10.9015 20.1867 8.09998Z" fill="white"/>
<path d="M11.8765 9.31214C11.8765 9.31214 11.9318 9.47464 11.9415 9.76064C11.9383 9.90364 11.935 10.0824 11.8765 10.2936C11.8473 10.4009 11.8018 10.5146 11.7205 10.6414C11.6815 10.7064 11.623 10.7714 11.5483 10.8364C11.48 10.8981 11.363 10.9729 11.2623 10.9956L11.2395 11.0021L11.1908 11.0119L11.0998 11.0281C11.0575 11.0346 11.0088 11.0411 10.973 11.0411C10.8918 11.0476 10.817 11.0476 10.7455 11.0444C10.5993 11.0411 10.4628 11.0249 10.3263 11.0054C10.05 10.9696 9.78026 10.9079 9.50076 10.8429C8.94826 10.6999 8.38601 10.5114 7.83351 10.2936C6.73176 9.85814 5.69176 9.29914 4.94426 8.80839C4.75576 8.68814 4.59001 8.56464 4.44051 8.46389C4.29101 8.35989 4.16751 8.25589 4.06026 8.17789C3.85226 8.01214 3.74176 7.90814 3.74176 7.90814C3.74176 7.90814 3.89451 7.92114 4.15451 7.96339C4.28451 7.98614 4.44376 8.00889 4.61926 8.04464C4.79476 8.08364 4.99951 8.11939 5.21401 8.17139C6.07851 8.36639 7.19651 8.70439 8.28201 9.08789C8.81826 9.27964 9.35451 9.47139 9.85826 9.65014C10.1053 9.74114 10.3425 9.81914 10.5603 9.88739C10.6675 9.92314 10.7715 9.94589 10.8593 9.97189C10.9048 9.98489 10.9438 9.99139 10.9763 9.99789L11.0185 10.0044C11.0218 10.0044 11.012 10.0076 11.0088 10.0109L11.0023 10.0174C11.0055 10.0174 11.0153 10.0174 11.0218 10.0141C11.0088 10.0401 11.0315 10.0661 11.0868 10.0401C11.142 10.0206 11.2005 9.97514 11.2623 9.92964C11.3793 9.83214 11.493 9.72164 11.5808 9.62414C11.7693 9.42914 11.8765 9.31214 11.8765 9.31214Z" fill="#5D2212"/>
<path d="M11.8765 9.31234C11.8765 9.31234 12 9.40984 12.182 9.56909C12.2795 9.64709 12.3802 9.74459 12.5102 9.83234C12.624 9.92009 12.78 10.0208 12.8612 10.0143C12.8775 10.0176 12.8937 9.99809 12.871 9.98834C12.884 9.98834 12.9002 9.99159 12.9067 9.99159C12.9035 9.98834 12.9002 9.98509 12.897 9.98184C12.8872 9.97859 12.9132 9.97534 12.923 9.97534C12.9815 9.96559 13.0692 9.94284 13.1602 9.92009C13.3455 9.86809 13.56 9.79659 13.7842 9.72184C14.2425 9.55934 14.73 9.38709 15.2207 9.21809C16.212 8.87034 17.239 8.56809 18.0352 8.39909C18.2335 8.35359 18.422 8.32434 18.5845 8.29184C18.747 8.25934 18.8965 8.24309 19.0167 8.22359C19.2572 8.19109 19.4002 8.18134 19.4002 8.18134C19.4002 8.18134 19.2995 8.28209 19.1142 8.44134C19.02 8.51609 18.9095 8.61684 18.773 8.71434C18.6365 8.81184 18.487 8.93209 18.318 9.04584C17.6387 9.51059 16.6897 10.0371 15.6692 10.4271C15.159 10.6253 14.6357 10.7911 14.1157 10.9048C13.8557 10.9601 13.599 11.0056 13.3292 11.0218C13.1927 11.0316 13.0562 11.0316 12.897 11.0153C12.8515 11.0088 12.8222 11.0056 12.7637 10.9958L12.676 10.9763L12.6337 10.9633C12.5102 10.9178 12.429 10.8626 12.3672 10.8073C12.1105 10.5798 12.0455 10.3718 11.9772 10.1931C11.9252 10.0078 11.8927 9.85834 11.883 9.72509C11.8505 9.46509 11.8765 9.31234 11.8765 9.31234Z" fill="#5D2212"/>
<path d="M9.73796 10.7032C9.73796 11.2492 9.29596 11.6912 8.74996 11.6912C8.20396 11.6912 7.76196 11.2492 7.76196 10.7032C7.76196 10.1572 8.20396 9.71198 8.74996 9.71198C9.29596 9.71198 9.73796 10.1572 9.73796 10.7032Z" fill="url(#paint4_radial_1254_69140)"/>
<path d="M15.1915 11.9025C15.782 11.9025 16.2608 11.4238 16.2608 10.8332C16.2608 10.2427 15.782 9.76398 15.1915 9.76398C14.601 9.76398 14.1223 10.2427 14.1223 10.8332C14.1223 11.4238 14.601 11.9025 15.1915 11.9025Z" fill="url(#paint5_radial_1254_69140)"/>
<path d="M9.21472 17.7589C9.14647 17.7589 9.08147 17.7394 9.02297 17.7004C8.87672 17.5996 8.84747 17.4111 8.95147 17.2746C8.99697 17.2161 10.0597 14.9736 11.922 14.9736C13.794 14.9736 14.7365 17.1771 14.7755 17.2324C14.873 17.3721 14.834 17.5639 14.6845 17.6549C14.535 17.7491 14.3335 17.7101 14.236 17.5704C14.2035 17.5281 13.4397 15.8901 11.922 15.8901C10.3847 15.8901 9.48447 17.6224 9.47472 17.6354C9.41297 17.7134 9.31222 17.7589 9.21472 17.7589Z" fill="#5D2212"/>
<path fill-rule="evenodd" clip-rule="evenodd" d="M11.0588 17.1521L11.06 17.151L11.0668 17.1445C11.073 17.1386 11.0829 17.1295 11.0959 17.118C11.1221 17.0951 11.1611 17.0626 11.2106 17.0264C11.3104 16.9534 11.449 16.8679 11.609 16.8117C11.7686 16.7556 11.9438 16.7305 12.1223 16.7697C12.2988 16.8085 12.4934 16.9135 12.6888 17.1428C12.747 17.2111 12.8496 17.2193 12.9179 17.1611C12.9862 17.1029 12.9944 17.0003 12.9362 16.932C12.701 16.656 12.4466 16.5082 12.1921 16.4523C11.9394 16.3968 11.7013 16.4348 11.5013 16.5051C11.3018 16.5752 11.1347 16.6792 11.0187 16.7641C10.9603 16.8069 10.9138 16.8455 10.8815 16.8738C10.8654 16.888 10.8527 16.8997 10.8438 16.9081C10.8393 16.9122 10.8358 16.9156 10.8333 16.9181L10.8302 16.9211L10.8293 16.9221L10.8289 16.9224L10.8288 16.9226C10.8287 16.9226 10.8287 16.9227 10.9438 17.0374L10.8287 16.9227C10.7653 16.9862 10.7655 17.0891 10.829 17.1525C10.8926 17.2158 10.9954 17.2157 11.0587 17.1522L11.0588 17.1521Z" fill="#5D2212"/>
<path d="M12.5883 4.90204C14.86 4.90204 14.5675 2.80579 14.5675 2.80579H15.3703C15.3703 2.80579 15.0778 4.90204 17.3495 4.90204V5.49029C15.0745 5.49029 15.3703 7.58654 15.3703 7.58654H14.5675C14.5675 7.58654 14.86 5.49029 12.5883 5.49029" fill="white"/>
<path fill-rule="evenodd" clip-rule="evenodd" d="M14.5858 2.67156C14.7191 2.65295 14.8423 2.74596 14.8609 2.87928L14.6195 2.91297C14.8609 2.87928 14.8609 2.87942 14.8609 2.87956L14.861 2.87988L14.8611 2.88068L14.8614 2.88284L14.8622 2.88945C14.8629 2.89485 14.8637 2.90222 14.8647 2.91144C14.8666 2.92986 14.8689 2.95571 14.8709 2.98793C14.8749 3.05226 14.8777 3.14263 14.8732 3.25051C14.8644 3.46474 14.8269 3.7563 14.7079 4.05207C14.588 4.35 14.3841 4.65501 14.044 4.88391C13.7039 5.11273 13.2463 5.25297 12.6402 5.25297C12.5056 5.25297 12.3965 5.14384 12.3965 5.00922C12.3965 4.8746 12.5056 4.76547 12.6402 4.76547C13.17 4.76547 13.5278 4.64367 13.7718 4.47945C14.0157 4.3153 14.1647 4.09625 14.2556 3.87011C14.3475 3.64183 14.3788 3.40933 14.3861 3.2305C14.3898 3.14186 14.3875 3.06846 14.3843 3.01816C14.3828 2.99306 14.381 2.97387 14.3798 2.96158C14.3791 2.95545 14.3786 2.95105 14.3783 2.94851L14.378 2.94643C14.3596 2.81319 14.4525 2.69015 14.5858 2.67156Z" fill="#5D2212"/>
<path fill-rule="evenodd" clip-rule="evenodd" d="M12.3965 5.59415C12.3965 5.45953 12.5056 5.3504 12.6402 5.3504C13.2463 5.3504 13.7039 5.49064 14.044 5.71947C14.3841 5.94836 14.588 6.25337 14.7079 6.5513C14.8269 6.84707 14.8644 7.13863 14.8732 7.35286C14.8777 7.46074 14.8749 7.55111 14.8709 7.61544C14.8689 7.64766 14.8666 7.67351 14.8647 7.69193C14.8637 7.70115 14.8629 7.70852 14.8622 7.71392L14.8614 7.72053L14.8611 7.72269L14.861 7.72349L14.8609 7.72381C14.8609 7.72395 14.8609 7.72409 14.6195 7.6904L14.8609 7.72409C14.8423 7.85742 14.7191 7.95042 14.5858 7.93181C14.4526 7.91323 14.3597 7.7903 14.378 7.65714C14.378 7.6571 14.378 7.65707 14.378 7.65704L14.378 7.65712L14.3783 7.65486C14.3786 7.65232 14.3791 7.64793 14.3798 7.64179C14.381 7.6295 14.3828 7.61031 14.3843 7.58521C14.3875 7.53491 14.3898 7.46151 14.3861 7.37287C14.3788 7.19405 14.3475 6.96154 14.2556 6.73326C14.1647 6.50713 14.0157 6.28807 13.7718 6.12392C13.5278 5.9597 13.17 5.8379 12.6402 5.8379C12.5056 5.8379 12.3965 5.72877 12.3965 5.59415Z" fill="#5D2212"/>
<path fill-rule="evenodd" clip-rule="evenodd" d="M15.6637 2.94649C15.6637 2.94649 15.6637 2.94649 15.6637 2.94649L15.6637 2.94648L15.6637 2.94631L15.6637 2.94608C15.6638 2.946 15.6638 2.94603 15.6637 2.94619L15.6634 2.94857C15.6631 2.9511 15.6626 2.9555 15.662 2.96163C15.6607 2.97391 15.659 2.9931 15.6574 3.01819C15.6543 3.06849 15.652 3.14187 15.6556 3.2305C15.663 3.40929 15.6944 3.64177 15.7864 3.87003C15.8776 4.09612 16.0268 4.31521 16.2712 4.47942C16.5157 4.6437 16.8741 4.76553 17.4047 4.76553C17.5394 4.76553 17.6485 4.87466 17.6485 5.00928C17.6485 5.1439 17.5394 5.25303 17.4047 5.25303C16.7979 5.25303 16.3398 5.11283 15.9993 4.88407C15.6587 4.65523 15.4544 4.35025 15.3343 4.05229C15.2151 3.75648 15.1774 3.46489 15.1685 3.25064C15.1641 3.14274 15.1668 3.05236 15.1708 2.98802C15.1728 2.95579 15.1752 2.92994 15.1771 2.91151C15.178 2.90229 15.1789 2.89492 15.1795 2.88952L15.1804 2.88291L15.1806 2.88074L15.1808 2.87995L15.1808 2.87962C15.1808 2.87948 15.1808 2.87935 15.4214 2.91292L15.1808 2.87935C15.1994 2.74602 15.3226 2.65302 15.4559 2.67162C15.5892 2.69021 15.6822 2.81324 15.6637 2.94648C15.6637 2.94648 15.6637 2.94648 15.6637 2.94649Z" fill="#5D2212"/>
<path fill-rule="evenodd" clip-rule="evenodd" d="M15.6637 7.65694L15.6634 7.65486C15.6631 7.65233 15.6626 7.64794 15.662 7.6418C15.6607 7.62952 15.659 7.61034 15.6574 7.58524C15.6543 7.53495 15.652 7.46156 15.6556 7.37293C15.663 7.19414 15.6944 6.96167 15.7864 6.73341C15.8776 6.50731 16.0268 6.28822 16.2712 6.12402C16.5157 5.95973 16.8741 5.8379 17.4047 5.8379C17.5394 5.8379 17.6485 5.72877 17.6485 5.59415C17.6485 5.45953 17.5394 5.3504 17.4047 5.3504C16.7979 5.3504 16.3398 5.49061 15.9993 5.71937C15.6587 5.94821 15.4544 6.25318 15.3343 6.55115C15.2151 6.84695 15.1774 7.13854 15.1685 7.35279C15.1641 7.46069 15.1668 7.55107 15.1708 7.61542C15.1728 7.64764 15.1752 7.67349 15.1771 7.69192C15.178 7.70114 15.1789 7.70851 15.1795 7.71391L15.1804 7.72052L15.1806 7.72269L15.1808 7.72349L15.1808 7.72381C15.1808 7.72395 15.1808 7.72409 15.4222 7.6904L15.1808 7.72409C15.1994 7.85742 15.3226 7.95042 15.4559 7.93181C15.5892 7.91322 15.6822 7.79018 15.6637 7.65694Z" fill="#5D2212"/>
</g>
<defs>
<linearGradient id="paint0_linear_1254_69140" x1="12" y1="-4.15698" x2="12" y2="23.4354" gradientUnits="userSpaceOnUse">
<stop stop-color="#EE3D3E"/>
<stop offset="0.2217" stop-color="#DE3537"/>
<stop offset="0.7234" stop-color="#BD2529"/>
<stop offset="1" stop-color="#B11F24"/>
</linearGradient>
<radialGradient id="paint1_radial_1254_69140" cx="0" cy="0" r="1" gradientUnits="userSpaceOnUse" gradientTransform="translate(11.7394 -1.15114) scale(20.9912 20.9912)">
<stop offset="0.0323" stop-color="#FFD741"/>
<stop offset="0.1369" stop-color="#FDC43F"/>
<stop offset="0.3494" stop-color="#F89339"/>
<stop offset="0.6481" stop-color="#F04431"/>
<stop offset="0.7366" stop-color="#ED2B2E"/>
<stop offset="0.9614" stop-color="#F05931"/>
<stop offset="1" stop-color="#F06132"/>
</radialGradient>
<radialGradient id="paint2_radial_1254_69140" cx="0" cy="0" r="1" gradientUnits="userSpaceOnUse" gradientTransform="translate(7.2922 10.7538) scale(3.43206 3.74198)">
<stop stop-color="#90331F"/>
<stop offset="0.00537634" stop-color="#7D1416"/>
<stop offset="0.5585" stop-color="#7D1917"/>
<stop offset="1" stop-color="#7E2219"/>
</radialGradient>
<radialGradient id="paint3_radial_1254_69140" cx="0" cy="0" r="1" gradientUnits="userSpaceOnUse" gradientTransform="translate(16.5642 10.7538) rotate(180) scale(3.4322 3.74212)">
<stop stop-color="#90331F"/>
<stop offset="0.00537634" stop-color="#7D1416"/>
<stop offset="0.5585" stop-color="#7D1917"/>
<stop offset="1" stop-color="#7E2219"/>
</radialGradient>
<radialGradient id="paint4_radial_1254_69140" cx="0" cy="0" r="1" gradientUnits="userSpaceOnUse" gradientTransform="translate(8.74964 10.7036) scale(0.989625)">
<stop stop-color="#753A25"/>
<stop offset="0.5923" stop-color="#612C1C"/>
<stop offset="1" stop-color="#592619"/>
</radialGradient>
<radialGradient id="paint5_radial_1254_69140" cx="0" cy="0" r="1" gradientUnits="userSpaceOnUse" gradientTransform="translate(15.1903 10.8342) scale(1.06997)">
<stop stop-color="#753A25"/>
<stop offset="0.5923" stop-color="#612C1C"/>
<stop offset="1" stop-color="#592619"/>
</radialGradient>
<clipPath id="clip0_1254_69140">
<rect width="24" height="24" fill="white"/>
</clipPath>
</defs>
</svg>
