<?xml version="1.0" encoding="UTF-8"?>
<svg width="264px" height="264px" viewBox="0 0 264 264" version="1.1" xmlns="http://www.w3.org/2000/svg" xmlns:xlink="http://www.w3.org/1999/xlink">
    <!-- Generator: Sketch 57.1 (83088) - https://sketch.com -->
    <title>Artboard</title>
    <desc>Created with Sketch.</desc>
    <defs>
        <rect id="path-1" x="0" y="0" width="264" height="264"></rect>
    </defs>
    <g id="Page-1" stroke="none" stroke-width="1" fill="none" fill-rule="evenodd">
        <g id="Artboard">
            <g id="star">
                <mask id="mask-2" fill="white">
                    <use xlink:href="#path-1"></use>
                </mask>
                <g id="Mask"></g>
                <g mask="url(#mask-2)">
                    <g transform="translate(19.078125, 0.000000)">
                        <circle id="Oval" fill="#FF4B4E" fill-rule="nonzero" cx="10.1949375" cy="184.590656" r="7.75242188"></circle>
                        <circle id="Oval" fill="#FFCA54" fill-rule="nonzero" cx="46.0839844" cy="94.6702969" r="7.75242187"></circle>
                        <circle id="Oval" fill="#00CDB3" fill-rule="nonzero" cx="152.370281" cy="75.9969375" r="7.75242187"></circle>
                        <g id="Group" stroke-width="1" fill="none" fill-rule="evenodd" transform="translate(68.578125, 28.875000)">
                            <circle id="Oval" fill="#57BAE5" fill-rule="nonzero" cx="149.377594" cy="155.715656" r="7.75242187"></circle>
                            <circle id="Oval" fill="#57BAE5" fill-rule="nonzero" cx="8.212875" cy="7.88957813" r="7.75242187"></circle>
                        </g>
                        <path d="M209.803688,131.042484 C205.963313,130.484578 147.689953,122.016984 144.105844,121.496203 L114.7245,61.9636875 C112.031906,56.5032188 104.216578,56.4985781 101.519344,61.9636875 L72.138,121.496203 L6.44015625,131.042484 C3.66660938,131.445188 1.36279688,133.388578 0.49603125,136.053844 C-0.369703125,138.719625 0.3526875,141.645797 2.3595,143.602078 L49.8985781,189.940781 L38.676,255.374109 C37.6478438,261.373922 43.9652812,265.97175 49.35975,263.136328 L108.122438,232.243172 C172.05375,265.854188 167.743125,263.980922 170.309906,263.980922 C174.847922,263.980922 178.342312,259.890469 177.567844,255.373078 L166.345266,189.940781 L213.884859,143.602078 C218.2455,139.351266 215.835469,131.919047 209.803688,131.042484 Z" id="Path" fill="#FFCA54" fill-rule="nonzero"></path>
                        <path d="M37.2616406,73.0846875 C32.8092187,72.2339063 25.0851563,66.6651563 27.7132969,51.6810938 C28.6723594,46.2097969 27.4905469,45.7617188 21.0545156,44.2999219 C14.7654375,42.8721563 5.26195312,40.71375 4.57823437,27.4126875 C4.45809375,25.0820625 6.25092187,23.095875 8.58103125,22.9757344 C10.9173281,22.8535313 12.8983594,24.6484219 13.0174687,26.9785313 C13.3577812,33.5950313 16.4747344,34.5932813 22.9252031,36.0581719 C28.7192812,37.3740469 38.4156094,39.5762813 36.0370312,53.1408281 C34.2328594,63.4239375 38.8007812,64.7743594 38.8477031,64.783125 C41.1396563,65.2214063 42.6427031,67.4349844 42.2054531,69.7274531 C41.7661406,72.0225 39.5489531,73.5229688 37.2616406,73.0846875 Z" id="Path" fill="#F99830" fill-rule="nonzero"></path>
                        <circle id="Oval" fill="#57BAE5" fill-rule="nonzero" cx="12.7632656" cy="83.7493594" r="5.48676563"></circle>
                        <circle id="Oval" fill="#00CDB3" fill-rule="nonzero" cx="194.136422" cy="195.557484" r="5.48676563"></circle>
                        <circle id="Oval" fill="#FFCA54" fill-rule="nonzero" cx="17.6493281" cy="229.653703" r="5.48728125"></circle>
                        <g id="Group" stroke-width="1" fill="none" fill-rule="evenodd" transform="translate(54.140625, 62.906250)">
                            <path d="M124.791562,13.7589375 C123.117844,12.1321406 123.080203,9.4565625 124.706484,7.78335937 L130.577391,1.74384375 C132.203672,0.070640625 134.87925,0.032484375 136.552453,1.65928125 C138.226687,3.28607812 138.263812,5.96165625 136.637531,7.63485938 L130.767141,13.674375 C129.136734,15.349125 126.461672,15.3831563 124.791562,13.7589375 Z" id="Path" fill="#FF4B4E" fill-rule="nonzero"></path>
                            <path d="M10.5553594,11.4365625 L2.74828125,8.27939063 C0.58471875,7.40489063 -0.460453125,4.94175 0.4145625,2.77767188 C1.2890625,0.614109375 3.7516875,-0.4310625 5.91628125,0.443953125 L13.7243906,3.601125 C15.8879531,4.475625 16.9320937,6.93876563 16.0575937,9.10284375 C15.1846406,11.2638281 12.7225313,12.3126094 10.5553594,11.4365625 Z" id="Path" fill="#FF4B4E" fill-rule="nonzero"></path>
                        </g>
                        <path d="M26.1272344,213.094406 L18.319125,209.937234 C16.1560781,209.062734 15.1103906,206.599078 15.9859219,204.435516 C16.8604219,202.271437 19.3235625,201.228844 21.4876406,202.101797 L29.29575,205.259484 C31.4577656,206.133469 32.5039687,208.597125 31.6289531,210.761203 C30.7498125,212.935078 28.276875,213.964781 26.1272344,213.094406 Z" id="Path" fill="#00CDB3" fill-rule="nonzero"></path>
                        <path d="M204.329812,227.527266 L196.521703,224.370094 C194.358656,223.495594 193.313484,221.031937 194.1885,218.868375 C195.063,216.705328 197.526141,215.660672 199.690219,216.535172 L207.498328,219.691828 C209.661375,220.566328 210.706031,223.029984 209.831531,225.193547 C208.96425,227.339062 206.516062,228.408469 204.329812,227.527266 Z" id="Path" fill="#57BAE5" fill-rule="nonzero"></path>
                        <g id="Group" stroke-width="1" fill="none" fill-rule="evenodd" transform="translate(125.000000, 0.000000)">
                            <path d="M29.1497031,3.49078125 C28.7439063,1.19264063 26.5504375,-0.33928125 24.2528125,0.064453125 C21.9546719,0.47025 20.4201719,2.6626875 20.8264844,4.96082813 C21.9789063,11.4850313 19.1656562,13.1561719 13.208125,16.0302656 C7.85645313,18.6114844 -1.0994375,22.9324219 4.26151563,35.6183438 C8.33753125,45.2672344 4.13260938,47.5947656 4.13260938,47.5947656 C2.94976563,48.3790313 -0.78903125,49.7686406 0.80734375,53.5718906 C3.56490625,60.1455937 20.6769531,52.7551406 12.044875,32.3296875 C9.883375,27.2131406 10.9342187,26.511375 16.8798906,23.6429531 C22.6889219,20.8400156 31.4664062,16.6062188 29.1497031,3.49078125 Z" id="Path" fill="#F99830" fill-rule="nonzero"></path>
                            <path d="M93.5254844,65.0631094 C91.6114844,63.7286719 88.9781875,64.1978906 87.6427188,66.1124063 C84.5515469,70.5452344 83.9508437,75.8200781 83.4212969,80.4730781 C82.5086406,88.4941406 82.1672969,91.4981719 73.7832344,90.960375 C64.5504531,90.3699844 57.6519062,92.3489531 53.2763125,96.8369531 C47.8849375,102.366 48.0762344,109.992609 53.1582344,110.077688 C57.3837812,110.148328 57.6704687,105.645375 57.6704687,105.645375 C57.6704687,105.645375 58.5439375,98.4622031 73.2449219,99.3949688 C96.3933906,100.869141 88.9957187,78.948375 94.5742656,70.945875 C95.91025,69.031875 95.4405156,66.3980625 93.5254844,65.0631094 Z" id="Path" fill="#F99830" fill-rule="nonzero"></path>
                        </g>
                    </g>
                </g>
            </g>
        </g>
    </g>
</svg>