<svg xmlns="http://www.w3.org/2000/svg" width="16" height="16" viewBox="0 0 15 15">
    <g fill="none" fill-rule="nonzero">
        <path d="M0 0h16v16H0z"/>
        <path fill="#FFF" d="M11 8a3 3 0 0 0-1.667-2.687v1.474l1.634 1.633c.02-.133.033-.273.033-.42zm1.667 0c0 .627-.134 1.213-.36 1.76l1.006 1.007C13.753 9.94 14 9 14 8a5.998 5.998 0 0 0-4.667-5.847v1.374A4.67 4.67 0 0 1 12.667 8zM2 2.847L5.153 6H2.5a.5.5 0 0 0-.5.5v3a.5.5 0 0 0 .5.5h2.167l2.82 2.821A.3.3 0 0 0 8 12.61V8.847l2.833 2.833c-.446.347-.946.62-1.5.787v1.373a5.993 5.993 0 0 0 2.46-1.207L13.153 14l.847-.847-6-6L2.847 2 2 2.847zM6.607 4.06L8 5.453V3.14a.2.2 0 0 0-.342-.14L6.607 4.06z"/>
    </g>
</svg>
