<svg width="24" height="25" viewBox="0 0 24 25" fill="none" xmlns="http://www.w3.org/2000/svg">
<path fill-rule="evenodd" clip-rule="evenodd" d="M5.5 9.96729C4.67157 9.96729 4 10.6389 4 11.4673V18.0001C4 18.8285 4.67157 19.5001 5.5 19.5001H14.416C15.2444 19.5001 15.916 18.8285 15.916 18.0001V15.9344L19.2366 17.5882C19.9014 17.9193 20.6824 17.4358 20.6824 16.6931V12.7796C20.6824 12.0355 19.8988 11.5521 19.2338 11.8859L15.916 13.5512V11.4673C15.916 10.6389 15.2444 9.96729 14.416 9.96729H5.5Z" fill="#72808E"/>
<path d="M19.7012 6.34004L16.6959 9.34532L12.3413 4.99072" stroke="#72808E" stroke-width="1.2" stroke-linecap="round" stroke-linejoin="round"/>
<path d="M11.8506 7.93469L11.8506 4.50008L15.2852 4.50008" stroke="#72808E" stroke-width="1.2" stroke-linecap="round" stroke-linejoin="round"/>
</svg>
