<svg width="24" height="25" viewBox="0 0 24 25" fill="none" xmlns="http://www.w3.org/2000/svg">
<path fill-rule="evenodd" clip-rule="evenodd" d="M8.15215 14.7816C10.6637 17.8208 16.7844 20.7334 18.2618 20.0791C19.7392 19.4249 20.0558 18.0108 19.9925 17.3565C19.9292 16.7022 16.5734 14.6972 15.7291 14.3173C14.8849 13.9374 13.914 15.1615 13.4497 15.6891C12.9643 16.1957 11.107 14.655 10.3049 13.874C10.3049 13.874 8.19436 11.5102 8.67979 11.0037C9.16523 10.4971 10.3683 9.48405 9.94614 8.66092C9.52403 7.8378 7.39234 4.5453 6.71696 4.50308C6.06268 4.46087 4.6697 4.84078 4.07874 6.33929C3.48777 7.8378 6.31595 13.5575 9.46071 15.9424" fill="#72808E"/>
<path fill-rule="evenodd" clip-rule="evenodd" d="M16.5 11.5C18.433 11.5 20 9.933 20 8C20 6.067 18.433 4.5 16.5 4.5C14.567 4.5 13 6.067 13 8C13 9.933 14.567 11.5 16.5 11.5ZM16.5 10.5C17.8807 10.5 19 9.38068 19 7.99997C19 6.61926 17.8807 5.49997 16.5 5.49997C15.1193 5.49997 14 6.61926 14 7.99997C14 9.38068 15.1193 10.5 16.5 10.5Z" fill="#DB342E"/>
<path d="M14.5 10L18.5 6" stroke="#DB342E" stroke-linecap="square"/>
</svg>
