<svg version="1.1" xmlns="http://www.w3.org/2000/svg" xmlns:xlink="http://www.w3.org/1999/xlink" width="12" height="12" viewBox="0 0 12 12">
<g id="chat-menu-star-o">
<path id="Shape-676" d="M6.000,-0.000 C5.383,-0.000 4.814,0.362 4.551,0.923 C4.551,0.923 3.582,3.002 3.582,3.002 C3.582,3.002 1.359,3.343 1.359,3.343 C0.764,3.434 0.275,3.847 0.085,4.420 C-0.106,4.993 0.036,5.616 0.454,6.047 C0.454,6.047 2.115,7.759 2.115,7.759 C2.115,7.759 1.729,10.138 1.729,10.138 C1.631,10.746 1.881,11.347 2.383,11.705 C2.657,11.898 2.976,12.000 3.308,12.000 C3.579,12.000 3.848,11.930 4.085,11.798 C4.085,11.798 6.000,10.733 6.000,10.733 C6.000,10.733 7.917,11.798 7.917,11.798 C8.154,11.930 8.422,12.000 8.692,12.000 C9.024,12.000 9.343,11.899 9.615,11.707 C10.120,11.346 10.369,10.746 10.271,10.137 C10.271,10.137 9.885,7.759 9.885,7.759 C9.885,7.759 11.546,6.047 11.546,6.047 C11.964,5.616 12.106,4.993 11.917,4.422 C11.725,3.847 11.236,3.434 10.641,3.343 C10.641,3.343 8.418,3.002 8.418,3.002 C8.418,3.002 7.449,0.924 7.449,0.924 C7.187,0.363 6.619,-0.000 6.000,-0.000 C6.000,-0.000 6.000,-0.000 6.000,-0.000 z" fill="#000000" fill-opacity="0.4" />
<path id="sidebar_icon_sta" d="M10.961,4.728 C10.875,4.470 10.652,4.281 10.385,4.240 C10.385,4.240 7.784,3.841 7.784,3.841 C7.784,3.841 6.653,1.417 6.653,1.417 C6.534,1.163 6.280,1.000 5.999,1.000 C5.719,1.000 5.465,1.163 5.346,1.417 C5.346,1.417 4.215,3.841 4.215,3.841 C4.215,3.841 1.613,4.240 1.613,4.240 C1.346,4.281 1.124,4.470 1.038,4.728 C0.952,4.986 1.017,5.271 1.206,5.465 C1.206,5.465 3.112,7.430 3.112,7.430 C3.112,7.430 2.670,10.156 2.670,10.156 C2.625,10.431 2.740,10.706 2.966,10.867 C3.090,10.955 3.236,11.000 3.382,11.000 C3.502,11.000 3.622,10.970 3.731,10.909 C3.731,10.909 5.999,9.648 5.999,9.648 C5.999,9.648 8.267,10.909 8.267,10.909 C8.377,10.970 8.497,11.000 8.617,11.000 C8.762,11.000 8.908,10.955 9.033,10.867 C9.259,10.706 9.373,10.431 9.329,10.156 C9.329,10.156 8.886,7.430 8.886,7.430 C8.886,7.430 10.793,5.465 10.793,5.465 C10.982,5.271 11.047,4.986 10.961,4.728 z" fill="#FFFFFF" />
</g>
</svg>
