<?xml version="1.0" encoding="UTF-8"?>
<svg width="12px" height="12px" viewBox="0 0 12 12" version="1.1" xmlns="http://www.w3.org/2000/svg" xmlns:xlink="http://www.w3.org/1999/xlink">
    <!-- Generator: Sketch 59 (86127) - https://sketch.com -->
    <title>Combined Shape</title>
    <desc>Created with Sketch.</desc>
    <g id="Inapp-preview" stroke="none" stroke-width="1" fill="none" fill-rule="evenodd">
        <g id="FileSent--NoThumb-hover" transform="translate(-540.000000, -653.000000)" fill="#65C925">
            <path d="M546,653 C549.313708,653 552,655.686292 552,659 C552,662.313708 549.313708,665 546,665 C542.686292,665 540,662.313708 540,659 C540,655.686292 542.686292,653 546,653 Z M549.804738,656.445262 C549.544388,656.184913 549.122278,656.184913 548.861929,656.445262 L548.861929,656.445262 L544.75,660.557191 L543.138071,658.945262 C542.877722,658.684913 542.455612,658.684913 542.195262,658.945262 C541.934913,659.205612 541.934913,659.627722 542.195262,659.888071 L542.195262,659.888071 L544.278595,661.971405 C544.538945,662.231754 544.961055,662.231754 545.221405,661.971405 L545.221405,661.971405 L549.804738,657.388071 C550.065087,657.127722 550.065087,656.705612 549.804738,656.445262 Z" id="Combined-Shape"></path>
        </g>
    </g>
</svg>