<svg width="16" height="16" viewBox="0 0 16 16" fill="none" xmlns="http://www.w3.org/2000/svg">
<path d="M8.00003 1.3335C8.55232 1.3335 9.00003 1.78121 9.00003 2.3335L9.00003 7.71625L10.5593 6.15703C10.9498 5.7665 11.5829 5.7665 11.9735 6.15703C12.364 6.54755 12.364 7.18072 11.9735 7.57124L8.67364 10.8711C8.28311 11.2616 7.64995 11.2616 7.25942 10.8711L3.95959 7.57124C3.56907 7.18072 3.56907 6.54755 3.95959 6.15703C4.35012 5.7665 4.98328 5.7665 5.37381 6.15703L7.00003 7.78325L7.00003 2.3335C7.00003 1.78121 7.44775 1.3335 8.00003 1.3335Z" fill="url(#paint0_linear_4775_217919)"/>
<path d="M3.33337 12.6668C2.78108 12.6668 2.33337 13.1145 2.33337 13.6668C2.33337 14.2191 2.78108 14.6668 3.33337 14.6668H12.6667C13.219 14.6668 13.6667 14.2191 13.6667 13.6668C13.6667 13.1145 13.219 12.6668 12.6667 12.6668H3.33337Z" fill="url(#paint1_linear_4775_217919)"/>
<defs>
<linearGradient id="paint0_linear_4775_217919" x1="11.7905" y1="13.1284" x2="1.75402" y2="5.03081" gradientUnits="userSpaceOnUse">
<stop stop-color="#0068FF"/>
<stop offset="1" stop-color="#5CAAFF"/>
</linearGradient>
<linearGradient id="paint1_linear_4775_217919" x1="11.7905" y1="13.1284" x2="1.75402" y2="5.03081" gradientUnits="userSpaceOnUse">
<stop stop-color="#0068FF"/>
<stop offset="1" stop-color="#5CAAFF"/>
</linearGradient>
</defs>
</svg>
