<?xml version="1.0" encoding="UTF-8"?>
<svg width="12px" height="12px" viewBox="0 0 12 12" version="1.1" xmlns="http://www.w3.org/2000/svg" xmlns:xlink="http://www.w3.org/1999/xlink">
    <!-- Generator: Sketch 59 (86127) - https://sketch.com -->
    <title>Combined Shape</title>
    <desc>Created with Sketch.</desc>
    <g id="Inapp-preview" stroke="none" stroke-width="1" fill="none" fill-rule="evenodd">
        <g id="FileSent--NoThumb-hover" transform="translate(-554.000000, -653.000000)" fill="#F58A23">
            <path d="M560,653 C563.313708,653 566,655.686292 566,659 C566,662.313708 563.313708,665 560,665 C556.686292,665 554,662.313708 554,659 C554,655.686292 556.686292,653 560,653 Z M560.05,661.1 C559.635786,661.1 559.3,661.435786 559.3,661.85 C559.3,662.264214 559.635786,662.6 560.05,662.6 C560.464214,662.6 560.8,662.264214 560.8,661.85 C560.8,661.435786 560.464214,661.1 560.05,661.1 Z M560.05,655.1 C559.635786,655.1 559.3,655.435786 559.3,655.85 L559.3,655.85 L559.3,659.35 C559.3,659.764214 559.635786,660.1 560.05,660.1 C560.464214,660.1 560.8,659.764214 560.8,659.35 L560.8,659.35 L560.8,655.85 C560.8,655.435786 560.464214,655.1 560.05,655.1 Z" id="Combined-Shape"></path>
        </g>
    </g>
</svg>