<svg width="48" height="48" viewBox="0 0 48 48" fill="none" xmlns="http://www.w3.org/2000/svg">
<path d="M8.57129 8.28564C8.57129 6.0765 10.3622 4.28564 12.5713 4.28564H30.857L39.4284 12.8571V39.7142C39.4284 41.9233 37.6376 43.7142 35.4284 43.7142H12.5713C10.3622 43.7142 8.57129 41.9233 8.57129 39.7142V8.28564Z" fill="url(#paint0_linear_3249_10831)"/>
<path d="M32.8568 12.8572L39.4282 12.8572L30.8568 4.28575L30.8568 10.8572C30.8568 11.9617 31.7522 12.8572 32.8568 12.8572Z" fill="#8EABCD"/>
<path fill-rule="evenodd" clip-rule="evenodd" d="M22.148 17.8732C21.7689 17.9597 21.5 18.2968 21.5 18.6856L21.5 20.2266C21.5 20.8681 20.8056 21.269 20.25 20.9482L18.9156 20.1778C18.5788 19.9834 18.1524 20.0476 17.888 20.3327C17.0263 21.2614 16.4013 22.3628 16.0376 23.5416C15.923 23.9131 16.0805 24.3146 16.4173 24.509L17.75 25.2784C18.3056 25.5992 18.3056 26.4011 17.75 26.7218L16.4158 27.4921C16.0788 27.6867 15.9213 28.0887 16.0365 28.4604C16.2174 29.0443 16.4656 29.6166 16.7832 30.1668C17.1009 30.717 17.4724 31.218 17.8876 31.6666C18.1519 31.9522 18.5788 32.0168 18.9158 31.8222L20.25 31.0519C20.8056 30.7312 21.5 31.1321 21.5 31.7736V33.3126C21.5 33.7014 21.7689 34.0386 22.148 34.1251C23.3507 34.3995 24.617 34.409 25.8522 34.1271C26.2313 34.0406 26.5001 33.7034 26.5001 33.3146V31.7737C26.5001 31.1322 27.1946 30.7313 27.7501 31.052L29.0846 31.8225C29.4213 32.0169 29.8477 31.9526 30.1122 31.6676C30.9739 30.7388 31.5988 29.6374 31.9625 28.4586C32.0772 28.0871 31.9196 27.6857 31.5829 27.4913L30.2501 26.7218C29.6946 26.401 29.6946 25.5992 30.2501 25.2784L31.5843 24.5081C31.9214 24.3135 32.0788 23.9115 31.9637 23.5398C31.7827 22.9559 31.5346 22.3836 31.217 21.8335C30.8993 21.2833 30.5278 20.7822 30.1126 20.3336C29.8482 20.048 29.4214 19.9834 29.0843 20.178L27.7501 20.9483C27.1946 21.269 26.5001 20.8681 26.5001 20.2266L26.5001 18.6876C26.5001 18.2988 26.2312 17.9617 25.8522 17.8752C24.6495 17.6007 23.3832 17.5913 22.148 17.8732ZM24 28.5001C25.3807 28.5001 26.5 27.3808 26.5 26.0001C26.5 24.6194 25.3807 23.5001 24 23.5001C22.6193 23.5001 21.5 24.6194 21.5 26.0001C21.5 27.3808 22.6193 28.5001 24 28.5001Z" fill="white" fill-opacity="0.85"/>
<defs>
<linearGradient id="paint0_linear_3249_10831" x1="23.9999" y1="43.7142" x2="23.9999" y2="4.28564" gradientUnits="userSpaceOnUse">
<stop stop-color="#8EABCD"/>
<stop offset="1" stop-color="#426D9E"/>
</linearGradient>
</defs>
</svg>
