<?xml version="1.0" encoding="UTF-8"?>
<svg width="24px" height="24px" viewBox="0 0 24 24" version="1.1" xmlns="http://www.w3.org/2000/svg" xmlns:xlink="http://www.w3.org/1999/xlink">
    <title>File_Zip_24_Line</title>
    <g id="Page-1" stroke="none" stroke-width="1" fill="none" fill-rule="evenodd">
        <g id="File_Zip_24_Line" fill="#081C36">
            <path d="M14,2.25 C14.1989,2.25 14.3897,2.32902 14.5303,2.46967 L14.5303,2.46967 L19.5303,7.46967 C19.671,7.61032 19.75,7.80109 19.75,8 L19.75,8 L19.75,18 C19.75,20.0711 18.0711,21.75 16,21.75 L16,21.75 L8,21.75 C5.92893,21.75 4.25,20.0711 4.25,18 L4.25,18 L4.25,6 C4.25,3.92893 5.92893,2.25 8,2.25 L8,2.25 Z M12.25,3.75 L8,3.75 C6.75736,3.75 5.75,4.75736 5.75,6 L5.75,6 L5.75,18 C5.75,19.2426 6.75736,20.25 8,20.25 L8,20.25 L16,20.25 C17.2426,20.25 18.25,19.2426 18.25,18 L18.25,18 L18.25,9.75 L14,9.75 C13.0335,9.75 12.25,8.9665 12.25,8 L12.25,8 L12.25,3.75 Z M12,19 L12,19.6667 L11,19.6667 L11,19 L12,19 Z M13,18.3333 L13,19 L12,19 L12,18.3333 L13,18.3333 Z M12,17.6667 L12,18.3333 L11,18.3333 L11,17.6667 L12,17.6667 Z M13,17 L13,17.6667 L12,17.6667 L12,17 L13,17 Z M12,16.3333 L12,17 L11,17 L11,16.3333 L12,16.3333 Z M13,15.6667 L13,16.3333 L12,16.3333 L12,15.6667 L13,15.6667 Z M12,15 L12,15.6667 L11,15.6667 L11,15 L12,15 Z M13,14.3333 L13,15 L12,15 L12,14.3333 L13,14.3333 Z M13,11 L13,13.6667 L11,13.6667 L11,11 L13,11 Z M12.3333,11.3333 L11.6667,11.3333 L11.6667,12.3333 L12.3333,12.3333 L12.3333,11.3333 Z M13.75,3.81066 L13.75,8 C13.75,8.13807 13.8619,8.25 14,8.25 L18.1893,8.25 L13.75,3.81066 Z" id="Combined-Shape"></path>
        </g>
    </g>
</svg>