<?xml version="1.0" encoding="UTF-8"?>
<svg width="24px" height="24px" viewBox="0 0 24 24" version="1.1" xmlns="http://www.w3.org/2000/svg" xmlns:xlink="http://www.w3.org/1999/xlink">
    <title>File_Setting_24_Line</title>
    <g id="Page-1" stroke="none" stroke-width="1" fill="none" fill-rule="evenodd">
        <g id="File_Setting_24_Line" fill="#081C36">
            <path d="M14,2.25 C14.1989,2.25 14.3897,2.32902 14.5303,2.46967 L19.5303,7.46967 C19.671,7.61032 19.75,7.80109 19.75,8 L19.75,18 C19.75,20.0711 18.0711,21.75 16,21.75 L8,21.75 C5.92893,21.75 4.25,20.0711 4.25,18 L4.25,6 C4.25,3.92893 5.92893,2.25 8,2.25 L14,2.25 Z M12.25,3.75 L8,3.75 C6.75736,3.75 5.75,4.75736 5.75,6 L5.75,18 C5.75,19.2426 6.75736,20.25 8,20.25 L16,20.25 C17.2426,20.25 18.25,19.2426 18.25,18 L18.25,9.75 L14,9.75 C13.0335,9.75 12.25,8.9665 12.25,8 L12.25,3.75 Z M12.7777,11.088 C12.9369,11.1244 13.0498,11.2659 13.0498,11.4292 L13.0498,12.0755 C13.0498,12.3449 13.3414,12.5132 13.5747,12.3785 L14.135,12.0551 C14.2765,11.9733 14.4558,12.0005 14.5668,12.1204 C14.7411,12.3088 14.8972,12.5192 15.0306,12.7503 C15.164,12.9813 15.2682,13.2216 15.3441,13.4668 C15.3925,13.6229 15.3264,13.7917 15.1848,13.8734 L14.6245,14.1969 C14.3912,14.3316 14.3912,14.6684 14.6245,14.803 L15.1842,15.1262 C15.3256,15.2078 15.3918,15.3764 15.3437,15.5324 C15.1909,16.0274 14.9285,16.4899 14.5666,16.88 C14.4556,16.9997 14.2765,17.0267 14.1351,16.945 L13.5747,16.6215 C13.3414,16.4868 13.0498,16.6551 13.0498,16.9245 L13.0498,17.5716 C13.0498,17.7349 12.9369,17.8765 12.7777,17.9128 C12.259,18.0312 11.7272,18.0272 11.2222,17.912 C11.063,17.8756 10.9501,17.7341 10.9501,17.5708 L10.9501,16.9245 C10.9501,16.6551 10.6584,16.4867 10.4251,16.6214 L9.86486,16.9449 C9.72333,17.0266 9.54407,16.9995 9.43306,16.8796 C9.25871,16.6912 9.10269,16.4808 8.9693,16.2497 C8.83591,16.0187 8.7317,15.7784 8.65573,15.5332 C8.60736,15.3771 8.67349,15.2083 8.81503,15.1265 L9.3753,14.8031 C9.6086,14.6684 9.6086,14.3316 9.3753,14.1969 L8.81562,13.8738 C8.67422,13.7922 8.60807,13.6236 8.65621,13.4676 C8.80894,12.9726 9.07138,12.51 9.43324,12.12 C9.54429,12.0003 9.72335,11.9733 9.86475,12.055 L10.4251,12.3785 C10.6584,12.5132 10.9501,12.3449 10.9501,12.0755 L10.9501,11.4284 C10.9501,11.2651 11.063,11.1235 11.2222,11.0872 C11.7409,10.9688 12.2726,10.9728 12.7777,11.088 Z M12,13.4502 C11.4202,13.4502 10.9502,13.9202 10.9502,14.5 C10.9502,15.0798 11.4202,15.5499 12,15.5499 C12.5798,15.5499 13.0498,15.0798 13.0498,14.5 C13.0498,13.9202 12.5798,13.4502 12,13.4502 Z M13.75,3.81066 L13.75,8 C13.75,8.13807 13.8619,8.25 14,8.25 L14,8.25 L18.1893,8.25 L13.75,3.81066 Z" id="Shape"></path>
        </g>
    </g>
</svg>