<?xml version="1.0" encoding="UTF-8"?>
<svg width="24px" height="24px" viewBox="0 0 24 24" version="1.1" xmlns="http://www.w3.org/2000/svg" xmlns:xlink="http://www.w3.org/1999/xlink">
    <title>File_AI_24_Line </title>
    <g id="Page-1" stroke="none" stroke-width="1" fill="none" fill-rule="evenodd">
        <g id="File_AI_24_Line-" fill="#081C36">
            <path d="M14,2.25 C14.1989,2.25 14.3897,2.32902 14.5303,2.46967 L14.5303,2.46967 L19.5303,7.46967 C19.671,7.61032 19.75,7.80109 19.75,8 L19.75,8 L19.75,18 C19.75,20.0711 18.0711,21.75 16,21.75 L16,21.75 L8,21.75 C5.92893,21.75 4.25,20.0711 4.25,18 L4.25,18 L4.25,6 C4.25,3.92893 5.92893,2.25 8,2.25 L8,2.25 Z M12.25,3.75 L8,3.75 C6.75736,3.75 5.75,4.75736 5.75,6 L5.75,6 L5.75,18 C5.75,19.2426 6.75736,20.25 8,20.25 L8,20.25 L16,20.25 C17.2426,20.25 18.25,19.2426 18.25,18 L18.25,18 L18.25,9.75 L14,9.75 C13.0335,9.75 12.25,8.9665 12.25,8 L12.25,8 L12.25,3.75 Z M11.767,12.6364 L13.2393,17 L12.1058,17 L11.81762,16.0829 L10.31062,16.0829 L10.0241,17 L8.89062,17 L10.3629,12.6364 L11.767,12.6364 Z M14.7569,13.7273 L14.7569,17 L13.715,17 L13.715,13.7273 L14.7569,13.7273 Z M11.081,13.7358 L11.0469,13.7358 L10.56162,15.2819 L11.56662,15.2819 L11.081,13.7358 Z M14.237,12.3509 C14.3848,12.3509 14.5105,12.3999 14.6142,12.4979 C14.7193,12.5945 14.7718,12.7109 14.7718,12.8473 C14.7718,12.9851 14.7193,13.103 14.6142,13.201 C14.5105,13.2976 14.3848,13.3459 14.237,13.3459 C14.0907,13.3459 13.965,13.2976 13.8599,13.201 C13.7548,13.103 13.7022,12.9851 13.7022,12.8473 C13.7022,12.7109 13.7548,12.5945 13.8599,12.4979 C13.965,12.3999 14.0907,12.3509 14.237,12.3509 Z M13.75,3.81066 L13.75,8 C13.75,8.13807 13.8619,8.25 14,8.25 L18.1893,8.25 L13.75,3.81066 Z" id="Combined-Shape"></path>
        </g>
    </g>
</svg>