<svg width="48" height="48" viewBox="0 0 48 48" fill="none" xmlns="http://www.w3.org/2000/svg">
<g clip-path="url(#clip0_3069_9442)">
<path d="M8.57153 8.28577C8.57153 6.07663 10.3624 4.28577 12.5715 4.28577H30.8573L39.4287 12.8572V39.7143C39.4287 41.9235 37.6378 43.7143 35.4287 43.7143H12.5715C10.3624 43.7143 8.57153 41.9235 8.57153 39.7143V8.28577Z" fill="url(#paint0_linear_3069_9442)"/>
<path d="M32.8573 12.8572L39.4287 12.8572L30.8573 4.28575L30.8573 10.8572C30.8573 11.9617 31.7527 12.8572 32.8573 12.8572Z" fill="#F8944E"/>
<path opacity="0.85" fill-rule="evenodd" clip-rule="evenodd" d="M20.7239 21.1525C20.3873 20.8059 19.8308 20.8059 19.4942 21.1525L14.8111 25.9743C14.4881 26.3069 14.4881 26.836 14.8111 27.1686L19.4942 31.9904C19.8308 32.337 20.3873 32.337 20.7239 31.9904L21.295 31.4024C21.6181 31.0698 21.6181 30.5406 21.295 30.208L17.9951 26.8103C17.8659 26.6773 17.8659 26.4656 17.9951 26.3326L21.295 22.9349C21.6181 22.6023 21.6181 22.0731 21.295 21.7405L20.7239 21.1525ZM27.3119 21.1525C27.6486 20.8059 28.205 20.8059 28.5417 21.1525L33.2247 25.9743C33.5478 26.3069 33.5478 26.836 33.2247 27.1686L28.5417 31.9904C28.205 32.337 27.6486 32.337 27.3119 31.9904L26.7408 31.4024C26.4178 31.0698 26.4178 30.5406 26.7408 30.208L30.0408 26.8103C30.17 26.6773 30.17 26.4656 30.0408 26.3326L26.7408 22.9349C26.4178 22.6023 26.4178 22.0731 26.7408 21.7406L27.3119 21.1525Z" fill="white"/>
</g>
<defs>
<linearGradient id="paint0_linear_3069_9442" x1="24.0001" y1="43.7143" x2="24.0001" y2="4.28577" gradientUnits="userSpaceOnUse">
<stop stop-color="#F8954F"/>
<stop offset="1" stop-color="#DE640D"/>
</linearGradient>
<clipPath id="clip0_3069_9442">
<rect width="48" height="48" fill="white"/>
</clipPath>
</defs>
</svg>
