<?xml version="1.0" encoding="UTF-8"?>
<svg width="16px" height="16px" viewBox="0 0 16 16" version="1.1" xmlns="http://www.w3.org/2000/svg" xmlns:xlink="http://www.w3.org/1999/xlink">
    <!-- Generator: Sketch 53.2 (72643) - https://sketchapp.com -->
    <title>icn_todo_list_menu_detail</title>
    <desc>Created with Sketch.</desc>
    <g id="To-Do-PC_Update5" stroke="none" stroke-width="1" fill="none" fill-rule="evenodd">
        <g id="ToDoPC_update5" transform="translate(-431.000000, -463.000000)" fill="#222222" fill-rule="nonzero">
            <g id="Group-Copy-3" transform="translate(420.000000, 369.000000)">
                <g id="Group-28" transform="translate(11.000000, 94.000000)">
                    <path d="M8,14.5 C11.5898509,14.5 14.5,11.5898509 14.5,8 C14.5,4.41014913 11.5898509,1.5 8,1.5 C4.41014913,1.5 1.5,4.41014913 1.5,8 C1.5,11.5898509 4.41014913,14.5 8,14.5 Z M8,15.5 C3.85786438,15.5 0.5,12.1421356 0.5,8 C0.5,3.85786438 3.85786438,0.5 8,0.5 C12.1421356,0.5 15.5,3.85786438 15.5,8 C15.5,12.1421356 12.1421356,15.5 8,15.5 Z M8.6,11.4950625 L8.6,11.5 L7.4,11.5 L7.4,8.5 L6.5,8.5 C6.5,7.98146519 6.89466773,7.55510997 7.4,7.50493752 L7.4,7.5 L8.6,7.5 L8.6,10.5 L9.5,10.5 C9.5,11.0185348 9.10533227,11.44489 8.6,11.4950625 Z M8,4.5 C8.55228475,4.5 9,4.94771525 9,5.5 C9,6.05228475 8.55228475,6.5 8,6.5 C7.44771525,6.5 7,6.05228475 7,5.5 C7,4.94771525 7.44771525,4.5 8,4.5 Z" id="Combined-Shape"></path>
                </g>
            </g>
        </g>
    </g>
</svg>