<?xml version="1.0" encoding="UTF-8"?>
<svg width="42px" height="52px" viewBox="0 0 42 52" version="1.1" xmlns="http://www.w3.org/2000/svg" xmlns:xlink="http://www.w3.org/1999/xlink">
    <!-- Generator: Sketch 49.2 (51160) - http://www.bohemiancoding.com/sketch -->
    <title>icon_file_psd</title>
    <desc>Created with Sketch.</desc>
    <defs>
        <linearGradient x1="-18.2919812%" y1="124.178607%" x2="86.8595673%" y2="9.03111271%" id="linearGradient-1">
            <stop stop-color="#1A9DE3" offset="0%"></stop>
            <stop stop-color="#0B64C2" offset="100%"></stop>
        </linearGradient>
    </defs>
    <g id="Page-1" stroke="none" stroke-width="1" fill="none" fill-rule="evenodd">
        <g id="File_Type_Solid" transform="translate(-76.000000, -156.000000)">
            <g id="icon_file_psd" transform="translate(76.000000, 156.000000)">
                <path d="M27.937,0 L42,14.063 L42,48 C42,50.209 40.209,52 38,52 L4,52 C1.791,52 0,50.209 0,48 L0,4 C0,1.791 1.791,0 4,0 L27.937,0 Z" id="Page-1" fill="url(#linearGradient-1)"></path>
                <polygon id="Rectangle-2" fill="#3B98DE" points="28 0 42 14 28 14"></polygon>
                <path d="M13.5096823,39.4959706 C13.5096823,39.772113 13.2858247,39.9959706 13.0096823,39.9959706 L11,39.9959706 C10.7238576,39.9959706 10.5,39.772113 10.5,39.4959706 L10.5,24 C10.5,23.7238576 10.7238576,23.5 11,23.5 L16.6208302,23.5 C18.4058824,23.5 19.8331985,23.9727804 20.878383,24.9296323 C21.9306705,25.8929869 22.4590488,27.1736632 22.4590488,28.7360625 C22.4590488,30.3767592 21.9415836,31.6732804 20.9021888,32.586555 C19.8767461,33.4875705 18.4360224,33.9295536 16.599896,33.9295536 L13.5096823,33.9295536 L13.5096823,39.4959706 Z M16.5039576,31.5 C17.6274206,31.5 18.4573596,31.2407592 19.0150785,30.7393749 C19.5758373,30.2352577 19.8356874,29.5910087 19.8356874,28.6267406 C19.8356874,27.7896813 19.6407933,27.3826806 19.0017452,26.7645994 C18.4394775,26.2207795 17.6562082,25.9340682 16.636582,25.9122046 L13.5074994,25.9122046 L13.5074994,31.5 L16.5039576,31.5 Z M24.399753,32.9106722 C23.7110672,32.2770813 23.359375,31.4783492 23.359375,30.5466129 C23.359375,29.4993785 23.7858289,28.6170065 24.6169749,27.936978 C25.4281536,27.2732864 26.4712144,26.9450504 27.7265625,26.9450504 C28.5820751,26.9450504 29.3543405,27.1124949 30.0377207,27.449823 C30.7304612,27.7917715 31.2746687,28.2701957 31.660878,28.8809452 C32.0474155,29.4922138 32.2421875,30.1656116 32.2421875,30.8903629 C32.2421875,31.1665053 32.0183299,31.3903629 31.7421875,31.3903629 L30.234375,31.3903629 C29.9582326,31.3903629 29.734375,31.1665053 29.734375,30.8903629 C29.734375,30.3389497 29.570856,29.9350189 29.2438873,29.6411363 C28.9068194,29.3381764 28.4084884,29.1794254 27.7265625,29.1794254 C27.0908847,29.1794254 26.6218539,29.3117705 26.3051137,29.5607801 C26.0150538,29.7888145 25.875,30.0944666 25.875,30.5231754 C25.875,30.8322805 26.0010629,31.0835714 26.2806231,31.3112926 C26.6098874,31.5795013 27.222773,31.8477878 28.1079138,32.0965051 C29.092596,32.3731926 29.8715348,32.6817512 30.4486541,33.0280227 C31.0489605,33.3882066 31.5042931,33.8180765 31.8069603,34.3194645 C32.1137993,34.8277634 32.265625,35.4197305 32.265625,36.0856754 C32.265625,37.1618252 31.8349599,38.0465611 30.9929788,38.6963509 C30.1792593,39.32433 29.1113407,39.6325504 27.8046875,39.6325504 C26.9547156,39.6325504 26.1566337,39.4686586 25.4149345,39.1405994 C24.6580021,38.8058023 24.0637277,38.3389783 23.6421275,37.7409638 C23.2148932,37.1349577 23,36.4430321 23,35.6794254 C23,35.4032831 23.2238576,35.1794254 23.5,35.1794254 L25.0078125,35.1794254 C25.2839549,35.1794254 25.5078125,35.4032831 25.5078125,35.6794254 C25.5078125,36.216114 25.6934567,36.613107 26.0781747,36.9149626 C26.4906429,37.2385915 27.060666,37.4059879 27.8046875,37.4059879 C28.4953395,37.4059879 28.9972915,37.2724213 29.321093,37.0245732 C29.6175946,36.7976214 29.7578125,36.505068 29.7578125,36.1013004 C29.7578125,35.6930976 29.6291061,35.4090855 29.3643591,35.2025828 C29.0359456,34.9464203 28.3778648,34.6669611 27.4083244,34.3864085 C26.0539506,33.9970536 25.0518659,33.5106161 24.399753,32.9106722 Z" id="PSD" fill="#FFFFFF" fill-rule="nonzero"></path>
            </g>
        </g>
    </g>
</svg>