<?xml version="1.0" encoding="UTF-8" standalone="no"?>
<svg width="16px" height="20px" viewBox="0 0 16 20" version="1.1" xmlns="http://www.w3.org/2000/svg" xmlns:xlink="http://www.w3.org/1999/xlink">
    <!-- Generator: Sketch 46.2 (44496) - http://www.bohemiancoding.com/sketch -->
    <title>list-msg-icon-file-excel</title>
    <desc>Created with Sketch.</desc>
    <defs>
        <polygon id="path-1" points="16 10 16 0 0 0 0 10 0 20 16 20"></polygon>
    </defs>
    <g id="File" stroke="none" stroke-width="1" fill="none" fill-rule="evenodd">
        <g id="iPhone-SE" transform="translate(-102.000000, -266.000000)">
            <g id="list-msg-icon-file-excel" transform="translate(102.000000, 266.000000)">
                <mask id="mask-2" fill="white">
                    <use xlink:href="#path-1"></use>
                </mask>
                <g id="Clip-2"></g>
                <path d="M9.07147946,11.462127 L11.9415816,7 L10.2013773,7 L8.45452387,10.0123948 C8.36380907,10.1671002 8.25552125,10.3764346 8.13013536,10.6399388 L8.11066255,10.6399388 C8.02374733,10.4393267 7.92638328,10.2382555 7.81809546,10.0376435 L6.13630967,7 L4.24697222,7 L7.05200665,11.4749809 L4,16 L5.86369033,16 L7.83139397,12.6988523 C7.92210876,12.5060444 7.98717644,12.3637337 8.02612206,12.2719204 L8.05224412,12.2719204 C8.12111137,12.4560061 8.18427927,12.5983168 8.24032296,12.6988523 L10.1496082,16 L12,16 L9.07147946,11.462127 Z" id="Page-1" fill="#A1AAB2" mask="url(#mask-2)"></path>
                <path d="M14.5454545,17.1428571 C14.5454545,17.9321429 13.8945455,18.5714286 13.0909091,18.5714286 L2.90909091,18.5714286 C2.10545455,18.5714286 1.45454545,17.9321429 1.45454545,17.1428571 L1.45454545,2.85714286 C1.45454545,2.06785714 2.10545455,1.42857143 2.90909091,1.42857143 L10.1483636,1.42857143 L14.5454545,6.53642857 L14.5454545,17.1428571 Z M10.9069091,0 L2.90909091,0 C1.30254545,0 0,1.27928571 0,2.85714286 L0,17.1428571 C0,18.7207143 1.30254545,20 2.90909091,20 L13.0909091,20 C14.6974545,20 16,18.7207143 16,17.1428571 L16,5.735 L10.9069091,0 Z" id="Page-1" fill="#A1AAB2" mask="url(#mask-2)"></path>
            </g>
        </g>
    </g>
</svg>