<?xml version="1.0" encoding="UTF-8"?>
<svg width="43px" height="53px" viewBox="0 0 43 53" version="1.1" xmlns="http://www.w3.org/2000/svg" xmlns:xlink="http://www.w3.org/1999/xlink">
    <!-- Generator: Sketch 49.2 (51160) - http://www.bohemiancoding.com/sketch -->
    <title>icon_file_setup</title>
    <desc>Created with Sketch.</desc>
    <defs></defs>
    <g id="File" stroke="none" stroke-width="1" fill="none" fill-rule="evenodd">
        <g id="File_Type" transform="translate(-12.000000, -226.000000)">
            <g id="icon_file_setup" transform="translate(12.000000, 226.000000)">
                <path d="M4.0952381,0 L28.6021667,0 L43,14.3334423 L43,48.9230769 C43,51.1745577 41.1663571,53 38.9047619,53 L4.0952381,53 C1.83364286,53 0,51.1745577 0,48.9230769 L0,4.07692308 C0,1.82544231 1.83364286,0 4.0952381,0" id="Page-1" fill="#FFFFFF"></path>
                <path d="M40.952381,48.9230769 C40.952381,50.0493269 40.0350476,50.9615385 38.9047619,50.9615385 L4.0952381,50.9615385 C2.96392857,50.9615385 2.04761905,50.0493269 2.04761905,48.9230769 L2.04761905,4.07692308 C2.04761905,2.95067308 2.96392857,2.03846154 4.0952381,2.03846154 L27.6428571,2.03846154 L40.952381,15.2884615 L40.952381,48.9230769 Z M28.6031905,0 L4.0952381,0 C1.83364286,0 0,1.82544231 0,4.07692308 L0,48.9230769 C0,51.1745577 1.83364286,53 4.0952381,53 L38.9047619,53 C41.1663571,53 43,51.1745577 43,48.9230769 L43,14.3324231 L28.6031905,0 Z" id="Fill-1" fill="#157EFB"></path>
                <g id="icn_header_settings" transform="translate(9.214286, 18.346154)" stroke="#157EFB" stroke-width="2">
                    <path d="M2.47416019,14.5604396 C2.74007196,14.5869131 2.97939255,14.7722278 3.05916609,15.036963 C3.24530433,15.6193806 3.48462492,16.2017982 3.77712788,16.7312687 C3.91008376,16.9695305 3.88349259,17.2872128 3.69735434,17.499001 C3.32507786,17.9225774 3.00598373,18.2932068 2.71348078,18.6373626 C2.3412043,19.0874126 2.36779548,19.7227772 2.79325431,20.1198801 L4.36213378,21.6818182 C4.76100144,22.0789211 5.42578087,22.1318681 5.85123971,21.7612388 C6.19692502,21.47003 6.59579268,21.1523477 6.99466034,20.7817183 C7.20738976,20.5964036 7.49989271,20.5699301 7.76580448,20.7022977 C8.29762803,20.9935065 8.88263393,21.2317682 9.46763983,21.3906094 C9.7335516,21.47003 9.91968985,21.7082917 9.94628102,21.973027 C9.9728722,22.5024975 10.0260546,23.0054945 10.0526457,23.4555445 C10.1058281,24.037962 10.5844693,24.4615385 11.1694752,24.4615385 L13.4031341,24.4615385 C13.98814,24.4615385 14.4667812,24.037962 14.5199635,23.4555445 C14.5731459,23.0054945 14.5997371,22.5024975 14.6263282,21.973027 C14.6529194,21.7082917 14.8390577,21.47003 15.1049694,21.3906094 C15.6899753,21.2317682 16.2749812,20.9935065 16.8068048,20.7022977 C17.0461254,20.5699301 17.3652195,20.5964036 17.5779489,20.7817183 C17.9768166,21.1258741 18.3756842,21.47003 18.7213696,21.7612388 C19.1734196,22.1318681 19.8116078,22.1053946 20.2104755,21.6818182 L21.7793549,20.1198801 C22.1782226,19.7227772 22.231405,19.0609391 21.8591285,18.6373626 C21.5666255,18.2932068 21.2475314,17.9225774 20.8752549,17.499001 C20.6891167,17.2607393 20.6625255,16.9695305 20.7954814,16.7312687 C21.0879843,16.2017982 21.3273049,15.6193806 21.486852,15.036963 C21.5666255,14.7722278 21.8059461,14.5869131 22.0718579,14.5604396 C22.6036814,14.533966 23.1089138,14.481019 23.5609638,14.4545455 C24.1459697,14.4015984 24.5714286,13.9250749 24.5714286,13.3426573 L24.5714286,11.1188811 C24.5714286,10.5364635 24.1459697,10.0599401 23.5609638,10.006993 C23.1089138,9.95404595 22.6036814,9.92757243 22.0718579,9.9010989 C21.8059461,9.87462537 21.5666255,9.68931069 21.486852,9.42457542 C21.3273049,8.84215784 21.0879843,8.25974026 20.7954814,7.73026973 C20.6625255,7.49200799 20.6891167,7.17432567 20.8752549,6.96253746 C21.2475314,6.53896104 21.5666255,6.16833167 21.8591285,5.82417582 C22.231405,5.37412587 22.2048138,4.73876124 21.7793549,4.34165834 L20.2104755,2.77972028 C19.8116078,2.38261738 19.1468284,2.32967033 18.7213696,2.7002997 C18.3756842,2.99150849 18.0034078,3.30919081 17.5779489,3.67982018 C17.3386283,3.86513487 17.0461254,3.89160839 16.8068048,3.75924076 C16.2749812,3.46803197 15.6899753,3.22977023 15.1049694,3.07092907 C14.8390577,2.99150849 14.6529194,2.75324675 14.6263282,2.48851149 C14.5997371,1.95904096 14.5465547,1.45604396 14.5199635,1.00599401 C14.4667812,0.423576424 13.98814,0 13.4031341,0 L11.1694752,0 C10.5844693,0 10.1058281,0.423576424 10.0526457,1.00599401 C9.99946338,1.45604396 9.9728722,1.95904096 9.94628102,2.48851149 C9.91968985,2.75324675 9.7335516,2.99150849 9.46763983,3.07092907 C8.88263393,3.22977023 8.29762803,3.46803197 7.76580448,3.75924076 C7.52648388,3.89160839 7.20738976,3.86513487 6.99466034,3.67982018 C6.5692015,3.30919081 6.19692502,2.99150849 5.85123971,2.7002997 C5.39918969,2.32967033 4.76100144,2.35614386 4.36213378,2.77972028 L2.79325431,4.34165834 C2.39438665,4.73876124 2.3412043,5.4005994 2.71348078,5.82417582 C3.00598373,6.16833167 3.32507786,6.53896104 3.69735434,6.96253746 C3.88349259,7.17432567 3.91008376,7.46553447 3.77712788,7.73026973 C3.48462492,8.25974026 3.24530433,8.84215784 3.08575726,9.42457542 C3.00598373,9.68931069 2.76666314,9.87462537 2.50075136,9.9010989 C1.96892782,9.92757243 1.46369545,9.98051948 1.01164543,10.006993 C0.426639528,10.0599401 0.00118069053,10.5364635 0.00118069053,11.1188811 L0.00118069053,13.3426573 C-0.0254104868,13.9250749 0.400048351,14.4015984 0.985054253,14.4545455 C1.43710427,14.5074925 1.94233664,14.533966 2.47416019,14.5604396 Z" id="Page-1"></path>
                    <ellipse id="Oval-10" cx="12.2857143" cy="12.2307692" rx="3.73913043" ry="3.72240803"></ellipse>
                </g>
            </g>
        </g>
    </g>
</svg>