<?xml version="1.0" encoding="UTF-8"?>
<svg width="42px" height="52px" viewBox="0 0 42 52" version="1.1" xmlns="http://www.w3.org/2000/svg" xmlns:xlink="http://www.w3.org/1999/xlink">
    <!-- Generator: Sketch 49.2 (51160) - http://www.bohemiancoding.com/sketch -->
    <title>icon_file_excel</title>
    <desc>Created with Sketch.</desc>
    <defs>
        <linearGradient x1="-50.6125168%" y1="151.280076%" x2="85.3207907%" y2="13.56467%" id="linearGradient-1">
            <stop stop-color="#6BD396" offset="0%"></stop>
            <stop stop-color="#39A75D" offset="100%"></stop>
        </linearGradient>
    </defs>
    <g id="Page-1" stroke="none" stroke-width="1" fill="none" fill-rule="evenodd">
        <g id="File_Type_Solid" transform="translate(-76.000000, -84.000000)">
            <g id="icon_file_excel" transform="translate(76.000000, 84.000000)">
                <path d="M27.937,0 L42,14.063 L42,48 C42,50.209 40.209,52 38,52 L4,52 C1.791,52 0,50.209 0,48 L0,4 C0,1.791 1.791,0 4,0 L27.937,0 Z" id="Page-1" fill="url(#linearGradient-1)"></path>
                <polygon id="Rectangle-2" fill="#60CA83" points="28 0 42 14 28 14"></polygon>
                <path d="M25.4816149,22.867432 C25.5273078,22.7943756 25.6074029,22.75 25.6935718,22.75 L28.5170197,22.75 C28.7143527,22.75 28.8338956,22.9679069 28.7278629,23.1343322 L23.0669143,32.0195602 L28.8648504,41.054985 C28.9716198,41.2213729 28.8521424,41.4400005 28.6544441,41.4400005 L25.80601,41.4400005 C25.7201492,41.4400005 25.6402956,41.3959394 25.594514,41.3233026 L21.33288,34.5618274 L17.047101,41.3238343 C17.0012564,41.3961669 16.9215782,41.4400005 16.835941,41.4400005 L14,41.4400005 C13.802193,41.4400005 13.6827355,41.2211584 13.789724,41.0547822 L19.5998378,32.0195629 L13.9267136,23.1345397 C13.8204574,22.9681255 13.9399806,22.75 14.1374245,22.75 L16.9483792,22.75 C17.0343194,22.75 17.1142354,22.7941422 17.1599944,22.8668872 L21.3328635,29.5006792 L25.4816149,22.867432 Z" id="X" fill="#FFFFFF" fill-rule="nonzero"></path>
            </g>
        </g>
    </g>
</svg>