<?xml version="1.0" encoding="UTF-8"?>
<svg width="42px" height="52px" viewBox="0 0 42 52" version="1.1" xmlns="http://www.w3.org/2000/svg" xmlns:xlink="http://www.w3.org/1999/xlink">
    <!-- Generator: Sketch 49.2 (51160) - http://www.bohemiancoding.com/sketch -->
    <title>icon_file_photo</title>
    <desc>Created with Sketch.</desc>
    <defs>
        <linearGradient x1="-53.355326%" y1="149.264754%" x2="85.4035381%" y2="13.5226376%" id="linearGradient-1">
            <stop stop-color="#FFCE00" offset="0%"></stop>
            <stop stop-color="#FFA000" offset="100%"></stop>
        </linearGradient>
    </defs>
    <g id="Page-1" stroke="none" stroke-width="1" fill="none" fill-rule="evenodd">
        <g id="File_Type_Solid" transform="translate(-12.000000, -228.000000)">
            <g id="icon_file_photo" transform="translate(12.000000, 228.000000)">
                <path d="M27.937,0 L42,14.063 L42,48 C42,50.209 40.209,52 38,52 L4,52 C1.791,52 0,50.209 0,48 L0,4 C0,1.791 1.791,0 4,0 L27.937,0 Z" id="Page-1" fill="url(#linearGradient-1)"></path>
                <path d="M17.6917707,27.8310988 C15.6661517,27.8310988 14.0192215,26.1877525 14.0192215,24.1658827 C14.0192215,22.1434658 15.6660321,20.5 17.6917707,20.5 C19.7175093,20.5 21.3643198,22.1434658 21.3643198,24.1658827 C21.3643198,26.1877525 19.7173896,27.8310988 17.6917707,27.8310988 Z M17.6917707,22.8306174 C16.9536276,22.8306174 16.3525055,23.430386 16.3525055,24.1658827 C16.3525055,24.9013795 16.9536276,25.5011481 17.6917707,25.5011481 C18.4299137,25.5011481 19.0310359,24.9013795 19.0310359,24.1658827 C19.0310359,23.430386 18.4299137,22.8306174 17.6917707,22.8306174 Z M34.3324877,36.3767823 C34.0254771,36.3767823 33.7289392,36.256997 33.5080268,36.0360842 L25.7676042,28.3135128 L19.6235219,34.4480305 L22.6938186,37.5111553 C23.1490711,37.9664078 23.1490711,38.7036414 22.6929132,39.159797 C22.4711982,39.3803808 22.1750715,39.5 21.8689493,39.5 C21.5619387,39.5 21.2654008,39.3802147 21.044482,39.1592955 L14.3498974,32.4799085 L8.49122492,38.3253772 C8.03533425,38.7801019 7.29711649,38.7801019 6.84239235,38.3253772 C6.38586922,37.8700217 6.38586922,37.1320894 6.84235189,36.6767742 L13.9967536,29.5390385 C14.1919294,29.3443174 14.5078928,29.344327 14.7030568,29.53906 L17.9723237,32.8011073 L25.4142058,25.3713176 C25.6093612,25.1764792 25.9254202,25.1764326 26.1206331,25.3712135 L35.156904,34.3874853 C35.6133516,34.8427655 35.6134271,35.5805289 35.1571306,36.0359026 C34.935834,36.2570787 34.6393936,36.3767823 34.3324877,36.3767823 Z" id="Fill-1" fill="#FFFFFF" fill-rule="nonzero"></path>
                <g id="icn_toolbar_gallery" transform="translate(28.000000, 0.000000)" fill="#F7D079">
                    <polygon id="Rectangle-2" points="0 0 14 14 0 14"></polygon>
                </g>
            </g>
        </g>
    </g>
</svg>