<?xml version="1.0" encoding="UTF-8"?>
<svg width="42px" height="52px" viewBox="0 0 42 52" version="1.1" xmlns="http://www.w3.org/2000/svg" xmlns:xlink="http://www.w3.org/1999/xlink">
    <!-- Generator: Sketch 49.2 (51160) - http://www.bohemiancoding.com/sketch -->
    <title>icon_file_powerpoint</title>
    <desc>Created with Sketch.</desc>
    <defs>
        <linearGradient x1="-65.9245511%" y1="160.054953%" x2="80.0749944%" y2="18.8531667%" id="linearGradient-1">
            <stop stop-color="#FFAB89" offset="0%"></stop>
            <stop stop-color="#FF7351" offset="100%"></stop>
        </linearGradient>
    </defs>
    <g id="Page-1" stroke="none" stroke-width="1" fill="none" fill-rule="evenodd">
        <g id="File_Type_Solid" transform="translate(-139.000000, -84.000000)">
            <g id="icon_file_powerpoint" transform="translate(139.000000, 84.000000)">
                <path d="M4,0 L27.937,0 L42,14.063 L42,48 C42,50.209 40.209,52 38,52 L4,52 C1.791,52 0,50.209 0,48 L0,4 C0,1.791 1.791,0 4,0" id="Page-1" fill="url(#linearGradient-1)"></path>
                <polygon id="Rectangle-2" fill="#FEA98F" points="28 0 42 14 28 14"></polygon>
                <path d="M18.0160949,41.1655102 C18.0160949,41.3035813 17.9041661,41.4155102 17.7660949,41.4155102 L15.3417969,41.4155102 C15.2037257,41.4155102 15.0917969,41.3035813 15.0917969,41.1655102 L15.0917969,22.78125 C15.0917969,22.6431788 15.2037257,22.53125 15.3417969,22.53125 L22.1222555,22.53125 C24.1919931,22.53125 25.8278398,23.064156 27.0181784,24.1358999 C28.2129711,25.2116543 28.8117971,26.6391142 28.8117971,28.4000658 C28.8117971,30.2537021 28.2258175,31.6976443 27.0522397,32.7117927 C25.8865964,33.7190845 24.2317414,34.2183753 22.0970024,34.2183753 L18.0160949,34.2183753 L18.0160949,41.1655102 Z M22.1222555,31.7360066 C23.3621201,31.7360066 24.2968553,31.4488528 24.9365276,30.8832889 C25.5693284,30.3238003 25.8874991,29.5109131 25.8874991,28.4253189 C25.8874991,27.3970028 25.5683913,26.5875585 24.9298184,25.9801355 C24.2879489,25.3695768 23.4008174,25.0502094 22.2611475,25.0262453 L18.0160949,25.0262453 L18.0160949,31.7360066 L22.1222555,31.7360066 Z" id="P" fill="#FFFFFF" fill-rule="nonzero"></path>
            </g>
        </g>
    </g>
</svg>