<svg width="82" height="100" viewBox="0 0 82 100" fill="none" xmlns="http://www.w3.org/2000/svg">
<path fill-rule="evenodd" clip-rule="evenodd" d="M6.59391 16.8317C6.59391 10.6201 11.6301 5.94059 17.485 5.94059H45.7027V30.1979C45.7027 33.1682 47.6829 35.1484 50.6532 35.1484H75.4058V83.0636C74.9593 89.0051 69.738 94.0594 64.0197 94.0594H17.485C11.3396 94.0594 6.59391 89.0918 6.59391 82.6733V16.8317ZM17.485 0C8.48838 0 0.65332 7.20173 0.65332 16.8317V82.6733C0.65332 92.0963 7.78886 100 17.485 100H64.0197C73.123 100 80.7485 92.2357 81.3398 83.3659L81.3464 83.2672V33.1683C81.3464 32.0791 81.1614 31.0387 80.7191 30.0436C80.2826 29.0615 79.6617 28.273 78.9913 27.6027L53.7437 2.35513C52.1602 0.771577 49.9029 0 48.1781 0H17.485Z" fill="#E5EFFF"/>
</svg>
