<?xml version="1.0" encoding="UTF-8"?>
<svg width="42px" height="52px" viewBox="0 0 42 52" version="1.1" xmlns="http://www.w3.org/2000/svg" xmlns:xlink="http://www.w3.org/1999/xlink">
    <!-- Generator: Sketch 49.2 (51160) - http://www.bohemiancoding.com/sketch -->
    <title>icon_file_setup</title>
    <desc>Created with Sketch.</desc>
    <defs></defs>
    <g id="Page-1" stroke="none" stroke-width="1" fill="none" fill-rule="evenodd">
        <g id="File_Type_Solid" transform="translate(-514.000000, -227.000000)">
            <g id="icon_file_setup" transform="translate(514.000000, 227.000000)">
                <path d="M4,0 L27.937,0 L42,14.063 L42,48 C42,50.209 40.209,52 38,52 L4,52 C1.791,52 0,50.209 0,48 L0,4 C0,1.791 1.791,0 4,0" id="Page-1" fill="#157EFB"></path>
                <path d="M40,48 C40,49.105 39.104,50 38,50 L4,50 C2.895,50 2,49.105 2,48 L2,4 C2,2.895 2.895,2 4,2 L27,2 L40,15 L40,48 Z M27.938,0 L4,0 C1.791,0 0,1.791 0,4 L0,48 C0,50.209 1.791,52 4,52 L38,52 C40.209,52 42,50.209 42,48 L42,14.062 L27.938,0 Z" id="Fill-1" fill="#157EFB"></path>
                <g id="icn_header_settings" transform="translate(10.000000, 20.000000)" fill="#FFFFFF" fill-rule="nonzero">
                    <path d="M1.72030229,13.7144854 C0.76611805,13.6277372 0.0583363286,12.8264363 0.100961027,11.9090909 L0.100961027,10.0909091 C0.100961027,9.14964683 0.801714576,8.37099437 1.77057998,8.28337139 C1.90872647,8.27524474 1.944795,8.27247977 2.3333402,8.24139466 C2.4887439,8.22896177 2.61302779,8.21952445 2.71867265,8.2124765 C2.83986786,7.8272427 2.99534066,7.44770467 3.17193701,7.10160364 C2.94826374,6.84433844 2.73798501,6.59895697 2.53131401,6.35454278 C1.91333702,5.64824943 1.97984575,4.57075627 2.6371677,3.91340274 L3.89397576,2.657196 C4.54507131,1.96266071 5.60228191,1.90979764 6.34400127,2.52075833 C6.59764143,2.73538724 6.84483493,2.94724614 7.10251317,3.17129913 C7.46251023,2.98874819 7.83985906,2.83463643 8.2109276,2.71816715 C8.23507112,2.26700614 8.25460335,2.00633945 8.28608182,1.74103253 C8.37155414,0.800791893 9.15017438,0.1 10.0914333,0.1 L11.9095277,0.1 C12.8507866,0.1 13.6294069,0.800791893 13.7170221,1.76966353 C13.7251484,1.907818 13.7279132,1.94388837 13.758997,2.33245351 C13.771432,2.48789929 13.7808703,2.61220968 13.7879185,2.71787552 C14.1656062,2.83682866 14.5405016,2.99003458 14.8983668,3.17136893 C15.1557151,2.9475998 15.4011685,2.7372383 15.6456538,2.5304873 C16.3519426,1.91245492 17.4294548,1.97897121 18.0867984,2.63634646 L19.3429447,3.89321482 C20.0374248,4.5443212 20.0902818,5.60151169 19.4793753,6.3432365 C19.2647441,6.59690377 19.0528831,6.84412329 18.8288262,7.10183032 C19.0113821,7.46186285 19.1654972,7.83925137 19.2819669,8.21035885 C19.7330815,8.23450258 19.9937288,8.2540356 20.2590148,8.28551465 C21.1992465,8.37099437 21.9,9.14964683 21.9,10.0909091 L21.9,11.9090909 C21.9,12.8503532 21.1992465,13.6290056 20.2303811,13.7166286 C20.0922346,13.7247553 20.056166,13.7275202 19.6676208,13.7586053 C19.5122026,13.7710394 19.38791,13.7804773 19.2822588,13.7875255 C19.1633053,14.1652526 19.0100961,14.5401876 18.8287565,14.8980886 C19.0525296,15.1554659 19.2628936,15.4009456 19.469647,15.6454572 C20.087624,16.3517506 20.0211153,17.4292437 19.3637933,18.0865973 L18.1069853,19.342804 C17.4558897,20.0373393 16.3986791,20.0902024 15.6569598,19.4792417 C15.4507698,19.3047648 15.265178,19.1452053 14.8992345,18.8283019 C14.5390005,19.0110273 14.1613722,19.1652787 13.7900334,19.2818329 C13.7658899,19.7329939 13.7463577,19.9936606 13.7148792,20.2589675 C13.6294069,21.1992081 12.8507866,21.9 11.9095277,21.9 L10.0914333,21.9 C9.15017438,21.9 8.37155414,21.1992081 8.28393898,20.2303365 C8.27581263,20.092182 8.27304779,20.0561116 8.24196407,19.6675465 C8.22953017,19.5121152 8.22009249,19.3878135 8.21304454,19.2821541 C7.82972823,19.1615499 7.45205225,19.0070045 7.10734812,18.831479 C7.0099847,18.9180809 6.90703884,19.0069082 6.79258236,19.1036088 C6.71093769,19.1725878 6.41098446,19.4225609 6.35530725,19.4695127 C5.64901847,20.0875451 4.57150627,20.0210288 3.91416261,19.3636535 L2.65801633,18.1067852 C1.96353624,17.4556788 1.91067925,16.3984883 2.52158572,15.6567635 C2.73620845,15.4031063 2.9480612,15.1558963 3.17210822,14.8982002 C2.99733988,14.5539391 2.84205414,14.183032 2.70653364,13.7901319 C2.24976263,13.7657612 1.98738329,13.7461774 1.72030229,13.7144854 Z M3.05879732,12.0058849 C3.68276335,12.0671671 4.18237194,12.4700966 4.3476559,13.0215009 C4.489349,13.4668435 4.66400797,13.8841044 4.86115687,14.2425911 C5.15386719,14.769495 5.08835096,15.4410686 4.6868076,15.8999973 C4.40895045,16.2175636 4.15473527,16.5132946 3.90378237,16.8097611 C3.90020321,16.808944 4.32793755,17.2359876 5.1869854,18.0908919 C5.25497537,18.0428071 5.55564262,17.792239 5.63091682,17.7286422 C5.805384,17.5812405 5.94608662,17.4576763 6.1006579,17.3140371 C6.55523125,16.9162663 7.18687459,16.8530989 7.75474652,17.1378214 C8.12938987,17.3438852 8.53975524,17.5109023 8.96484297,17.6271373 C9.53050879,17.7968452 9.93341182,18.2964689 9.99468735,18.9204263 C10.0033793,19.0942736 10.0150255,19.2589159 10.0362321,19.5240119 C10.0687276,19.930225 10.071607,19.9677896 10.0786903,20.0960109 C10.0791403,20.1009613 10.6894195,20.102291 11.9095277,20.1 C11.9582187,19.7877449 11.9769834,19.5062607 12.009617,18.8758189 C12.0675492,18.2964689 12.4704522,17.7968452 13.0579263,17.6208929 C13.4612058,17.5109023 13.8715712,17.3438852 14.2428627,17.1396743 C14.7697769,16.8469301 15.4413742,16.912455 15.8970865,17.3112358 C16.3808491,17.7305169 16.5886345,17.9096525 16.8099838,18.0970665 C16.8091323,18.1006483 17.2361278,17.6729047 18.0909705,16.8138356 C17.8464854,16.5135967 17.5921525,16.2177258 17.2810567,15.8598893 C16.9140777,15.3880365 16.8514436,14.761665 17.1379515,14.2459428 C17.3440084,13.8712759 17.5110203,13.460884 17.6272511,13.0357706 C17.7969451,12.4700966 18.2965537,12.0671671 18.9205197,12.0058849 C19.0943572,11.9971926 19.2589905,11.985546 19.5240726,11.9643384 C19.9302673,11.9318412 19.9678303,11.9289617 20.0960426,11.9218783 C20.1009686,11.9214304 20.1022877,11.3111074 20.1,10.0909091 C19.7877919,10.0421722 19.5063232,10.0234067 18.8759081,9.99077114 C18.2965537,9.93283291 17.7969451,9.5299034 17.6210078,8.94242278 C17.5110203,8.53911603 17.3440084,8.12872413 17.1398042,7.75740891 C16.8470938,7.23050503 16.9126101,6.55893142 17.3141534,6.10000268 C17.5921525,5.78227418 17.8464854,5.48640328 18.0975632,5.18978462 C18.1021601,5.18420243 17.6742975,4.75731025 16.8139756,3.90910809 C16.5138729,4.15360546 16.2180163,4.40795056 15.8601959,4.71906214 C15.3883419,5.08607739 14.7619472,5.14871986 14.2462145,4.86217859 C13.8715712,4.65611485 13.4612058,4.48909766 13.0361181,4.37286275 C12.4704522,4.20315484 12.0675492,3.70353108 12.0062737,3.07957374 C11.9975817,2.90572635 11.9859356,2.74108408 11.9647289,2.47598805 C11.9322334,2.06977505 11.929354,2.03221036 11.9222707,1.90398911 C11.9218207,1.89903874 11.3115416,1.89770904 10.0914333,1.9 C10.0427424,2.21225508 10.0239777,2.49373927 9.99134403,3.12418112 C9.93341182,3.70353108 9.53050879,4.20315484 8.94303472,4.37910706 C8.53975524,4.48909766 8.12938987,4.65611485 7.75809833,4.86032571 C7.23118417,5.15306986 6.55958682,5.08754502 6.1006579,4.68596292 C5.78312084,4.40810464 5.48741611,4.15388741 5.19097723,3.90293342 C5.19182876,3.89935166 4.76483318,4.32709531 3.90999049,5.18616436 C4.15447559,5.48640328 4.40880853,5.78227418 4.6868076,6.10000268 C5.08454023,6.55457609 5.1476992,7.18619614 4.86300953,7.75405719 C4.65695261,8.12872413 4.48994068,8.53911603 4.37370997,8.9642294 C4.20401592,9.5299034 3.70440733,9.93283291 3.0804413,9.99411509 C2.90660387,10.0028074 2.74197057,10.014454 2.47688846,10.0356616 C2.07069371,10.0681588 2.03313073,10.0710383 1.90491838,10.0781217 C1.89999241,10.0785696 1.89836814,10.6939751 1.90004559,11.9243384 C2.19152512,11.9578278 2.47299388,11.9765933 3.05879732,12.0058849 Z" id="Page-1"></path>
                    <path d="M11,15 C8.790861,15 7,13.209139 7,11 C7,8.790861 8.790861,7 11,7 C13.209139,7 15,8.790861 15,11 C15,13.209139 13.209139,15 11,15 Z M11,13 C12.1045695,13 13,12.1045695 13,11 C13,9.8954305 12.1045695,9 11,9 C9.8954305,9 9,9.8954305 9,11 C9,12.1045695 9.8954305,13 11,13 Z" id="Oval-10"></path>
                </g>
                <polygon id="Rectangle-2" fill="#68B5F9" points="28 0 42 14 28 14"></polygon>
            </g>
        </g>
    </g>
</svg>