<?xml version="1.0" encoding="UTF-8"?>
<svg width="18px" height="20px" viewBox="0 0 18 20" version="1.1" xmlns="http://www.w3.org/2000/svg" xmlns:xlink="http://www.w3.org/1999/xlink">
    <!-- Generator: Sketch 49.2 (51160) - http://www.bohemiancoding.com/sketch -->
    <title>Group 3</title>
    <desc>Created with Sketch.</desc>
    <defs></defs>
    <g id="Page-1" stroke="none" stroke-width="1" fill="none" fill-rule="evenodd">
        <g id="File_Type_Solid" transform="translate(-161.000000, -333.000000)">
            <g id="Group-3" transform="translate(161.000000, 333.000000)">
                <g id="list-msg-icon-file-setup-copy" transform="translate(1.000000, 0.000000)" fill="#A1AAB2">
                    <path d="M14.5454545,17.1428571 C14.5454545,17.9321429 13.8945455,18.5714286 13.0909091,18.5714286 L2.90909091,18.5714286 C2.10545455,18.5714286 1.45454545,17.9321429 1.45454545,17.1428571 L1.45454545,2.85714286 C1.45454545,2.06785714 2.10545455,1.42857143 2.90909091,1.42857143 L10.1483636,1.42857143 L14.5454545,6.53642857 L14.5454545,17.1428571 Z M10.9069091,0 L2.90909091,0 C1.30254545,0 0,1.27928571 0,2.85714286 L0,17.1428571 C0,18.7207143 1.30254545,20 2.90909091,20 L13.0909091,20 C14.6974545,20 16,18.7207143 16,17.1428571 L16,5.735 L10.9069091,0 Z" id="Page-1"></path>
                </g>
                <rect id="Rectangle-3" fill="#A1AAB2" x="0" y="8" width="18" height="8" rx="1"></rect>
                <path d="M4.97512077,11.192851 L5.83236715,9.3999939 L6.91570048,9.3999939 L5.58429952,11.9785653 L6.95024155,14.5999939 L5.85434783,14.5999939 L4.97512077,12.7785653 L4.09589372,14.5999939 L3,14.5999939 L4.36594203,11.9785653 L3.03454106,9.3999939 L4.1178744,9.3999939 L4.97512077,11.192851 Z M8.65531401,9.3999939 L9.82971014,13.1714225 L10.9978261,9.3999939 L12.2350242,9.3999939 L12.2350242,14.5999939 L11.2898551,14.5999939 L11.2898551,13.1785653 L11.384058,10.7249939 L10.15,14.5999939 L9.5031401,14.5999939 L8.27222222,10.7285653 L8.36642512,13.1785653 L8.36642512,14.5999939 L7.42439614,14.5999939 L7.42439614,9.3999939 L8.65531401,9.3999939 Z M13.9997585,13.7392796 L16,13.7392796 L16,14.5999939 L13.0577295,14.5999939 L13.0577295,9.3999939 L13.9997585,9.3999939 L13.9997585,13.7392796 Z" id="XML" fill="#FFFFFF"></path>
            </g>
        </g>
    </g>
</svg>