<svg width="100" height="100" viewBox="0 0 100 100" fill="none" xmlns="http://www.w3.org/2000/svg">
<path fill-rule="evenodd" clip-rule="evenodd" d="M83.3333 6.66667H16.6667C11.1438 6.66667 6.66667 11.1438 6.66667 16.6667V66.3971L13.5799 59.4838C18.353 54.7108 26.0917 54.7108 30.8647 59.4838L37.3176 65.9367C38.1855 66.8046 39.5925 66.8046 40.4603 65.9367L56.453 49.9441C62.092 44.3051 71.2327 44.2963 76.8756 49.9391L93.3333 66.3969V16.6667C93.3333 11.1438 88.8562 6.66667 83.3333 6.66667ZM6.66667 83.3333V75.8252L18.2939 64.1979C20.4635 62.0283 23.9811 62.0283 26.1507 64.1979L32.6036 70.6508C36.0749 74.1221 41.703 74.1221 45.1744 70.6508L61.167 54.6581C64.2064 51.6188 69.126 51.6177 72.1615 54.6532L73.312 55.8036L73.3412 55.8328L73.3805 55.8722L93.3333 75.825V83.3333C93.3333 88.8562 88.8562 93.3333 83.3333 93.3333H16.6667C11.1438 93.3333 6.66667 88.8562 6.66667 83.3333ZM16.6667 0H83.3333C92.5381 0 100 7.46192 100 16.6667V83.3333C100 92.5381 92.5381 100 83.3333 100H16.6667C7.46192 100 0 92.5381 0 83.3333V16.6667C0 7.46192 7.46192 0 16.6667 0ZM37.7778 30C37.7778 34.2955 34.2955 37.7778 30 37.7778C25.7045 37.7778 22.2222 34.2955 22.2222 30C22.2222 25.7044 25.7045 22.2222 30 22.2222C34.2955 22.2222 37.7778 25.7044 37.7778 30Z" fill="#E5EFFF"/>
</svg>
