<svg width="16" height="16" viewBox="0 0 16 16" fill="none" xmlns="http://www.w3.org/2000/svg">
<path fill-rule="evenodd" clip-rule="evenodd" d="M2.19995 7.99995C2.19995 4.7967 4.7967 2.19995 7.99995 2.19995C11.2032 2.19995 13.8 4.7967 13.8 7.99995C13.8 11.2032 11.2032 13.8 7.99995 13.8C4.7967 13.8 2.19995 11.2032 2.19995 7.99995ZM7.99995 1.19995C4.24442 1.19995 1.19995 4.24442 1.19995 7.99995C1.19995 11.7555 4.24442 14.8 7.99995 14.8C11.7555 14.8 14.8 11.7555 14.8 7.99995C14.8 4.24442 11.7555 1.19995 7.99995 1.19995ZM8.49995 4C8.49995 3.72386 8.2761 3.5 7.99995 3.5C7.72381 3.5 7.49995 3.72386 7.49995 4V8C7.49995 8.13261 7.55263 8.25979 7.6464 8.35355L9.6464 10.3536C9.84166 10.5488 10.1582 10.5488 10.3535 10.3536C10.5488 10.1583 10.5488 9.84171 10.3535 9.64645L8.49995 7.79289V4Z" fill="#7A8699"/>
</svg>
