<?xml version="1.0" encoding="UTF-8" standalone="no"?>
<svg width="16px" height="20px" viewBox="0 0 16 20" version="1.1" xmlns="http://www.w3.org/2000/svg" xmlns:xlink="http://www.w3.org/1999/xlink">
    <!-- Generator: Sketch 46.2 (44496) - http://www.bohemiancoding.com/sketch -->
    <title>list-msg-icon-file-photo</title>
    <desc>Created with Sketch.</desc>
    <defs>
        <polygon id="path-1" points="16 9.99989286 16 0 0 0 0 9.99989286 0 19.9997857 16 19.9997857"></polygon>
    </defs>
    <g id="File" stroke="none" stroke-width="1" fill="none" fill-rule="evenodd">
        <g id="iPhone-SE" transform="translate(-42.000000, -266.000000)">
            <g id="list-msg-icon-file-photo" transform="translate(42.000000, 266.000000)">
                <mask id="mask-2" fill="white">
                    <use xlink:href="#path-1"></use>
                </mask>
                <g id="Clip-2"></g>
                <path d="M5.63717099,5.95046488 C4.91289389,5.95046488 4.3233771,6.53855311 4.3233771,7.26140165 C4.3233771,7.98425019 4.91289389,8.57233842 5.63717099,8.57233842 C6.36144808,8.57233842 6.95096487,7.98425019 6.95096487,7.26140165 C6.95096487,6.53855311 6.36144808,5.95046488 5.63717099,5.95046488 M5.63717099,9.52232712 C4.38718587,9.52232712 3.37100749,8.50805348 3.37100749,7.26140165 C3.37100749,6.01427364 4.38718587,5 5.63717099,5 C6.88715611,5 7.90333448,6.01427364 7.90333448,7.26140165 C7.90333448,8.50805348 6.88715611,9.52232712 5.63717099,9.52232712 M17.8603588,15.4874942 C17.7675028,15.5803502 17.6455995,15.6265402 17.5236961,15.6265402 C17.4017928,15.6265402 17.2798895,15.5803502 17.1870335,15.4874942 L11.4056737,9.71946763 L6.51144629,14.6060761 L8.95760765,17.0465233 C9.14331972,17.2322353 9.14331972,17.5327079 8.95760765,17.71842 C8.86427543,17.8112761 8.74237211,17.857466 8.62094499,17.857466 C8.49904168,17.857466 8.37713837,17.8112761 8.28428233,17.71842 L3.25005655,12.6956227 L-1.18703349,17.1227128 C-1.37322175,17.3084249 -1.67464673,17.3084249 -1.86035881,17.1227128 C-2.04654706,16.9370007 -2.04654706,16.6365281 -1.86035881,16.4508161 L3.25005655,11.3523053 L5.83764479,13.9341794 L11.4056737,8.37519791 L17.8603588,14.8155974 C18.0465471,15.0013095 18.0465471,15.3017821 17.8603588,15.4874942" id="Fill-1" fill="#A1AAB2" mask="url(#mask-2)"></path>
                <path d="M14.5454545,17.1428571 C14.5454545,17.9321429 13.8945455,18.5714286 13.0909091,18.5714286 L2.90909091,18.5714286 C2.10545455,18.5714286 1.45454545,17.9321429 1.45454545,17.1428571 L1.45454545,2.85714286 C1.45454545,2.06785714 2.10545455,1.42857143 2.90909091,1.42857143 L10.1483636,1.42857143 L14.5454545,6.53642857 L14.5454545,17.1428571 Z M10.9069091,0 L2.90909091,0 C1.30254545,0 0,1.27928571 0,2.85714286 L0,17.1428571 C0,18.7207143 1.30254545,20 2.90909091,20 L13.0909091,20 C14.6974545,20 16,18.7207143 16,17.1428571 L16,5.735 L10.9069091,0 Z" id="Page-1" fill="#A1AAB2" mask="url(#mask-2)"></path>
            </g>
        </g>
    </g>
</svg>