<?xml version="1.0" encoding="UTF-8"?>
<svg width="42px" height="52px" viewBox="0 0 42 52" version="1.1" xmlns="http://www.w3.org/2000/svg" xmlns:xlink="http://www.w3.org/1999/xlink">
    <!-- Generator: Sketch 49.2 (51160) - http://www.bohemiancoding.com/sketch -->
    <title>icon_file_html</title>
    <desc>Created with Sketch.</desc>
    <defs>
        <linearGradient x1="-37.8486071%" y1="137.055885%" x2="83.6476594%" y2="14.3505821%" id="linearGradient-1">
            <stop stop-color="#F99E53" offset="0%"></stop>
            <stop stop-color="#F16529" offset="100%"></stop>
        </linearGradient>
    </defs>
    <g id="Page-1" stroke="none" stroke-width="1" fill="none" fill-rule="evenodd">
        <g id="File_Type_Solid" transform="translate(-74.000000, -228.000000)">
            <g id="icon_file_html" transform="translate(74.000000, 228.000000)">
                <path d="M4,0 L27.937,0 L42,14.063 L42,48 C42,50.209 40.209,52 38,52 L4,52 C1.791,52 0,50.209 0,48 L0,4 C0,1.791 1.791,0 4,0" id="Page-1" fill="url(#linearGradient-1)"></path>
                <polygon id="Rectangle-2" fill="#F79868" points="28 0 42 14 28 14"></polygon>
                <path d="M24.2221825,21.7778175 C23.7926058,21.3482407 23.7926058,20.6517593 24.2221825,20.2221825 C24.6517593,19.7926058 25.3482407,19.7926058 25.7778175,20.2221825 L33.7445833,28.1889484 C34.17416,28.6185251 34.17416,29.3150066 33.7445833,29.7445833 L25.8301546,37.659012 C25.4005778,38.0885888 24.7040964,38.0885888 24.2745196,37.659012 C23.8449429,37.2294353 23.8449429,36.5329538 24.2745196,36.1033771 L31.4111309,28.9667658 L24.2221825,21.7778175 Z" id="Path-2" fill="#FFFFFF" fill-rule="nonzero"></path>
                <path d="M8.22218254,21.7778175 C7.79260582,21.3482407 7.79260582,20.6517593 8.22218254,20.2221825 C8.65175926,19.7926058 9.34824074,19.7926058 9.77781746,20.2221825 L17.7445833,28.1889484 C18.17416,28.6185251 18.17416,29.3150066 17.7445833,29.7445833 L9.83015456,37.659012 C9.40057784,38.0885888 8.70409636,38.0885888 8.27451964,37.659012 C7.84494292,37.2294353 7.84494292,36.5329538 8.27451964,36.1033771 L15.4111309,28.9667658 L8.22218254,21.7778175 Z" id="Path-2-Copy" fill="#FFFFFF" fill-rule="nonzero" transform="translate(12.983383, 28.940597) scale(-1, 1) translate(-12.983383, -28.940597) "></path>
            </g>
        </g>
    </g>
</svg>