<svg width="32" height="32" viewBox="0 0 32 32" fill="none" xmlns="http://www.w3.org/2000/svg">
<circle cx="16" cy="16" r="16" fill="#EFF2F8"/>
<path fill-rule="evenodd" clip-rule="evenodd" d="M15.9567 7.19995C11.1907 7.19995 7.20001 10.8937 7.20001 15.5723C7.20001 17.5399 7.94538 19.3094 9.04799 20.6958C9.05998 20.7109 9.07279 20.7253 9.08636 20.7389C9.11423 20.767 9.1416 20.81 9.13756 20.9206C9.133 21.0452 9.08704 21.2209 8.98306 21.4444C8.77587 21.8896 8.40221 22.3905 8.02715 22.8096C8.01678 22.8212 8.00694 22.8333 7.99765 22.8457C7.77129 23.1493 7.70111 23.542 7.84897 23.8891C8.00274 24.25 8.35351 24.4679 8.7606 24.4679C9.74336 24.4679 11.2267 24.3795 12.7213 23.6277C12.8453 23.5654 12.9308 23.5451 13.0026 23.5399C13.0767 23.5346 13.1664 23.5432 13.3051 23.5774C14.1966 23.8456 15.1125 24.0318 16.0434 24.0318C20.8093 24.0318 24.8 20.3381 24.8 15.6595C24.8 10.9813 20.7231 7.19995 15.9567 7.19995ZM15.9994 11.1685C14.8571 11.1685 14.2215 12.0299 14.2215 12.7155V14.4058H17.7773V12.7155C17.7773 12.03 17.1413 11.1685 15.9994 11.1685ZM18.5412 14.4058V12.7155C18.5412 11.5992 17.5569 10.4001 15.9994 10.4001C14.4414 10.4001 13.4576 11.5993 13.4576 12.7155V14.4058H13.3901C12.8435 14.4058 12.4 14.8446 12.4 15.3863V19.2188C12.4 19.7605 12.8435 20.1994 13.3901 20.1994H18.6098C19.1565 20.1994 19.6 19.7605 19.6 19.2188V15.3863C19.6 14.8446 19.1565 14.4058 18.6098 14.4058H18.5412ZM15.9992 16.017C16.1749 16.017 16.3173 16.1603 16.3173 16.3372V18.2684C16.3173 18.4452 16.1749 18.5886 15.9992 18.5886C15.8235 18.5886 15.681 18.4452 15.681 18.2684V16.3372C15.681 16.1603 15.8235 16.017 15.9992 16.017Z" fill="#5491F4"/>
</svg>
