<?xml version="1.0" encoding="UTF-8"?>
<svg width="42px" height="52px" viewBox="0 0 42 52" version="1.1" xmlns="http://www.w3.org/2000/svg" xmlns:xlink="http://www.w3.org/1999/xlink">
    <!-- Generator: Sketch 49.2 (51160) - http://www.bohemiancoding.com/sketch -->
    <title>icon_file_attach</title>
    <desc>Created with Sketch.</desc>
    <defs>
        <linearGradient x1="-45.9987895%" y1="145.116121%" x2="87.7616103%" y2="14.4637031%" id="linearGradient-1">
            <stop stop-color="#02D6F8" offset="0%"></stop>
            <stop stop-color="#01ADEE" offset="100%"></stop>
        </linearGradient>
    </defs>
    <g id="Page-1" stroke="none" stroke-width="1" fill="none" fill-rule="evenodd">
        <g id="File_Type_Solid" transform="translate(-387.000000, -227.000000)">
            <g id="icon_file_attach" transform="translate(387.000000, 227.000000)">
                <path d="M27.937,0 L42,14.063 L42,48 C42,50.209 40.209,52 38,52 L4,52 C1.791,52 0,50.209 0,48 L0,4 C0,1.791 1.791,0 4,0 L27.937,0 Z" id="Page-1" fill="url(#linearGradient-1)"></path>
                <g id="icn_toolbar_attach" transform="translate(16.000000, 19.000000)" fill="#FFFFFF" fill-rule="nonzero">
                    <path d="M12,14.5947712 C12,15.147056 11.5522847,15.5947712 11,15.5947712 C10.4477153,15.5947712 10,15.147056 10,14.5947712 L10,5.5 C10,3.01471863 7.98528137,1 5.5,1 C3.01471863,1 1,3.01471863 1,5.5 L1,18.4 C1,19.8359403 2.16405965,21 3.6,21 L4.34,21 C5.57711784,21 6.58,19.9971178 6.58,18.76 L6.58,7.36056889 C6.58,6.71439573 6.05617316,6.19056889 5.41,6.19056889 C4.76382684,6.19056889 4.24,6.71439573 4.24,7.36056889 L4.24,14.3071895 C4.24,14.8594743 3.79228475,15.3071895 3.24,15.3071895 C2.68771525,15.3071895 2.24,14.8594743 2.24,14.3071895 L2.24,7.36056889 C2.24,5.60982623 3.65925734,4.19056889 5.41,4.19056889 C7.16074266,4.19056889 8.58,5.60982623 8.58,7.36056889 L8.58,18.76 C8.58,21.1016873 6.68168734,23 4.34,23 L3.6,23 C1.05949015,23 -1,20.9405098 -1,18.4 L-1,5.5 C-1,1.91014913 1.91014913,-1 5.5,-1 C9.08985087,-1 12,1.91014913 12,5.5 L12,14.5947712 Z"></path>
                </g>
                <polygon id="Rectangle-2" fill="#5ECDF7" points="28 0 41 13 28 13"></polygon>
            </g>
        </g>
    </g>
</svg>