<?xml version="1.0" encoding="UTF-8" standalone="no"?>
<svg width="16px" height="20px" viewBox="0 0 16 20" version="1.1" xmlns="http://www.w3.org/2000/svg" xmlns:xlink="http://www.w3.org/1999/xlink">
    <!-- Generator: Sketch 46.2 (44496) - http://www.bohemiancoding.com/sketch -->
    <title>list-msg-icon-file-ai</title>
    <desc>Created with Sketch.</desc>
    <defs>
        <polygon id="path-1" points="16 10 16 0 0 0 0 10 0 20 16 20"></polygon>
    </defs>
    <g id="File" stroke="none" stroke-width="1" fill="none" fill-rule="evenodd">
        <g id="iPhone-SE" transform="translate(-222.000000, -266.000000)">
            <g id="list-msg-icon-file-ai" transform="translate(222.000000, 266.000000)">
                <mask id="mask-2" fill="white">
                    <use xlink:href="#path-1"></use>
                </mask>
                <g id="Clip-2"></g>
                <path d="M6.08835616,13.0244781 L8.14383562,13.0244781 L7.2119863,9.98004769 C7.18390411,9.88077279 7.15445205,9.72115431 7.12328767,9.50119227 L7.10445205,9.50119227 C7.07636986,9.7032459 7.04520548,9.86286437 7.01061644,9.98004769 L6.08835616,13.0244781 Z M7.76917808,8.3675118 L10.264726,16 L9.04280822,16 L8.43869863,14.0573264 L5.79794521,14.0573264 L5.21746575,16 L4,16 L6.51438356,8.3675118 L7.76917808,8.3675118 Z M10.7917808,16 L10.7917808,10.5496131 L11.8780822,10.5496131 L11.8780822,16 L10.7917808,16 Z M11.8078767,9.20025305 C11.6797945,9.33690204 11.5239726,9.40542119 11.339726,9.40542119 C11.1619863,9.40542119 11.009589,9.33962723 10.8832192,9.20842863 C10.7568493,9.07723004 10.6934932,8.91021461 10.6934932,8.70816098 C10.6934932,8.50571804 10.7568493,8.33714536 10.8832192,8.20244294 C11.009589,8.06735121 11.1619863,8 11.339726,8 C11.5239726,8 11.6797945,8.06735121 11.8078767,8.20244294 C11.9359589,8.33714536 12,8.50571804 12,8.70816098 C12,8.89970315 11.9359589,9.06360407 11.8078767,9.20025305 Z" id="Combined-Shape" fill="#A1AAB2" mask="url(#mask-2)"></path>
                <path d="M14.5454545,17.1428571 C14.5454545,17.9321429 13.8945455,18.5714286 13.0909091,18.5714286 L2.90909091,18.5714286 C2.10545455,18.5714286 1.45454545,17.9321429 1.45454545,17.1428571 L1.45454545,2.85714286 C1.45454545,2.06785714 2.10545455,1.42857143 2.90909091,1.42857143 L10.1483636,1.42857143 L14.5454545,6.53642857 L14.5454545,17.1428571 Z M10.9069091,0 L2.90909091,0 C1.30254545,0 0,1.27928571 0,2.85714286 L0,17.1428571 C0,18.7207143 1.30254545,20 2.90909091,20 L13.0909091,20 C14.6974545,20 16,18.7207143 16,17.1428571 L16,5.735 L10.9069091,0 Z" id="Page-1" fill="#A1AAB2" mask="url(#mask-2)"></path>
            </g>
        </g>
    </g>
</svg>