<?xml version="1.0" encoding="UTF-8" standalone="no"?>
<svg width="16px" height="20px" viewBox="0 0 16 20" version="1.1" xmlns="http://www.w3.org/2000/svg" xmlns:xlink="http://www.w3.org/1999/xlink">
    <!-- Generator: Sketch 46.2 (44496) - http://www.bohemiancoding.com/sketch -->
    <title>list-msg-icon-file-pdf</title>
    <desc>Created with Sketch.</desc>
    <defs>
        <polygon id="path-1" points="16 10 16 0 0 0 0 10 0 20 16 20"></polygon>
    </defs>
    <g id="File" stroke="none" stroke-width="1" fill="none" fill-rule="evenodd">
        <g id="iPhone-SE" transform="translate(-12.000000, -266.000000)">
            <g id="list-msg-icon-file-pdf" transform="translate(12.000000, 266.000000)">
                <mask id="mask-2" fill="white">
                    <use xlink:href="#path-1"></use>
                </mask>
                <g id="Clip-2"></g>
                <path d="M12.6681033,12.8218376 C12.6073198,12.8592713 12.4327525,12.8822505 12.3208219,12.8822505 C11.9587152,12.8822505 11.508769,12.7139839 10.8798078,12.4382343 C11.1214594,12.4200734 11.3438381,12.410437 11.5424964,12.410437 C11.905715,12.410437 12.013198,12.4089544 12.3704865,12.5019829 C12.7259218,12.5950113 12.73074,12.7825507 12.6681033,12.8218376 M6.3547717,12.8789148 C6.49412903,12.6257737 6.63830456,12.358178 6.78544514,12.075757 C7.14569865,11.3819354 7.3732662,10.8400726 7.54116213,10.394574 C7.87769524,11.0179756 8.29687911,11.5483488 8.78870669,11.9730922 C8.85097273,12.0249805 8.91694508,12.0790927 8.98402933,12.1328342 C7.98332513,12.3337163 7.11716005,12.5801861 6.3547717,12.8789148 M7.52374246,6.32652607 C7.72240077,6.32652607 7.83581392,6.83725585 7.84545033,7.31722323 C7.85508674,7.79719062 7.74463865,8.1333531 7.608617,8.38315852 C7.49483323,8.01438049 7.44035044,7.43323079 7.44035044,7.0529632 C7.44035044,7.0529632 7.43256719,6.32652607 7.52374246,6.32652607 M3.60728273,15.5218858 C3.71958398,15.2068493 4.16767708,14.583077 4.82925375,14.0315778 C4.87076444,13.9971091 4.97305865,13.8992624 5.06608707,13.8077165 C4.37411865,14.9325822 3.91157093,15.379934 3.60728273,15.5218858 M13.009084,12.4185909 C12.9979651,12.3351988 12.9323633,12.2310515 12.8619434,12.1606316 C12.6599494,11.9582669 12.2166745,11.8522664 11.5410139,11.8422594 C11.0829137,11.8374412 10.5321558,11.8782106 9.95248861,11.9616026 C9.69341742,11.8096438 9.4258217,11.6432304 9.21604445,11.4423483 C8.65083189,10.9053037 8.18013029,10.1592232 7.8854785,9.33827508 C7.90475132,9.26155443 7.92068846,9.19447018 7.9366256,9.12590341 C7.9366256,9.12590341 8.25388589,7.28460769 8.17049388,6.66120603 C8.15937494,6.57633149 8.15122106,6.55186983 8.12898318,6.48478559 L8.10155648,6.41288314 C8.01519941,6.20903599 7.84545033,5.99332864 7.57970777,6.00481821 L7.42293078,6 L7.4195951,6 C7.12160762,6 6.88180925,6.15492384 6.81769005,6.3850858 C6.62533247,7.1100404 6.82399078,8.19561914 7.18424429,9.59957007 L7.0915865,9.82787888 C6.83362719,10.4712946 6.51006617,11.1176754 6.22542142,11.6873355 L6.1883583,11.7607205 C5.88740578,12.3596605 5.61499186,12.8689077 5.36703959,13.2999518 L5.11241597,13.4370854 C5.09314315,13.4470924 4.65616898,13.6835551 4.55387477,13.7458211 C3.68400338,14.2761944 3.10767189,14.8769875 3.01167841,15.3536192 C2.98128666,15.5070605 3.00352453,15.7012713 3.15881899,15.790964 L3.40565936,15.9184611 C3.51314241,15.9722027 3.62655555,16 3.74182185,16 C4.36151719,16 5.08017106,15.21315 6.07160948,13.4504281 C7.21463605,13.071643 8.5177753,12.7547533 9.65968998,12.5816686 C10.5291907,13.0797969 11.5984617,13.4274489 12.2741224,13.4274489 C12.3945775,13.4274489 12.4983542,13.4159594 12.5817462,13.3929802 C12.7114672,13.357029 12.8204327,13.2821615 12.887517,13.1809792 C13.0187204,12.9800971 13.044294,12.7024943 13.009084,12.4185909" id="Fill-1" fill="#A1AAB2" mask="url(#mask-2)"></path>
                <path d="M14.5454545,17.1428571 C14.5454545,17.9321429 13.8945455,18.5714286 13.0909091,18.5714286 L2.90909091,18.5714286 C2.10545455,18.5714286 1.45454545,17.9321429 1.45454545,17.1428571 L1.45454545,2.85714286 C1.45454545,2.06785714 2.10545455,1.42857143 2.90909091,1.42857143 L10.1483636,1.42857143 L14.5454545,6.53642857 L14.5454545,17.1428571 Z M10.9069091,0 L2.90909091,0 C1.30254545,0 0,1.27928571 0,2.85714286 L0,17.1428571 C0,18.7207143 1.30254545,20 2.90909091,20 L13.0909091,20 C14.6974545,20 16,18.7207143 16,17.1428571 L16,5.735 L10.9069091,0 Z" id="Page-1" fill="#A1AAB2" mask="url(#mask-2)"></path>
            </g>
        </g>
    </g>
</svg>