<?xml version="1.0" encoding="UTF-8"?>
<svg width="42px" height="52px" viewBox="0 0 42 52" version="1.1" xmlns="http://www.w3.org/2000/svg" xmlns:xlink="http://www.w3.org/1999/xlink">
    <!-- Generator: Sketch 49.2 (51160) - http://www.bohemiancoding.com/sketch -->
    <title>icon_file_music</title>
    <desc>Created with Sketch.</desc>
    <defs>
        <linearGradient x1="-44.173647%" y1="143.668019%" x2="81.5194713%" y2="13.6517047%" id="linearGradient-1">
            <stop stop-color="#B183DE" offset="0%"></stop>
            <stop stop-color="#794CBA" offset="100%"></stop>
        </linearGradient>
    </defs>
    <g id="Page-1" stroke="none" stroke-width="1" fill="none" fill-rule="evenodd">
        <g id="File_Type_Solid" transform="translate(-202.000000, -228.000000)">
            <g id="icon_file_music" transform="translate(202.000000, 227.000000)">
                <path d="M27.937,1 L42,15.063 L42,49 C42,51.209 40.209,53 38,53 L4,53 C1.791,53 0,51.209 0,49 L0,5 C0,2.791 1.791,1 4,1 L27.937,1 Z" id="Page-1" fill="url(#linearGradient-1)"></path>
                <polygon id="Rectangle-2" fill="#A582D4" points="28 1 42 15 28 15"></polygon>
                <path d="M15.5,25.4988823 C15.5,25.0470603 15.8023551,24.6522279 16.237433,24.5344705 L27.2431751,21.5327392 C27.5413968,21.4551963 27.8600185,21.5166794 28.1060655,21.7032116 C28.3546271,21.8931772 28.5,22.1871852 28.5,22.4986806 L28.5,37.4996894 C28.5,39.2208669 26.7092494,40.4998573 24.5,40.4998573 C22.2907506,40.4998573 20.5,39.2208669 20.5,37.4996894 C20.5,35.7785119 22.2907506,34.4995215 24.5,34.4995215 C25.2189985,34.4995215 25.9038794,34.6351831 26.5,34.8873823 L26.5,23.8074071 L17.5,26.2627722 L17.5,39.4998239 C17.5,41.2210014 15.7092494,42.4999918 13.5,42.4999918 C11.2907506,42.4999918 9.5,41.2210014 9.5,39.4998239 C9.5,37.7786464 11.2907506,36.499656 13.5,36.499656 C14.2189985,36.499656 14.9038794,36.6353176 15.5,36.8875168 L15.5,25.4988823 Z M13.5,40.4999324 C14.6147872,40.4999324 15.5,39.9687687 15.5,39.4998309 C15.5,39.0308931 14.6147872,38.4997294 13.5,38.4997294 C12.3852128,38.4997294 11.5,39.0308931 11.5,39.4998309 C11.5,39.9687687 12.3852128,40.4999324 13.5,40.4999324 Z M24.5,38.4997971 C25.6147872,38.4997971 26.5,37.9686334 26.5,37.4996956 C26.5,37.0307578 25.6147872,36.4995941 24.5,36.4995941 C23.3852128,36.4995941 22.5,37.0307578 22.5,37.4996956 C22.5,37.9686334 23.3852128,38.4997971 24.5,38.4997971 Z" id="Shape" fill="#FFFFFF" fill-rule="nonzero"></path>
            </g>
        </g>
    </g>
</svg>