<svg width="24" height="24" viewBox="0 0 24 24" fill="none" xmlns="http://www.w3.org/2000/svg">
<g clip-path="url(#clip0_1254_69135)">
<path d="M20.5886 13.9507C20.6503 13.1122 20.3676 12.6605 20.1791 12.3615C20.0458 12.147 20.0491 12.1405 20.0751 12.0787C20.3708 11.3702 20.3773 10.6585 20.0946 9.95975C19.8703 9.404 19.3373 9.04 18.6743 8.99125L18.6288 8.988C18.6158 8.988 18.6028 8.988 18.5898 8.988C18.5866 8.988 18.5476 8.988 18.5476 8.988C18.5443 8.988 18.5411 8.988 18.5411 8.988C18.5378 8.988 18.5346 8.988 18.5313 8.988H18.4696C18.4436 8.988 18.4176 8.988 18.3916 8.99125C18.1088 9.0075 17.8261 9.03675 17.5531 9.066C17.1078 9.1115 16.6886 9.15375 16.2596 9.15375H16.2076C15.8241 9.1505 14.5371 9.08875 14.1341 8.4615C13.9358 8.15275 13.9683 7.701 14.2316 7.11275C14.5371 6.427 14.6736 5.78675 14.6443 5.153C14.5696 3.463 13.2566 1.5 11.6771 1.5C11.4106 1.5 11.1473 1.5585 10.8971 1.67225C10.1333 1.9485 10.2276 2.84225 10.3283 3.79125C10.3868 4.334 10.4518 4.94825 10.4096 5.595C10.3966 5.77375 10.3901 5.946 10.3836 6.11175C10.3348 7.285 10.3023 8.06175 8.79434 9.17975C8.78784 9.183 8.78459 9.1895 8.77809 9.196C8.77159 9.2025 8.76184 9.20575 8.75534 9.21225C8.39134 9.5535 6.92884 10.444 6.38284 11.5198L3.84134 11.562C3.60084 11.5685 3.40259 11.7667 3.40259 12.0137V19.557C3.40259 19.804 3.60409 20.0055 3.85109 20.0055L7.71534 20.012C8.87884 20.8603 10.8483 20.974 12.4538 20.974C12.8308 20.974 13.1916 20.9675 13.5166 20.961C13.7798 20.9545 14.0203 20.9512 14.2316 20.9512C14.6866 20.9512 15.1416 20.948 15.5933 20.9383H15.6388C15.8046 20.9383 15.9866 20.9513 16.1783 20.9675C16.3896 20.9838 16.6106 21 16.8283 21C17.0916 21 17.3158 20.974 17.5141 20.922C18.6516 20.623 19.2821 20.1712 19.3178 18.673C19.3861 18.5397 19.6168 18.2148 19.7241 18.114C20.1401 17.7175 20.2701 16.983 20.2181 16.4695C20.2018 16.3265 20.1433 16.1672 20.0491 15.9202C19.9938 15.7707 19.8866 15.4945 19.8801 15.4133C19.8833 15.384 19.9743 15.2735 20.0296 15.2085C20.2343 14.9712 20.5398 14.6105 20.5886 13.9507Z" fill="url(#paint0_radial_1254_69135)"/>
<path d="M8.87887 18.9946C9.51587 19.8559 14.8589 19.7421 16.0614 19.6674C17.2606 19.5926 18.4859 19.4431 18.5281 18.3934C18.5704 17.3469 19.3569 17.2721 19.3569 16.5961C19.3569 15.9234 18.8336 15.4749 19.0579 15.0621C19.2821 14.6494 19.7436 14.3244 19.7696 13.4534C19.7956 12.5824 19.1326 12.6376 19.1716 11.9616C19.2074 11.2856 19.6071 11.3344 19.5064 10.5349C19.4154 9.80037 18.6646 9.47862 18.5476 9.42987C18.5054 9.42987 18.4631 9.42662 18.4209 9.42987C17.6799 9.47537 16.9551 9.59887 16.2044 9.59237C15.3431 9.58587 12.7236 9.37137 13.8189 6.92087C14.0691 6.36187 14.2219 5.78012 14.1926 5.16587C14.1179 3.44012 12.5416 1.38612 11.0661 2.08487C10.3316 2.33187 10.9719 3.84962 10.8581 5.61762C10.7639 7.07037 10.9719 8.12012 9.06412 9.53387C9.06412 9.53387 7.94287 11.5976 7.86812 14.0026C7.79337 16.4109 8.24187 18.1334 8.87887 18.9946Z" fill="url(#paint1_radial_1254_69135)"/>
<path d="M18.6061 9.43304L18.6386 9.43629C18.6256 9.43304 18.6158 9.43304 18.6061 9.43304Z" fill="url(#paint2_radial_1254_69135)"/>
<path d="M18.5281 9.42664C18.5281 9.42664 18.5346 9.42989 18.5443 9.43314C18.5638 9.43314 18.5833 9.43314 18.6061 9.43314L18.5281 9.42664Z" fill="url(#paint3_radial_1254_69135)"/>
<path d="M3.85107 12.0104V19.5536L7.86807 19.5601C9.31107 20.7496 12.6553 20.4994 14.2283 20.4994C14.6801 20.4994 15.1318 20.4929 15.5836 20.4864C16.1491 20.4766 16.8511 20.6294 17.3971 20.4864C18.3851 20.2264 18.8498 19.9144 18.8693 18.6046C18.8726 18.4714 19.2431 17.9514 19.4121 17.7889C19.7046 17.5094 19.8118 16.9179 19.7696 16.5149C19.7468 16.2971 19.4153 15.6536 19.4316 15.3839C19.4576 14.9516 20.0783 14.7891 20.1433 13.9116C20.2376 12.6279 19.4056 12.5174 19.6656 11.8966C19.9061 11.3214 19.9353 10.7396 19.6851 10.1221C19.5096 9.68987 19.0871 9.46562 18.6418 9.43312L18.6093 9.42987C18.5898 9.42987 18.5703 9.42987 18.5476 9.42987C18.6678 9.47537 19.4153 9.79712 19.5063 10.5349C19.6071 11.3344 19.2073 11.2824 19.1716 11.9616C19.1326 12.6376 19.7956 12.5824 19.7696 13.4534C19.7436 14.3244 19.2821 14.6494 19.0578 15.0621C18.8336 15.4749 19.3568 15.9234 19.3568 16.5961C19.3568 17.2689 18.5703 17.3436 18.5281 18.3934C18.4858 19.4399 17.2606 19.5926 16.0613 19.6674C14.8621 19.7421 9.51582 19.8526 8.87882 18.9946C8.24182 18.1334 7.79332 16.4141 7.87132 14.0091C7.94607 11.6041 9.06732 9.54037 9.06732 9.54037C8.70982 9.87512 6.89307 11.5651 6.67207 11.9649L3.85107 12.0104Z" fill="url(#paint4_radial_1254_69135)"/>
<path d="M3.85107 12.0104V19.5536L7.86807 19.5601C9.31107 20.7496 12.6553 20.4994 14.2283 20.4994C14.6801 20.4994 15.1318 20.4929 15.5836 20.4864C16.1491 20.4766 16.8511 20.6294 17.3971 20.4864C18.3851 20.2264 18.8498 19.9144 18.8693 18.6046C18.8726 18.4714 19.2431 17.9514 19.4121 17.7889C19.7046 17.5094 19.8118 16.9179 19.7696 16.5149C19.7468 16.2971 19.4153 15.6536 19.4316 15.3839C19.4576 14.9516 20.0783 14.7891 20.1433 13.9116C20.2376 12.6279 19.4056 12.5174 19.6656 11.8966C19.9061 11.3214 19.9353 10.7396 19.6851 10.1221C19.5096 9.68987 19.0871 9.46562 18.6418 9.43312L18.6093 9.42987C18.5898 9.42987 18.5703 9.42987 18.5476 9.42987C18.6678 9.47537 19.4153 9.79712 19.5063 10.5349C19.6071 11.3344 19.2073 11.2824 19.1716 11.9616C19.1326 12.6376 19.7956 12.5824 19.7696 13.4534C19.7436 14.3244 19.2821 14.6494 19.0578 15.0621C18.8336 15.4749 19.3568 15.9234 19.3568 16.5961C19.3568 17.2689 18.5703 17.3436 18.5281 18.3934C18.4858 19.4399 17.2606 19.5926 16.0613 19.6674C14.8621 19.7421 9.59382 19.9404 8.87882 18.5461C8.39132 17.5939 8.01757 16.4109 7.87132 14.0091C7.67307 10.8339 9.06732 9.54037 9.06732 9.54037C8.70982 9.87512 7.18882 10.8339 6.67207 11.9649L3.85107 12.0104Z" fill="url(#paint5_radial_1254_69135)"/>
<path d="M14.1925 5.16943C14.1925 5.16943 13.8383 6.32968 13.107 6.97318C12.3758 7.61993 12.2653 8.89393 12.9673 9.43668C13.6693 9.97618 16.084 9.59268 16.084 9.59268C16.084 9.59268 14.5273 9.54393 13.8155 8.78018C13.2208 8.14643 13.7993 7.04143 13.8188 6.92443C13.835 6.80418 14.3355 6.00468 14.1925 5.16943Z" fill="url(#paint6_radial_1254_69135)"/>
</g>
<defs>
<radialGradient id="paint0_radial_1254_69135" cx="0" cy="0" r="1" gradientUnits="userSpaceOnUse" gradientTransform="translate(16.3442 -6.61769) scale(30.4815)">
<stop stop-color="#E37825"/>
<stop offset="0.1057" stop-color="#DB7325"/>
<stop offset="0.6931" stop-color="#B15924"/>
<stop offset="0.9946" stop-color="#A14F24"/>
</radialGradient>
<radialGradient id="paint1_radial_1254_69135" cx="0" cy="0" r="1" gradientUnits="userSpaceOnUse" gradientTransform="translate(18.4807 1.20932) scale(27.9728 27.9728)">
<stop offset="0.172" stop-color="#F7F3A6"/>
<stop offset="0.3138" stop-color="#F7E38E"/>
<stop offset="0.611" stop-color="#F8BC51"/>
<stop offset="0.8441" stop-color="#F89A1D"/>
</radialGradient>
<radialGradient id="paint2_radial_1254_69135" cx="0" cy="0" r="1" gradientUnits="userSpaceOnUse" gradientTransform="translate(18.4808 -0.0266877) scale(32.175 32.175)">
<stop offset="0.172" stop-color="#F7F3A6"/>
<stop offset="0.3138" stop-color="#F7E38E"/>
<stop offset="0.611" stop-color="#F8BC51"/>
<stop offset="0.8441" stop-color="#F89A1D"/>
</radialGradient>
<radialGradient id="paint3_radial_1254_69135" cx="0" cy="0" r="1" gradientUnits="userSpaceOnUse" gradientTransform="translate(12.2373 4.31628) scale(13.773 13.7734)">
<stop offset="0.172" stop-color="#F7F3A6"/>
<stop offset="0.3138" stop-color="#F7E38E"/>
<stop offset="0.611" stop-color="#F8BC51"/>
<stop offset="0.8441" stop-color="#F89A1D"/>
<stop offset="0.9098" stop-color="#F89A1D"/>
</radialGradient>
<radialGradient id="paint4_radial_1254_69135" cx="0" cy="0" r="1" gradientUnits="userSpaceOnUse" gradientTransform="translate(18.4091 1.20909) scale(27.9824 27.9824)">
<stop offset="0.172" stop-color="#F7F3A6"/>
<stop offset="0.3138" stop-color="#F7E38E"/>
<stop offset="0.611" stop-color="#F8BC51"/>
<stop offset="0.8441" stop-color="#F89A1D"/>
</radialGradient>
<radialGradient id="paint5_radial_1254_69135" cx="0" cy="0" r="1" gradientUnits="userSpaceOnUse" gradientTransform="translate(14.4334 6.15065) scale(17.7302 17.7302)">
<stop offset="0.0434" stop-color="#F7F3A6"/>
<stop offset="0.2123" stop-color="#F7E38E"/>
<stop offset="0.5664" stop-color="#F8BC51"/>
<stop offset="0.8441" stop-color="#F89A1D"/>
<stop offset="0.9098" stop-color="#F89A1D"/>
</radialGradient>
<radialGradient id="paint6_radial_1254_69135" cx="0" cy="0" r="1" gradientUnits="userSpaceOnUse" gradientTransform="translate(19.1413 3.71789) scale(12.4034)">
<stop offset="0.172" stop-color="#F7F3A6"/>
<stop offset="0.3138" stop-color="#F7E38E"/>
<stop offset="0.611" stop-color="#F8BC51"/>
<stop offset="0.8441" stop-color="#F89A1D"/>
<stop offset="0.9098" stop-color="#F89A1D"/>
</radialGradient>
<clipPath id="clip0_1254_69135">
<rect width="24" height="24" fill="white"/>
</clipPath>
</defs>
</svg>
