<?xml version="1.0" encoding="UTF-8"?>
<svg width="104px" height="39px" viewBox="0 0 104 39" version="1.1" xmlns="http://www.w3.org/2000/svg" xmlns:xlink="http://www.w3.org/1999/xlink">
    <!-- Generator: Sketch 49.2 (51160) - http://www.bohemiancoding.com/sketch -->
    <title>Log in</title>
    <desc>Created with Sketch.</desc>
    <defs></defs>
    <g id="Login-screen" stroke="none" stroke-width="1" fill="none" fill-rule="evenodd">
        <g id="Log-in" transform="translate(-158.000000, -44.000000)" fill="#0068FF">
            <path d="M160.800392,51.9047451 L160.800392,45.902 L188.813333,45.902 L188.813333,46.7561176 C188.813333,48.349451 188.600588,49.6498431 187.565882,51.1757255 L187.441176,51.3180784 C187.214902,51.5751373 186.68451,52.1767059 186.432549,52.5037647 L168.428824,75.1155294 L188.813333,75.1155294 L188.813333,78.3165098 C188.813333,79.6427843 187.738039,80.7178824 186.411765,80.7178824 L160,80.7178824 L160,79.2082745 C160,77.3596471 160.459216,76.5347451 161.039608,75.6755294 L180.231569,51.9047451 L160.800392,51.9047451 Z M222.424451,78.7182745 L222.424451,45.902 L228.427196,45.902 L228.427196,80.7178824 L224.424255,80.7178824 C223.321314,80.7178824 222.424451,79.8210196 222.424451,78.7182745 Z M212.014157,56.2492549 L212.014157,54.3739608 L217.622196,54.3739608 L217.622196,80.7178824 L214.413765,80.7178824 C213.09298,80.7178824 212.022,79.6506275 212.014745,78.3316078 C209.752392,79.9880784 206.963569,80.9682745 203.944745,80.9682745 C196.390824,80.9682745 190.267098,74.844549 190.267098,67.2906275 C190.267098,59.7367059 196.390824,53.6131765 203.944745,53.6131765 C206.963373,53.6131765 209.751804,54.5931765 212.014157,56.2492549 Z M203.944745,75.3363137 C208.388078,75.3363137 211.990235,71.7341569 211.990235,67.2906275 C211.990235,62.8472941 208.388078,59.2451373 203.944745,59.2451373 C199.501216,59.2451373 195.899059,62.8472941 195.899059,67.2906275 C195.899059,71.7341569 199.501216,75.3363137 203.944745,75.3363137 Z M246.175235,53.4486667 C253.780725,53.4486667 259.94602,59.6139608 259.94602,67.219451 C259.94602,74.8249412 253.780725,80.9902353 246.175235,80.9902353 C238.569745,80.9902353 232.404451,74.8249412 232.404451,67.219451 C232.404451,59.6139608 238.569745,53.4486667 246.175235,53.4486667 Z M246.175235,75.3198431 C250.648961,75.3198431 254.275627,71.6931765 254.275627,67.219451 C254.275627,62.7457255 250.648961,59.1188627 246.175235,59.1188627 C241.70151,59.1188627 238.074647,62.7457255 238.074647,67.219451 C238.074647,71.6931765 241.70151,75.3198431 246.175235,75.3198431 Z" id="Combined-Shape"></path>
        </g>
    </g>
</svg>