<svg width="16" height="16" viewBox="0 0 16 16" fill="none" xmlns="http://www.w3.org/2000/svg">
<path fill-rule="evenodd" clip-rule="evenodd" d="M7.99995 2.2002C4.7967 2.2002 2.19995 4.79694 2.19995 8.0002C2.19995 11.2034 4.7967 13.8002 7.99995 13.8002C11.2032 13.8002 13.8 11.2034 13.8 8.0002C13.8 4.79694 11.2032 2.2002 7.99995 2.2002ZM1.19995 8.0002C1.19995 4.24466 4.24442 1.2002 7.99995 1.2002C11.7555 1.2002 14.8 4.24466 14.8 8.0002C14.8 11.7557 11.7555 14.8002 7.99995 14.8002C4.24442 14.8002 1.19995 11.7557 1.19995 8.0002ZM7.99994 3.9002C8.44177 3.9002 8.79994 4.25837 8.79994 4.7002V8.4002C8.79994 8.84202 8.44177 9.2002 7.99994 9.2002C7.55811 9.2002 7.19994 8.84202 7.19994 8.4002V4.7002C7.19994 4.25837 7.55811 3.9002 7.99994 3.9002ZM8.89994 10.7003C8.89994 11.1973 8.497 11.6003 7.99994 11.6003C7.50289 11.6003 7.09995 11.1973 7.09995 10.7003C7.09995 10.2032 7.50289 9.80029 7.99994 9.80029C8.497 9.80029 8.89994 10.2032 8.89994 10.7003Z" fill="#7589A3"/>
</svg>
