<svg width="16" height="16" viewBox="0 0 16 16" fill="none" xmlns="http://www.w3.org/2000/svg">
<path fill-rule="evenodd" clip-rule="evenodd" d="M2.5 8C2.5 4.96243 4.96243 2.5 8 2.5C11.0376 2.5 13.5 4.96243 13.5 8C13.5 11.0376 11.0376 13.5 8 13.5C4.96243 13.5 2.5 11.0376 2.5 8ZM8 1.5C4.41015 1.5 1.5 4.41015 1.5 8C1.5 11.5899 4.41015 14.5 8 14.5C11.5899 14.5 14.5 11.5899 14.5 8C14.5 4.41015 11.5899 1.5 8 1.5ZM10.3536 7.0203C10.5488 6.82504 10.5488 6.50846 10.3536 6.31319C10.1583 6.11793 9.84171 6.11793 9.64645 6.31319L7.33333 8.62631L6.35355 7.64653C6.15829 7.45127 5.84171 7.45127 5.64645 7.64653C5.45118 7.84179 5.45118 8.15837 5.64645 8.35363L6.97978 9.68697C7.17504 9.88223 7.49162 9.88223 7.68689 9.68697L10.3536 7.0203Z" fill="#2F9D6E"/>
</svg>
