<svg width="88" height="50" viewBox="0 0 88 50" fill="none" xmlns="http://www.w3.org/2000/svg">
<path d="M48.357 0H2.55653C1.14435 0 0 1.1067 0 2.47242V24.6379C0 26.0026 1.14435 27.1103 2.55653 27.1103H5.84192L7.52589 28.8644C7.72267 29.0694 8.0505 29.0694 8.24728 28.8644L9.93126 27.1103H48.358C49.7702 27.1103 50.9146 26.0036 50.9146 24.6379V2.47242C50.9136 1.1067 49.7692 0 48.357 0Z" fill="#F4F5F7"/>
<path fill-rule="evenodd" clip-rule="evenodd" d="M18.2773 5.44702C18.7673 5.44702 19.165 5.83162 19.165 6.3055C19.165 6.77938 18.7673 7.16398 18.2773 7.16398C17.7873 7.16398 17.3896 6.77938 17.3896 6.3055C17.3896 5.83162 17.7873 5.44702 18.2773 5.44702ZM21.9538 5.44702C22.4438 5.44702 22.8415 5.83162 22.8415 6.3055C22.8415 6.77938 22.4449 7.16398 21.9538 7.16398C21.4638 7.16398 21.0662 6.77938 21.0662 6.3055C21.0662 5.83162 21.4638 5.44702 21.9538 5.44702ZM26.5188 6.3055C26.5188 5.83162 26.1211 5.44702 25.6311 5.44702C25.1411 5.44702 24.7434 5.83162 24.7434 6.3055C24.7434 6.77938 25.1411 7.16398 25.6311 7.16398C26.1211 7.16398 26.5188 6.77938 26.5188 6.3055ZM29.3079 5.44702C29.7979 5.44702 30.1955 5.83162 30.1955 6.3055C30.1955 6.77938 29.7979 7.16398 29.3079 7.16398C28.8179 7.16398 28.4202 6.77938 28.4202 6.3055C28.4202 5.83162 28.8179 5.44702 29.3079 5.44702ZM33.8721 6.3055C33.8721 5.83162 33.4744 5.44702 32.9844 5.44702C32.4944 5.44702 32.0967 5.83162 32.0967 6.3055C32.0967 6.77938 32.4944 7.16398 32.9844 7.16398C33.4744 7.16398 33.8721 6.77938 33.8721 6.3055ZM7.5 12C7.22386 12 7 12.2239 7 12.5C7 12.7761 7.22386 13 7.5 13H38.5C38.7761 13 39 12.7761 39 12.5C39 12.2239 38.7761 12 38.5 12H7.5ZM7 15.5C7 15.2239 7.22386 15 7.5 15H38.5C38.7761 15 39 15.2239 39 15.5C39 15.7761 38.7761 16 38.5 16H7.5C7.22386 16 7 15.7761 7 15.5ZM7.5 18C7.22386 18 7 18.2239 7 18.5C7 18.7761 7.22386 19 7.5 19H38.5C38.7761 19 39 18.7761 39 18.5C39 18.2239 38.7761 18 38.5 18H7.5Z" fill="#E1E4EA"/>
<path d="M84.5262 14.0537H25.7899C24.169 14.0537 22.8545 15.3249 22.8545 16.8926V43.7684C22.8545 45.336 24.169 46.6072 25.7899 46.6072H73.3159L75.1543 48.9798C75.5547 49.4965 76.3349 49.4965 76.7353 48.9798L78.5737 46.6072H84.5262C86.1472 46.6072 87.4616 45.336 87.4616 43.7684V16.8926C87.4616 15.3249 86.1472 14.0537 84.5262 14.0537Z" fill="#E5EFFF"/>
<g opacity="0.5">
<path d="M71.9002 34.8986C70.9992 34.8986 70.1538 34.56 69.5183 33.9442C68.5896 33.0486 67.0796 33.0486 66.1535 33.9442C64.8378 35.2142 62.7003 35.2142 61.3871 33.9442C60.9379 33.5099 60.3408 33.2709 59.7041 33.2709C59.0686 33.2709 58.4715 33.5099 58.0237 33.9442C57.3869 34.56 56.5401 34.8986 55.6404 34.8986C54.7408 34.8986 53.894 34.56 53.2585 33.9442C52.3298 33.0474 50.8212 33.0486 49.8938 33.9442C48.5793 35.2142 46.4405 35.2142 45.1273 33.9442C44.9344 33.7577 44.9344 33.4536 45.1273 33.2671C45.3202 33.0806 45.6346 33.0806 45.8275 33.2671C46.7549 34.164 48.2649 34.164 49.1936 33.2671C50.5054 31.9972 52.6429 31.9972 53.9587 33.2671C54.4079 33.7015 55.005 33.9404 55.6404 33.9404C56.2759 33.9404 56.873 33.7015 57.3222 33.2671C57.9576 32.6526 58.8031 32.314 59.7041 32.314C60.605 32.314 61.4518 32.6526 62.0873 33.2671C63.0147 34.164 64.5247 34.164 65.4534 33.2671C66.7665 31.9985 68.904 31.9972 70.2198 33.2671C70.669 33.7015 71.2661 33.9404 71.9015 33.9404C72.537 33.9404 73.1341 33.7015 73.5833 33.2671C74.2187 32.6526 75.0655 32.3127 75.9652 32.3127C76.8648 32.3127 77.7116 32.6513 78.3471 33.2671C78.5399 33.4536 78.5399 33.7577 78.3471 33.9442C78.1542 34.1308 77.8398 34.1308 77.6469 33.9442C77.1977 33.5099 76.6006 33.2709 75.9652 33.2709C75.3297 33.2709 74.7326 33.5099 74.2834 33.9442C73.6467 34.56 72.8012 34.8986 71.9002 34.8986Z" fill="#ABCDFF"/>
</g>
<g opacity="0.5">
<path d="M71.9002 30.0398C70.9992 30.0398 70.1538 29.7012 69.5183 29.0854C68.5896 28.1898 67.0796 28.1898 66.1535 29.0854C64.8378 30.3554 62.7003 30.3554 61.3871 29.0854C60.9379 28.651 60.3408 28.4121 59.7041 28.4121C59.0686 28.4121 58.4715 28.651 58.0237 29.0854C57.3869 29.7012 56.5401 30.0398 55.6404 30.0398C54.7408 30.0398 53.894 29.7012 53.2585 29.0854C52.3298 28.1898 50.8212 28.1898 49.8938 29.0854C48.5793 30.3566 46.4405 30.3554 45.1273 29.0854C44.9344 28.8989 44.9344 28.5948 45.1273 28.4083C45.3202 28.2217 45.6346 28.2217 45.8275 28.4083C46.7549 29.3052 48.2649 29.3052 49.1923 28.4083C50.5041 27.1396 52.6416 27.1383 53.9574 28.4083C54.4065 28.8427 55.0037 29.0829 55.6391 29.0829C56.2746 29.0829 56.8717 28.8439 57.3208 28.4096C57.9563 27.795 58.8018 27.4565 59.7027 27.4565C60.6037 27.4565 61.4505 27.795 62.086 28.4096C63.0134 29.3064 64.5233 29.3064 65.4521 28.4096C66.7652 27.1409 68.9027 27.1409 70.2185 28.4096C70.6677 28.8439 71.2648 29.0841 71.9002 29.0841C72.5357 29.0841 73.1328 28.8452 73.5819 28.4108C74.2174 27.7963 75.0642 27.4577 75.9638 27.4577C76.8635 27.4577 77.7103 27.7963 78.3457 28.4108C78.5386 28.5974 78.5386 28.9014 78.3457 29.088C78.1529 29.2745 77.8384 29.2745 77.6456 29.088C77.1964 28.6536 76.5993 28.4147 75.9638 28.4147C75.3284 28.4147 74.7313 28.6536 74.2821 29.088C73.6467 29.7012 72.8012 30.0398 71.9002 30.0398Z" fill="#ABCDFF"/>
</g>
<path opacity="0.5" d="M71.9002 25.1824C70.9992 25.1824 70.1538 24.8438 69.5183 24.228C68.5896 23.3324 67.0796 23.3324 66.1535 24.228C64.8378 25.4979 62.7003 25.4979 61.3871 24.228C60.9379 23.7936 60.3408 23.5547 59.7041 23.5547C59.0686 23.5547 58.4715 23.7936 58.0237 24.228C57.3869 24.8438 56.5401 25.1824 55.6404 25.1824C54.7408 25.1824 53.894 24.8438 53.2585 24.228C52.3298 23.3324 50.8212 23.3324 49.8938 24.228C48.5793 25.4992 46.4405 25.4979 45.1273 24.228C44.9344 24.0415 44.9344 23.7374 45.1273 23.5509C45.3202 23.3643 45.6346 23.3643 45.8275 23.5509C46.7549 24.4477 48.2649 24.4477 49.1923 23.5509C50.5041 22.2822 52.6416 22.2809 53.9574 23.5509C54.4065 23.9852 55.0037 24.2254 55.6391 24.2254C56.2746 24.2254 56.8717 23.9865 57.3208 23.5521C57.9563 22.9376 58.8018 22.599 59.7027 22.599C60.6037 22.599 61.4505 22.9376 62.086 23.5521C63.0134 24.449 64.5233 24.449 65.4521 23.5521C66.7652 22.2835 68.9027 22.2835 70.2185 23.5521C70.6677 23.9865 71.2648 24.2267 71.9002 24.2267C72.5357 24.2267 73.1328 23.9878 73.5819 23.5534C74.2174 22.9389 75.0642 22.6003 75.9638 22.6003C76.8635 22.6003 77.7103 22.9389 78.3457 23.5534C78.5386 23.7399 78.5386 24.044 78.3457 24.2305C78.1529 24.4171 77.8384 24.4171 77.6456 24.2305C77.1964 23.7962 76.5993 23.5572 75.9638 23.5572C75.3284 23.5572 74.7313 23.7962 74.2821 24.2305C73.6467 24.8425 72.8012 25.1824 71.9002 25.1824Z" fill="#ABCDFF"/>
<path d="M39.6212 27.111C39.4687 26.8302 39.1716 26.6539 38.8483 26.6539H34.8058L36.1746 22.6068C36.3131 22.1955 36.1221 21.7471 35.7286 21.557C35.3325 21.3669 34.8575 21.4931 34.6148 21.8543L29.357 29.6305C29.1773 29.8958 29.1607 30.2362 29.3131 30.517C29.4647 30.7987 29.7618 30.9741 30.0852 30.9741H34.1276L32.7588 35.0212C32.6203 35.4325 32.8114 35.8809 33.2048 36.071C33.3293 36.1306 33.4607 36.1582 33.5904 36.1582C33.8752 36.1582 34.153 36.0209 34.3204 35.7737L39.5782 27.9975C39.757 27.7331 39.7736 27.3918 39.6212 27.111Z" fill="#ABCDFF"/>
</svg>
