<svg xmlns="http://www.w3.org/2000/svg" xmlns:xlink="http://www.w3.org/1999/xlink" width="15" height="13" viewBox="0 0 15 13">
    <defs>
        <path id="a" d="M12.144 8.113c.025-.2.043-.4.043-.613a4.87 4.87 0 0 0-.043-.612l1.319-1.032a.315.315 0 0 0 .075-.4l-1.25-2.162a.314.314 0 0 0-.382-.138l-1.556.625a4.566 4.566 0 0 0-1.056-.612l-.238-1.657a.305.305 0 0 0-.306-.262h-2.5a.305.305 0 0 0-.306.262L5.706 3.17a4.802 4.802 0 0 0-1.056.612l-1.556-.625a.305.305 0 0 0-.382.138l-1.25 2.162a.308.308 0 0 0 .075.4l1.32 1.032c-.026.2-.045.406-.045.612 0 .206.02.412.044.613l-1.319 1.03a.315.315 0 0 0-.075.4l1.25 2.163c.075.138.244.188.382.138l1.556-.625c.325.25.675.456 1.056.612l.238 1.657c.018.15.15.262.306.262h2.5a.305.305 0 0 0 .306-.262l.238-1.657a4.802 4.802 0 0 0 1.056-.612l1.556.625c.144.056.306 0 .381-.138l1.25-2.162a.315.315 0 0 0-.075-.4l-1.318-1.031zM7.5 9.688A2.19 2.19 0 0 1 5.312 7.5 2.19 2.19 0 0 1 7.5 5.312 2.19 2.19 0 0 1 9.688 7.5 2.19 2.19 0 0 1 7.5 9.688z"/>
    </defs>
    <g fill="none" fill-rule="evenodd" transform="translate(2 -1)">
        <path d="M0 0h15v15H0z"/>
        <mask id="b" fill="#fff">
            <use xlink:href="#a"/>
        </mask>
        <path fill="#FFF" d="M0 0h15v15H0z" mask="url(#b)"/>
    </g>
</svg>
