<svg width="24" height="24" viewBox="0 0 24 24" fill="none" xmlns="http://www.w3.org/2000/svg">
<g clip-path="url(#clip0_1254_69138)">
<path d="M11.7817 21.3367C17.0442 21.3367 21.325 17.0558 21.325 11.7933C21.325 6.53085 17.0442 2.25 11.7817 2.25C6.51919 2.25 2.23834 6.53085 2.23834 11.7933C2.23834 17.0558 6.51919 21.3367 11.7817 21.3367Z" fill="url(#paint0_radial_1254_69138)"/>
<path d="M2.6842 11.7939C2.6842 16.8191 6.75702 20.8919 11.7822 20.8919C16.8074 20.8919 20.8802 16.8191 20.8802 11.7939C20.8802 6.76868 16.8074 2.69586 11.7822 2.69586C6.75702 2.69586 2.6842 6.76868 2.6842 11.7939Z" fill="url(#paint1_radial_1254_69138)"/>
<path opacity="0.8" d="M6.19415 10.8604C6.19415 14.7967 9.3926 17.9919 13.3387 17.9919C17.2847 17.9919 20.4864 14.8 20.4864 10.8604C20.4864 6.92414 17.288 3.72894 13.3387 3.72894C9.39585 3.73219 6.19415 6.92414 6.19415 10.8604Z" fill="url(#paint2_radial_1254_69138)"/>
<path d="M16.9596 9.76179C16.8946 11.335 17.769 12.684 18.9132 12.7717C20.0541 12.8627 21.0357 11.6601 21.1007 10.0868C21.1625 8.51362 20.2881 7.16468 19.1439 7.07367C17.9998 6.9859 17.0214 8.18857 16.9596 9.76179Z" fill="white"/>
<path opacity="0.8" d="M18.8611 13.6427C17.3789 13.5257 16.238 11.8745 16.316 9.9632C16.3908 8.10719 17.5805 6.65424 19.0204 6.65424C19.0757 6.65424 19.1342 6.65749 19.1894 6.66074C20.6716 6.77775 21.8125 8.42898 21.7345 10.3403C21.6598 12.1963 20.4701 13.6492 19.0269 13.6492C18.9749 13.6492 18.9196 13.646 18.8611 13.6427ZM16.7743 9.9827C16.7061 11.6502 17.6585 13.0869 18.8936 13.1844C18.9391 13.1876 18.9847 13.1876 19.0302 13.1876C20.2263 13.1876 21.2145 11.9297 21.2795 10.3207C21.3477 8.65327 20.3953 7.21656 19.1569 7.11905C19.1114 7.1158 19.0659 7.11255 19.0204 7.11255C17.8275 7.1158 16.8394 8.37373 16.7743 9.9827Z" fill="url(#paint3_radial_1254_69138)"/>
<path d="M19.0302 13.1909C20.3498 13.1909 21.4387 11.8355 21.507 10.103C21.5818 8.31201 20.5351 6.7713 19.1732 6.66403C19.1212 6.66078 19.0724 6.65753 19.0204 6.65753C17.7007 6.65753 16.6151 8.01297 16.5436 9.74546C16.4688 11.5365 17.5154 13.0772 18.8774 13.1877C18.9294 13.1877 18.9782 13.1909 19.0302 13.1909Z" fill="#93582F"/>
<path d="M21.0942 10.0868C21.1592 8.51363 20.2848 7.16469 19.1407 7.07693C17.9965 6.98591 17.0214 8.18858 16.9563 9.7618C16.8913 11.335 17.7657 12.684 18.9099 12.7717C20.0508 12.8627 21.0324 11.6601 21.0942 10.0868Z" fill="white"/>
<path d="M7.75111 9.6773C7.57559 11.7283 8.97654 13.5421 10.8813 13.7241C12.7861 13.9061 14.4763 12.3882 14.6518 10.3339C14.8274 8.27961 13.4232 6.4691 11.5184 6.28708C9.61363 6.10505 7.92664 7.62302 7.75111 9.6773Z" fill="white"/>
<path opacity="0.8" d="M10.8228 14.5919C8.5702 14.3774 6.90597 12.2516 7.114 9.85272C7.30577 7.5774 9.06752 5.85791 11.2128 5.85791C11.3396 5.85791 11.4631 5.86441 11.5834 5.87416C13.8359 6.08869 15.5002 8.21449 15.2954 10.6133C15.1036 12.8529 13.3029 14.6081 11.1933 14.6081C11.0698 14.6081 10.9463 14.6016 10.8228 14.5919ZM7.56906 9.88847C7.38379 12.037 8.86274 13.9418 10.865 14.1336C10.9723 14.1433 11.0828 14.1498 11.1901 14.1498C13.0623 14.1498 14.6648 12.5799 14.8338 10.5743C15.0191 8.42577 13.5401 6.521 11.5346 6.33248C11.4306 6.32273 11.3233 6.31622 11.2096 6.31622C9.30805 6.31622 7.74134 7.85369 7.56906 9.88847Z" fill="url(#paint4_radial_1254_69138)"/>
<path d="M11.1903 14.1498C13.1829 14.1498 14.8829 12.4888 15.0616 10.3662C15.2567 8.09091 13.6834 6.07563 11.5544 5.8741C11.4374 5.86435 11.3236 5.85785 11.2066 5.85785C9.18481 5.85785 7.52057 7.48308 7.33855 9.64138C7.14352 11.9167 8.71674 13.932 10.8425 14.1335C10.9596 14.1433 11.0766 14.1498 11.1903 14.1498Z" fill="#93582F"/>
<path d="M14.6518 10.3306C14.8274 8.27956 13.4232 6.46581 11.5184 6.28378C9.61363 6.10176 7.92664 7.61972 7.75111 9.67401C7.57559 11.7283 8.97654 13.5388 10.8813 13.7208C12.7861 13.9028 14.4763 12.3849 14.6518 10.3306Z" fill="white"/>
<path d="M8.53119 10.2526C8.41743 10.9645 8.88549 11.6341 9.57784 11.7446C10.2702 11.8551 10.9268 11.3708 11.0405 10.6589C11.1543 9.9471 10.6895 9.2775 9.9939 9.16699C9.2983 9.05322 8.64496 9.54079 8.53119 10.2526Z" fill="url(#paint5_radial_1254_69138)"/>
<path d="M17.2587 9.82674C17.2587 10.3111 17.652 10.7044 18.1363 10.7044C18.6206 10.7044 19.0139 10.3111 19.0139 9.82674C19.0139 9.34242 18.6206 8.94912 18.1363 8.94912C17.652 8.94587 17.2587 9.33917 17.2587 9.82674Z" fill="url(#paint6_radial_1254_69138)"/>
<path d="M14.2065 16.7666V19.6302C14.2065 20.4363 14.8598 21.0897 15.6692 21.0864C16.472 21.0864 17.1254 20.4331 17.1254 19.6302V17.1046C17.1254 17.0266 17.1254 17.0169 17.3042 16.8511C17.4407 16.7243 17.6357 16.5488 17.782 16.2758C18.0063 15.8662 18.003 15.3689 17.7722 14.9821C17.5512 14.6083 17.1579 14.3937 16.6963 14.3937C16.6183 14.3937 16.5403 14.4002 16.4558 14.4132C15.5619 14.5498 14.6615 15.6809 14.4893 15.9052C14.3007 16.1685 14.2065 16.4643 14.2065 16.7666Z" fill="url(#paint7_radial_1254_69138)"/>
<path fill-rule="evenodd" clip-rule="evenodd" d="M16.4558 14.4132C15.5619 14.5498 14.6615 15.6809 14.4893 15.9052C14.3007 16.1685 14.2065 16.4643 14.2065 16.7666V19.6302C14.2065 20.4363 14.8598 21.0897 15.6692 21.0864C16.472 21.0864 17.1254 20.4331 17.1254 19.6302V17.1046C17.1254 17.0266 17.1254 17.0169 17.3042 16.8511C17.3092 16.8464 17.3144 16.8416 17.3196 16.8368C17.4551 16.7112 17.6411 16.5387 17.782 16.2758C18.0063 15.8662 18.003 15.3689 17.7722 14.9821C17.5512 14.6083 17.1579 14.3937 16.6963 14.3937C16.6183 14.3937 16.5403 14.4002 16.4558 14.4132ZM16.8621 16.3744C17.0036 16.243 17.1204 16.134 17.2089 15.9688L17.2104 15.9661L17.2118 15.9635C17.3309 15.7461 17.321 15.4946 17.214 15.3152L17.2126 15.313L17.2126 15.313C17.1177 15.1524 16.9466 15.0438 16.6963 15.0438C16.6557 15.0438 16.611 15.0471 16.5546 15.0558L16.5539 15.0559C16.3075 15.0935 15.98 15.2956 15.6408 15.6059C15.3323 15.8882 15.0956 16.1838 15.0121 16.2918C14.9044 16.4455 14.8566 16.6067 14.8566 16.7666V19.6302C14.8566 20.0769 15.2178 20.4381 15.6666 20.4363L15.6692 20.4363C16.113 20.4363 16.4753 20.074 16.4753 19.6302V17.1046C16.4753 17.1044 16.4753 17.1041 16.4753 17.1035C16.4751 17.093 16.4739 17.0152 16.4899 16.9322C16.5115 16.82 16.5559 16.7251 16.6099 16.6456C16.6791 16.5437 16.7815 16.449 16.8495 16.3861C16.8539 16.382 16.8581 16.3781 16.8621 16.3744Z" fill="url(#paint8_linear_1254_69138)"/>
<path d="M19.9371 4.10908C19.9371 4.10908 19.729 3.94656 19.4365 3.76129C19.2902 3.67027 19.1179 3.57926 18.9359 3.511C18.8449 3.4785 18.7539 3.45249 18.6596 3.43624C18.5654 3.41674 18.4743 3.41349 18.3801 3.41024C18.3411 3.41349 18.2663 3.41674 18.2598 3.41674C18.2078 3.42649 18.1233 3.43299 18.0973 3.44599C18.0355 3.45899 17.9348 3.48825 17.8503 3.52725C17.6747 3.59876 17.509 3.69628 17.3562 3.78404C17.0441 3.98232 16.8361 4.11234 16.8361 4.11234C16.8361 4.11234 16.8621 3.8393 17.0767 3.5045C17.1807 3.33548 17.3367 3.1567 17.561 3.00718C17.6747 2.93242 17.7918 2.87066 17.9575 2.8219C18.042 2.7959 18.081 2.7959 18.1493 2.77965C18.2598 2.76665 18.3086 2.77315 18.3898 2.7699C18.6889 2.77965 18.9749 2.88041 19.1959 3.02668C19.417 3.17295 19.5763 3.35173 19.6835 3.5175C19.9078 3.84255 19.9371 4.10908 19.9371 4.10908Z" fill="#5E2110"/>
<path d="M9.73712 4.10927C9.73712 4.10927 9.77613 4.04752 9.85414 3.94675C9.93215 3.84599 10.0524 3.71272 10.2117 3.56645C10.5302 3.28041 11.0146 2.92611 11.6419 2.80259C11.7979 2.77009 11.9637 2.76034 12.1295 2.77009C12.1587 2.77334 12.1522 2.76684 12.2107 2.77659L12.2595 2.78634C12.2952 2.79284 12.3212 2.79609 12.3635 2.80584C12.4513 2.83185 12.5455 2.8611 12.6105 2.89685C12.8998 3.03337 13.0948 3.2349 13.2281 3.42018C13.4946 3.79398 13.5239 4.10927 13.5239 4.10927C13.5239 4.10927 13.4621 4.07027 13.3516 4.00201C13.2444 3.937 13.1013 3.83949 12.9291 3.74197C12.76 3.64121 12.5683 3.54044 12.3732 3.47869C12.3212 3.45593 12.2855 3.45918 12.2465 3.44293C12.2237 3.43643 12.1815 3.43318 12.1522 3.42668L12.1035 3.42018C12.1295 3.42343 12.0872 3.42018 12.0807 3.42018C11.9734 3.41043 11.8629 3.41693 11.7427 3.42993C11.6256 3.44618 11.5054 3.46893 11.3851 3.49819C11.2648 3.52744 11.1478 3.56645 11.0276 3.6022C10.7968 3.68346 10.5725 3.76473 10.384 3.84599C10.1922 3.924 10.0297 3.99226 9.9159 4.03776C9.80538 4.08327 9.73712 4.10927 9.73712 4.10927Z" fill="#5E2110"/>
<path d="M18.1883 9.22219C18.1883 9.43672 18.3606 9.609 18.5751 9.609C18.7896 9.609 18.9619 9.43672 18.9619 9.22219C18.9619 9.00766 18.7896 8.83539 18.5751 8.83539C18.3606 8.83539 18.1883 9.00766 18.1883 9.22219Z" fill="white"/>
<path d="M9.95166 9.67731C9.95166 9.9601 10.1792 10.1876 10.462 10.1876C10.7448 10.1876 10.9723 9.9601 10.9723 9.67731C10.9723 9.39452 10.7448 9.16699 10.462 9.16699C10.1824 9.16699 9.95166 9.39452 9.95166 9.67731Z" fill="white"/>
</g>
<defs>
<radialGradient id="paint0_radial_1254_69138" cx="0" cy="0" r="1" gradientUnits="userSpaceOnUse" gradientTransform="translate(11.7819 11.7933) rotate(180) scale(9.54347)">
<stop stop-color="#FFAD2C"/>
<stop offset="0.0575" stop-color="#FBA92B"/>
<stop offset="0.6768" stop-color="#D1851F"/>
<stop offset="0.9946" stop-color="#C1771B"/>
</radialGradient>
<radialGradient id="paint1_radial_1254_69138" cx="0" cy="0" r="1" gradientUnits="userSpaceOnUse" gradientTransform="translate(13.5778 7.73725) rotate(180) scale(14.0962)">
<stop stop-color="#FCF273"/>
<stop offset="0.1467" stop-color="#FCF06F"/>
<stop offset="0.29" stop-color="#FCE863"/>
<stop offset="0.4319" stop-color="#FDDC50"/>
<stop offset="0.573" stop-color="#FECB34"/>
<stop offset="0.7123" stop-color="#FFB411"/>
<stop offset="0.7639" stop-color="#FFAB02"/>
<stop offset="0.8321" stop-color="#FEB512"/>
<stop offset="1" stop-color="#FCCA35"/>
</radialGradient>
<radialGradient id="paint2_radial_1254_69138" cx="0" cy="0" r="1" gradientUnits="userSpaceOnUse" gradientTransform="translate(13.4281 9.11919) rotate(180) scale(10.2656 10.1687)">
<stop stop-color="#FCFFC7"/>
<stop offset="0.1297" stop-color="#FCFDC1" stop-opacity="0.8668"/>
<stop offset="0.3034" stop-color="#FCF6B0" stop-opacity="0.6882"/>
<stop offset="0.5022" stop-color="#FCEB94" stop-opacity="0.4839"/>
<stop offset="0.7195" stop-color="#FCDC6D" stop-opacity="0.2606"/>
<stop offset="0.9495" stop-color="#FCC93C" stop-opacity="0.0242"/>
<stop offset="0.9731" stop-color="#FCC736" stop-opacity="0"/>
</radialGradient>
<radialGradient id="paint3_radial_1254_69138" cx="0" cy="0" r="1" gradientUnits="userSpaceOnUse" gradientTransform="translate(15.2868 16.6744) rotate(180) scale(12.9739 12.9739)">
<stop stop-color="#FCFFE1"/>
<stop offset="0.1346" stop-color="#FCFFDA" stop-opacity="0.8617"/>
<stop offset="0.3288" stop-color="#FCFFC7" stop-opacity="0.6621"/>
<stop offset="0.5591" stop-color="#FCFFA8" stop-opacity="0.4255"/>
<stop offset="0.815" stop-color="#FCFF7C" stop-opacity="0.1625"/>
<stop offset="0.9731" stop-color="#FCFF5E" stop-opacity="0"/>
</radialGradient>
<radialGradient id="paint4_radial_1254_69138" cx="0" cy="0" r="1" gradientUnits="userSpaceOnUse" gradientTransform="translate(15.2868 16.6738) rotate(180) scale(12.9736 12.9736)">
<stop stop-color="#FCFFE1"/>
<stop offset="0.1346" stop-color="#FCFFDA" stop-opacity="0.8617"/>
<stop offset="0.3288" stop-color="#FCFFC7" stop-opacity="0.6621"/>
<stop offset="0.5591" stop-color="#FCFFA8" stop-opacity="0.4255"/>
<stop offset="0.815" stop-color="#FCFF7C" stop-opacity="0.1625"/>
<stop offset="0.9731" stop-color="#FCFF5E" stop-opacity="0"/>
</radialGradient>
<radialGradient id="paint5_radial_1254_69138" cx="0" cy="0" r="1" gradientUnits="userSpaceOnUse" gradientTransform="translate(9.7845 10.4562) rotate(180) scale(1.28936)">
<stop stop-color="#753925"/>
<stop offset="0.5923" stop-color="#612B1C"/>
<stop offset="1" stop-color="#592618"/>
</radialGradient>
<radialGradient id="paint6_radial_1254_69138" cx="0" cy="0" r="1" gradientUnits="userSpaceOnUse" gradientTransform="translate(18.1379 9.8258) rotate(180) scale(0.87902)">
<stop stop-color="#753925"/>
<stop offset="0.5923" stop-color="#612B1C"/>
<stop offset="1" stop-color="#592618"/>
</radialGradient>
<radialGradient id="paint7_radial_1254_69138" cx="0" cy="0" r="1" gradientUnits="userSpaceOnUse" gradientTransform="translate(16.0769 17.7403) rotate(180) scale(1.90865 3.28204)">
<stop stop-color="#913214"/>
<stop offset="0.00537634" stop-color="#A8340F"/>
<stop offset="0.2962" stop-color="#A33210"/>
<stop offset="0.6486" stop-color="#942B13"/>
<stop offset="1" stop-color="#7E2118"/>
</radialGradient>
<linearGradient id="paint8_linear_1254_69138" x1="16.0771" y1="14.3937" x2="16.0771" y2="21.0864" gradientUnits="userSpaceOnUse">
<stop stop-color="#FDD249"/>
<stop offset="1" stop-color="#FEB918"/>
</linearGradient>
<clipPath id="clip0_1254_69138">
<rect width="24" height="24" fill="white"/>
</clipPath>
</defs>
</svg>
