<?xml version="1.0" encoding="UTF-8" standalone="no"?>
<svg width="16px" height="16px" viewBox="0 0 16 16" version="1.1" xmlns="http://www.w3.org/2000/svg" xmlns:xlink="http://www.w3.org/1999/xlink">
    <!-- Generator: Sketch 46.2 (44496) - http://www.bohemiancoding.com/sketch -->
    <title>tooltip-icon-star</title>
    <desc>Created with Sketch.</desc>
    <defs></defs>
    <g id="-" stroke="none" stroke-width="1" fill="none" fill-rule="evenodd">
        <g id="Message-List" transform="translate(-66.000000, -679.000000)" fill="#EFBD00">
            <path d="M81.9404521,684.96577 C81.8021386,684.553115 81.4454955,684.25134 81.0191241,684.185041 L76.8548591,683.546056 L75.0453528,679.667563 C74.8556004,679.260624 74.4475185,679 74.0005715,679 C73.5513385,679 73.1443996,679.260624 72.9535041,679.667563 L71.1439978,683.546056 L66.9808759,684.185041 C66.5533614,684.25134 66.1978614,684.553115 66.0595479,684.96577 C65.9223775,685.379567 66.0263984,685.834516 66.3281733,686.145435 L69.3790718,689.290067 L68.6715011,693.652086 C68.5994867,694.092174 68.7846667,694.532263 69.1458821,694.789457 C69.3436362,694.9312 69.5779689,695.003214 69.8111586,695.003214 C70.0031972,695.003214 70.1952358,694.954062 70.370128,694.858042 L74.0005715,692.839351 L77.629872,694.858042 C77.8047642,694.954062 77.9968028,695.003214 78.1888414,695.003214 C78.4220311,695.003214 78.6552208,694.9312 78.8541179,694.789457 C79.2153333,694.532263 79.3993702,694.092174 79.3284989,693.652086 L78.6197851,689.290067 L81.6718267,686.145435 C81.9736016,685.834516 82.0776225,685.378424 81.9404521,684.96577" id="tooltip-icon-star"></path>
        </g>
    </g>
</svg>