<svg xmlns="http://www.w3.org/2000/svg" width="60" height="50" viewBox="0 0 60 50">
    <defs>
        <linearGradient id="pg87l7tqca" x1="50%" x2="50%" y1="10.719%" y2="100%">
            <stop offset="0%" stop-color="#FFF0D1"/>
            <stop offset="100%" stop-color="#FDE1B1"/>
        </linearGradient>
    </defs>
    <g fill="none" fill-rule="evenodd">
        <g>
            <g transform="translate(-182 -312) translate(182 312)">
                <path fill="url(#pg87l7tqca)" d="M32.708 5.074l23.31 38.63c1.021 1.69.478 3.889-1.213 4.91-.558.336-1.197.514-1.848.514H6.335c-1.975 0-3.576-1.601-3.576-3.577 0-.651.178-1.29.514-1.848l23.31-38.629c1.021-1.69 3.22-2.234 4.911-1.214.497.3.914.717 1.214 1.214z"/>
                <circle cx="30.07" cy="39.387" r="2.118" fill="#F9A716"/>
                <path fill="#F9A716" fill-rule="nonzero" d="M27.952 19.721v13.074c0 1.068.948 1.933 2.118 1.933s2.117-.865 2.117-1.933V19.72c0-1.068-.948-1.933-2.117-1.933-1.17 0-2.118.865-2.118 1.933z"/>
            </g>
        </g>
    </g>
</svg>
