<svg xmlns="http://www.w3.org/2000/svg" width="19" height="19" viewBox="0 0 19 19">
    <path fill="#0068ff" fill-rule="nonzero" d="M9.5 3.167a5.93 5.93 0 0 1 5.819 4.781A3.94 3.94 0 0 1 19 11.875a3.96 3.96 0 0 1-3.958 3.958H4.75c-2.62 0-4.75-2.13-4.75-4.75a4.745 4.745 0 0 1 4.235-4.718A5.934 5.934 0 0 1 9.5 3.167zm0 1.583a4.355 4.355 0 0 0-4.188 3.167H4.75a3.166 3.166 0 1 0 0 6.333h10.292a2.372 2.372 0 0 0 2.375-2.375A2.372 2.372 0 0 0 15.042 9.5h-1.188v-.396A4.352 4.352 0 0 0 9.5 4.75zm1.642 3.249v.882L9.305 11.21h1.898v.99H7.68v-.888l1.94-2.323h-1.82V8h3.343z"/>
</svg>
