<?xml version="1.0" encoding="UTF-8"?>
<svg width="74px" height="62px" viewBox="0 0 74 62" version="1.1" xmlns="http://www.w3.org/2000/svg" xmlns:xlink="http://www.w3.org/1999/xlink">
    <title>Artboard</title>
    <g id="Artboard" stroke="none" stroke-width="1" fill="none" fill-rule="evenodd">
        <path d="M6.57087,21.1582 C7.72906,21.1582 8.66796,22.0971 8.66796,23.2553 C8.66796,24.4135 7.72906,25.3524 6.57087,25.3524 L4.8857,25.3524 C4.79367,25.3524 4.64292,25.3916 4.48689,25.5686 C4.32335,25.7541 4.19417,26.0563 4.19417,26.4183 L4.19417,47.6738 C4.19417,48.0358 4.32335,48.338 4.48689,48.5235 C4.64292,48.7005 4.79367,48.7397 4.8857,48.7397 L9.90521,48.7397 C11.0634,48.7397 12.0023,49.6786 12.0023,50.8368 L12.0023,55.0466 L18.5569,49.2642 C18.94,48.9262 19.4333,48.7397 19.9442,48.7397 L35.4985,48.7397 C36.6567,48.7397 37.5956,49.6786 37.5956,50.8368 C37.5956,51.995 36.6567,52.9339 35.4985,52.9339 L20.737,52.9339 L11.2926,61.2658 C10.6744,61.8112 9.79396,61.9438 9.04255,61.6046 C8.29114,61.2655 7.80813,60.5176 7.80813,59.6932 L7.80813,52.9339 L4.8857,52.9339 C3.49856,52.9339 2.23072,52.3066 1.34082,51.2972 C0.458423,50.2963 0,48.9895 0,47.6738 L0,26.4183 C0,25.1026 0.458422,23.7957 1.34082,22.7949 C2.23072,21.7855 3.49857,21.1582 4.8857,21.1582 L6.57087,21.1582 Z M66.9049,-0.10801 C68.7147526,-0.10801 70.4543305,0.573108006 71.7810598,1.79339999 L71.9983,2.00175 C73.3491,3.3526 74.108,5.18475 74.108,7.09515 L74.108,37.666 L74.108,37.666 C74.108,39.2853 73.5786,40.5609 73.0554,41.422 C72.7941,41.852 72.5299,42.1869 72.3217,42.4228 C72.2172,42.5414 72.1253,42.6366 72.0528,42.7081 C72.0166,42.744 71.985,42.774 71.959,42.7981 C71.946,42.8102 71.9343,42.8209 71.9242,42.83 C71.9191,42.8346 71.9143,42.8389 71.91,42.8427 L71.8982,42.8532 C71.8968,42.8544 71.8953,42.8557 71.8938,42.8571 C71.8906,42.8598 71.8869,42.863 71.8829,42.8665 C71.8748,42.8735 71.8649,42.882 71.8534,42.8918 C71.8303,42.9114 71.8004,42.9365 71.7641,42.9661 C71.6915,43.0254 71.5924,43.1037 71.4698,43.1947 C71.2264,43.3754 70.8809,43.6129 70.4579,43.8514 C69.6485,44.3076 68.3766,44.8692 66.9049,44.8692 L58.822,44.86899 L58.8226,52.4419 C58.8226,53.2428 58.3687,53.9745 57.6513,54.3304 C56.9338,54.6863 56.0767,54.6049 55.439,54.1203 L56.474,52.75699 L55.439,54.1203 L43.267,44.86899 L19.7748,44.8692 L19.7748,44.8692 C18.2997,44.8692 17.0344,44.3055 16.229,43.8452 C15.8089,43.6051 15.4666,43.3658 15.2256,43.1837 C15.1043,43.0919 15.0062,43.0129 14.9342,42.953 C14.8982,42.923 14.8685,42.8976 14.8456,42.8777 L14.8352,42.8685231 C14.835,42.8683 14.8343,42.8677 14.8338,42.8673 L14.8309,42.8647 C14.8289,42.863 14.8268,42.8612 14.8246,42.8593 C14.8202,42.8555 14.8154,42.8513 14.8103,42.8468 L14.8052,42.8422 L14.8028875,42.840125 L14.7978089,42.8354858 L14.8103,42.8468 C14.8,42.8377 14.7882,42.8271 14.775,42.8152 C14.7485,42.7912 14.7164,42.7614 14.6795,42.7258 C14.6057,42.6547 14.512,42.5598 14.4052,42.4416 C14.1926,42.2063 13.922,41.8716 13.6541,41.4412 C13.118,40.5796 12.5716,39.2973 12.5716,37.666 L12.5716,7.09515 L12.5716,7.09515 C12.5716,5.28513 13.0735,3.96093 13.7122,3.04087 C14.0236,2.59233 14.3493,2.26619 14.6235,2.03873 C14.7496139,1.93417242 14.8647805,1.8504827 14.9628238,1.785081 L14.9342,1.8082 C15.0062,1.74829 15.1043,1.66923 15.2256,1.57749 C15.4666,1.39533 15.8089,1.15606 16.229,0.91596 C17.0344,0.45566 18.2997,-0.10801 19.7748,-0.10801 L66.9049,-0.10801 Z M66.9049,4.10801 L19.7748,4.10801 L19.7748,4.10801 C19.3391,4.10801 18.8211,4.29051 18.3209,4.57638 C18.0882,4.70936 17.897,4.84317 17.7678,4.94083 C17.7041,4.98899 17.6579,5.02652 17.6318,5.04822 L17.6163375,5.06126125 L17.6163375,5.06126125 L17.6169125,5.06048625 C17.5231458,5.14502098 17.4191291,5.22265034 17.3087748,5.29021009 C17.3027,5.29402 17.2463,5.34322 17.1755,5.44514 C17.05,5.626 16.7876,6.1032 16.7876,7.09515 L16.7876,37.666 L16.7876,37.666 C16.7876,38.3279 17.0055,38.8471 17.2336,39.2136 C17.3479,39.3972 17.4594,39.5332 17.5335,39.6152 C17.5578333,39.6421333 17.5773222,39.6623556 17.5905148,39.6756593 L17.603,39.68799 L17.5972,39.6833 L17.5936125,39.6800875 C17.588,39.6752 17.5865,39.6739 17.5848,39.6724 L17.581575,39.669675 L17.5803704,39.669655 L17.603,39.68799 L17.611,39.69499 L17.6163375,39.6998625 L17.618,39.70099 L17.6318,39.7129 L17.6318,39.7129 C17.6579,39.7346 17.7041,39.7722 17.7678,39.8203 C17.897,39.918 18.0882,40.0518 18.3209,40.1848 C18.758575,40.4349625 19.2098781,40.6059594 19.6077502,40.6447998 L19.7748,40.6532 L43.976125,40.6532 L43.976125,40.6532 C44.3798125,40.6532 44.7732016,40.7687328 45.1109775,40.9843232 L45.2522,41.0828 L54.606,48.19099 L54.6066,42.7612 C54.6066,41.5969 55.5503,40.6532 56.7146,40.6532 L66.9049,40.6532 C67.3438,40.6532 67.8733,40.4686 68.3876,40.1786 C68.6265,40.044 68.8235,39.9084 68.957,39.8093 C69.0229,39.7604 69.071,39.7222 69.0984,39.6998 L69.0907,39.708 C69.0999,39.6989 69.1246,39.674 69.16,39.6339 C69.2316,39.5526 69.3405,39.4168 69.4523,39.2328 C69.6753,38.8658 69.892,38.3399 69.892,37.666 L69.892,37.666 L69.892,7.09515 C69.892,6.30291 69.5773,5.54312 69.0171,4.98292 C68.4569,4.42273 67.6971,4.10801 66.9049,4.10801 Z M42.1924,12.3589 C42.381,12.3294 42.5742,12.3536 42.7494,12.4287 C42.9256,12.5047 43.0756,12.6297 43.181,12.7885 C43.2865,12.9473 43.3429,13.133 43.3434,13.323 L43.3434,13.323 L43.3434,18.2424 C47.5686,18.4693 55.223,20.3479 55.223,30.9341 C55.223,31.1468 55.1526,31.3537 55.0228,31.5234 C54.893,31.693 54.7108,31.8163 54.5038,31.8745 C54.2968,31.9326 54.0763,31.9225 53.8756,31.8457 C53.6749,31.7689 53.505,31.6296 53.3916,31.4488 C52.3215,29.7779 50.8361,28.4058 49.0771,27.4635 C47.3181,26.5211 45.3441,26.0399 43.3434,26.0656 L43.3434,26.0656 L43.3434,30.9341 C43.3448,31.1246 43.2899,31.3114 43.1854,31.4715 C43.0809,31.6316 42.9313,31.758 42.7551,31.8353 C42.579,31.9126 42.3838,31.9374 42.1935,31.9066 C42.0033,31.8759 41.8263,31.7909 41.6842,31.6621 L41.6842,31.6621 L31.7845,22.8565 C31.6812,22.7647 31.5985,22.6525 31.5419,22.5271 C31.4853,22.4017 31.4561,22.2659 31.4561,22.1285 C31.4561,21.9912 31.4853,21.8554 31.5419,21.73 C31.5985,21.6046 31.6812,21.4924 31.7845,21.4006 L31.7845,21.4006 L41.6842,12.595 C41.8275,12.4702 42.0037,12.3883 42.1924,12.3589 Z" id="Combined-Shape" fill="#E5E7EB" fill-rule="nonzero"></path>
    </g>
</svg>