<svg width="24" height="24" viewBox="0 0 24 24" fill="none" xmlns="http://www.w3.org/2000/svg">
<path fill-rule="evenodd" clip-rule="evenodd" d="M12.1431 11.0054C6.41794 10.8853 2.75465 12.777 2.19415 14.2684C1.63365 15.7597 2.41435 16.9808 2.92481 17.3912C3.43526 17.8115 7.17862 16.9007 8.02938 16.5804C8.88015 16.2602 8.68998 14.7288 8.63993 14.0282C8.61991 13.3375 10.992 13.1374 12.103 13.1273C12.103 13.1273 15.2358 13.3375 15.2659 14.0282C15.2959 14.7188 15.1658 16.2702 16.0466 16.5604C16.9174 16.8507 20.7308 17.7014 21.2312 17.2611C21.7117 16.8407 22.4123 15.5996 21.7617 14.1282C21.1011 12.6769 17.8682 11.1155 12.1431 11.0054Z" fill="#72808E"/>
<path d="M16 5.875L12.9375 8.9375L9 5" stroke="#72808E" stroke-width="1.3" stroke-linecap="round" stroke-linejoin="round"/>
<path d="M9 8.5L9 5L12.5 5" stroke="#72808E" stroke-width="1.3" stroke-linecap="round" stroke-linejoin="round"/>
</svg>
