<svg width="24" height="25" viewBox="0 0 24 25" fill="none" xmlns="http://www.w3.org/2000/svg">
<path fill-rule="evenodd" clip-rule="evenodd" d="M8.15215 14.7816C10.6637 17.8208 16.7844 20.7334 18.2618 20.0791C19.7392 19.4249 20.0558 18.0108 19.9925 17.3565C19.9292 16.7022 16.5734 14.6972 15.7291 14.3173C14.8849 13.9374 13.914 15.1615 13.4497 15.6891C12.9643 16.1957 11.107 14.655 10.3049 13.874C10.3049 13.874 8.19436 11.5102 8.67979 11.0037C9.16523 10.4971 10.3683 9.48405 9.94614 8.66092C9.52403 7.8378 7.39234 4.5453 6.71696 4.50308C6.06268 4.46087 4.6697 4.84078 4.07874 6.33929C3.48777 7.8378 6.31595 13.5575 9.46071 15.9424" fill="#72808E"/>
<path d="M13.9999 9.83339L19.3333 4.50006" stroke="#DB342E" stroke-width="1.3" stroke-linecap="round" stroke-linejoin="round"/>
<path d="M19.3333 9.83338L19.3333 4.50005L13.9999 4.50005" stroke="#DB342E" stroke-width="1.3" stroke-linecap="round" stroke-linejoin="round"/>
</svg>
