<svg width="48" height="48" viewBox="0 0 48 48" fill="none" xmlns="http://www.w3.org/2000/svg">
<g clip-path="url(#clip0_3249_10811)">
<path d="M8.57153 8.28564C8.57153 6.0765 10.3624 4.28564 12.5715 4.28564H30.8572L39.4287 12.8571V39.7142C39.4287 41.9233 37.6378 43.7142 35.4287 43.7142H12.5715C10.3624 43.7142 8.57153 41.9233 8.57153 39.7142V8.28564Z" fill="url(#paint0_linear_3249_10811)"/>
<path d="M32.8573 12.8572L39.4287 12.8572L30.8573 4.28575L30.8573 10.8572C30.8573 11.9617 31.7527 12.8572 32.8573 12.8572Z" fill="#52A0FF"/>
<path d="M14.0625 30H11.1055V22H14.0586C14.8737 22 15.5755 22.1602 16.1641 22.4805C16.7552 22.7982 17.2109 23.2565 17.5313 23.8555C17.8516 24.4518 18.0117 25.1654 18.0117 25.9961C18.0117 26.8294 17.8516 27.5456 17.5313 28.1445C17.2135 28.7435 16.7591 29.2031 16.168 29.5234C15.5768 29.8411 14.875 30 14.0625 30ZM13.0391 28.3516H13.9883C14.4362 28.3516 14.8151 28.276 15.125 28.125C15.4375 27.9714 15.6732 27.7227 15.832 27.3789C15.9935 27.0326 16.0742 26.5716 16.0742 25.9961C16.0742 25.4206 15.9935 24.9622 15.832 24.6211C15.6706 24.2773 15.4323 24.0299 15.1172 23.8789C14.8047 23.7253 14.4193 23.6484 13.9609 23.6484H13.0391V28.3516ZM19.1406 22H21.5352L23.5664 26.9531H23.6602L25.6914 22H28.0859V30H26.2031V25.0859H26.1367L24.2148 29.9492H23.0117L21.0898 25.0586H21.0234V30H19.1406V22ZM34.542 24.6133C34.4977 24.4492 34.4326 24.3047 34.3467 24.1797C34.2607 24.0521 34.1553 23.944 34.0303 23.8555C33.9053 23.7669 33.762 23.7005 33.6006 23.6562C33.4391 23.6094 33.262 23.5859 33.0693 23.5859C32.6813 23.5859 32.3454 23.6797 32.0615 23.8672C31.7803 24.0547 31.5628 24.3281 31.4092 24.6875C31.2555 25.0443 31.1787 25.4779 31.1787 25.9883C31.1787 26.5013 31.2529 26.9388 31.4014 27.3008C31.5498 27.6628 31.7646 27.9388 32.0459 28.1289C32.3271 28.319 32.6683 28.4141 33.0693 28.4141C33.4235 28.4141 33.723 28.3568 33.9678 28.2422C34.2152 28.125 34.4027 27.9596 34.5303 27.7461C34.6579 27.5326 34.7217 27.2812 34.7217 26.9922L35.0811 27.0352H33.1357V25.625H36.585V26.6836C36.585 27.3997 36.4326 28.013 36.1279 28.5234C35.8258 29.0339 35.4092 29.4258 34.8779 29.6992C34.3493 29.9727 33.7412 30.1094 33.0537 30.1094C32.2907 30.1094 31.6201 29.944 31.042 29.6133C30.4639 29.2826 30.0133 28.8112 29.6904 28.1992C29.3675 27.5846 29.2061 26.8555 29.2061 26.0117C29.2061 25.3555 29.3037 24.7734 29.499 24.2656C29.6943 23.7552 29.9665 23.3229 30.3154 22.9687C30.667 22.6146 31.0732 22.3464 31.5342 22.1641C31.9977 21.9818 32.4964 21.8906 33.0303 21.8906C33.4938 21.8906 33.9248 21.957 34.3232 22.0898C34.7243 22.2227 35.0785 22.4102 35.3857 22.6523C35.6956 22.8945 35.9469 23.1823 36.1396 23.5156C36.3324 23.849 36.4521 24.2148 36.499 24.6133H34.542Z" fill="white" fill-opacity="0.85"/>
</g>
<defs>
<linearGradient id="paint0_linear_3249_10811" x1="24.0001" y1="43.7142" x2="24.0001" y2="4.28564" gradientUnits="userSpaceOnUse">
<stop stop-color="#52A0FF"/>
<stop offset="1" stop-color="#006AF5"/>
</linearGradient>
<clipPath id="clip0_3249_10811">
<rect width="48" height="48" fill="white"/>
</clipPath>
</defs>
</svg>
