<?xml version="1.0" encoding="UTF-8"?>
<svg width="24px" height="24px" viewBox="0 0 24 24" version="1.1" xmlns="http://www.w3.org/2000/svg" xmlns:xlink="http://www.w3.org/1999/xlink">
    <title>File_Sketch_24_Line</title>
    <g id="Page-1" stroke="none" stroke-width="1" fill="none" fill-rule="evenodd">
        <g id="File_Sketch_24_Line" fill="#081C36">
            <path d="M5.75,6 C5.75,4.75736 6.75736,3.75 8,3.75 L12.25,3.75 L12.25,8 C12.25,8.9665 13.0335,9.75 14,9.75 L18.25,9.75 L18.25,18 C18.25,19.2426 17.2426,20.25 16,20.25 L8,20.25 C6.75736,20.25 5.75,19.2426 5.75,18 L5.75,6 Z M18.1893,8.25 L13.75,3.81066 L13.75,8 C13.75,8.13807 13.8619,8.25 14,8.25 L18.1893,8.25 Z M8,2.25 C5.92893,2.25 4.25,3.92893 4.25,6 L4.25,18 C4.25,20.0711 5.92893,21.75 8,21.75 L16,21.75 C18.0711,21.75 19.75,20.0711 19.75,18 L19.75,8 C19.75,7.80109 19.671,7.61032 19.5303,7.46967 L14.5303,2.46967 C14.3897,2.32902 14.1989,2.25 14,2.25 L8,2.25 Z" id="Shape"></path>
            <path d="M13.5462,12.9084 C13.5551,12.9838 13.4618,13.0259 13.4111,12.9694 L12.6915,12.1672 C12.6422,12.1122 12.6901,12.0259 12.7628,12.0386 L13.4011,12.15 C13.435,12.1559 13.461,12.1834 13.465,12.2176 L13.5462,12.9084 Z M13.444,14 C13.4989,14 13.5365,14.0552 13.5164,14.1063 L12.0556,17.8162 C12.0297,17.8819 11.9367,17.8819 11.9109,17.8162 L10.4501,14.1063 C10.43,14.0552 10.4676,14 10.5225,14 L13.444,14 Z M10.7202,13.6 C10.6529,13.6 10.6173,13.5203 10.6623,13.4702 L11.9253,12.0645 C11.9562,12.0301 12.0102,12.0301 12.0411,12.0646 L13.3004,13.4703 C13.3453,13.5204 13.3097,13.6 13.2425,13.6 L10.7202,13.6 Z M10.3677,13.1809 C10.3238,13.2316 10.2404,13.2065 10.2318,13.1399 L10.1377,12.4112 C10.1328,12.3727 10.157,12.3364 10.1944,12.3262 L11.1448,12.0672 C11.219,12.047 11.2744,12.1352 11.224,12.1932 L10.3677,13.1809 Z M9.85941,13.5123 C9.86541,13.5588 9.82918,13.6 9.78227,13.6 L8.85543,13.6 C8.7838,13.6 8.75025,13.5114 8.80394,13.4639 L9.63588,12.729 C9.68262,12.6877 9.75652,12.7155 9.76451,12.7774 L9.85941,13.5123 Z M9.90926,14 C9.94131,14 9.97007,14.0197 9.98172,14.0495 L11.0817,16.8689 C11.1143,16.9524 11.0031,17.0157 10.948,16.945 L8.74793,14.1256 C8.70808,14.0746 8.74447,14 8.80925,14 L9.90926,14 Z M13.9847,14.0494 C13.9964,14.0196 14.0251,14 14.0571,14 L15.1571,14 C15.2219,14 15.2583,14.0746 15.2183,14.1257 L13.015,16.9448 C12.9598,17.0154 12.8486,16.952 12.8813,16.8686 L13.9847,14.0494 Z M14.1149,13.6 C14.0755,13.6 14.0423,13.5705 14.0377,13.5313 L13.9384,12.6858 C13.9303,12.6171 14.0093,12.5728 14.0637,12.6156 L15.1397,13.4611 C15.1978,13.5067 15.1656,13.6 15.0917,13.6 L14.1149,13.6 Z" id="Shape" fill-rule="nonzero"></path>
        </g>
    </g>
</svg>