<?xml version="1.0" encoding="UTF-8"?>
<svg width="24px" height="24px" viewBox="0 0 24 24" version="1.1" xmlns="http://www.w3.org/2000/svg" xmlns:xlink="http://www.w3.org/1999/xlink">
    <title>File_pts_24_Line</title>
    <g id="Page-1" stroke="none" stroke-width="1" fill="none" fill-rule="evenodd">
        <g id="File_pts_24_Line" fill="#081C36">
            <path d="M14,2.25 C14.1989,2.25 14.3897,2.32902 14.5303,2.46967 L14.5303,2.46967 L19.5303,7.46967 C19.671,7.61032 19.75,7.80109 19.75,8 L19.75,8 L19.75,18 C19.75,20.0711 18.0711,21.75 16,21.75 L16,21.75 L8,21.75 C5.92893,21.75 4.25,20.0711 4.25,18 L4.25,18 L4.25,6 C4.25,3.92893 5.92893,2.25 8,2.25 L8,2.25 Z M12.25,3.75 L8,3.75 C6.75736,3.75 5.75,4.75736 5.75,6 L5.75,6 L5.75,18 C5.75,19.2426 6.75736,20.25 8,20.25 L8,20.25 L16,20.25 C17.2426,20.25 18.25,19.2426 18.25,18 L18.25,18 L18.25,9.75 L14,9.75 C13.0335,9.75 12.25,8.9665 12.25,8 L12.25,8 L12.25,3.75 Z M14.1293,13.6847 C14.5724,13.6847 14.9219,13.7777 15.1776,13.9638 C15.4332,14.1484 15.5746,14.4027 15.6016,14.7266 L14.6449,14.7521 C14.6349,14.6839 14.608,14.6236 14.5639,14.571 C14.5199,14.517 14.4624,14.4751 14.3913,14.4453 C14.3217,14.4141 14.2408,14.3984 14.1484,14.3984 C14.0277,14.3984 13.9247,14.4226 13.8395,14.4709 C13.7557,14.5192 13.7145,14.5845 13.7159,14.6669 C13.7145,14.7308 13.7401,14.7862 13.7926,14.8331 C13.8466,14.88 13.9425,14.9176 14.0803,14.946 L14.7109,15.0653 C15.0376,15.1278 15.2805,15.2315 15.4396,15.3764 C15.6001,15.5213 15.6811,15.7131 15.6825,15.9517 C15.6811,16.1761 15.6143,16.3714 15.4822,16.5376 C15.3516,16.7038 15.1726,16.8331 14.9453,16.9254 C14.718,17.0163 14.4581,17.0618 14.1655,17.0618 C13.6982,17.0618 13.3295,16.9659 13.0597,16.7741 C12.7912,16.581 12.6378,16.3224 12.5994,15.9986 L13.6286,15.973 C13.6513,16.0923 13.7102,16.1832 13.8054,16.2457 C13.9006,16.3082 14.022,16.3395 14.1697,16.3395 C14.3033,16.3395 14.4119,16.3146 14.4957,16.2649 C14.5795,16.2152 14.6222,16.1491 14.6236,16.0668 C14.6222,15.9929 14.5895,15.9339 14.5256,15.8899 C14.4616,15.8445 14.3615,15.8089 14.2251,15.7834 L13.6541,15.6747 C13.326,15.6151 13.0817,15.505 12.9212,15.3445 C12.7607,15.1825 12.6811,14.9766 12.6825,14.7266 C12.6811,14.5078 12.7393,14.321 12.8572,14.1662 C12.9751,14.0099 13.1428,13.8906 13.3601,13.8082 C13.5774,13.7259 13.8338,13.6847 14.1293,13.6847 Z M10.6328,12.6364 C10.9595,12.6364 11.2415,12.7003 11.4787,12.8281 C11.7173,12.9545 11.9013,13.1314 12.0305,13.3587 C12.1598,13.5845 12.2244,13.8473 12.2244,14.147 C12.2244,14.4482 12.1584,14.7116 12.0263,14.9375 C11.8956,15.1619 11.7088,15.3359 11.4659,15.4595 C11.223,15.5831 10.9347,15.6449 10.6009,15.6449 L9.88494,15.6449 L9.88494,17 L8.83026,17 L8.83026,12.6364 L10.6328,12.6364 Z M10.4048,13.4865 L9.88494,13.4865 L9.88494,14.8139 L10.4048,14.8139 C10.5639,14.8139 10.6967,14.7862 10.8033,14.7308 C10.9112,14.6754 10.9929,14.598 11.0483,14.4986 C11.1037,14.3977 11.1314,14.2805 11.1314,14.147 C11.1314,14.0121 11.1037,13.8956 11.0483,13.7976 C10.9929,13.6982 10.9112,13.6214 10.8033,13.5675 C10.6953,13.5135 10.5625,13.4865 10.4048,13.4865 Z M13.75,3.81066 L13.75,8 C13.75,8.13807 13.8619,8.25 14,8.25 L18.1893,8.25 L13.75,3.81066 Z" id="Combined-Shape"></path>
        </g>
    </g>
</svg>