<?xml version="1.0" encoding="UTF-8"?>
<svg width="24px" height="24px" viewBox="0 0 24 24" version="1.1" xmlns="http://www.w3.org/2000/svg" xmlns:xlink="http://www.w3.org/1999/xlink">
    <title>File_Image_24_Line</title>
    <g id="Page-1" stroke="none" stroke-width="1" fill="none" fill-rule="evenodd">
        <g id="File_Image_24_Line" fill="#081C36">
            <path d="M14,2.25 C14.1989,2.25 14.3897,2.32902 14.5303,2.46967 L14.5303,2.46967 L19.5303,7.46967 C19.671,7.61032 19.75,7.80109 19.75,8 L19.75,8 L19.75,18 C19.75,20.0711 18.0711,21.75 16,21.75 L16,21.75 L8,21.75 C5.92893,21.75 4.25,20.0711 4.25,18 L4.25,18 L4.25,6 C4.25,3.92893 5.92893,2.25 8,2.25 L8,2.25 Z M12.25,3.75 L8,3.75 C6.75736,3.75 5.75,4.75736 5.75,6 L5.75,6 L5.75,18 C5.75,19.2426 6.75736,20.25 8,20.25 L8,20.25 L16,20.25 C17.2426,20.25 18.25,19.2426 18.25,18 L18.25,18 L18.25,9.75 L14,9.75 C13.0335,9.75 12.25,8.9665 12.25,8 L12.25,8 L12.25,3.75 Z M13.2661072,13.0457151 C13.5796331,12.597821 14.239859,12.589328 14.5648431,13.0289065 L14.5648431,13.0289065 L17.4999473,17 L6.50000796,17 L8.23473941,14.9183047 C8.44554592,14.6653729 8.82077661,14.6296428 9.07559528,14.8381172 L9.07559528,14.8381172 L10.1080129,15.6828234 C10.5582848,16.0512465 11.2268645,15.9589577 11.560506,15.4823169 L11.560506,15.4823169 Z M8.61544,11.500046 C9.08275795,11.500046 9.461594,11.878882 9.461594,12.3462 C9.461594,12.813518 9.08275795,13.192354 8.61544,13.192354 C8.14812205,13.192354 7.769286,12.813518 7.769286,12.3462 C7.769286,11.878882 8.14812205,11.500046 8.61544,11.500046 Z M13.75,3.81066 L13.75,8 C13.75,8.13807 13.8619,8.25 14,8.25 L18.1893,8.25 L13.75,3.81066 Z" id="Combined-Shape"></path>
        </g>
    </g>
</svg>