<?xml version="1.0" encoding="UTF-8"?>
<svg width="24px" height="24px" viewBox="0 0 24 24" version="1.1" xmlns="http://www.w3.org/2000/svg" xmlns:xlink="http://www.w3.org/1999/xlink">
    <title>File_TXT_24_Line</title>
    <g id="Page-1" stroke="none" stroke-width="1" fill="none" fill-rule="evenodd">
        <g id="File_TXT_24_Line" fill="#081C36">
            <path d="M14,2.25 C14.1989,2.25 14.3897,2.32902 14.5303,2.46967 L14.5303,2.46967 L19.5303,7.46967 C19.671,7.61032 19.75,7.80109 19.75,8 L19.75,8 L19.75,18 C19.75,20.0711 18.0711,21.75 16,21.75 L16,21.75 L8,21.75 C5.92893,21.75 4.25,20.0711 4.25,18 L4.25,18 L4.25,6 C4.25,3.92893 5.92893,2.25 8,2.25 L8,2.25 Z M12.25,3.75 L8,3.75 C6.75736,3.75 5.75,4.75736 5.75,6 L5.75,6 L5.75,18 C5.75,19.2426 6.75736,20.25 8,20.25 L8,20.25 L16,20.25 C17.2426,20.25 18.25,19.2426 18.25,18 L18.25,18 L18.25,9.75 L14,9.75 C13.0335,9.75 12.25,8.9665 12.25,8 L12.25,8 L12.25,3.75 Z M9.80273,13 L9.80273,13.7852 L8.58984,13.7852 L8.58984,17 L7.63672,17 L7.63672,13.7852 L6.42188,13.7852 L6.42188,13 L9.80273,13 Z M11.2534,13 L11.9839,14.2637 L12.0151,14.2637 L12.7534,13 L13.8354,13 L12.6284,15 L13.8745,17 L12.7651,17 L12.0151,15.7227 L11.9839,15.7227 L11.2339,17 L10.1323,17 L11.3726,15 L10.1636,13 L11.2534,13 Z M17.5854,13 L17.5854,13.7852 L16.3726,13.7852 L16.3726,17 L15.4194,17 L15.4194,13.7852 L14.2046,13.7852 L14.2046,13 L17.5854,13 Z M13.75,3.81066 L13.75,8 C13.75,8.13807 13.8619,8.25 14,8.25 L18.1893,8.25 L13.75,3.81066 Z" id="Combined-Shape"></path>
        </g>
    </g>
</svg>