<?xml version="1.0" encoding="UTF-8"?>
<svg width="24px" height="24px" viewBox="0 0 24 24" version="1.1" xmlns="http://www.w3.org/2000/svg" xmlns:xlink="http://www.w3.org/1999/xlink">
    <title>File_Dmg_24_Line</title>
    <g id="Page-1" stroke="none" stroke-width="1" fill="none" fill-rule="evenodd">
        <g id="File_Dmg_24_Line" fill="#081C36">
            <path d="M14,2.25 C14.1989,2.25 14.3897,2.32902 14.5303,2.46967 L14.5303,2.46967 L19.5303,7.46967 C19.671,7.61032 19.75,7.80109 19.75,8 L19.75,8 L19.75,18 C19.75,20.0711 18.0711,21.75 16,21.75 L16,21.75 L8,21.75 C5.92893,21.75 4.25,20.0711 4.25,18 L4.25,18 L4.25,6 C4.25,3.92893 5.92893,2.25 8,2.25 L8,2.25 Z M12.25,3.75 L8,3.75 C6.75736,3.75 5.75,4.75736 5.75,6 L5.75,6 L5.75,18 C5.75,19.2426 6.75736,20.25 8,20.25 L8,20.25 L16,20.25 C17.2426,20.25 18.25,19.2426 18.25,18 L18.25,18 L18.25,9.75 L14,9.75 C13.0335,9.75 12.25,8.9665 12.25,8 L12.25,8 L12.25,3.75 Z M16.241,12.8139 C16.4517,12.8139 16.6476,12.8441 16.8287,12.9045 C17.011,12.9648 17.172,13.0501 17.3117,13.1602 C17.4526,13.2702 17.5668,13.401 17.6544,13.5526 C17.742,13.7041 17.7964,13.8704 17.8177,14.0515 L16.9282,14.0515 C16.9081,13.9769 16.8785,13.9112 16.8394,13.8544 C16.8003,13.7964 16.7524,13.7473 16.6956,13.707 C16.6388,13.6668 16.5737,13.6366 16.5003,13.6165 C16.4269,13.5952 16.3464,13.5845 16.2588,13.5845 C16.0824,13.5845 15.9297,13.6271 15.8007,13.7124 C15.6729,13.7976 15.574,13.9219 15.5042,14.0852 C15.4343,14.2474 15.3994,14.4445 15.3994,14.6765 C15.3994,14.9097 15.4331,15.1085 15.5006,15.2731 C15.5681,15.4376 15.6657,15.5631 15.7936,15.6495 C15.9214,15.7359 16.0765,15.7791 16.2588,15.7791 C16.4198,15.7791 16.5559,15.7531 16.6672,15.701 C16.7796,15.6477 16.8648,15.5726 16.9229,15.4755 C16.9664,15.402675 16.9935875,15.3202312 17.0044625,15.2281266 L17.008,15.152 L16.289,15.1523 L16.289,14.5114 L17.8568,14.5114 L17.8568,14.9925 C17.8568,15.3181 17.7876,15.5968 17.6491,15.8288 C17.5117,16.0608 17.3224,16.239 17.0809,16.3633 C16.8406,16.4876 16.5642,16.5497 16.2517,16.5497 C15.9049,16.5497 15.6001,16.4746 15.3373,16.3242 C15.0745,16.1739 14.8697,15.9596 14.7229,15.6815 C14.5761,15.4021 14.5028,15.0707 14.5028,14.6871 C14.5028,14.3888 14.5471,14.1243 14.6359,13.8935 C14.7247,13.6615 14.8484,13.465 15.007,13.304 C15.1668,13.143 15.3515,13.0211 15.561,12.9382 C15.7717,12.8554 15.9984,12.8139 16.241,12.8139 Z M7.61754,12.8636 C7.98804,12.8636 8.30705,12.9364 8.57457,13.082 C8.84328,13.2264 9.05043,13.4348 9.19602,13.707 C9.34162,13.9781 9.41442,14.3024 9.41442,14.68 C9.41442,15.0588 9.34162,15.3844 9.19602,15.6566 C9.05161,15.9289 8.84505,16.1378 8.57635,16.2834 C8.30765,16.4278 7.98864,16.5 7.61932,16.5 L6.27521,16.5 L6.27521,12.8636 L7.61754,12.8636 Z M11.016,12.8636 L11.9393,15.1151 L11.9819,15.1151 L12.9052,12.8636 L13.9936,12.8636 L13.9936,16.5 L13.1378,16.5 L13.1378,14.2663 L13.1076,14.2663 L12.234,16.4769 L11.6871,16.4769 L10.8136,14.2539 L10.7834,14.2539 L10.7834,16.5 L9.92756,16.5 L9.92756,12.8636 L11.016,12.8636 Z M7.57315,13.6129 L7.15412,13.6129 L7.15412,15.7507 L7.58558,15.7507 C7.78918,15.7507 7.96141,15.7164 8.10227,15.6477 C8.24432,15.5779 8.35144,15.4648 8.42365,15.3086 C8.49704,15.1512 8.53374,14.9416 8.53374,14.68 C8.53374,14.4184 8.49704,14.2101 8.42365,14.055 C8.35026,13.8988 8.24195,13.7863 8.09872,13.7177 C7.95668,13.6478 7.78149,13.6129 7.57315,13.6129 Z M13.75,3.81066 L13.75,8 C13.75,8.13807 13.8619,8.25 14,8.25 L18.1893,8.25 L13.75,3.81066 Z" id="Combined-Shape"></path>
        </g>
    </g>
</svg>