<?xml version="1.0" encoding="UTF-8"?>
<svg width="24px" height="24px" viewBox="0 0 24 24" version="1.1" xmlns="http://www.w3.org/2000/svg" xmlns:xlink="http://www.w3.org/1999/xlink">
    <title>File_code_24_Line</title>
    <g id="Page-1" stroke="none" stroke-width="1" fill="none" fill-rule="evenodd">
        <g id="File_code_24_Line" fill="#081C36">
            <path d="M14,2.25 C14.1989,2.25 14.3897,2.32902 14.5303,2.46967 L14.5303,2.46967 L19.5303,7.46967 C19.671,7.61032 19.75,7.80109 19.75,8 L19.75,8 L19.75,18 C19.75,20.0711 18.0711,21.75 16,21.75 L16,21.75 L8,21.75 C5.92893,21.75 4.25,20.0711 4.25,18 L4.25,18 L4.25,6 C4.25,3.92893 5.92893,2.25 8,2.25 L8,2.25 Z M12.25,3.75 L8,3.75 C6.75736,3.75 5.75,4.75736 5.75,6 L5.75,6 L5.75,18 C5.75,19.2426 6.75736,20.25 8,20.25 L8,20.25 L16,20.25 C17.2426,20.25 18.25,19.2426 18.25,18 L18.25,18 L18.25,9.75 L14,9.75 C13.0335,9.75 12.25,8.9665 12.25,8 L12.25,8 L12.25,3.75 Z M9.84563,12.1238 C10.0059,11.9587 10.271,11.9587 10.4313,12.1238 L10.4313,12.1238 L10.7033,12.4038 C10.8571,12.5622 10.8571,12.8142 10.7033,12.9726 L10.7033,12.9726 L9.1317,14.5907 C9.07016,14.6541 9.07016,14.7549 9.1317,14.8182 L9.1317,14.8182 L10.7033,16.4363 C10.8571,16.5947 10.8571,16.8467 10.7033,17.0051 L10.7033,17.0051 L10.4313,17.2852 C10.271,17.4502 10.0059,17.4502 9.84563,17.2852 L9.84563,17.2852 L7.61538,14.9889 C7.46154,14.8305 7.46154,14.5785 7.61538,14.4201 L7.61538,14.4201 Z M14.1544,12.1238 L16.3846,14.4201 C16.5385,14.5785 16.5385,14.8305 16.3846,14.9889 L14.1544,17.2852 C13.9941,17.4502 13.729,17.4502 13.5687,17.2852 L13.2967,17.0051 C13.1429,16.8467 13.1429,16.5947 13.2967,16.4363 L14.8683,14.8182 C14.9298,14.7549 14.9298,14.6541 14.8683,14.5907 L13.2967,12.9726 C13.1429,12.8142 13.1429,12.5622 13.2967,12.4038 L13.5687,12.1238 C13.729,11.9587 13.9941,11.9587 14.1544,12.1238 Z M13.75,3.81066 L13.75,8 C13.75,8.13807 13.8619,8.25 14,8.25 L18.1893,8.25 L13.75,3.81066 Z" id="Combined-Shape"></path>
        </g>
    </g>
</svg>