<svg width="48" height="48" viewBox="0 0 48 48" fill="none" xmlns="http://www.w3.org/2000/svg">
<g clip-path="url(#clip0_3069_9382)">
<path d="M8.57153 8.28577C8.57153 6.07663 10.3624 4.28577 12.5715 4.28577H30.8573L39.4287 12.8572V39.7143C39.4287 41.9235 37.6378 43.7143 35.4287 43.7143H12.5715C10.3624 43.7143 8.57153 41.9235 8.57153 39.7143V8.28577Z" fill="url(#paint0_linear_3069_9382)"/>
<path d="M32.8573 12.8572L39.4287 12.8572L30.8573 4.28575L30.8573 10.8572C30.8573 11.9617 31.7527 12.8572 32.8573 12.8572Z" fill="#006AF5"/>
<g opacity="0.85">
<path d="M16.8328 31.7143V20.9143H21.415C22.0528 20.9143 22.6288 21.0686 23.143 21.3772C23.6676 21.6754 24.079 22.0869 24.3773 22.6114C24.6859 23.136 24.8402 23.7274 24.8402 24.3857C24.8402 25.0543 24.6859 25.656 24.3773 26.1909C24.079 26.7257 23.6676 27.1526 23.143 27.4715C22.6288 27.78 22.0528 27.9343 21.415 27.9343H19.147V31.7143H16.8328ZM19.1162 25.8514H21.1528C21.3996 25.8514 21.6208 25.7897 21.8162 25.6663C22.0116 25.5326 22.1659 25.3577 22.279 25.1417C22.4025 24.9257 22.4642 24.6789 22.4642 24.4012C22.4642 24.1234 22.4025 23.8817 22.279 23.676C22.1659 23.46 22.0116 23.2954 21.8162 23.1823C21.6208 23.0589 21.3996 22.9972 21.1528 22.9972H19.1162V25.8514Z" fill="white"/>
<path d="M29.3503 31.8686C28.5891 31.8686 27.9103 31.7452 27.3137 31.4983C26.7274 31.2412 26.2543 30.8914 25.8943 30.4492L27.252 29.2766C27.5708 29.616 27.9257 29.8629 28.3166 30.0172C28.7074 30.1612 29.0983 30.2332 29.4891 30.2332C29.6434 30.2332 29.7823 30.2177 29.9057 30.1869C30.0394 30.1457 30.1526 30.0943 30.2451 30.0326C30.3377 29.9606 30.4046 29.8783 30.4457 29.7857C30.4971 29.6829 30.5228 29.5749 30.5228 29.4617C30.5228 29.2354 30.4303 29.0555 30.2451 28.9217C30.1423 28.8703 29.9828 28.8086 29.7668 28.7366C29.5508 28.6543 29.2731 28.5669 28.9337 28.4743C28.4091 28.3406 27.9617 28.1863 27.5914 28.0115C27.2314 27.8263 26.9434 27.6206 26.7274 27.3943C26.5423 27.1783 26.3983 26.9469 26.2954 26.7C26.2028 26.4429 26.1566 26.16 26.1566 25.8514C26.1566 25.4812 26.2388 25.1469 26.4034 24.8486C26.568 24.54 26.7943 24.2777 27.0823 24.0617C27.3806 23.8457 27.72 23.6812 28.1006 23.568C28.4811 23.4446 28.8823 23.3829 29.304 23.3829C29.7257 23.3829 30.1371 23.4343 30.5383 23.5372C30.9394 23.64 31.3097 23.7892 31.6491 23.9846C31.9988 24.1697 32.3023 24.3909 32.5594 24.648L31.3868 25.944C31.2017 25.7692 30.9908 25.6097 30.7543 25.4657C30.528 25.3217 30.2914 25.2086 30.0446 25.1263C29.7977 25.044 29.5766 25.0029 29.3811 25.0029C29.2063 25.0029 29.0468 25.0183 28.9028 25.0492C28.7691 25.08 28.656 25.1263 28.5634 25.188C28.4708 25.2497 28.3988 25.332 28.3474 25.4349C28.3063 25.5274 28.2857 25.6303 28.2857 25.7434C28.2857 25.8566 28.3114 25.9646 28.3628 26.0675C28.4246 26.1703 28.5068 26.2577 28.6097 26.3297C28.7228 26.3914 28.8874 26.4635 29.1034 26.5457C29.3297 26.628 29.6331 26.7206 30.0137 26.8235C30.5074 26.9572 30.924 27.1063 31.2634 27.2709C31.6131 27.4355 31.8908 27.6257 32.0966 27.8417C32.2714 28.0269 32.4 28.2377 32.4823 28.4743C32.5646 28.7109 32.6057 28.9732 32.6057 29.2612C32.6057 29.7652 32.4617 30.2177 32.1737 30.6189C31.896 31.0097 31.5103 31.3183 31.0166 31.5446C30.5228 31.7606 29.9674 31.8686 29.3503 31.8686Z" fill="white"/>
</g>
</g>
<defs>
<linearGradient id="paint0_linear_3069_9382" x1="24.0001" y1="43.7143" x2="24.0001" y2="4.28577" gradientUnits="userSpaceOnUse">
<stop stop-color="#006AF5"/>
<stop offset="1" stop-color="#0250B6"/>
</linearGradient>
<clipPath id="clip0_3069_9382">
<rect width="48" height="48" fill="white"/>
</clipPath>
</defs>
</svg>
