<?xml version="1.0" encoding="UTF-8"?>
<svg width="16px" height="16px" viewBox="0 0 16 16" version="1.1" xmlns="http://www.w3.org/2000/svg" xmlns:xlink="http://www.w3.org/1999/xlink">
    <title>Slice</title>
    <g id="Page-1" stroke="none" stroke-width="1" fill="none" fill-rule="evenodd">
        <g id="Attention-Circle_16-(1)" transform="translate(1.000000, 1.000000)" fill="#F38303" fill-rule="nonzero">
            <path d="M7,0 C10.866,0 14,3.13401 14,7 C14,10.866 10.866,14 7,14 C3.13401,14 0,10.866 0,7 C0,3.13401 3.13401,0 7,0 Z M7,1 C3.68629,1 1,3.68629 1,7 C1,10.3137 3.68629,13 7,13 C10.3137,13 13,10.3137 13,7 C13,3.68629 10.3137,1 7,1 Z M7,8.64167 C7.41421,8.64167 7.75,8.97746 7.75,9.3917 C7.75,9.8059 7.41421,10.1417 7,10.1417 C6.58579,10.1417 6.25,9.8059 6.25,9.3917 C6.25,8.97746 6.58579,8.64167 7,8.64167 Z M7,3.85001 C7.34518,3.85001 7.625,4.12983 7.625,4.47501 L7.625,4.47501 L7.625,7.14167 C7.625,7.48685 7.34518,7.76667 7,7.76667 C6.65482,7.76667 6.375,7.48685 6.375,7.14167 L6.375,7.14167 L6.375,4.47501 C6.375,4.12983 6.65482,3.85001 7,3.85001 Z" id="Combined-Shape"></path>
        </g>
    </g>
</svg>