<svg width="20" height="20" viewBox="0 0 20 20" fill="none" xmlns="http://www.w3.org/2000/svg">
<circle cx="10" cy="10" r="9.5" fill="white" stroke="#E1E4EA"/>
<path d="M10.2368 16.5311C11.5045 16.5311 12.8512 16.2105 13.4678 15.8899L13.0485 14.6369C12.5799 14.8145 11.4453 15.1401 10.3206 15.1401C7.05504 15.1401 5.28907 13.3741 5.28907 10.1776C5.28907 7.1981 6.97612 5.12135 10.1973 5.12135C12.8265 5.12135 14.7849 6.61108 14.78 9.41297C14.7849 11.4503 14.4692 12.3678 13.6799 12.3678C13.2606 12.3678 13.014 12.0323 13.0091 11.544V6.84786H11.6328V7.40035H11.5637C11.4059 6.96625 10.4587 6.56669 9.38831 6.71467C8.01203 6.89719 6.69001 8.02682 6.69001 10.1381C6.69001 12.3135 7.8739 13.5911 9.48203 13.6651C10.6018 13.7194 11.47 13.2212 11.7018 12.6342H11.761C11.8794 13.3741 12.5306 13.7786 13.527 13.7243C15.6482 13.6454 16.2549 11.7512 16.25 9.49683C16.2549 6.25591 14.0746 3.75 10.2318 3.75C6.13752 3.75 3.75493 6.27071 3.75 10.1973C3.75493 14.2176 6.09806 16.5311 10.2368 16.5311ZM9.89146 12.2494C8.60397 12.2494 8.16988 11.2036 8.16495 10.0789C8.16988 8.95421 8.79636 8.13042 9.90133 8.13042C11.1296 8.13042 11.5834 8.73223 11.5884 10.074C11.6032 11.5144 11.1395 12.2494 9.89146 12.2494Z" fill="#3989FF"/>
</svg>
