<?xml version="1.0" encoding="UTF-8"?>
<svg width="18px" height="20px" viewBox="0 0 18 20" version="1.1" xmlns="http://www.w3.org/2000/svg" xmlns:xlink="http://www.w3.org/1999/xlink">
    <!-- Generator: Sketch 49.2 (51160) - http://www.bohemiancoding.com/sketch -->
    <title>Group</title>
    <desc>Created with Sketch.</desc>
    <defs></defs>
    <g id="Page-1" stroke="none" stroke-width="1" fill="none" fill-rule="evenodd">
        <g id="File_Type_Solid" transform="translate(-192.000000, -333.000000)">
            <g id="Group" transform="translate(192.000000, 333.000000)">
                <g id="Group-3-Copy" fill="#A1AAB2">
                    <g id="list-msg-icon-file-setup-copy" transform="translate(1.000000, 0.000000)">
                        <path d="M14.5454545,17.1428571 C14.5454545,17.9321429 13.8945455,18.5714286 13.0909091,18.5714286 L2.90909091,18.5714286 C2.10545455,18.5714286 1.45454545,17.9321429 1.45454545,17.1428571 L1.45454545,2.85714286 C1.45454545,2.06785714 2.10545455,1.42857143 2.90909091,1.42857143 L10.1483636,1.42857143 L14.5454545,6.53642857 L14.5454545,17.1428571 Z M10.9069091,0 L2.90909091,0 C1.30254545,0 0,1.27928571 0,2.85714286 L0,17.1428571 C0,18.7207143 1.30254545,20 2.90909091,20 L13.0909091,20 C14.6974545,20 16,18.7207143 16,17.1428571 L16,5.735 L10.9069091,0 Z" id="Page-1"></path>
                    </g>
                    <rect id="Rectangle-3" x="0" y="8" width="18" height="8" rx="1"></rect>
                </g>
                <path d="M1.8999939,14.5765195 L1.8999939,9.47013652 L3.47118866,9.47013652 C3.81488923,9.47013652 4.12994336,9.52917264 4.41636051,9.64724664 C4.70277765,9.76532065 4.94827438,9.9313232 5.15285805,10.1452593 C5.35744173,10.3591953 5.5170146,10.6157979 5.63158146,10.9150746 C5.74614832,11.2143512 5.80343089,11.5463563 5.80343089,11.9110998 L5.80343089,12.1425705 C5.80343089,12.5073139 5.74673283,12.8387345 5.63333502,13.1368422 C5.51993722,13.4349498 5.35977983,13.6909678 5.15285805,13.9049039 C4.94593628,14.11884 4.69868601,14.284258 4.41109981,14.4011629 C4.12351362,14.5180679 3.80670594,14.5765195 3.46066727,14.5765195 L1.8999939,14.5765195 Z M2.95213325,10.3223694 L2.95213325,13.7313009 L3.46066727,13.7313009 C3.87684891,13.7313009 4.19365659,13.5939396 4.41109981,13.319213 C4.62854303,13.0444863 4.73726301,12.6522761 4.73726301,12.1425705 L4.73726301,11.9040855 C4.73726301,11.3850275 4.62971206,10.9916483 4.41460694,10.7239359 C4.19950182,10.4562236 3.88503221,10.3223694 3.47118866,10.3223694 L2.95213325,10.3223694 Z M7.64479969,9.47013652 L8.95646675,13.173667 L10.2611195,9.47013652 L11.6429292,9.47013652 L11.6429292,14.5765195 L10.5872827,14.5765195 L10.5872827,13.1806813 L10.6924967,10.7712822 L9.31419413,14.5765195 L8.5917251,14.5765195 L7.21692969,10.7747893 L7.32214362,13.1806813 L7.32214362,14.5765195 L6.27000427,14.5765195 L6.27000427,9.47013652 L7.64479969,9.47013652 Z M16.1964706,13.9312074 C16.13568,14.0036884 16.0526788,14.0814291 15.9474643,14.1644316 C15.8422498,14.2474341 15.7101492,14.3245902 15.5511585,14.3959022 C15.3921677,14.4672143 15.2045381,14.5268349 14.9882639,14.5747659 C14.7719897,14.622697 14.5235704,14.6466621 14.2429985,14.6466621 C13.9133266,14.6466621 13.6123008,14.5923021 13.3399123,14.4835805 C13.0675237,14.3748589 12.8343018,14.215286 12.6402396,14.0048571 C12.4461774,13.7944282 12.2959568,13.5360721 12.1895732,13.2297811 C12.0831897,12.9234901 12.0299988,12.5727805 12.0299988,12.1776418 L12.0299988,11.8760285 C12.0299988,11.4808897 12.0808517,11.1295956 12.182559,10.8221356 C12.2842663,10.5146755 12.4280572,10.255735 12.6139361,10.045306 C12.799815,9.83487711 13.0248537,9.67471972 13.2890589,9.56482906 C13.5532641,9.4549384 13.8466911,9.3999939 14.1693488,9.3999939 C14.5013589,9.3999939 14.7883562,9.44149453 15.0303495,9.52449705 C15.2723428,9.60749957 15.4745853,9.72381826 15.6370832,9.8734566 C15.7995811,10.0230949 15.926421,10.2019568 16.0176069,10.4100477 C16.1087928,10.6181385 16.1684134,10.8460997 16.1964706,11.0939383 L15.1723883,11.0939383 C15.1513454,10.9653428 15.1186125,10.8490241 15.0741886,10.7449787 C15.0297647,10.6409333 14.9689751,10.5520869 14.8918178,10.4784367 C14.8146605,10.4047866 14.7193844,10.3480886 14.6059866,10.3083409 C14.4925888,10.2685932 14.3575656,10.2487196 14.200913,10.2487196 C13.8408457,10.2487196 13.5672922,10.3849119 13.3802443,10.6573004 C13.1931963,10.929689 13.0996738,11.3335895 13.0996738,11.8690142 L13.0996738,12.1776418 C13.0996738,12.7130665 13.2013796,13.1175516 13.4047942,13.3911092 C13.6082088,13.6646668 13.906312,13.8014435 14.2991126,13.8014435 C14.42537,13.8014435 14.535259,13.7932603 14.628783,13.7768936 C14.7223069,13.7605269 14.8023856,13.7400688 14.8690215,13.7155188 C14.9356573,13.6909688 14.9911863,13.664081 15.0356102,13.6348548 C15.0800341,13.6056285 15.1162741,13.5769873 15.1443313,13.5489301 L15.1443313,12.6686401 L14.1868844,12.6686401 L14.1868844,11.8935642 L16.1964706,11.8935642 L16.1964706,13.9312074 Z" id="DMG" fill="#FFFFFF"></path>
            </g>
        </g>
    </g>
</svg>