<svg version="1.1" xmlns="http://www.w3.org/2000/svg" xmlns:xlink="http://www.w3.org/1999/xlink" width="18" height="16" viewBox="0 0 18 16">
<path id="setting_icon_vol" d="M15.677,12.961 C15.647,13.036 15.605,13.107 15.546,13.169 C15.523,13.193 15.493,13.204 15.468,13.223 C15.453,13.240 15.442,13.260 15.426,13.276 C15.426,13.276 15.415,13.261 15.415,13.261 C15.164,13.418 14.835,13.404 14.611,13.192 C14.347,12.941 14.337,12.523 14.588,12.259 C14.599,12.249 14.613,12.245 14.624,12.235 C14.624,12.235 14.622,12.232 14.622,12.232 C15.785,11.079 16.517,9.476 16.499,7.711 C16.482,5.981 15.746,4.421 14.600,3.297 C14.600,3.297 14.609,3.284 14.609,3.284 C14.581,3.265 14.549,3.255 14.524,3.231 C14.260,2.980 14.250,2.562 14.502,2.299 C14.726,2.064 15.077,2.042 15.339,2.215 C15.339,2.215 15.353,2.194 15.353,2.194 C15.371,2.213 15.384,2.236 15.402,2.255 C15.413,2.264 15.426,2.266 15.437,2.276 C15.484,2.321 15.513,2.375 15.544,2.429 C16.812,3.830 17.624,5.665 17.644,7.700 C17.665,9.738 16.916,11.540 15.677,12.961 zM13.434,10.790 C13.411,10.831 13.393,10.874 13.359,10.910 C13.335,10.935 13.304,10.947 13.276,10.967 C13.259,10.983 13.247,11.003 13.230,11.019 C13.230,11.019 13.222,11.005 13.222,11.005 C12.999,11.134 12.713,11.116 12.517,10.930 C12.279,10.704 12.270,10.328 12.497,10.091 C12.539,10.047 12.589,10.020 12.640,9.991 C12.640,9.991 12.631,9.976 12.631,9.976 C13.314,9.475 13.513,8.650 13.503,7.740 C13.495,6.914 13.042,6.045 12.454,5.552 C12.454,5.552 12.455,5.550 12.455,5.550 C12.425,5.529 12.391,5.518 12.364,5.492 C12.102,5.244 12.092,4.831 12.342,4.570 C12.549,4.353 12.865,4.320 13.118,4.453 C13.118,4.453 13.127,4.438 13.127,4.438 C13.145,4.454 13.159,4.474 13.177,4.490 C13.206,4.510 13.240,4.522 13.267,4.547 C13.312,4.590 13.340,4.643 13.371,4.695 C14.150,5.479 14.651,6.539 14.664,7.730 C14.676,8.920 14.197,9.991 13.434,10.790 zM2.114,11.329 C1.391,11.329 0.930,10.522 0.930,9.800 C0.930,9.800 0.930,6.200 0.930,6.200 C0.930,5.478 1.460,4.474 2.184,4.474 C2.184,4.474 2.199,4.489 4.641,4.489 C5.800,4.489 11.000,-0.000 11.000,-0.000 L11.000,16.000 C11.000,16.000 5.800,11.329 4.641,11.329 C2.199,11.329 2.114,11.329 2.114,11.329 z" fill="#A1AAB2" />
</svg>
