<?xml version="1.0" encoding="UTF-8"?>
<svg width="18px" height="20px" viewBox="0 0 18 20" version="1.1" xmlns="http://www.w3.org/2000/svg" xmlns:xlink="http://www.w3.org/1999/xlink">
    <!-- Generator: Sketch 59 (86127) - https://sketch.com -->
    <title>Group 8 Copy</title>
    <desc>Created with Sketch.</desc>
    <g id="Page-1" stroke="none" stroke-width="1" fill="none" fill-rule="evenodd">
        <g id="File_Type_Solid" transform="translate(-338.000000, -333.000000)" fill="#A1AAB2">
            <g id="Group-8-Copy" transform="translate(338.000000, 333.000000)">
                <g id="Group-Copy-2">
                    <g id="Group-3-Copy">
                        <g id="list-msg-icon-file-setup-copy" transform="translate(1.000000, 0.000000)">
                            <path d="M14.5454545,17.1428571 C14.5454545,17.9321429 13.8945455,18.5714286 13.0909091,18.5714286 L2.90909091,18.5714286 C2.10545455,18.5714286 1.45454545,17.9321429 1.45454545,17.1428571 L1.45454545,2.85714286 C1.45454545,2.06785714 2.10545455,1.42857143 2.90909091,1.42857143 L10.1483636,1.42857143 L14.5454545,6.53642857 L14.5454545,17.1428571 Z M10.9069091,0 L2.90909091,0 C1.30254545,0 0,1.27928571 0,2.85714286 L0,17.1428571 C0,18.7207143 1.30254545,20 2.90909091,20 L13.0909091,20 C14.6974545,20 16,18.7207143 16,17.1428571 L16,5.735 L10.9069091,0 Z" id="Page-1"></path>
                        </g>
                        <rect id="Rectangle-3" x="0" y="8" width="18" height="8" rx="1"></rect>
                    </g>
                </g>
            </g>
        </g>
    </g>
</svg>