<?xml version="1.0" encoding="UTF-8"?>
<svg width="16px" height="20px" viewBox="0 0 16 20" version="1.1" xmlns="http://www.w3.org/2000/svg" xmlns:xlink="http://www.w3.org/1999/xlink">
    <!-- Generator: Sketch 53.2 (72643) - https://sketchapp.com -->
    <title>Combined Shape</title>
    <desc>Created with Sketch.</desc>
    <g id="Page-1" stroke="none" stroke-width="1" fill="none" fill-rule="evenodd">
        <g id="File_Type_Solid" transform="translate(-252.000000, -333.000000)" fill="#A1AAB2" fill-rule="nonzero">
            <path d="M264.5,343.176307 L264.5,335 C264.5,334.723858 264.276142,334.5 264,334.5 L254,334.5 C253.723858,334.5 253.5,334.723858 253.5,335 L253.5,351 C253.5,351.276142 253.723858,351.5 254,351.5 L262.25,351.5 L262.25,346.488356 C262.25,346.076068 262.395565,345.677018 262.661029,345.361565 L264.5,343.176307 Z M263.75,351.5 L266,351.5 C266.276142,351.5 266.5,351.276142 266.5,351 L266.5,346.446275 L265.275607,344.584275 L263.808718,346.327386 C263.770795,346.37245 263.75,346.429457 263.75,346.488356 L263.75,351.5 Z M254,333 L264,333 C265.104569,333 266,333.895431 266,335 L266,342.955779 L267.835542,345.747185 C267.942829,345.910342 268,346.10134 268,346.296611 L268,351 C268,352.104569 267.104569,353 266,353 L254,353 C252.895431,353 252,352.104569 252,351 L252,335 C252,333.895431 252.895431,333 254,333 Z" id="Combined-Shape"></path>
        </g>
    </g>
</svg>