<?xml version="1.0" encoding="UTF-8"?>
<svg width="42px" height="52px" viewBox="0 0 42 52" version="1.1" xmlns="http://www.w3.org/2000/svg" xmlns:xlink="http://www.w3.org/1999/xlink">
    <!-- Generator: Sketch 49.2 (51160) - http://www.bohemiancoding.com/sketch -->
    <title>icon_file_zip</title>
    <desc>Created with Sketch.</desc>
    <defs>
        <linearGradient x1="-59.3339432%" y1="154.768724%" x2="86.8011871%" y2="11.820985%" id="linearGradient-1">
            <stop stop-color="#E5ABE1" offset="0%"></stop>
            <stop stop-color="#C773C0" offset="100%"></stop>
        </linearGradient>
    </defs>
    <g id="Page-1" stroke="none" stroke-width="1" fill="none" fill-rule="evenodd">
        <g id="File_Type_Solid" transform="translate(-576.000000, -227.000000)">
            <g id="icon_file_zip" transform="translate(576.000000, 227.000000)">
                <path d="M4,0 L27.937,0 L42,14.063 L42,48 C42,50.209 40.209,52 38,52 L4,52 C1.791,52 0,50.209 0,48 L0,4 C0,1.791 1.791,0 4,0" id="Page-1" fill="url(#linearGradient-1)"></path>
                <path d="M19,29 L23,29 L23,24 L19,24 L19,29 Z M23.999,34 L17.999,34 C17.447,34 17,33.552 17,33 L17,23 C17,22.447 17.447,22 17.999,22 L23.999,22 C24.552,22 25,22.447 25,23 L25,33 C25,33.552 24.552,34 23.999,34 Z M22,40 L24,40 C24.5522847,40 25,39.5522847 25,39 L25,38 C25,37.4477153 24.5522847,37 24,37 L22,37 C21.4477153,37 21,37.4477153 21,38 L21,39 C21,39.5522847 21.4477153,40 22,40 Z M22,46 L24,46 C24.5522847,46 25,45.5522847 25,45 L25,44 C25,43.4477153 24.5522847,43 24,43 L22,43 C21.4477153,43 21,43.4477153 21,44 L21,45 C21,45.5522847 21.4477153,46 22,46 Z M22,52 L24,52 C24.5522847,52 25,51.5522847 25,51 L25,50 C25,49.4477153 24.5522847,49 24,49 L22,49 C21.4477153,49 21,49.4477153 21,50 L21,51 C21,51.5522847 21.4477153,52 22,52 Z M18,43 L20,43 C20.5522847,43 21,42.5522847 21,42 L21,41 C21,40.4477153 20.5522847,40 20,40 L18,40 C17.4477153,40 17,40.4477153 17,41 L17,42 C17,42.5522847 17.4477153,43 18,43 Z M18,49 L20,49 C20.5522847,49 21,48.5522847 21,48 L21,47 C21,46.4477153 20.5522847,46 20,46 L18,46 C17.4477153,46 17,46.4477153 17,47 L17,48 C17,48.5522847 17.4477153,49 18,49 Z" id="Page-1" fill="#FFFFFF"></path>
                <polygon id="Rectangle-2" fill="#E39DDD" points="28 0 42 14 28 14"></polygon>
            </g>
        </g>
    </g>
</svg>