<?xml version="1.0" encoding="UTF-8" standalone="no"?>
<svg width="16px" height="20px" viewBox="0 0 16 20" version="1.1" xmlns="http://www.w3.org/2000/svg" xmlns:xlink="http://www.w3.org/1999/xlink">
    <!-- Generator: Sketch 46.2 (44496) - http://www.bohemiancoding.com/sketch -->
    <title>list-msg-icon-file-sketch</title>
    <desc>Created with Sketch.</desc>
    <defs>
        <polygon id="path-1" points="16 10 16 0 0 0 0 10 0 20 16 20"></polygon>
    </defs>
    <g id="File" stroke="none" stroke-width="1" fill="none" fill-rule="evenodd">
        <g id="iPhone-SE" transform="translate(-282.000000, -266.000000)">
            <g id="list-msg-icon-file-sketch" transform="translate(282.000000, 266.000000)">
                <mask id="mask-2" fill="white">
                    <use xlink:href="#path-1"></use>
                </mask>
                <g id="Clip-2"></g>
                <path d="M11.3217752,7.95649999 C11.2879374,7.92048406 11.2499561,7.89104796 11.2081766,7.86923062 L10.1933852,7.0890009 C10.1181131,7.03116763 10.0262674,7 9.93165943,7 L6.06861526,7 C5.97400728,7 5.88181629,7.03116763 5.80654424,7.0890009 L3.1720227,9.11455067 C2.98073503,9.26173115 2.94309901,9.53912307 3.08880911,9.73305501 L7.65450745,15.8259807 C7.82853089,16.0580064 8.17139851,16.0580064 8.34542195,15.8259807 L12.9114656,9.73305501 C13.0568304,9.53912307 13.0191944,9.26173115 12.8279067,9.11455067 L11.3217752,7.95649999 Z M6.21432536,7.88204398 L9.78594932,7.88204398 L10.2779799,8.26021125 L9.64127507,8.73846124 L6.5319872,8.71352714 L5.74715529,8.24116436 L6.21432536,7.88204398 Z M6.64075185,9.59626373 L9.55875205,9.61981261 L10.3784577,10.7782096 L5.85522937,10.7782096 L6.64075185,9.59626373 Z M4.99926883,8.81568771 L5.794114,9.29428401 L4.88083621,10.6684303 L4.04283048,9.55089751 L4.99926883,8.81568771 Z M8.00013734,14.8306943 L5.62388869,11.6602536 L10.376386,11.6602536 L8.00013734,14.8306943 Z M11.2482296,10.496662 L10.3850181,9.27662235 L10.9992794,8.81464879 L11.9570989,9.55089751 L11.2482296,10.496662 Z" id="Fill-1" fill="#A1AAB2" mask="url(#mask-2)"></path>
                <path d="M14.5454545,17.1428571 C14.5454545,17.9321429 13.8945455,18.5714286 13.0909091,18.5714286 L2.90909091,18.5714286 C2.10545455,18.5714286 1.45454545,17.9321429 1.45454545,17.1428571 L1.45454545,2.85714286 C1.45454545,2.06785714 2.10545455,1.42857143 2.90909091,1.42857143 L10.1483636,1.42857143 L14.5454545,6.53642857 L14.5454545,17.1428571 Z M10.9069091,0 L2.90909091,0 C1.30254545,0 0,1.27928571 0,2.85714286 L0,17.1428571 C0,18.7207143 1.30254545,20 2.90909091,20 L13.0909091,20 C14.6974545,20 16,18.7207143 16,17.1428571 L16,5.735 L10.9069091,0 Z" id="Page-1" fill="#A1AAB2" mask="url(#mask-2)"></path>
            </g>
        </g>
    </g>
</svg>