<?xml version="1.0" encoding="UTF-8" standalone="no"?>
<svg width="16px" height="20px" viewBox="0 0 16 20" version="1.1" xmlns="http://www.w3.org/2000/svg" xmlns:xlink="http://www.w3.org/1999/xlink">
    <!-- Generator: Sketch 46.2 (44496) - http://www.bohemiancoding.com/sketch -->
    <title>list-msg-icon-file-html</title>
    <desc>Created with Sketch.</desc>
    <defs>
        <polygon id="path-1" points="16 10 16 0 0 0 0 10 0 20 16 20"></polygon>
    </defs>
    <g id="File" stroke="none" stroke-width="1" fill="none" fill-rule="evenodd">
        <g id="iPhone-SE" transform="translate(-42.000000, -296.000000)">
            <g id="list-msg-icon-file-html" transform="translate(42.000000, 296.000000)">
                <mask id="mask-2" fill="white">
                    <use xlink:href="#path-1"></use>
                </mask>
                <g id="Clip-2"></g>
                <path d="M12.8816476,12.2982422 L9.45270809,15.8764861 C9.29490495,16.0411046 9.0389508,16.0411046 8.88114766,15.8764861 C8.72334452,15.7118675 8.72334452,15.4449412 8.88114766,15.2799016 L12.0245185,11.9997395 L8.88114766,8.7195774 C8.72334452,8.55495882 8.72334452,8.28803252 8.88114766,8.12341394 C9.0389508,7.95879535 9.29490495,7.95879535 9.45270809,8.12341394 L12.596079,11.403576 C12.648962,11.4591506 12.6777305,11.5273557 12.6950761,11.598087 C12.7627665,11.6161908 12.8283415,11.6460832 12.8816476,11.7016578 C13.0394508,11.8662763 13.0394508,12.1332026 12.8816476,12.2982422 Z M7.10626617,8.7195774 L3.97262579,11.9997395 L7.10626617,15.2799016 C7.26364624,15.4449412 7.26364624,15.7118675 7.10626617,15.8764861 C6.94888609,16.0411046 6.69377806,16.0411046 6.53639799,15.8764861 L3.11803506,12.2982422 C2.96065498,12.1332026 2.96065498,11.8662763 3.11803506,11.7016578 C3.17134121,11.6460832 3.23649318,11.6161908 3.30418353,11.598087 C3.32152919,11.5273557 3.34987452,11.4591506 3.40318068,11.403576 L6.53639799,8.12341394 C6.69377806,7.95879535 6.94888609,7.95879535 7.10626617,8.12341394 C7.26364624,8.28803252 7.26364624,8.55495882 7.10626617,8.7195774 Z" id="Combined-Shape" fill="#A1AAB2" mask="url(#mask-2)"></path>
                <path d="M14.5454545,17.1428571 C14.5454545,17.9321429 13.8945455,18.5714286 13.0909091,18.5714286 L2.90909091,18.5714286 C2.10545455,18.5714286 1.45454545,17.9321429 1.45454545,17.1428571 L1.45454545,2.85714286 C1.45454545,2.06785714 2.10545455,1.42857143 2.90909091,1.42857143 L10.1483636,1.42857143 L14.5454545,6.53642857 L14.5454545,17.1428571 Z M10.9069091,0 L2.90909091,0 C1.30254545,0 0,1.27928571 0,2.85714286 L0,17.1428571 C0,18.7207143 1.30254545,20 2.90909091,20 L13.0909091,20 C14.6974545,20 16,18.7207143 16,17.1428571 L16,5.735 L10.9069091,0 Z" id="Page-1" fill="#A1AAB2" mask="url(#mask-2)"></path>
            </g>
        </g>
    </g>
</svg>