<?xml version="1.0" encoding="UTF-8"?>
<svg width="42px" height="52px" viewBox="0 0 42 52" version="1.1" xmlns="http://www.w3.org/2000/svg" xmlns:xlink="http://www.w3.org/1999/xlink">
    <!-- Generator: Sketch 49.2 (51160) - http://www.bohemiancoding.com/sketch -->
    <title>icon_file_txt</title>
    <desc>Created with Sketch.</desc>
    <defs>
        <linearGradient x1="-74.2342149%" y1="176.000516%" x2="83.468965%" y2="13.6851838%" id="linearGradient-1">
            <stop stop-color="#5CCCEE" offset="0%"></stop>
            <stop stop-color="#2F9DD9" offset="100%"></stop>
        </linearGradient>
    </defs>
    <g id="Page-1" stroke="none" stroke-width="1" fill="none" fill-rule="evenodd">
        <g id="File_Type_Solid" transform="translate(-75.000000, -12.000000)">
            <g id="icon_file_txt" transform="translate(75.000000, 12.000000)">
                <path d="M27.937,0 L42,14.063 L42,48 C42,50.209 40.209,52 38,52 L4,52 C1.791,52 0,50.209 0,48 L0,4 C0,1.791 1.791,0 4,0 L27.937,0 Z" id="Page-1" fill="url(#linearGradient-1)"></path>
                <g id="Page-1" transform="translate(6.000000, 25.000000)" fill="#FFFFFF" fill-rule="nonzero">
                    <path d="M3.56875,2.259375 L0.3203125,2.259375 C0.0993986001,2.259375 -0.0796875,2.0802889 -0.0796875,1.859375 L-0.0796875,0.625 C-0.0796875,0.4040861 0.0993986001,0.225 0.3203125,0.225 L9.1171875,0.225 C9.3381014,0.225 9.5171875,0.4040861 9.5171875,0.625 L9.5171875,1.859375 C9.5171875,2.0802889 9.3381014,2.259375 9.1171875,2.259375 L5.8609375,2.259375 L5.8609375,12 C5.8609375,12.2209139 5.6818514,12.4 5.4609375,12.4 L3.96875,12.4 C3.7478361,12.4 3.56875,12.2209139 3.56875,12 L3.56875,2.259375 Z M15.5146568,4.23159319 L17.9030565,0.412891174 C17.9761652,0.296001027 18.1043173,0.225 18.2421875,0.225 L20.0078125,0.225 C20.3235454,0.225 20.514814,0.573651039 20.3451616,0.839931566 L16.8888393,6.26485491 L20.4304001,11.7839752 C20.601231,12.0501958 20.4100673,12.4 20.09375,12.4 L18.3125,12.4 C18.1751228,12.4 18.047357,12.3295022 17.9741064,12.2132833 L15.5146831,8.31118161 L13.0409809,12.214134 C12.9676296,12.3298661 12.8401445,12.4 12.703125,12.4 L10.9296875,12.4 C10.6131964,12.4 10.4220643,12.0498526 10.5932459,11.7836506 L14.1421145,6.26485921 L10.6784877,0.840263592 C10.5084778,0.574000785 10.6997148,0.225 11.015625,0.225 L12.7734375,0.225 C12.9109419,0.225 13.0388074,0.295627499 13.1120218,0.412019553 L15.5146568,4.23159319 Z M21.8984375,2.259375 C21.6775236,2.259375 21.4984375,2.0802889 21.4984375,1.859375 L21.4984375,0.625 C21.4984375,0.4040861 21.6775236,0.225 21.8984375,0.225 L30.6953125,0.225 C30.9162264,0.225 31.0953125,0.4040861 31.0953125,0.625 L31.0953125,1.859375 C31.0953125,2.0802889 30.9162264,2.259375 30.6953125,2.259375 L27.4390625,2.259375 L27.4390625,12 C27.4390625,12.2209139 27.2599764,12.4 27.0390625,12.4 L25.546875,12.4 C25.3259611,12.4 25.146875,12.2209139 25.146875,12 L25.146875,2.259375 L21.8984375,2.259375 Z" id="TXT"></path>
                </g>
                <polygon id="Rectangle-2" fill="#63BFF1" points="28 0 42 14 28 14"></polygon>
            </g>
        </g>
    </g>
</svg>