<svg xmlns="http://www.w3.org/2000/svg" width="24" height="24" fill="none" viewBox="0 0 24 24">
    <path fill="#767676" fill-rule="evenodd" d="M13.8 3.5H13v.454c1.265.139 2.453.536 3.508 1.139L17.3 4.3c.2-.3.7-.3 1 0l1.4 1.4c.3.3.3.8 0 1.1l-.532.592C20.378 8.937 21.1 10.884 21.1 13c0 5.026-4.074 9.1-9.1 9.1-5.025 0-9.1-4.074-9.1-9.1 0-4.688 3.545-8.548 8.1-9.046V3.5h-.7c-.4 0-.7-.3-.7-.7-.1-.5.2-.8.6-.8h3.5c.4 0 .7.3.7.7.1.5-.2.8-.6.8zM12 5.1c-4.363 0-7.9 3.537-7.9 7.9s3.537 7.9 7.9 7.9 7.9-3.537 7.9-7.9-3.537-7.9-7.9-7.9zm6 7.9c0 3.314-2.686 6-6 6-3.313 0-6-2.686-6-6s2.687-6 6-6c3.314 0 6 2.686 6 6z" clip-rule="evenodd"/>
</svg>
