<?xml version="1.0" encoding="UTF-8" standalone="no"?>
<svg width="16px" height="20px" viewBox="0 0 16 20" version="1.1" xmlns="http://www.w3.org/2000/svg" xmlns:xlink="http://www.w3.org/1999/xlink">
    <!-- Generator: Sketch 46.2 (44496) - http://www.bohemiancoding.com/sketch -->
    <title>list-msg-icon-file-psd</title>
    <desc>Created with Sketch.</desc>
    <defs>
        <polygon id="path-1" points="16 10 16 0 0 0 0 10 0 20 16 20"></polygon>
    </defs>
    <g id="File" stroke="none" stroke-width="1" fill="none" fill-rule="evenodd">
        <g id="iPhone-SE" transform="translate(-252.000000, -266.000000)">
            <g id="list-msg-icon-file-psd" transform="translate(252.000000, 266.000000)">
                <mask id="mask-2" fill="white">
                    <use xlink:href="#path-1"></use>
                </mask>
                <g id="Clip-2"></g>
                <path d="M5.89126492,9.07520193 C6.79556287,9.07520193 7.24771184,9.53795214 7.24771184,10.4634526 C7.24771184,10.9354337 7.12455186,11.3014599 6.87856932,11.5611298 C6.63258678,11.8207997 6.27424185,11.950434 5.80387195,11.950434 L5.09325573,11.950434 L5.09325573,9.07520193 L5.89126492,9.07520193 Z M5.97427137,13.0152009 L5.09325573,13.0152009 L5.09325573,15.868359 L4,15.868359 L4,8 L6.00666414,8 C6.76620693,8 7.35535029,8.21030452 7.7737568,8.63091356 C8.19182589,9.0515226 8.40102915,9.64430843 8.40102915,10.4084684 C8.40102915,11.173431 8.18271542,11.7987257 7.74575056,12.2851553 C7.30912312,12.7719862 6.71863006,13.0152009 5.97427137,13.0152009 Z M9.98861192,16 C9.47201485,16 9.02458982,15.8976572 8.64599941,15.6925701 L8.64599941,14.5130186 C9.04584757,14.8750314 9.48719895,15.0564391 9.97005357,15.0564391 C10.6158843,15.0564391 10.9387996,14.8296794 10.9387996,14.3757588 C10.9387996,14.2477299 10.9111308,14.1389655 10.8557932,14.0494657 C10.8004555,13.9599659 10.7258847,13.8800983 10.6320806,13.8106657 C10.5382766,13.7412331 10.4276013,13.6790247 10.3000548,13.6240405 C10.1721709,13.5690563 10.0301151,13.5072493 9.8732127,13.4374153 C9.67953098,13.3463101 9.50508246,13.2491848 9.34952971,13.1468419 C9.1943144,13.0444991 9.06508077,12.9281092 8.96216627,12.7984749 C8.85891434,12.6684393 8.78130668,12.5211458 8.72934329,12.3565946 C8.67670505,12.1920433 8.65072335,11.9997993 8.65072335,11.7802639 C8.65072335,11.5097577 8.70437387,11.2709577 8.81234974,11.0642653 C8.91998819,10.8575729 9.06440592,10.6837907 9.24594036,10.5429188 C9.42713737,10.4024482 9.63330381,10.2960919 9.86410224,10.2246526 C10.0945632,10.1536146 10.3331224,10.1178949 10.579105,10.1178949 C11.0157324,10.1178949 11.4064701,10.1965585 11.7509806,10.3538855 L11.7509806,11.4676165 C11.4186174,11.1971103 11.0373276,11.0614559 10.6067738,11.0614559 C10.4714665,11.0614559 10.3493188,11.077911 10.2399933,11.1108213 C10.1306677,11.1441328 10.0378759,11.1898861 9.9609431,11.2480811 C9.88401029,11.3066774 9.82394871,11.377314 9.78109579,11.4595896 C9.73790544,11.5418652 9.71631026,11.6321678 9.71631026,11.7308985 C9.71631026,11.8517032 9.73790544,11.9540461 9.78109579,12.0383284 C9.82394871,12.1226107 9.88772196,12.1964581 9.97241554,12.2606733 C10.0571091,12.324487 10.1583365,12.3830833 10.2767725,12.4360608 C10.3952086,12.4890383 10.5315281,12.5468319 10.6850563,12.6090403 C10.8881859,12.707771 11.0703952,12.8085085 11.2320216,12.9108514 C11.3933106,13.0131942 11.5309798,13.1295841 11.6446919,13.2592184 C11.758404,13.389254 11.8461344,13.5389555 11.9075457,13.7091256 C11.9692944,13.8792956 12,14.0815733 12,14.3155571 C12,14.6009131 11.9446624,14.8497467 11.8339871,15.0616565 C11.7233118,15.2739678 11.5755198,15.4493553 11.3909486,15.5886219 C11.2063773,15.7274871 10.9934624,15.831034 10.7522038,15.8984598 C10.5106078,15.9662871 10.2561896,16 9.98861192,16 Z" id="Combined-Shape" fill="#A1AAB2" mask="url(#mask-2)"></path>
                <path d="M14.5454545,17.1428571 C14.5454545,17.9321429 13.8945455,18.5714286 13.0909091,18.5714286 L2.90909091,18.5714286 C2.10545455,18.5714286 1.45454545,17.9321429 1.45454545,17.1428571 L1.45454545,2.85714286 C1.45454545,2.06785714 2.10545455,1.42857143 2.90909091,1.42857143 L10.1483636,1.42857143 L14.5454545,6.53642857 L14.5454545,17.1428571 Z M10.9069091,0 L2.90909091,0 C1.30254545,0 0,1.27928571 0,2.85714286 L0,17.1428571 C0,18.7207143 1.30254545,20 2.90909091,20 L13.0909091,20 C14.6974545,20 16,18.7207143 16,17.1428571 L16,5.735 L10.9069091,0 Z" id="Page-1" fill="#A1AAB2" mask="url(#mask-2)"></path>
            </g>
        </g>
    </g>
</svg>