<?xml version="1.0" encoding="UTF-8"?>
<svg width="42px" height="52px" viewBox="0 0 42 52" version="1.1" xmlns="http://www.w3.org/2000/svg" xmlns:xlink="http://www.w3.org/1999/xlink">
    <!-- Generator: Sketch 49.2 (51160) - http://www.bohemiancoding.com/sketch -->
    <title>icon_file_xml</title>
    <desc>Created with Sketch.</desc>
    <defs>
        <linearGradient x1="-47.924907%" y1="148.790459%" x2="86.6385941%" y2="14.225164%" id="linearGradient-1">
            <stop stop-color="#F99E53" offset="0%"></stop>
            <stop stop-color="#F16529" offset="100%"></stop>
        </linearGradient>
    </defs>
    <g id="Page-1" stroke="none" stroke-width="1" fill="none" fill-rule="evenodd">
        <g id="File_Type_Solid" transform="translate(-139.000000, -12.000000)">
            <g id="icon_file_xml" transform="translate(139.000000, 12.000000)">
                <path d="M4,0 L27.937,0 L42,14.063 L42,48 C42,50.209 40.209,52 38,52 L4,52 C1.791,52 0,50.209 0,48 L0,4 C0,1.791 1.791,0 4,0" id="Page-1" fill="url(#linearGradient-1)"></path>
                <path d="M9.72559433,29.2315932 L12.113994,25.4128912 C12.1871027,25.296001 12.3152548,25.225 12.453125,25.225 L14.21875,25.225 C14.5344829,25.225 14.7257515,25.573651 14.5560991,25.8399316 L11.0997768,31.2648549 L14.6413376,36.7839752 C14.8121685,37.0501958 14.6210048,37.4 14.3046875,37.4 L12.5234375,37.4 C12.3860603,37.4 12.2582945,37.3295022 12.1850439,37.2132833 L9.72562065,33.3111816 L7.25191841,37.214134 C7.17856708,37.3298661 7.05108198,37.4 6.9140625,37.4 L5.140625,37.4 C4.82413386,37.4 4.63300175,37.0498526 4.8041834,36.7836506 L8.353052,31.2648592 L4.88942516,25.8402636 C4.71941525,25.5740008 4.9106523,25.225 5.2265625,25.225 L6.984375,25.225 C7.12187937,25.225 7.24974494,25.2956275 7.3229593,25.4120196 L9.72559433,29.2315932 Z M17.8678485,30.0339885 L17.946875,32.5703125 L17.946875,37 C17.946875,37.2209139 17.7677889,37.4 17.546875,37.4 L16.046875,37.4 C15.8259611,37.4 15.646875,37.2209139 15.646875,37 L15.646875,25.625 C15.646875,25.4040861 15.8259611,25.225 16.046875,25.225 L17.984375,25.225 C18.1478522,25.225 18.2948774,25.3244787 18.3556794,25.4762282 L21.703125,33.8307773 L25.0505706,25.4762282 C25.1113726,25.3244787 25.2583978,25.225 25.421875,25.225 L27.3671875,25.225 C27.5881014,25.225 27.7671875,25.4040861 27.7671875,25.625 L27.7671875,37 C27.7671875,37.2209139 27.5881014,37.4 27.3671875,37.4 L25.8671875,37.4 C25.6462736,37.4 25.4671875,37.2209139 25.4671875,37 L25.4673604,32.5585529 L25.5425769,30.0011918 L22.6441302,37.1502893 C22.5829322,37.3012361 22.4363182,37.4 22.2734375,37.4 L21.125,37.4 C20.9621423,37.4 20.8155443,37.3012636 20.754331,37.1503479 L17.8678485,30.0339885 Z M31.9234375,35.3734375 L36.9140625,35.3734375 C37.1349764,35.3734375 37.3140625,35.5525236 37.3140625,35.7734375 L37.3140625,37 C37.3140625,37.2209139 37.1349764,37.4 36.9140625,37.4 L30.015625,37.4 C29.7947111,37.4 29.615625,37.2209139 29.615625,37 L29.615625,25.625 C29.615625,25.4040861 29.7947111,25.225 30.015625,25.225 L31.5234375,25.225 C31.7443514,25.225 31.9234375,25.4040861 31.9234375,25.625 L31.9234375,35.3734375 Z" id="XML" fill="#FFFFFF" fill-rule="nonzero"></path>
                <polygon id="Rectangle-2" fill="#F79868" points="28 0 42 14 28 14"></polygon>
            </g>
        </g>
    </g>
</svg>