<?xml version="1.0" encoding="UTF-8" standalone="no"?>
<svg width="16px" height="20px" viewBox="0 0 16 20" version="1.1" xmlns="http://www.w3.org/2000/svg" xmlns:xlink="http://www.w3.org/1999/xlink">
    <!-- Generator: Sketch 46.2 (44496) - http://www.bohemiancoding.com/sketch -->
    <title>list-msg-icon-file-music</title>
    <desc>Created with Sketch.</desc>
    <defs>
        <polygon id="path-1" points="16 10 16 0 0 0 0 10 0 20 16 20"></polygon>
    </defs>
    <g id="File" stroke="none" stroke-width="1" fill="none" fill-rule="evenodd">
        <g id="iPhone-SE" transform="translate(-72.000000, -296.000000)">
            <g id="list-msg-icon-file-music" transform="translate(72.000000, 296.000000)">
                <mask id="mask-2" fill="white">
                    <use xlink:href="#path-1"></use>
                </mask>
                <g id="Clip-2"></g>
                <path d="M11.9974555,13.8568422 C11.9850963,14.5626706 11.2282806,15.0987935 10.2726281,15.0987935 C9.30897855,15.0987935 8.54525627,14.5543354 8.54525627,13.8398383 C8.54525627,13.1423451 9.30897855,12.5812165 10.2726281,12.5812165 C10.648128,12.5812165 10.9912759,12.6655692 11.2726281,12.8089354 L11.2726281,8.68599054 L7.45438023,9.62153827 L7.45438023,14.8093938 C7.45438023,15.4728792 6.69065794,16 5.72737186,16 C4.76372228,16 4,15.4728792 4,14.8093938 C4,14.1462418 4.76372228,13.6187876 5.72737186,13.6187876 C6.10287168,13.6187876 6.44565613,13.700473 6.72700836,13.8375044 L6.72700836,9.62153827 C6.72700836,9.31513472 6.94511087,9.04307237 7.25445293,8.95805289 L11.0727008,8.02250516 C11.2908033,7.97149347 11.5270811,8.00550126 11.7088332,8.14153243 C11.8909487,8.27756361 12,8.46493988 12,8.68599054 L12,13.8568422 L11.9974555,13.8568422 Z" id="Page-1" fill="#A1AAB2" mask="url(#mask-2)"></path>
                <path d="M14.5454545,17.1428571 C14.5454545,17.9321429 13.8945455,18.5714286 13.0909091,18.5714286 L2.90909091,18.5714286 C2.10545455,18.5714286 1.45454545,17.9321429 1.45454545,17.1428571 L1.45454545,2.85714286 C1.45454545,2.06785714 2.10545455,1.42857143 2.90909091,1.42857143 L10.1483636,1.42857143 L14.5454545,6.53642857 L14.5454545,17.1428571 Z M10.9069091,0 L2.90909091,0 C1.30254545,0 0,1.27928571 0,2.85714286 L0,17.1428571 C0,18.7207143 1.30254545,20 2.90909091,20 L13.0909091,20 C14.6974545,20 16,18.7207143 16,17.1428571 L16,5.735 L10.9069091,0 Z" id="Page-1" fill="#A1AAB2" mask="url(#mask-2)"></path>
            </g>
        </g>
    </g>
</svg>