<?xml version="1.0" encoding="UTF-8"?>
<svg width="145px" height="180px" viewBox="0 0 145 180" version="1.1" xmlns="http://www.w3.org/2000/svg" xmlns:xlink="http://www.w3.org/1999/xlink">
    <!-- Generator: Sketch 49.2 (51160) - http://www.bohemiancoding.com/sketch -->
    <title>icon_file_music</title>
    <desc>Created with Sketch.</desc>
    <defs></defs>
    <g id="Inapp-preview-pdf" stroke="none" stroke-width="1" fill="none" fill-rule="evenodd">
        <g id="FileSent-Preview-error" transform="translate(-568.000000, -304.000000)">
            <g id="icon_file_music" transform="translate(568.000000, 304.000000)">
                <path d="M96.4491667,0 L145,48.522108 L145,165.61624 C145,173.238038 138.816786,179.417594 131.190476,179.417594 L13.8095238,179.417594 C6.18321429,179.417594 0,173.238038 0,165.61624 L0,13.8013533 C0,6.17955596 6.18321429,0 13.8095238,0 L96.4491667,0 Z" id="Page-1" fill="#FFFFFF"></path>
                <path d="M138.095238,165.61624 C138.095238,169.428864 135.001905,172.516917 131.190476,172.516917 L13.8095238,172.516917 C9.99464286,172.516917 6.9047619,169.428864 6.9047619,165.61624 L6.9047619,13.8013533 C6.9047619,9.98872949 9.99464286,6.90067667 13.8095238,6.90067667 L93.2142857,6.90067667 L138.095238,51.7550751 L138.095238,165.61624 Z M96.452619,0 L13.8095238,0 C6.18321429,0 0,6.17955596 0,13.8013533 L0,165.61624 C0,173.238038 6.18321429,179.417594 13.8095238,179.417594 L131.190476,179.417594 C138.816786,179.417594 145,173.238038 145,165.61624 L145,48.5186577 L96.452619,0 Z" id="Fill-1" fill="#DCDCDC"></path>
                <path d="M110.479643,126.166826 C110.362262,133.471183 103.174405,139.019319 94.0980952,139.019319 C84.9458333,139.019319 77.692381,133.384924 77.692381,125.990859 C77.692381,118.772761 84.9458333,112.965849 94.0980952,112.965849 C97.6644048,112.965849 100.923452,113.838783 103.595595,115.322427 L103.595595,72.6555989 L67.3317857,82.3372355 L67.3317857,136.02443 C67.3317857,142.890594 60.0783333,148.345572 50.9295238,148.345572 C41.7772619,148.345572 34.5238095,142.890594 34.5238095,136.02443 C34.5238095,129.161716 41.7772619,123.703288 50.9295238,123.703288 C54.4958333,123.703288 57.7514286,124.548619 60.4235714,125.966707 L60.4235714,82.3372355 C60.4235714,79.1663788 62.495,76.3509064 65.4329762,75.4710713 L101.696786,65.7894346 C103.768214,65.2615335 106.012262,65.6134676 107.738452,67.0212038 C109.468095,68.4289399 110.50381,70.3680275 110.50381,72.6555989 L110.50381,126.166826 L110.479643,126.166826 Z" id="Page-1" fill="#DCDCDC"></path>
            </g>
        </g>
    </g>
</svg>