<?xml version="1.0" encoding="UTF-8"?>
<svg width="40px" height="40px" viewBox="0 0 40 40" version="1.1" xmlns="http://www.w3.org/2000/svg" xmlns:xlink="http://www.w3.org/1999/xlink">
    <!-- Generator: Sketch 59 (86127) - https://sketch.com -->
    <title>tongketnhom</title>
    <desc>Created with Sketch.</desc>
    <g id="Page-1" stroke="none" stroke-width="1" fill="none" fill-rule="evenodd">
        <g id="Artboard" transform="translate(-511.000000, -108.000000)">
            <g id="Group-12" transform="translate(510.399941, 107.621061)">
                <path d="M15.4905139,10.6457413 L26.0488801,10.5506209 C26.0488801,10.5506209 26.3683936,22.8558133 21.0358318,22.7232518 C13.9356998,22.5466719 15.4905139,10.6457413 15.4905139,10.6457413" id="Fill-1" fill="#FCF104"></path>
                <path d="M27.2316998,13.1978875 C27.2234299,14.2141075 27.125651,15.204545 26.9410385,16.1550926 C27.7716731,15.2368948 28.3279428,14.1046535 28.5383378,12.8760926 C28.5470942,12.8252573 28.5339597,12.7780705 28.4989344,12.7367212 C28.4716925,12.7038849 28.4349646,12.6815077 28.393372,12.6725081 C28.380724,12.6698326 28.3678328,12.66813 28.354455,12.6683732 L27.2363212,12.6591304 L27.2316998,13.1978875 Z M13.2488239,12.5435884 C13.1933672,12.5431091 13.1396131,12.5674322 13.1028852,12.6099977 C13.0678599,12.6506173 13.0537524,12.6970745 13.0617791,12.7483963 C13.2514994,13.9803623 13.7887972,15.1216032 14.6048379,16.0536652 C14.435549,15.0997124 14.354553,14.1083019 14.3628228,13.0918387 L14.367201,12.5528384 L13.2488239,12.5435884 Z M16.0751706,13.1061894 C16.0557121,15.4616404 16.5750107,17.6679907 17.5374766,19.3183145 C18.289061,20.6071967 19.2128532,21.401833 20.2091282,21.6173359 C20.3798765,21.6545502 20.5545165,21.6740087 20.7274539,21.6755582 C21.9029904,21.6854406 23.0493391,20.8669676 23.9546457,19.3713389 C24.9443535,17.7368251 25.5001368,15.5392312 25.519352,13.1837801 L25.536135,11.1399083 L16.0919535,11.0620743 L16.0751706,13.1061894 Z M14.9412266,31.2792092 C14.5471921,31.1938351 14.2635845,30.8389607 14.2669897,30.4351969 L14.2764757,29.2720653 C14.2847456,28.2582776 15.1161099,27.4407775 16.1298976,27.4485609 L16.6769246,27.4531823 L16.6922481,25.5642487 C16.6956534,25.1714303 16.9622348,24.8347983 17.3426484,24.7409111 L17.3672148,24.7348303 C18.2199834,24.5499746 18.8236832,23.800336 18.8404662,22.9448918 C17.7748703,22.4319172 16.817269,21.4813696 16.0586308,20.1810556 C15.8299935,19.7887236 15.6193553,19.3642852 15.4320672,18.916983 C13.2643907,17.6726121 11.7495467,15.4733155 11.3693763,13.0096266 C11.2849751,12.4633293 11.4450212,11.9094918 11.807679,11.489918 C12.1734987,11.0669389 12.703986,10.8268697 13.2631745,10.8314911 L14.3813084,10.8407339 L14.3820381,10.7414955 C14.3888486,9.9665609 15.024655,9.34121346 15.7998328,9.34725027 L25.8567137,9.43023608 C25.9527901,9.43096578 26.0491096,9.44191118 26.1427536,9.46209937 C26.7904784,9.60220055 27.2565094,10.1847393 27.250915,10.8477876 L27.2501853,10.9467827 L28.3683192,10.9560255 C28.4984479,10.9569984 28.6290631,10.9715923 28.7557865,10.9988342 C29.1668473,11.0878568 29.542153,11.3150347 29.8126262,11.6385322 C30.1684734,12.0639436 30.3190335,12.6202134 30.2261192,13.1650513 C29.8055724,15.6219298 28.2547302,17.7956871 26.0668655,19.0047894 C25.8717941,19.4489296 25.6545886,19.8702061 25.419384,20.2581599 C24.6517463,21.5261242 23.6936586,22.453808 22.6375486,22.9541346 C22.629522,23.8197945 23.22179,24.5891348 24.0820988,24.7898005 L24.1122595,24.7983136 C24.4921866,24.9050921 24.7468497,25.2424538 24.7439309,25.6308941 L24.7283641,27.5195844 L25.2746614,27.5239626 C25.4011417,27.5249355 25.526649,27.5390429 25.6489943,27.5655551 C26.4959254,27.7487082 27.1052195,28.5109948 27.0981658,29.3778709 L27.0886798,30.5410025 C27.086734,30.7693966 26.9960087,30.9839265 26.8330438,31.1442159 C26.6698357,31.3045053 26.4543328,31.3918253 26.2254522,31.3901471 L15.1156234,31.2984245 C15.0572479,31.2976948 14.998386,31.291614 14.9412266,31.2792092 L14.9412266,31.2792092 Z" id="Fill-5" fill="#FCF104"></path>
                <path d="M13.472746,12.9208419 L13.9282058,12.9252123 L13.9271795,13.0990558 C13.9236902,13.6108744 13.938879,14.1163803 13.972746,14.6146022 C13.7379348,14.0848165 13.5690104,13.5149691 13.472746,12.9208419 L13.472746,12.9208419 Z M27.5740231,13.0371419 L28.033323,13.0415123 C27.9279676,13.6336971 27.7495464,14.2001453 27.505511,14.7253178 C27.546701,14.2278243 27.5692624,13.7225612 27.5727812,13.2107426 L27.5740231,13.0371419 Z M26.2101823,9.12274922 L26.2101823,9.12274922 C26.092668,9.09725541 25.9717545,9.08365871 25.8505981,9.08268752 L15.8113782,9.00006693 C15.3398641,8.99600856 14.8945722,9.17665042 14.5575683,9.50782716 C14.2849059,9.77611917 14.1100912,10.1172506 14.051334,10.4877607 L13.2794786,10.4816907 C12.6144543,10.4761064 11.9834218,10.7613943 11.5483274,11.2647149 C11.1161466,11.7643936 10.9257928,12.4243191 11.0263113,13.0755039 C11.4160024,15.6027903 12.9514582,17.8629988 15.1536379,19.1707099 C15.3342797,19.5902651 15.5353166,19.989911 15.7523782,20.3621206 C16.4929127,21.6312268 17.4213731,22.5854237 18.4593354,23.1494439 C18.3590597,23.7423571 17.9072123,24.2359659 17.2960892,24.3682909 L17.2572415,24.3767888 L17.2404884,24.3823732 C16.7085175,24.5246529 16.3399499,24.9983522 16.3355795,25.5492613 L16.322954,27.0706348 L16.1413409,27.069178 C15.5547405,27.0643221 15.0004322,27.2889104 14.5811197,27.700939 C14.16205,28.1134531 13.928721,28.6636338 13.9241078,29.2504771 L13.9141531,30.4117808 C13.9097827,30.9862414 14.3135561,31.4915044 14.8749055,31.6129035 C14.9560001,31.630385 15.0397655,31.6396113 15.1230453,31.6405825 L26.2130959,31.7319174 C26.8849185,31.737459 27.4363132,31.1950478 27.4416548,30.5232252 L27.4511239,29.3616786 C27.4598646,28.3251731 26.7304988,27.4134659 25.7177875,27.1939763 C25.5711374,27.1624126 25.4206025,27.1454167 25.2700677,27.1446883 L25.0884546,27.1427459 L25.1010801,25.6216152 C25.1056933,25.0612369 24.7334836,24.5756406 24.1932576,24.4336036 L24.1905869,24.4328752 L24.1718914,24.4280192 L24.1655786,24.4263197 L24.1590231,24.4248629 C23.5396449,24.2801551 23.0936246,23.7688221 23.0120444,23.1640118 C24.04248,22.6143167 24.9723971,21.6831856 25.7226435,20.4441864 C25.945775,20.0758615 26.1533675,19.6791293 26.3410505,19.2624876 C28.5643536,17.991439 30.1369576,15.75721 30.5681672,13.2362363 C30.6793687,12.5872367 30.4999409,11.9241548 30.0760152,11.4171922 C29.7545504,11.0330854 29.3078017,10.762851 28.8188061,10.656991 C28.6675429,10.6244561 28.5126376,10.6069746 28.3579752,10.6057606 L27.5858769,10.5994479 C27.4817165,9.8802796 26.9368773,9.27983965 26.2101823,9.12274922 L26.2101823,9.12274922 Z M15.145752,17.1474725 C14.8246749,15.8914774 14.6609655,14.5196676 14.6722396,13.1048825 L14.6795208,12.2028872 L13.2472399,12.1907249 C13.0898722,12.1892905 12.9400205,12.2592163 12.8366746,12.3828006 C12.7349728,12.5044425 12.6917554,12.657891 12.7150082,12.8147386 C12.9700848,14.5225811 13.8534578,16.0738188 15.145752,17.1474725 L15.145752,17.1474725 Z M26.300018,17.2387653 C27.6108715,16.1872063 28.5196516,14.6510221 28.8020435,12.9480355 C28.8276728,12.7914307 28.7869952,12.6372538 28.6870646,12.5141552 C28.6094715,12.4182499 28.5043681,12.35318 28.3886838,12.3274433 C28.3529439,12.319431 28.3164987,12.3153034 28.279348,12.3148178 L26.8455212,12.3026779 L26.8384672,13.2046732 C26.8269458,14.6197011 26.6414277,15.9881118 26.300018,17.2387653 L26.300018,17.2387653 Z M20.1132748,21.9684735 C20.307373,22.0107204 20.5041302,22.0330578 20.7018542,22.0348536 C22.0034968,22.0454405 23.2538956,21.1660254 24.2226948,19.5589441 C25.2393539,17.8722251 25.8102879,15.6125022 25.8301087,13.196903 L25.849446,10.850744 C25.849446,10.8225794 25.829867,10.7990279 25.8035199,10.7932008 C25.7994107,10.7924724 25.7953015,10.791744 25.7914341,10.791744 L15.7971873,10.7091909 C15.765039,10.7089498 15.7386919,10.7349292 15.7386919,10.7672214 L15.7191129,13.1131376 C15.6992921,15.5289796 16.2330019,17.797686 17.222347,19.5009154 C18.0212196,20.8770956 19.0311106,21.733202 20.1132748,21.9684735 L20.1132748,21.9684735 Z M26.050713,9.83463363 C26.5215596,9.93636607 26.8737237,10.3583493 26.8695977,10.8589992 L26.8659571,11.3220154 L28.3454831,11.3341553 C28.4517876,11.3351265 28.5563932,11.3470236 28.6580864,11.3691182 C28.9888925,11.4405009 29.2888751,11.6201716 29.5102215,11.8848216 C29.7968554,12.2274099 29.9182076,12.6751297 29.8432119,13.1136233 C29.4347404,15.5020292 27.9127412,17.6027192 25.767477,18.7443563 C25.5687021,19.2119856 25.3439578,19.6548496 25.0944577,20.0668781 C24.3090663,21.3643917 23.3416466,22.262745 22.2812711,22.7036665 C22.1516669,23.8132543 22.8778385,24.8742824 23.9884538,25.1340765 C23.9906381,25.1345621 23.9923371,25.1350477 23.9942787,25.1357761 C24.2102856,25.1887061 24.3694997,25.3839158 24.3678008,25.6157881 L24.3491125,27.8653134 L25.2585259,27.8728402 C25.3611899,27.8735686 25.4614268,27.8847373 25.5580231,27.9058607 C26.2244894,28.0503257 26.7232469,28.6476092 26.7171793,29.3560944 L26.7077138,30.5171554 C26.7052868,30.7878753 26.4839404,31.0056653 26.213325,31.0034964 L15.1278017,30.912188 C15.0933377,30.9117024 15.0598445,30.9080605 15.0275648,30.9010193 C14.8052475,30.8529453 14.6394804,30.6540935 14.6414221,30.4176081 L14.6511303,29.2565471 C14.6576833,28.4453583 15.3226933,27.7910172 16.1338114,27.7978155 L17.0432248,27.8050995 L17.061913,25.5555742 C17.063612,25.3237019 17.2254958,25.1316485 17.4417454,25.0818749 C17.4441724,25.0813893 17.4458714,25.0806609 17.4480557,25.0804181 C18.5545451,24.8402907 19.2967351,23.8018428 19.1964982,22.698325 C18.1244729,22.2474487 17.1551115,21.3248156 16.3799137,19.9952526 C16.1372093,19.5788537 15.9199888,19.1325906 15.7284951,18.6615621 C13.6026473,17.4849621 12.1153547,15.3595066 11.7462013,12.9643024 C11.6782441,12.5248377 11.8071201,12.0790602 12.0990935,11.7410851 C12.3942221,11.3999536 12.8221099,11.2062006 13.272812,11.2098426 L14.7528234,11.2222253 L14.7567067,10.7589664 C14.761318,10.1862054 15.2311938,9.72367485 15.8039761,9.72849293 L25.8390748,9.8110822 C25.9118861,9.8118106 25.9822704,9.81982294 26.050713,9.83463363 L26.050713,9.83463363 Z" id="Fill-7" fill="#D725B6"></path>
                <path d="M23.8296375,14.9532939 C23.7720856,14.7705936 23.6154465,14.6367581 23.4259594,14.6074392 L21.9087053,14.3742452 L21.2403425,12.9916409 C21.1567292,12.818985 20.982716,12.7084961 20.7913286,12.7073919 C20.5993983,12.7057814 20.4234848,12.8130126 20.3371568,12.9843111 L19.6462619,14.3555137 L18.1249356,14.5637323 C17.9354485,14.5897936 17.7766377,14.7214572 17.7158281,14.9028002 C17.6550185,15.0846861 17.7027975,15.285575 17.8390762,15.4204963 L18.9298486,16.5009529 L18.6578342,18.0125061 C18.6236288,18.2006359 18.6996408,18.3922947 18.8538366,18.5063128 C19.0080324,18.6203308 19.2135363,18.6368906 19.3837489,18.5492053 L20.7487076,17.8458226 L22.101993,18.5714659 C22.1752903,18.6108293 22.2556458,18.6303752 22.3357299,18.6312051 C22.439975,18.6320041 22.54422,18.6005134 22.6324483,18.537532 C22.7882729,18.4259572 22.8675426,18.2359272 22.8365948,18.0467115 L22.5898272,16.5313577 L23.6979739,15.4685468 C23.8361529,15.3357972 23.8877324,15.1362657 23.8296375,14.9532939" id="Fill-10" fill="#FCF104"></path>
                <polygon id="Fill-12" fill="#D725B6" points="17.744104 27.2881908 23.744539 27.2881908 23.744539 25.1062139 17.744104 25.1062139"></polygon>
            </g>
        </g>
    </g>
</svg>